<?xml version="1.0" encoding="utf-8"?>
<!-- Generator: Adobe Illustrator 18.1.0, SVG Export Plug-In . SVG Version: 6.00 Build 0)  -->
<!DOCTYPE svg PUBLIC "-//W3C//DTD SVG 1.1//EN" "http://www.w3.org/Graphics/SVG/1.1/DTD/svg11.dtd">
<svg version="1.1" xmlns="http://www.w3.org/2000/svg" xmlns:xlink="http://www.w3.org/1999/xlink" x="0px" y="0px"
	 viewBox="0 0 128 128" enable-background="new 0 0 128 128" xml:space="preserve">
<g id="toolbar" display="none">
	<rect x="0" y="0" fill="#FF00ED" width="128" height="128"/>
	<polygon fill="#888888" points="34.7,1.8 35.1,108.8 57.8,84.2 79.8,126.9 95.8,117.9 73.9,75.5 109.8,74.6 	"/>
	<g>
		<path display="inline" fill="#888888" d="M126.1,108.6c0,0-13.8-67.3-74.5-67.3V14.5l-50,44.6l50,46.3V75.3
			C84.5,75.3,108.9,78.2,126.1,108.6L126.1,108.6z M126.1,108.6"/>
	</g>
	<g>
		<path display="inline" fill="#888888" d="M1.6,108.6c17.2-30.4,41.6-33.3,74.5-33.3v30.1l50-46.3l-50-44.6v26.7
			C15.5,41.2,1.6,108.6,1.6,108.6L1.6,108.6z M1.6,108.6"/>
	</g>
	<g>
		<path display="inline" fill="#888888" d="M48,80h37.3v0H88V48H112v39.9h8V40h-8v0H88V8h-8v0H32.1v8H80v24H48v0h-8v32H16.1V32h-8
			v47.9h5.3v0H40v32h0.8v0.1H96v-8H48V80z M48,48h32V72H48V48z"/>
		<rect display="inline" fill="#888888" width="24" height="23.8"/>
		<rect x="104" display="inline" fill="#888888" width="24" height="23.8"/>
		<rect y="96" display="inline" fill="#888888" width="24" height="23.8"/>
		<rect x="104" y="96" display="inline" fill="#888888" width="24" height="23.8"/>
	</g>
	<g>
		<rect x="111.3" y="0.2" display="inline" fill="#888888" width="8" height="128"/>
		<path display="inline" fill="#888888" d="M97.8,72.3h-2.6H16H8.2H8v39.8h0.2H16h79.2h2.6h5.4V72.3H97.8z M95.6,80.1v24H16v-24
			H95.6z"/>
		<rect x="42.8" y="16.2" display="inline" fill="#888888" width="60.5" height="39.8"/>
	</g>
	<path fill="#888888" d="M60.1,0v16h-24v39.9h24v16.1H20.2v8h0v23.9h0v8h39.9V128h8v-16.1h40.1v-1.1h0V75h0v-3H68.1V55.9h24V16h-24
		V0L60.1,0z M100.2,80.1v23.9h-72V80.1H100.2z"/>
	<g>
		<rect x="8.4" display="inline" fill="#888888" width="8" height="128"/>
		<path display="inline" fill="#888888" d="M29.8,111.9h2.6h79.2h7.8h0.2V72h-0.2h-7.8H32.5h-2.6h-5.4v39.8H29.8z M32.1,104.1v-24
			h79.5v24H32.1z"/>
		<rect x="24.4" y="16.2" display="inline" fill="#888888" width="60.5" height="39.8"/>
	</g>
	<g>
		<rect y="111.8" display="inline" fill="#888888" width="128" height="8"/>
		<path display="inline" fill="#888888" d="M55.9,98.4v-2.6V16.5V8.7V8.5H16v0.2v7.8v79.2v2.6v5.4h39.8V98.4z M48.1,96.1h-24V16.5
			h24V96.1z"/>
		<rect x="72.2" y="43.3" display="inline" fill="#888888" width="39.8" height="60.5"/>
	</g>
	<path fill="#888888" d="M128,60.3h-16v-24H72.1v24H55.9V20.3h-8v0H24.1v0h-8v39.9H0v8h16.1v40.1h1.1v0H53v0h3V68.3h16.1v24H112v-24
		h16V60.3z M47.9,100.4H24.1v-72h23.9V100.4z"/>
	<g>
		<rect y="8.5" display="inline" fill="#888888" width="128" height="8"/>
		<path display="inline" fill="#888888" d="M16.1,30v2.6v79.2v7.8v0.2H56v-0.2v-7.8V32.6V30v-5.4H16.1V30z M23.9,32.3h24v79.5h-24
			V32.3z"/>
		<rect x="72" y="24.5" display="inline" fill="#888888" width="39.8" height="60.5"/>
	</g>
	<g display="inline">
		<rect fill="#888888" width="93.8" height="93.8"/>
		<polygon fill="#888888" points="127.9,34.3 127.9,34.1 102.5,34.1 102.5,42.6 119.5,42.6 119.5,119.5 42.8,119.5 42.8,102.5 
			34.1,102.5 34.2,128 127.9,128 127.9,127.9 128,127.9 128,34.3 		"/>
	</g>
	<g>
		<polygon display="inline" fill="#888888" points="93.7,0 0,0 0,18.5 0,25.5 0,93.7 25.6,93.7 25.6,25.5 93.7,25.5 		"/>
		<path display="inline" fill="#888888" d="M34,34.1v93.7h0v0.1h93.8v-0.1h0.1V34.1H34z M119.5,119.4H42.6V42.7h76.9V119.4z"/>
	</g>
	<g>
		<polygon display="inline" fill="#888888" points="24,60.3 16,60.3 16,22.5 24,22.5 24,15.2 67.7,15.2 67.7,22.5 75.7,22.5 
			75.7,37.6 83.7,37.6 83.7,22.5 91.7,22.5 91.7,0 67.7,0 67.7,7.2 24,7.2 24,0 0,0 0,22.5 8,22.5 8,60.3 0,60.3 0,82.8 24,82.8 
			24,75.5 30,75.5 30,67.5 24,67.5 		"/>
		<path display="inline" fill="#888888" d="M121.8,60.1V37.6h-24v7.3H54.1v-7.3h-24v22.5h8V98h-8v22.5h24v-7.3h43.7v7.3h24V98h-8
			V60.1H121.8z M105.8,98h-8v7.3H54.1V98h-8V60.1h8v-7.3h43.7v7.3h8V98z"/>
	</g>
	<g>
		<path display="inline" fill="#888888" d="M64.4,0.4c-35.4,0-64,25.1-64,56c0,17.7,9.4,33.4,24,43.7v28.3l28-17c3.9,0.6,7.9,1,12,1
			c35.3,0,64-25.1,64-56C128.4,25.5,99.8,0.4,64.4,0.4z M64.4,104.4c-4.7,0-9.2-0.5-13.5-1.5L32,114.3l0.3-18.6
			C17.9,87,8.4,72.7,8.4,56.4c0-26.5,25.1-48,56-48c30.9,0,56,21.5,56,48C120.4,82.9,95.3,104.4,64.4,104.4z"/>
		<rect x="34.8" y="45.5" display="inline" fill="#888888" width="59.3" height="8"/>
		<rect x="40.4" y="66.4" display="inline" fill="#888888" width="48.1" height="8.4"/>
	</g>
	<g>
		<polygon display="inline" fill="#888888" points="98.3,26.3 98.3,21.4 89,21.4 89,16.8 84,16.8 84,12 75,12 75,12 70,12 70,60.2 
			75,60.2 75,17 84,17 84,65 89,65 89,26.4 98.3,26.4 98.3,88.7 103.3,88.7 103.3,26.3 		"/>
		<polygon display="inline" fill="#888888" points="88.3,113 50.2,113 50.2,103.3 45.3,103.3 45.3,93.8 40.5,93.8 40.5,84.2 
			35.5,84.2 35.5,93.8 40.3,93.8 40.3,103.7 45.2,103.7 45.2,118 48.9,118 50.2,118 88.3,118 88.9,118 93.3,118 93.3,103.3 
			88.3,103.3 		"/>
		<polygon display="inline" fill="#888888" points="55.2,60.2 60.2,60.2 60.2,12 69.8,12 69.8,7 60.2,7 60.2,7 55.2,7 55.2,11.7 
			45.3,11.7 45.3,16.7 55.2,16.7 		"/>
		<rect x="30.6" y="74.4" display="inline" fill="#888888" width="5" height="9.7"/>
		<rect x="25.7" y="69.8" display="inline" fill="#888888" width="5" height="4.5"/>
		<rect x="93.3" y="88.7" display="inline" fill="#888888" width="5" height="14.7"/>
		<polygon display="inline" fill="#888888" points="34.8,60 34.8,65.7 40.3,65.7 40.3,74.3 45.3,74.3 45.3,16.8 40.3,16.8 
			40.3,59.8 34.8,59.8 34.8,55 25.7,55 25.7,55 20.7,55 20.7,69.8 25.7,69.8 25.7,60 		"/>
	</g>
	<polygon fill="#888888" points="94.9,33.2 94.9,28.2 84.9,28.2 81.2,28.2 80.1,28.2 80.1,23.3 66.5,23.3 66.5,23.3 65.9,23.3 
		65.9,18.3 56,18.3 52.2,18.3 51.1,18.3 51.1,23.5 41.9,23.5 41.9,23.5 36.9,23.5 36.9,37.8 32.2,37.8 32.2,42.7 27.2,42.7 
		27.2,71.1 32,71.1 32,81 36.9,81 36.9,90.8 41.7,90.8 41.7,104.8 46.7,104.8 46.7,104.8 84.7,104.8 84.7,104.8 89.7,104.8 
		89.7,90.7 94.5,90.7 94.5,76.6 89.5,76.6 89.5,90.7 84.7,90.7 84.7,99.8 46.7,99.8 46.7,90.7 41.9,90.7 41.9,81 37,81 37,71.1 
		32.2,71.1 32.2,42.8 36.9,42.8 36.9,62.2 41.9,62.2 41.9,28.5 51.1,28.5 51.1,43.1 56,43.1 56,23.3 65.4,23.3 65.4,43 70.4,43 
		70.4,28.3 79.9,28.3 79.9,47.5 84.9,47.5 84.9,33.2 94.7,33.2 94.7,76.6 99.7,76.6 99.7,33.2 	"/>
	<g>
		<path display="inline" fill="#888888" d="M99,79.7V63.7H59.1V47.8H99V31.9l23.9,23.9L99,79.7z M91,71.7v31.9H51.1v23.9L3.3,103.6
			V0H91v39.8h-8V8H19.3l31.9,15.9v71.7H83V71.7H91z M91,71.7"/>
	</g>
	<g>
		<path display="inline" fill="#888888" d="M79.8,89.7c-3.2-0.5-3.2-9.2-3.2-9.2s9.3-9.2,11.3-21.5c5.4,0,8.8-13.1,3.4-17.8
			c0.2-4.9,7-38.2-27.3-38.2c-34.3,0-27.5,33.3-27.3,38.2C31.3,45.9,34.7,59,40.1,59c2,12.4,11.3,21.5,11.3,21.5s-0.1,8.7-3.2,9.2
			C38,91.4,0,108.1,0,126.5h128C128,108.1,90,91.4,79.8,89.7L79.8,89.7z M79.8,89.7"/>
	</g>
</g>
<g id="Element_Tool" display="none">
	<path display="inline" fill="#888888" d="M0,0v128h128V0H0z M118,118H10V10h108V118z"/>
	<path fill="#888888" d="M64,0C28.6,0,0,28.6,0,64s28.7,64,64,64s64-28.7,64-64S99.3,0,64,0z M64,117.8c-29.7,0-53.8-24.1-53.8-53.8
		c0-29.7,24.1-53.8,53.8-53.8s53.8,24.1,53.8,53.8C117.8,93.7,93.7,117.8,64,117.8z"/>
	
		<rect x="59.6" y="-13.6" transform="matrix(0.7071 0.7071 -0.7071 0.7071 64.2371 -26.9292)" fill="#888888" width="10" height="155.3"/>
	<g>
		<path display="inline" fill="#888888" d="M65.1,0C41.8,0,22.8,19,22.8,42.3c0,9.4,6,24.7,18.4,46.9c8.7,15.7,17.3,28.7,17.7,29.3
			l6.3,9.5l6.3-9.5c0.4-0.5,9-13.6,17.7-29.3c12.4-22.1,18.4-37.5,18.4-46.9C107.5,19,88.5,0,65.1,0L65.1,0z M65.1,64
			C53,64,43.2,54.2,43.2,42c0-12.1,9.8-21.9,21.9-21.9c12.1,0,21.9,9.8,21.9,21.9C87.1,54.2,77.2,64,65.1,64L65.1,64z M65.1,64"/>
	</g>
	<g>
		<path display="inline" fill="#888888" d="M8.7,0v32.8h8.4l2-14.2h36.3v100H42.8v9.3h44.1v-9.3H74.2v-100h36.3l2,14.2h8.5V0H8.7z
			 M8.7,0"/>
	</g>
	<g>
		<path display="inline" fill="#888888" d="M0,0v128h128V0H0z M118,10v74.5L94.1,60.6L70.9,77.8L38.2,44.8L10,78V10H118z"/>
		<path display="inline" fill="#888888" d="M76.6,45.7c5.6,0,10.2-4.6,10.2-10.2c0-5.6-4.6-10.2-10.2-10.2
			c-5.6,0-10.2,4.6-10.2,10.2C66.4,41.1,71,45.7,76.6,45.7z"/>
	</g>
	<polygon fill="#888888" points="128,118.8 57.9,48.8 76.9,42.9 54.7,27.2 55.1,0 33.3,16.3 7.5,7.5 16.3,33.3 0,55.1 27.2,54.7 
		42.9,76.9 48.9,57.6 119.1,127.8 	"/>
</g>
<g id="Element_List" display="none">
	<g display="inline">
		<path fill="#888888" d="M0,0v128h128V0H0z M118,118H10V10h108V118z"/>
		<rect x="66.3" y="39.3" fill="#888888" width="46.3" height="46.3"/>
		<polygon fill="#888888" points="18,112.9 85.1,112.9 51.6,79.3 		"/>
		<circle fill="#888888" cx="38.3" cy="38.8" r="23.3"/>
	</g>
</g>
<g id="objectList" display="none">
	<g display="inline">
		<path fill="#888888" d="M63.5,37.1C53.3,37.1,45,28.8,45,18.6C45,8.3,53.3,0,63.5,0c10.2,0,18.6,8.3,18.6,18.6
			C82.1,28.8,73.7,37.1,63.5,37.1L63.5,37.1z M63.5,5.3c-7.3,0-13.3,5.9-13.3,13.3c0,7.3,5.9,13.3,13.3,13.3c7.3,0,13.3-6,13.3-13.3
			C76.8,11.2,70.8,5.3,63.5,5.3L63.5,5.3z M63.5,5.3"/>
		<path fill="#888888" d="M18.6,37.1C8.3,37.1,0,28.8,0,18.6C0,8.3,8.3,0,18.6,0c10.2,0,18.6,8.3,18.6,18.6
			C37.1,28.8,28.8,37.1,18.6,37.1L18.6,37.1z M18.6,5.3c-7.3,0-13.3,5.9-13.3,13.3c0,7.3,5.9,13.3,13.3,13.3c7.3,0,13.3-6,13.3-13.3
			C31.8,11.2,25.9,5.3,18.6,5.3L18.6,5.3z M18.6,5.3"/>
		<path fill="#888888" d="M109.4,37.1c-10.2,0-18.6-8.3-18.6-18.6C90.9,8.3,99.2,0,109.4,0C119.7,0,128,8.3,128,18.6
			C128,28.8,119.7,37.1,109.4,37.1L109.4,37.1z M109.4,5.3c-7.3,0-13.3,5.9-13.3,13.3c0,7.3,6,13.3,13.3,13.3
			c7.3,0,13.3-6,13.3-13.3C122.7,11.2,116.8,5.3,109.4,5.3L109.4,5.3z M109.4,5.3"/>
		<path fill="#888888" d="M63.5,81.8C53.3,81.8,45,73.4,45,63.2c0-10.2,8.3-18.6,18.6-18.6c10.2,0,18.6,8.3,18.6,18.6
			C82.1,73.4,73.8,81.8,63.5,81.8L63.5,81.8z M63.5,49.9c-7.3,0-13.3,5.9-13.3,13.3c0,7.3,6,13.3,13.3,13.3
			c7.3,0,13.3-5.9,13.3-13.3C76.8,55.9,70.8,49.9,63.5,49.9L63.5,49.9z M63.5,49.9"/>
		<path fill="#888888" d="M18.6,81.8C8.3,81.8,0,73.4,0,63.2C0,53,8.3,44.6,18.6,44.6c10.2,0,18.6,8.3,18.6,18.6
			C37.1,73.4,28.8,81.8,18.6,81.8L18.6,81.8z M18.6,49.9c-7.3,0-13.3,5.9-13.3,13.3c0,7.3,5.9,13.3,13.3,13.3
			c7.3,0,13.3-5.9,13.3-13.3C31.8,55.9,25.9,49.9,18.6,49.9L18.6,49.9z M18.6,49.9"/>
		<path fill="#888888" d="M109.4,81.8c-10.2,0-18.6-8.3-18.6-18.6c0-10.2,8.3-18.6,18.6-18.6c10.2,0,18.6,8.3,18.6,18.6
			C128,73.4,119.7,81.8,109.4,81.8L109.4,81.8z M109.4,49.9c-7.3,0-13.3,5.9-13.3,13.3c0,7.3,5.9,13.3,13.3,13.3
			c7.3,0,13.3-5.9,13.3-13.3C122.7,55.9,116.8,49.9,109.4,49.9L109.4,49.9z M109.4,49.9"/>
		<path fill="#888888" d="M63.5,126.2c-10.2,0-18.6-8.3-18.6-18.6c0-10.2,8.3-18.6,18.6-18.6c10.2,0,18.6,8.3,18.6,18.6
			C82.1,117.9,73.8,126.2,63.5,126.2L63.5,126.2z M63.5,94.4c-7.3,0-13.3,5.9-13.3,13.3c0,7.3,6,13.3,13.3,13.3
			c7.3,0,13.3-6,13.3-13.3C76.8,100.4,70.8,94.4,63.5,94.4L63.5,94.4z M63.5,94.4"/>
		<path fill="#888888" d="M18.6,126.2C8.3,126.2,0,117.9,0,107.7c0-10.2,8.3-18.6,18.6-18.6c10.2,0,18.6,8.3,18.6,18.6
			C37.1,117.9,28.8,126.2,18.6,126.2L18.6,126.2z M18.6,94.4c-7.3,0-13.3,5.9-13.3,13.3c0,7.3,5.9,13.3,13.3,13.3
			c7.3,0,13.3-6,13.3-13.3C31.8,100.4,25.9,94.4,18.6,94.4L18.6,94.4z M18.6,94.4"/>
		<path fill="#888888" d="M109.4,126.2c-10.2,0-18.6-8.3-18.6-18.6c0-10.2,8.3-18.6,18.6-18.6c10.2,0,18.6,8.3,18.6,18.6
			C128,117.9,119.7,126.2,109.4,126.2L109.4,126.2z M109.4,94.4c-7.3,0-13.3,5.9-13.3,13.3c0,7.3,5.9,13.3,13.3,13.3
			c7.3,0,13.3-6,13.3-13.3C122.7,100.4,116.8,94.4,109.4,94.4L109.4,94.4z M109.4,94.4"/>
	</g>
</g>
<g id="Action" display="none">
	<g display="inline">
		<g>
			<path fill="#888888" d="M127.9,115.4l-10.4-20.9c-0.2-0.4-0.7-0.7-1.2-0.7c-0.5,0-0.9,0.3-1.1,0.8l-2.2,6.5l-10.6-16.5V56.4
				c0-2.3-1.4-4.3-3.5-5.2L68.6,38.5l0-9.3l6.6,1.9c0.5,0.1,1,0,1.3-0.4c0.3-0.4,0.4-0.9,0.1-1.3L65.4,8.9c-0.2-0.4-0.6-0.6-1.1-0.6
				c-0.4,0-0.8,0.2-1.1,0.6L52.1,29.4c-0.2,0.4-0.2,1,0.1,1.3c0.3,0.4,0.8,0.5,1.3,0.4l6.6-1.9l0,9.3L29.6,51.2
				c-2.1,0.9-3.5,2.9-3.5,5.2v36.8l-11.2,7.9l-2.2-6.5c-0.2-0.5-0.6-0.8-1.1-0.8c-0.5,0-0.9,0.2-1.2,0.7L0.1,115.4
				c-0.2,0.4-0.2,0.9,0.1,1.2c0.2,0.4,0.7,0.6,1.1,0.5l23.2-2.6c0.5-0.1,0.9-0.4,1-0.9c0.1-0.5,0-1-0.4-1.3l-5.3-4.3l11.2-7.8
				l30.7,15.6c1.6,0.8,3.5,0.8,5.1,0l30.4-15.4l10.9,7.7l-5.3,4.3c-0.4,0.3-0.5,0.8-0.4,1.3c0.1,0.5,0.5,0.8,1,0.9l23.2,2.6
				c0.4,0,0.9-0.1,1.1-0.5C128,116.2,128.1,115.8,127.9,115.4L127.9,115.4z M34.7,62.4l20.5,10.4L34.7,87.2V62.4z M60,105.3
				L38.9,94.6L60,79.8V105.3z M60,65.1l-19.3-9.4l19.3-8V65.1z M68.6,47.7l19.3,8l-19.3,9.4V47.7z M68.6,105.3V90.2c0,0,0,0,0,0
				v-9.9l20.8,14.6L68.6,105.3z M93.9,87.6L73.1,73l20.8-10.6V87.6z M93.9,87.6"/>
		</g>
	</g>
</g>
<g id="camera" display="none">
	<g display="inline">
		<g>
			<path fill="#888888" d="M65,74.5c12.1,0,22-9.9,22-22s-9.9-22-22-22s-22,9.9-22,22S52.9,74.5,65,74.5L65,74.5z M65,36.6
				c4.7,0,8.5,2.3,8.5,5.1c0,2.8-3.8,5.1-8.5,5.1s-8.5-2.3-8.5-5.1C56.5,38.8,60.3,36.6,65,36.6L65,36.6z M65,36.6"/>
			<path fill="#888888" d="M128,112.1h-26.3c-2.3-5.7-5.6-10.9-8.7-15.1c14.7-9.3,24.5-25.7,24.5-44.5C117.5,23.5,94,0,65,0
				S12.5,23.5,12.5,52.5c0,18.7,9.8,35.1,24.5,44.5c-3.1,4.2-6.3,9.4-8.7,15.1H0V128h128V112.1z M28.7,52.5
				c0-20,16.3-36.3,36.3-36.3c20,0,36.3,16.3,36.3,36.3c0,20-16.3,36.3-36.3,36.3S28.7,72.5,28.7,52.5L28.7,52.5z M28.7,52.5"/>
		</g>
	</g>
	<polygon fill="#888888" points="128,33.3 96.3,51.4 96.3,32.3 0,32.3 0,98.3 96.3,98.3 96.3,79.2 128,97.3 	"/>
	<g>
		<path display="inline" fill="#888888" d="M38,72.6c0,14.4,11.6,26,26,26c14.4,0,26-11.6,26-26c0-14.4-11.6-26-26-26
			C49.6,46.6,38,58.2,38,72.6L38,72.6z M128,28.6H92l-7.7-16H44l-8,16H0c0,0,0,3.6,0,8v72c0,4.4-0.1,8-0.1,8H128c0,0,0-3.6,0-8v-72
			C128,32.2,128,28.6,128,28.6L128,28.6z M64,108.1c-19.6,0-35.5-15.9-35.5-35.5C28.5,53,44.4,37.1,64,37.1
			c19.6,0,35.5,15.9,35.5,35.5C99.5,92.2,83.6,108.1,64,108.1L64,108.1z M120,52.6h-16v-8h16V52.6z M120,52.6"/>
	</g>
	<g>
		<g display="inline">
			<path fill="#888888" d="M126.1,59.9L39.4,16.7c-1.7-0.9-3.8-0.2-4.6,1.5L16.3,55.3c-0.4,0.8-0.5,1.8-0.2,2.6
				c0.3,0.9,0.9,1.6,1.7,2l25.9,12.9l-2.3,4.6c-0.9,1.7-0.2,3.8,1.5,4.6l0.8,0.4l-4.5,7.9H13.1c-2.4-4.7-7.4-8-13.1-8v29.4
				c5.6,0,10.4-3.1,12.9-7.6h30.5c2.5,0,4.8-1.3,6-3.5l6.8-12.1l1.2,0.6c1.7,0.9,3.8,0.2,4.6-1.5l2.3-4.6l19.3,9.6
				c1.1,0.6,2.4,0.5,3.5-0.2l5.3-3.6l9.5,4.8c0.5,0.2,1,0.4,1.5,0.4c0.4,0,0.7-0.1,1.1-0.2c0.9-0.3,1.6-0.9,2-1.7l9.8-19.6l10.1-6.7
				c1-0.7,1.6-1.9,1.5-3.1C127.9,61.6,127.2,60.5,126.1,59.9L126.1,59.9z M126.1,59.9"/>
		</g>
	</g>
	<g>
		<path display="inline" fill="#888888" d="M85.2,3.7C78.5,1.3,71.4,0,64,0c-6,0-11.8,0.9-17.3,2.4l0,39.7L85.2,3.7z"/>
		<path display="inline" fill="#888888" d="M121.7,36.5C116.1,24.7,107,15,95.8,8.5l-28,28H121.7z"/>
		<path display="inline" fill="#888888" d="M64,128c6.1,0,11.9-0.9,17.5-2.5V87.6l-37.2,37.2C50.5,126.9,57.1,128,64,128z"/>
		<path display="inline" fill="#888888" d="M7.1,93.2c5.9,11.4,15,20.8,26.3,27l27-27H7.1z"/>
		<path display="inline" fill="#888888" d="M3.2,43.6C1.1,49.9,0,56.6,0,63.5C0,69.8,1,76,2.7,81.8h38.7L3.2,43.6z"/>
		<path display="inline" fill="#888888" d="M35.7,6.6C23.9,12.5,14.2,21.8,7.9,33.3l27.9,27.9V6.6z"/>
		<path display="inline" fill="#888888" d="M92.5,119.7c11.4-5.7,20.8-14.6,27.1-25.6L92.5,67V119.7z"/>
		<path display="inline" fill="#888888" d="M125.8,46H86.9l37.5,37.5c2.3-6.6,3.6-13.6,3.6-20.9C128,56.8,127.2,51.2,125.8,46z"/>
	</g>
	<path fill="#888888" d="M95.3,45V31.9H91v0H0v8h0.1v49.8H0v8h87.3H91h4.3V84.9l32.7,18.6V93.3v-0.1v-57v-0.6v-9.8L95.3,45z
		 M120,88.7L87.3,70.1l0,7.8h0v11.8H8.1V39.9h79.2v9.8l0,0v10.5L120,41V88.7z"/>
</g>
<g id="properties" display="none">
	<g display="inline">
		<g>
			<path fill-rule="evenodd" clip-rule="evenodd" fill="#888888" d="M127.6,56.9c-0.2-1.8-2.3-3.2-4.1-3.2c-5.9,0-11.1-3.4-13.3-8.8
				c-2.2-5.5-0.8-11.8,3.6-15.8c1.4-1.3,1.5-3.4,0.4-4.8c-3-3.8-6.4-7.3-10.1-10.2c-1.5-1.2-3.6-1-4.9,0.4c-3.8,4.2-10.7,5.8-16,3.6
				c-5.5-2.3-9-7.9-8.6-13.9c0.1-1.9-1.3-3.5-3.1-3.7c-4.8-0.6-9.6-0.6-14.4,0c-1.9,0.2-3.2,1.8-3.2,3.7c0.2,5.9-3.3,11.4-8.8,13.7
				c-5.2,2.1-12,0.6-15.8-3.6c-1.3-1.4-3.4-1.5-4.8-0.4c-3.8,3-7.3,6.5-10.4,10.2c-1.2,1.5-1,3.6,0.4,4.9c4.5,4,5.9,10.5,3.6,16
				c-2.2,5.3-7.7,8.7-13.9,8.7c-2-0.1-3.5,1.3-3.7,3.1c-0.6,4.8-0.6,9.7,0,14.6c0.2,1.8,2.4,3.1,4.2,3.1c5.6-0.1,10.9,3.3,13.2,8.8
				c2.2,5.5,0.8,11.8-3.6,15.8c-1.4,1.3-1.5,3.4-0.4,4.8c3,3.8,6.4,7.2,10.1,10.2c1.5,1.2,3.6,1,4.9-0.4c3.8-4.2,10.7-5.8,16-3.6
				c5.5,2.3,9,7.9,8.7,13.9c-0.1,1.9,1.3,3.5,3.1,3.7c2.4,0.3,4.9,0.4,7.4,0.4c2.3,0,4.7-0.1,7-0.4c1.9-0.2,3.2-1.8,3.2-3.7
				c-0.2-5.9,3.3-11.4,8.8-13.6c5.3-2.2,12-0.6,15.9,3.6c1.3,1.4,3.4,1.5,4.8,0.4c3.8-3,7.3-6.4,10.4-10.2c1.2-1.5,1-3.6-0.4-4.9
				c-4.5-4-5.9-10.5-3.6-16c2.2-5.2,7.4-8.7,13.1-8.7l0.8,0c1.8,0.1,3.5-1.3,3.7-3.1C128.1,66.6,128.1,61.7,127.6,56.9L127.6,56.9z
				 M64.1,85.5c-11.8,0-21.3-9.6-21.3-21.3c0-11.8,9.6-21.3,21.3-21.3c11.8,0,21.3,9.6,21.3,21.3C85.4,75.9,75.9,85.5,64.1,85.5
				L64.1,85.5z M64.1,85.5"/>
		</g>
	</g>
</g>
<g id="Line" display="none">
	<rect y="56.5" display="inline" fill="#888888" width="128" height="15"/>
	<polygon fill="#888888" points="128,56.5 28.8,56.5 48.1,37.3 37.5,26.7 0,64.1 0.1,64.2 0,64.3 37.5,101.8 48.1,91.2 28.4,71.5 
		128,71.5 	"/>
	<polygon fill="#888888" points="128,56.5 38,56.5 38,26.1 0,64 38,102 38,71.5 128,71.5 	"/>
	<path fill="#888888" d="M128,56.6H54c-3.3-11.5-13.9-20-26.5-20C12.3,36.6,0,48.9,0,64.1c0,15.2,12.3,27.5,27.5,27.5
		c12.6,0,23.2-8.5,26.5-20h74V56.6z"/>
	<polygon fill="#888888" points="128,56.7 53.8,56.7 30.7,33.6 0,64.2 30.7,94.9 53.8,71.7 128,71.7 	"/>
</g>
<g id="text" display="none">
	<g display="inline">
		<path fill="#888888" d="M0,21.5h128v8H0V21.5z M0,37.5h88v8H0V37.5z M0,53.5h128v8H0V53.5z M0,69.5h88v8H0V69.5z M0,85.5h128v8H0
			V85.5z M0,101.5h88v8H0V101.5z M0,101.5"/>
	</g>
	<g>
		<path display="inline" fill="#888888" d="M0,21.5h128v8H0V21.5z M40,37.5h88v8H40V37.5z M0,53.5h128v8H0V53.5z M40,69.5h88v8H40
			V69.5z M0,85.5h128v8H0V85.5z M40,101.5h88v8H40V101.5z M40,101.5"/>
	</g>
	<g>
		<path display="inline" fill="#888888" d="M0,21.5h128v8H0V21.5z M24,37.5h80v8H24V37.5z M24,69.5h80v8H24V69.5z M24,101.5h80v8H24
			V101.5z M0,53.5h128v8H0V53.5z M0,85.5h128v8H0V85.5z M0,85.5"/>
	</g>
	<g>
		<rect display="inline" fill="#888888" width="128" height="8"/>
		<polygon display="inline" fill="#888888" points="64.1,8.1 64,8.1 29.8,42.3 35.5,48 59.8,23.6 59.8,120.2 67.8,120.2 67.8,23.1 
			92.7,48 98.4,42.3 64.1,8.1 		"/>
	</g>
	<polygon fill="#888888" points="64.2,120 98.3,85.9 92.6,80.3 68.3,104.6 68.3,8.1 60.3,8.1 60.3,105.1 35.4,80.3 29.7,85.9 
		63.8,120 0,120 0,128 128,128 128,120 	"/>
	<g>
		<rect y="60" display="inline" fill="#888888" width="128" height="8"/>
		<polygon display="inline" fill="#888888" points="63.7,58.9 63.7,58.9 91,31.6 85.3,26 67.7,43.6 67.7,0 59.7,0 59.7,43.6 42,26 
			36.4,31.6 63.6,58.9 		"/>
		<polygon display="inline" fill="#888888" points="63.7,69.1 63.6,69.1 36.4,96.4 42,102 59.7,84.4 59.7,128 67.7,128 67.7,84.4 
			85.3,102 91,96.4 63.7,69.1 		"/>
	</g>
	<g>
		<path display="inline" fill="#888888" d="M118,0v2.9h-2.2c-3,0-5.5,0.6-7.5,1.8c-2,1.2-3.4,3-4.3,5.4c-0.7,1.7-1,4.7-1,9v40.5
			c0,12.5-0.8,21.6-2.5,27.2c-1.6,5.5-5.7,10.7-12.1,15.3c-6.4,4.7-15.1,7-26.2,7c-9.2,0-16.4-1.2-21.4-3.7
			c-6.9-3.3-11.7-7.6-14.6-12.9C23.5,87.3,22,80.3,22,71.4V19.2c0-6.1-0.3-10-1-11.4c-0.7-1.5-1.9-2.7-3.5-3.6
			c-1.7-0.9-4.8-1.3-9.3-1.3V0h55.1v2.9h-2.8c-4.1,0-7,0.4-8.5,1.3c-1.5,0.9-2.6,2-3.3,3.6c-0.6,1.5-1,5.3-1,11.4v52.2
			c0,9.6,0.7,15.9,2.2,19c1.4,3.1,3.8,5.7,7.1,7.7c3.3,2.1,7.5,3.1,12.5,3.1c5.8,0,10.7-1.3,14.7-3.9c4.1-2.6,7.1-6.2,9.1-10.7
			c2-4.6,3-12.5,3-23.9V19.2c0-4.8-0.5-8.2-1.5-10.2c-1-2-2.2-3.5-3.8-4.3c-2.4-1.2-5.7-1.8-10-1.8V0H118z M17.6,128h91.1v-7.9H17.6
			V128z M17.6,128"/>
	</g>
	<g>
		<path display="inline" fill="#888888" d="M119,0v9.1h-18.3L55,118.9h18.3v9.1h-64v-9.1h18.3L73.2,9.1H55V0H119z M119,0"/>
	</g>
	<g>
		<path display="inline" fill="#888888" d="M96.4,61.8L96.4,61.8c10.7-4.8,16.6-13.5,16.6-24.7C113.1,13.2,98,0,70.7,0L14.3,0l0,128
			h56.4c31.1,0,46.2-12.3,46.2-37.7C116.9,83.1,111.9,66.5,96.4,61.8L96.4,61.8z M70.7,105.5H38.1V72.6h32.6
			c10.8,0,22.2,5.8,22.2,16.7C93,100.5,81.8,105.5,70.7,105.5L70.7,105.5z M70.7,51.4H38.1V21.9h32.6c17.1,0,18.4,12,18.4,15.7
			C89.1,44.1,87,51.4,70.7,51.4L70.7,51.4z M70.7,51.4"/>
	</g>
</g>
<g id="Location" display="none">
	<g display="inline">
		<path fill="#888888" d="M65.1,0C41.8,0,22.8,19,22.8,42.3c0,9.4,6,24.7,18.4,46.9c8.7,15.7,17.3,28.7,17.7,29.3l6.3,9.5l6.3-9.5
			c0.4-0.5,9-13.6,17.7-29.3c12.4-22.1,18.4-37.5,18.4-46.9C107.5,19,88.5,0,65.1,0L65.1,0z M65.1,64C53,64,43.2,54.2,43.2,42.1
			c0-12.1,9.8-21.9,21.9-21.9c12.1,0,21.9,9.8,21.9,21.9C87.1,54.2,77.2,64,65.1,64L65.1,64z M65.1,64"/>
	</g>
	<g>
		<g display="inline">
			<path fill="#888888" d="M13.7,63.4l25.5,25.5l25.5,25.5c1.1,1.1,3.9,4,3.9,4S78,97.9,78,88.9L104.8,62L85.4,42.6L66,23.2L39.1,50
				c-9,0-28.8,10-28.8,10S12.6,62.3,13.7,63.4L13.7,63.4z M13.7,63.4"/>
			<path fill="#888888" d="M4.6,126.6c3.8-1.2,10.1-3.2,15.1-4.8c1.7-0.6,3.2-1.5,4.5-2.8l17.5-17.5L26.6,86.3L9,103.8
				c-1.3,1.3-2.2,2.8-2.8,4.5c-1.7,5-3.7,11.3-4.8,15.1c-0.3,1-1.5,4.6-1.5,4.6S3.5,126.9,4.6,126.6L4.6,126.6z M4.6,126.6"/>
			<path fill="#888888" d="M79.4,2c-0.5-0.5-1.9-1.9-1.9-1.9S76.1,1.5,75.6,2l-8.4,8.4c-0.5,0.5-1.9,1.9-1.9,1.9s1.4,1.3,1.9,1.9
				l23.3,23.3l23.3,23.3c0.6,0.6,1.9,1.9,1.9,1.9s1.4-1.4,1.9-1.9l8.4-8.4c0.5-0.5,1.9-1.9,1.9-1.9s-1.4-1.4-1.9-1.9l-23.3-23.3
				L79.4,2z M79.4,2"/>
		</g>
	</g>
	<g>
		<path display="inline" fill="#888888" d="M109.3,18.7C97.2,6.7,81.1,0,64,0C46.9,0,30.8,6.7,18.7,18.7C6.7,30.8,0,46.9,0,64
			c0,17.1,6.7,33.2,18.7,45.3C30.8,121.3,46.9,128,64,128c17.1,0,33.2-6.7,45.3-18.7C121.3,97.2,128,81.1,128,64
			C128,46.9,121.3,30.8,109.3,18.7L109.3,18.7z M70.6,114.4V97.8H57.4v16.6c-22.7-3-40.8-21-43.8-43.8h16.6V57.4H13.6
			c3-22.7,21-40.8,43.8-43.8v16.6h13.2V13.6c22.7,3,40.8,21,43.8,43.8H97.8v13.2h16.6C111.4,93.3,93.3,111.4,70.6,114.4L70.6,114.4z
			 M70.6,114.4"/>
		<path display="inline" fill="#888888" d="M73.5,64c0,5.3-4.3,9.5-9.5,9.5c-5.3,0-9.5-4.3-9.5-9.5c0-5.3,4.3-9.5,9.5-9.5
			C69.3,54.5,73.5,58.7,73.5,64L73.5,64z M73.5,64"/>
	</g>
	<g>
		<g display="inline">
			<path fill="#888888" d="M111.8,41.7L32.6,12.4V0.1H19.3V128l13.3,0.1l0-53.2l79.2-29.3c0.8-0.3,5.1-2,5.1-2S112.6,42,111.8,41.7
				L111.8,41.7z M111.8,41.7"/>
		</g>
	</g>
	<g>
		<g display="inline">
			<path fill="#888888" d="M119.4,4.2L8.3,55.4C7.1,56,0,58.7,0,58.7s7.3,2.6,8.7,3.1l34.1,11.7c2.6,0.9,9.2,3.4,9.2,3.4
				s1.8,5.5,2.8,8.5l11.7,34.2c0.5,1.3,3.1,8.4,3.1,8.4s2.7-6.9,3.3-8.1L124,8.8c0.6-1.3,4-8.6,4-8.6S120.7,3.6,119.4,4.2z
				 M124.3,3.9"/>
		</g>
	</g>
</g>
<g id="bookmark" display="none">
	<g>
		<path display="inline" fill="#888888" d="M124.3,65.5l-22.6-24.7V9H86.6v17.7L64,1.4L3.8,65.5L0,69.3h18.8v57h37.6V94.6h15.1v31.7
			h37.6v-57H128L124.3,65.5z M124.3,65.5"/>
	</g>
	<g>
		<polygon display="inline" fill="#888888" points="95.4,58 70.5,58 70.5,33.2 58.5,33.2 58.5,58 33.6,58 33.6,70 58.5,70 
			58.5,94.9 70.5,94.9 70.5,70 95.4,70 		"/>
		<polygon display="inline" fill="#888888" points="116,116 79.5,116 79.5,128 116,128 127,128 128,128 128,79 116,79 		"/>
		<polygon display="inline" fill="#888888" points="116,0 79.5,0 79.5,12 116,12 116,49 128,49 128,12 128,0 		"/>
		<polygon display="inline" fill="#888888" points="12,79 0,79 0,116 0,128 12,128 49.5,128 49.5,116 12,116 		"/>
		<polygon display="inline" fill="#888888" points="12,12 49.5,12 49.5,0 12,0 0,0 0,12 0,49 12,49 		"/>
	</g>
	<g display="inline">
		<g>
			<path fill="#888888" d="M100.1,0H30.2c-1.3,0-4.4,0-4.4,0s0,3.2,0,4.4v123.2c0,0,6.3-7,7.6-8.4L66,83.4l30.8,35.7
				c0.9,0.9,7.7,8.9,7.7,8.9s0-9.9,0-11.8V4.4c0-1.2,0-4.4,0-4.4S101.3,0,100.1,0z M95.7,104.5L69.4,74c-0.8-0.9-3.3-3.6-3.3-3.6
				s-2.5,2.6-3.3,3.5L34.6,105V8.7h61.1V104.5z M95.7,104.5"/>
		</g>
	</g>
</g>
<g id="chart" display="none">
	<g>
		<path display="inline" fill="#888888" d="M0,8.7v112h128V8.7H0z M48,80.7v-24h32v24H48z M80,88.7v24H48v-24H80z M80,24.7v24H48
			v-24H80z M40,24.7v24H8v-24H40z M8,56.7h32v24H8V56.7z M88,56.7h32v24H88V56.7z M88,48.7v-24h32v24H88z M8,88.7h32v24H8V88.7z
			 M88,112.7v-24h32v24H88z M88,112.7"/>
	</g>
	<g display="inline">
		<path fill="#888888" d="M17.1,110.9V0H0v128h128v-17.1H17.1z M17.1,110.9"/>
		<path fill="#888888" d="M57,55.5l25.6,17.7l39.2-44.6L109,17.3L79.9,50.5L53.6,32.3l-29,36.6L38,79.5L57,55.5z M57,55.5"/>
	</g>
</g>
<g id="List_Commom">
	<g display="none">
		<g display="inline">
			<defs>
				<rect id="SVGID_1_" x="1" y="29" width="126" height="73.4"/>
			</defs>
			<clipPath id="SVGID_2_">
				<use xlink:href="#SVGID_1_"  overflow="visible"/>
			</clipPath>
			<path clip-path="url(#SVGID_2_)" fill="#888888" d="M125.1,60.9C124,59.6,97.6,29,63.9,29C30.1,29,3.7,59.6,2.6,60.9
				c-2.2,2.6-2.2,6.3,0,8.8c1.1,1.3,27.5,31.8,61.2,31.8c33.7,0,60.1-30.5,61.2-31.8C127.3,67.1,127.3,63.4,125.1,60.9L125.1,60.9z
				 M74.2,47.4c2.3-1.2,5.4,0.2,7.1,3.2c1.6,3,1.1,6.4-1.2,7.7C77.8,59.4,74.6,58,73,55C71.4,52,71.9,48.6,74.2,47.4L74.2,47.4z
				 M63.9,90.5c-23.6,0-43.4-18.1-50.3-25.2c4.6-4.8,15.2-14.6,28.8-20.5c-2.7,4-4.2,8.9-4.2,14.1c0,14.2,11.5,25.7,25.7,25.7
				c14.2,0,25.7-11.5,25.7-25.7c0-5.2-1.6-10-4.2-14.1c13.6,5.9,24.2,15.7,28.8,20.5C107.3,72.4,87.4,90.5,63.9,90.5L63.9,90.5z
				 M63.9,90.5"/>
		</g>
	</g>
	<path display="none" fill="#888888" d="M63.8-0.1c-35.3,0-64,28.7-64,64c0,35.3,28.7,64,64,64c35.4,0,64-28.7,64-64
		C127.9,28.5,99.2-0.1,63.8-0.1L63.8-0.1z M91.4,81.2L81.2,91.4c0,0-16.1-17.3-17.3-17.3c-1.2,0-17.3,17.3-17.3,17.3L36.3,81.2
		c0,0,17.3-15.9,17.3-17.3c0-1.4-17.3-17.3-17.3-17.3l10.2-10.2c0,0,16.3,17.3,17.3,17.3c1,0,17.3-17.3,17.3-17.3l10.2,10.2
		c0,0-17.3,16.1-17.3,17.3C74,65,91.4,81.2,91.4,81.2L91.4,81.2z M91.4,81.2"/>
	<path fill="#888888" d="M59.5,24.5L50.8,6.3h-47L0,24.5V25v8.5v78.8v8.3v0.8h128v-0.8v-8.3V33.5V25v-0.5H59.5z M119,112.3H9V33.5
		h110V112.3z"/>
	<path display="none" fill="#888888" d="M125,40.8H16.8l-1.6,9h0L9,81l0.1-47.8h114.7v-9H59.4l-8.6-18h-47l-3.7,18H0v9h0.1L0,121
		l2.5,0v0h2l4.5,0v0h100.4l0.2-0.8l0.1,0l1-5.2l0.6-3h0l12.1-62.3h0l0.2-1.2l1-5.2l-0.1,0L125,40.8z M102,112H12.2l12.1-62.3h89.9
		L102,112z"/>
	<g display="none">
		<path display="inline" fill="#888888" d="M102.9,56.8V39.5C102.9,18.2,85.6,1,64.4,1C43.2,1,25.9,18.2,25.9,39.5v17.4h-8.3V128
			h93.5V56.8H102.9z M40.4,39.5c0-13.2,10.8-24,24-24c13.2,0,24,10.7,24,24v17.4H40.4V39.5z M71,108.5H57.8l2-19.5
			c-2.5-1.5-4.1-4.2-4.1-7.3c0-4.8,3.9-8.7,8.7-8.7c4.8,0,8.7,3.9,8.7,8.7c0,3.1-1.6,5.8-4.1,7.3L71,108.5z M71,108.5"/>
	</g>
	<g display="none">
		<rect x="38.7" y="2" display="inline" fill="#888888" width="49.8" height="9"/>
		<path display="inline" fill="#888888" d="M12.9,14.2v9h0V28h0v9h7.7v81.8h0v8.2h86v-8.2V118V37h7.7v-1v-8v-4.8v-8.6v-0.4H12.9z
			 M97.6,118h-68V37h68V118z M105.3,28H22v-4.8h83.3V28z"/>
		<rect x="40.8" y="46.2" display="inline" fill="#888888" width="9" height="66.1"/>
		<rect x="59.1" y="46.2" display="inline" fill="#888888" width="9" height="66.1"/>
		<rect x="77.4" y="46.2" display="inline" fill="#888888" width="9" height="66.1"/>
	</g>
	<polygon display="none" fill="#888888" points="128,18 0,18 0,32 63.9,32 54,41.9 0.6,95.3 10.6,105.2 64,51.8 117.4,105.2 
		127.4,95.3 74,41.9 64.1,32 128,32 	"/>
	<polygon display="none" fill="#888888" points="53.4,41.9 0,95.3 10,105.2 63.4,51.8 116.8,105.2 126.8,95.3 73.4,41.9 63.4,31.9 	
		"/>
	<polygon display="none" fill="#888888" points="0,105.2 128,105.2 128,91.2 64.1,91.2 74,81.4 127.4,28 117.4,18 64,71.4 10.6,18 
		0.6,28 54,81.4 63.9,91.2 0,91.2 	"/>
	<polygon display="none" fill="#888888" points="74.6,81.4 128,28 118,18 64.6,71.4 11.2,18 1.2,28 54.6,81.4 64.6,91.4 	"/>
	<g display="none">
		<g display="inline">
			<path fill-rule="evenodd" clip-rule="evenodd" fill="#888888" d="M124.9,109.7L97.1,81.9c-0.1-0.1-0.3-0.2-0.5-0.4
				c5.5-8.3,8.7-18.2,8.7-28.9C105.2,23.6,81.7,0,52.6,0S0,23.6,0,52.6c0,29.1,23.6,52.6,52.6,52.6c10.7,0,20.6-3.2,28.9-8.7
				c0.1,0.2,0.2,0.3,0.4,0.5l27.8,27.8c4.2,4.2,10.9,4.2,15.1,0C129,120.7,129,113.9,124.9,109.7L124.9,109.7z M52.6,87
				c-19,0-34.4-15.4-34.4-34.4c0-19,15.4-34.4,34.4-34.4S87,33.6,87,52.6C87,71.6,71.6,87,52.6,87L52.6,87z M52.6,87"/>
		</g>
	</g>
	<g display="none">
		<path display="inline" fill="#888888" d="M0,39.9h128l-64,64L0,39.9z M0,39.9"/>
	</g>
	<g display="none">
		<g display="inline">
			<path fill="#888888" d="M12.3,0L119,64L12.3,128V0z M12.3,0"/>
		</g>
	</g>
</g>
</svg>
