<?xml version="1.0" encoding="utf-8"?>
<!-- Generator: Adobe Illustrator 16.0.0, SVG Export Plug-In . SVG Version: 6.00 Build 0)  -->
<!DOCTYPE svg PUBLIC "-//W3C//DTD SVG 1.1//EN" "http://www.w3.org/Graphics/SVG/1.1/DTD/svg11.dtd">
<svg version="1.1" id="Capa_1" xmlns="http://www.w3.org/2000/svg" xmlns:xlink="http://www.w3.org/1999/xlink" x="0px" y="0px"
	 width="23.303px" height="23.7px" viewBox="0 0 23.303 23.7" enable-background="new 0 0 23.303 23.7" xml:space="preserve">
<g>
	<path d="M22.355,7.477h-7.326c1.315,1.009,2.184,2.583,2.184,4.372c0,1.42-0.665,2.614-1.434,3.683
		c-1.313,1.827-4.442,7.829-4.442,7.829c0.119,0.002,0.233,0.018,0.354,0.018c6.367,0,11.529-5.162,11.529-11.529
		C23.219,10.301,22.909,8.826,22.355,7.477z"/>
	<path d="M11.666,6.329c2.522-0.018,10.089-0.095,10.089-0.095C19.782,2.708,16.019,0.32,11.69,0.32c-3.61,0-6.83,1.661-8.943,4.258
		l3.522,6.255C6.745,8.278,8.974,6.348,11.666,6.329z"/>
	<path d="M11.689,17.372c-2.409,0-4.245-1.628-5.191-3.702c-0.952-2.087-4.546-7.973-4.546-7.973
		c-1.128,1.782-1.791,3.887-1.791,6.152c0,5.783,4.262,10.558,9.814,11.388l3.583-6.213C12.972,17.238,12.348,17.372,11.689,17.372z
		"/>
	<circle cx="11.689" cy="11.85" r="3.728"/>
</g>
</svg>
