<?xml version="1.0" encoding="utf-8"?>
<!-- Generator: Adobe Illustrator 16.0.0, SVG Export Plug-In . SVG Version: 6.00 Build 0)  -->
<!DOCTYPE svg PUBLIC "-//W3C//DTD SVG 1.1//EN" "http://www.w3.org/Graphics/SVG/1.1/DTD/svg11.dtd">
<svg version="1.1" id="Capa_1" xmlns="http://www.w3.org/2000/svg" xmlns:xlink="http://www.w3.org/1999/xlink" x="0px" y="0px"
	 width="21.979px" height="23.305px" viewBox="0 0 21.979 23.305" enable-background="new 0 0 21.979 23.305" xml:space="preserve">
<g>
	<path d="M17.482,0.116H2.872V3.28H0.499v8.398h2.373v11.545H21.48V3.855L17.482,0.116z M13.056,7.122V7.81h-1.703v1.738h-0.822
		V5.469h2.798v0.69h-1.976v0.963H13.056z M9.832,7.548c0,0.336-0.042,0.625-0.125,0.868c-0.102,0.296-0.249,0.537-0.436,0.72
		C9.126,9.278,8.935,9.385,8.695,9.462C8.509,9.519,8.267,9.549,7.965,9.549H6.417v-4.08h1.502c0.339,0,0.599,0.025,0.777,0.077
		c0.238,0.072,0.442,0.196,0.612,0.376c0.171,0.18,0.3,0.398,0.391,0.661C9.787,6.846,9.832,7.165,9.832,7.548z M3.439,8.009V9.55
		H2.616V9.549v-4.08h1.32c0.5,0,0.826,0.021,0.976,0.062c0.232,0.062,0.431,0.194,0.586,0.397c0.159,0.206,0.238,0.471,0.238,0.793
		c0,0.252-0.045,0.46-0.136,0.631C5.51,7.526,5.395,7.658,5.253,7.757C5.115,7.852,4.974,7.918,4.83,7.948
		c-0.198,0.038-0.48,0.061-0.852,0.061H3.439z M20.129,21.867c-1.198,0-14.71,0-15.906,0c0-0.613,0-5.4,0-10.19h11.34V3.28H4.223
		c0-0.952,0-1.611,0-1.813c1.194,0,12.238,0,12.727,0c0.324,0.306,2.822,2.641,3.18,2.974C20.129,4.99,20.129,20.637,20.129,21.867z
		"/>
	<path d="M8.663,6.391C8.564,6.295,8.438,6.233,8.284,6.2c-0.118-0.027-0.34-0.04-0.674-0.04H7.24v2.699h0.612
		c0.229,0,0.394-0.012,0.497-0.039c0.135-0.033,0.245-0.092,0.332-0.17c0.09-0.08,0.16-0.21,0.217-0.392
		C8.953,8.074,8.982,7.824,8.982,7.51c0-0.312-0.028-0.557-0.084-0.723C8.841,6.617,8.762,6.486,8.663,6.391z"/>
	<path d="M4.754,6.369C4.668,6.273,4.557,6.214,4.424,6.188C4.328,6.169,4.129,6.16,3.835,6.16H3.439v1.157h0.446
		c0.325,0,0.54-0.02,0.649-0.064C4.644,7.211,4.73,7.145,4.793,7.054c0.062-0.091,0.091-0.196,0.091-0.318
		C4.885,6.589,4.844,6.467,4.754,6.369z"/>
</g>
</svg>
