<?xml version="1.0" encoding="utf-8"?>
<!-- Generator: Adobe Illustrator 16.0.0, SVG Export Plug-In . SVG Version: 6.00 Build 0)  -->
<!DOCTYPE svg PUBLIC "-//W3C//DTD SVG 1.1//EN" "http://www.w3.org/Graphics/SVG/1.1/DTD/svg11.dtd">
<svg version="1.1" id="Capa_1" xmlns="http://www.w3.org/2000/svg" xmlns:xlink="http://www.w3.org/1999/xlink" x="0px" y="0px"
	 width="23.404px" height="23.305px" viewBox="0 0 23.404 23.305" enable-background="new 0 0 23.404 23.305" xml:space="preserve">
<g>
	<rect x="3.641" y="4.179" width="9.794" height="3.28"/>
	<path d="M23.087,20.901l-1.75-1.751V0.316H0.317v19.698h17.707l2.975,2.974c0,0,0.96,0.012,1.539-0.651
		C23.116,21.678,23.087,20.901,23.087,20.901z M1.742,18.614V2.239h18.169v15.485l-1.236-1.235l-0.572,0.347l-0.872-0.841
		c1.358-1.907,1.196-4.565-0.512-6.273c-1.801-1.8-4.641-1.877-6.553-0.28H3.641v1.252h5.45c-0.379,0.638-0.592,1.338-0.655,2.055
		H3.641v1.245h4.833c0.127,0.731,0.427,1.435,0.887,2.057h-5.72v1.251h7.057c1.66,1.033,3.796,0.974,5.403-0.173l0.817,0.784
		l-0.292,0.699L1.742,18.614L1.742,18.614z M10.613,15.829c-1.466-1.47-1.466-3.844,0.003-5.313c1.464-1.468,3.844-1.47,5.314-0.002
		c1.468,1.469,1.468,3.846-0.003,5.315C14.462,17.294,12.082,17.297,10.613,15.829z"/>
</g>
<g>
	<path d="M14.759,4.179v3.28h3.223v-3.28H14.759z M16.368,6.616c-0.458,0-0.831-0.371-0.831-0.83c0-0.458,0.373-0.829,0.831-0.829
		s0.829,0.371,0.829,0.829C17.196,6.245,16.826,6.616,16.368,6.616z"/>
</g>
</svg>
