<?xml version="1.0" encoding="iso-8859-1"?>
<!-- <?xml version="1.0" encoding="utf-8"?> -->
<!-- Generator: Adobe Illustrator 18.0.0, SVG Export Plug-In . SVG Version: 6.00 Build 0)  -->
<!DOCTYPE svg PUBLIC "-//W3C//DTD SVG 1.1//EN" "http://www.w3.org/Graphics/SVG/1.1/DTD/svg11.dtd">
<svg version="1.1" id="Capa_1" xmlns="http://www.w3.org/2000/svg" xmlns:xlink="http://www.w3.org/1999/xlink" x="0px" y="0px"
	 viewBox="0 0 460.623 460.623" style="enable-background:new 0 0 460.623 460.623;" xml:space="preserve">
<g>
	<polygon points="182.453,256.323 192.129,256.323 195.242,256.323 217.588,256.323 234.561,256.323 237.674,256.323
		260.018,256.323 272.807,256.323 269.617,221.097 185.641,221.097 	"/>
	<path d="M283.754,209.874L231.037,119.1c-0.102-6.586-0.889-14.913-2.92-25.267c7.256-4.908,17.092-11.431,26.086-11.425
		c10.164,0.004,14.092,12.491,26.322,7.839c8.564-3.182,16.297-8.648,23.779-13.774c-16.27,6.145-24.928,12.943-34.373-2.222
		c-10.602-17.04-32.955-14.847-50.209-11.946c-0.168-0.515-0.334-1.025-0.506-1.546l-5.051,1.674
		c8.238,24.858,10.979,42.391,11.455,54.258l-54.113,93.183H283.754z"/>
	<path d="M306.551,273.295h-26.449v4.668c0,5.546-4.494,10.042-10.041,10.042c-5.547,0-10.043-4.496-10.043-10.042v-4.668h-22.344
		v4.668c0,5.546-4.498,10.042-10.045,10.042c-5.545,0-10.041-4.496-10.041-10.042v-4.668h-22.346v4.668
		c0,5.546-4.494,10.042-10.041,10.042c-5.547,0-10.045-4.496-10.045-10.042v-4.668h-26.445v26.094h157.84V273.295z"/>
	<path d="M138.465,186.347h-17.219v10.896c0,4.921-3.99,8.91-8.912,8.91c-4.922,0-8.91-3.989-8.91-8.91v-10.896H89.211v10.896
		c0,4.921-3.99,8.91-8.912,8.91c-4.92,0-8.908-3.989-8.908-8.91v-10.896H54.172v45.191h84.293V186.347z"/>
	<path d="M406.453,186.347h-17.219v10.896c0,4.921-3.99,8.91-8.91,8.91c-4.922,0-8.91-3.989-8.91-8.91v-10.896h-14.215v10.896
		c0,4.921-3.988,8.91-8.91,8.91c-4.922,0-8.91-3.989-8.91-8.91v-10.896H322.16v45.191h84.293V186.347z"/>
	<path d="M402.031,381.823l-6.85-140.928h-61.754l-6.522,134.222c-1.123-0.063-2.25-0.124-3.383-0.185
		c-5.547-0.296-11.207-0.566-16.973-0.81v-60.095h-157.84v60.331c-5.086,0.232-10.086,0.485-14.992,0.759l-1.98-40.739
		l-4.543-93.483H65.441l-6.848,140.928C22.162,386.731,0,393.209,0,400.311h131.738h191.785h137.1
		C460.623,393.209,438.463,386.731,402.031,381.823z"/>
</g>
</svg>
