<?xml version="1.0" encoding="iso-8859-1"?>
<!-- Generator: Adobe Illustrator 18.0.0, SVG Export Plug-In . SVG Version: 6.00 Build 0)  -->
<!DOCTYPE svg PUBLIC "-//W3C//DTD SVG 1.1//EN" "http://www.w3.org/Graphics/SVG/1.1/DTD/svg11.dtd">
<svg version="1.1" id="Capa_1" xmlns="http://www.w3.org/2000/svg" xmlns:xlink="http://www.w3.org/1999/xlink" x="0px" y="0px"
	 viewBox="0 0 360.162 360.162" style="enable-background:new 0 0 360.162 360.162;" xml:space="preserve">
<g>
	<path d="M215.082,171.019c0-19.33-15.67-35-35-35s-35,15.67-35,35c0,7.945,2.652,15.27,7.113,21.145l-39.208,75.48
		c8.066,5.857,16.922,10.688,26.377,14.3l39.456-75.957c0.419,0.016,0.839,0.032,1.262,0.032c0.423,0,0.841-0.017,1.26-0.032
		l39.456,75.957c9.455-3.612,18.311-8.442,26.378-14.3l-39.208-75.479C212.43,186.289,215.082,178.965,215.082,171.019z"/>
	<path d="M265.673,303.253c-8.283,5.546-17.13,10.31-26.436,14.189l17.99,34.632c2.671,5.142,7.903,8.089,13.324,8.089
		c2.329,0,4.692-0.544,6.902-1.691c7.352-3.819,10.215-12.874,6.397-20.226L265.673,303.253z"/>
	<path d="M76.313,338.245c-3.819,7.352-0.955,16.406,6.396,20.226c7.353,3.817,16.407,0.954,20.226-6.397l17.99-34.632
		c-9.306-3.879-18.153-8.643-26.436-14.189L76.313,338.245z"/>
	<path d="M332.347,150.355c-0.66-0.054-1.325-0.088-1.998-0.088c-2.76,0-5.411,0.459-7.89,1.293
		c-3.667-22.349-12.481-42.984-25.189-60.645c2.364-1.166,4.588-2.711,6.556-4.679c0.461-0.462,0.88-0.948,1.298-1.436
		c8.318-9.718,7.9-24.349-1.298-33.546c-9.197-9.197-23.828-9.616-33.545-1.297c-0.487,0.417-0.975,0.836-1.435,1.297
		c-1.967,1.967-3.512,4.191-4.678,6.557c-17.661-12.708-38.296-21.523-60.645-25.19c0.833-2.478,1.292-5.129,1.292-7.888
		c0-0.674-0.035-1.34-0.087-2C203.707,10.01,193.066,0,180.081,0c-12.985,0-23.626,10.01-24.645,22.733
		c-0.053,0.661-0.087,1.327-0.087,2c0,2.759,0.458,5.41,1.292,7.888c-22.349,3.667-42.984,12.481-60.645,25.19
		c-1.166-2.365-2.711-4.59-4.678-6.557c-0.461-0.461-0.948-0.88-1.436-1.297c-9.717-8.319-24.348-7.9-33.545,1.297
		c-9.199,9.197-9.616,23.828-1.298,33.546c0.417,0.487,0.836,0.974,1.298,1.436c1.967,1.968,4.191,3.513,6.556,4.678
		c-12.708,17.661-21.522,38.297-25.189,60.646c-2.479-0.834-5.13-1.293-7.89-1.293c-0.673,0-1.338,0.034-1.998,0.088
		C15.092,151.372,5.081,162.015,5.081,175c0,12.985,10.011,23.627,22.734,24.646c0.66,0.053,1.325,0.087,1.998,0.087
		c2.76,0,5.411-0.459,7.89-1.292c3.667,22.348,12.481,42.984,25.189,60.645c-2.365,1.166-4.59,2.711-6.558,4.679
		c-0.461,0.461-0.879,0.947-1.296,1.434c-8.319,9.717-7.9,24.349,1.298,33.546c9.197,9.197,23.828,9.616,33.545,1.297
		c0.487-0.417,0.974-0.836,1.435-1.297c1.967-1.968,3.512-4.191,4.678-6.556c17.661,12.708,38.296,21.522,60.645,25.189
		c-0.833,2.478-1.292,5.129-1.292,7.888c0,0.674,0.035,1.34,0.087,2c1.019,12.723,11.66,22.733,24.645,22.733
		c12.985,0,23.626-10.011,24.645-22.733c0.053-0.66,0.087-1.326,0.087-2c0-2.759-0.458-5.409-1.291-7.888
		c22.348-3.667,42.984-12.481,60.645-25.189c1.166,2.364,2.711,4.588,4.678,6.556c0.461,0.461,0.948,0.88,1.435,1.297
		c9.717,8.318,24.348,7.9,33.545-1.297c9.198-9.196,9.616-23.829,1.298-33.546c-0.418-0.487-0.836-0.975-1.298-1.435
		c-1.967-1.967-4.191-3.512-6.556-4.678c12.708-17.66,21.522-38.297,25.189-60.645c2.479,0.833,5.13,1.292,7.89,1.292
		c0.673,0,1.338-0.034,1.998-0.087c12.723-1.02,22.734-11.661,22.734-24.646C355.081,162.015,345.07,151.372,332.347,150.355z
		 M180.081,299.387c-68.588,0-124.388-55.8-124.388-124.387s55.8-124.388,124.388-124.388S304.469,106.413,304.469,175
		S248.669,299.387,180.081,299.387z"/>
</g>
<g>
</g>
<g>
</g>
<g>
</g>
<g>
</g>
<g>
</g>
<g>
</g>
<g>
</g>
<g>
</g>
<g>
</g>
<g>
</g>
<g>
</g>
<g>
</g>
<g>
</g>
<g>
</g>
<g>
</g>
</svg>
