<?xml version="1.0" encoding="iso-8859-1"?>
<!-- Generator: Adobe Illustrator 18.0.0, SVG Export Plug-In . SVG Version: 6.00 Build 0)  -->
<!DOCTYPE svg PUBLIC "-//W3C//DTD SVG 1.1//EN" "http://www.w3.org/Graphics/SVG/1.1/DTD/svg11.dtd">
<svg version="1.1" id="Capa_1" xmlns="http://www.w3.org/2000/svg" xmlns:xlink="http://www.w3.org/1999/xlink" x="0px" y="0px"
	 viewBox="0 0 400.141 400.141" style="enable-background:new 0 0 400.141 400.141;" xml:space="preserve">
<g>
	<path d="M251.418,268.93C253.106,271.421,250.59,267.672,251.418,268.93L251.418,268.93z"/>
	<path d="M400.141,256.8c-20.445,0.268-16.176-12.135-33.387-11.28c0.855-0.699,1.414-1.749,1.414-2.939
		c0-2.105-1.707-3.811-3.811-3.811c-2.103,0-3.811,1.706-3.811,3.811c0,1.243,0.604,2.335,1.525,3.031v60.858h-45.428v-38.78
		c13.08-10.765,24.807,5.431,33.496-10.889c-20.445,0.268-16.176-12.135-33.387-11.28c0.855-0.699,1.414-1.749,1.414-2.939
		c0-2.105-1.707-3.811-3.811-3.811c-2.103,0-3.811,1.706-3.811,3.811c0,1.243,0.604,2.335,1.525,3.031v60.858h-45.428v-38.78
		c13.08-10.765,24.807,5.431,33.496-10.889c-20.445,0.268-16.176-12.135-33.387-11.28c0.855-0.699,1.414-1.749,1.414-2.939
		c0-2.105-1.707-3.811-3.811-3.811c-2.103,0-3.811,1.706-3.811,3.811c0,1.243,0.604,2.335,1.525,3.031v60.858h-26.658
		c2.563-2.315,5.02-4.746,7.332-7.302c6.854-7.579,15.604-19.999,8.672-30.237c-7.982-12.125-28.533-9.07-40.479-7.039
		c-15.645,2.662-30.932,7.427-45.789,12.939c-21.732,8.063-42.078,18.476-62.289,29.466c0.332-9.214,0.162-33.511-8.924-56.124
		c46.75-31.752,89.338-69.519,143.697-88.322c31.67-10.955,67.654-19.587,101.313-14.849c15.658,2.205,30.955,8.779,39.328,22.871
		c5.127,8.629,7.266,18.341,8.305,28.186c-9.201-17.77-28.627-27.294-47.514-30.91c-37.416-7.162-81.486,3.4-112.777,24.878
		c34.295-4.093,69.135-10.575,103.746-6.074c16.789,1.993,34.621,7.712,45.063,21.83c9.137,12.354,10.732,27.853,12.256,42.641
		c6.002-14.977,7.676-32.087,1.645-47.185c3.346-11.652,4.543-23.872,1.543-35.804c-0.406-1.616-0.906-3.185-1.459-4.727
		c1.129-22.686-6.121-44.395-24.512-59.466c-22.834-18.713-54.154-24.223-82.902-24.542
		c-52.959-0.587-102.563,17.153-144.533,49.044C113.721,143.537,92.713,164.261,71,184.029c-6.295,5.73-12.584,11.464-19.799,16.038
		c-5.545,3.515-13.449,8.328-20.369,7.078c-5.861-1.327-4.326-11.874-3.543-15.933c1.572-8.209,5.002-16.017,9.184-23.214
		c28.006-50.158,81.512-79.476,135.695-92.431c-58.652,0.767-112.889,26.045-149.908,71.992
		c-16.355,20.298-36.307,62.178-8.117,81.835c10.547,7.356,22.029,7.673,33.305,4.254c14.662,10.974,29.272,32.227,24.258,72.821
		H46.781v18.105h348.924v-18.105h-29.061v-38.78C379.725,256.924,391.451,273.12,400.141,256.8z M96.787,200.734
		c21.621-19.526,42.601-40.057,66.057-57.428c24.414-18.082,51.508-31.332,81.098-38.422c31.945-7.654,68.986-11.395,100.381,0.559
		c13.902,5.293,26.021,14.349,33.617,27.305c3.773,6.438,6.207,13.386,7.803,20.557c-5.547-10.082-14.301-18.151-24.605-23.721
		c-30.883-16.694-70.617-13.826-103.713-6.51c-20.971,4.635-40.883,11.966-59.971,21.711
		c-42.606,21.751-77.297,57.243-107.699,94.375c-3.875-7.273-8.865-14.106-15.277-19.886
		C82.932,213.148,90.586,206.333,96.787,200.734z"/>
</g>
<g>
</g>
<g>
</g>
<g>
</g>
<g>
</g>
<g>
</g>
<g>
</g>
<g>
</g>
<g>
</g>
<g>
</g>
<g>
</g>
<g>
</g>
<g>
</g>
<g>
</g>
<g>
</g>
<g>
</g>
</svg>
