<?xml version="1.0" encoding="iso-8859-1"?>
<!-- Generator: Adobe Illustrator 18.0.0, SVG Export Plug-In . SVG Version: 6.00 Build 0)  -->
<!DOCTYPE svg PUBLIC "-//W3C//DTD SVG 1.1//EN" "http://www.w3.org/Graphics/SVG/1.1/DTD/svg11.dtd">
<svg version="1.1" id="Capa_1" xmlns="http://www.w3.org/2000/svg" xmlns:xlink="http://www.w3.org/1999/xlink" x="0px" y="0px"
	 viewBox="0 0 363.613 363.613" style="enable-background:new 0 0 363.613 363.613;" xml:space="preserve">
<path d="M323.323,191.035c-46.611-23.996-91.887-66.914-134.566-127.562c-0.791-1.125-1.83-2.021-3.014-2.64
	c-0.486-6.112-1.434-13.192-3.029-21.331c8.551-5.784,20.143-13.469,30.74-13.462c11.979,0.004,16.607,14.719,31.02,9.236
	c10.092-3.749,19.205-10.191,28.023-16.232c-19.176,7.24-29.375,15.253-40.51-2.618C219.495-3.653,193.153-1.07,172.819,2.349
	c-0.197-0.607-0.391-1.209-0.596-1.823l-5.951,1.973c8.363,25.234,11.92,44.061,13.104,57.735c-1.805,0.54-3.408,1.659-4.521,3.239
	C132.188,124.11,86.915,167.029,40.29,191.035c-3.488,1.798-5.291,5.747-4.367,9.56c0.924,3.813,4.336,6.496,8.262,6.496h12.93
	l7.43,144.429c0.35,6.777,5.945,12.094,12.732,12.094h209.063c6.785,0,12.383-5.316,12.73-12.094L306.5,207.09h12.93
	c3.924,0,7.336-2.684,8.26-6.496C328.616,196.781,326.811,192.832,323.323,191.035z M103.133,214.942h52.893v123.174h-46.551
	L103.133,214.942z M207.587,214.942h52.894l-6.342,123.174h-46.553V214.942z M271.585,189.445h-60.301
	c-2.541-17.851-7.217-41.445-13.975-70.431c-0.494-2.126-0.986-4.212-1.473-6.259C210.075,138.579,235.223,174.118,271.585,189.445z
	 M167.44,112.997c-0.434,1.855-0.879,3.767-1.332,5.736c-4.742,20.608-10.604,48.089-13.824,70.712H91.79
	C128.911,171.093,153.485,137.553,167.44,112.997z"/>
<g>
</g>
<g>
</g>
<g>
</g>
<g>
</g>
<g>
</g>
<g>
</g>
<g>
</g>
<g>
</g>
<g>
</g>
<g>
</g>
<g>
</g>
<g>
</g>
<g>
</g>
<g>
</g>
<g>
</g>
</svg>
