<?xml version="1.0" encoding="iso-8859-1"?>
<!-- Generator: Adobe Illustrator 18.0.0, SVG Export Plug-In . SVG Version: 6.00 Build 0)  -->
<!DOCTYPE svg PUBLIC "-//W3C//DTD SVG 1.1//EN" "http://www.w3.org/Graphics/SVG/1.1/DTD/svg11.dtd">
<svg version="1.1" id="Capa_1" xmlns="http://www.w3.org/2000/svg" xmlns:xlink="http://www.w3.org/1999/xlink" x="0px" y="0px"
	 viewBox="0 0 437.087 437.087" style="enable-background:new 0 0 437.087 437.087;" xml:space="preserve">
<g>
	<path d="M156.869,143.804l7.638,62.881c3.235-1.675,6.384-3.392,9.448-5.143l-9.457-77.858c-5.381,1.387-10.592,3.364-15.528,5.9
		l-12.826,82.044c2.921,1.37,6.027,2.716,9.312,4.032c0.064-0.027,0.128-0.057,0.193-0.084L156.869,143.804z"/>
	<path d="M145.804,239.314l1.602-0.645c41.763-16.811,75.271-40.081,94.352-65.521c8.354-11.137,11.601-22.013,9.655-32.324
		c-2.127-11.277-10.515-21.768-24.254-30.337l-0.164-0.097c-12.83-7.27-27.885-11.111-43.537-11.111
		c-16.985,0-33.684,4.412-48.258,12.74l-0.151,0.086c-27.001,15-53.725,42.116-52.594,68.895l0.012,0.548
		c0,22.676,21.341,42.446,61.716,57.174L145.804,239.314z M91.466,181.453l-0.018-0.795c-0.999-22.957,23.373-47.021,47.987-60.695
		l0.198-0.111c13.248-7.57,28.401-11.572,43.823-11.572c14.066,0,27.557,3.422,39.02,9.896
		c11.501,7.191,18.447,15.599,20.092,24.317c1.458,7.727-1.237,16.225-8.011,25.256c-17.868,23.823-49.4,45.774-88.91,61.923
		C120.543,220.303,91.466,204.495,91.466,181.453z"/>
	<path d="M260.041,146.065c0.009,0.331,0.013,0.662,0.013,0.993c-0.001,3.285-0.413,6.643-1.224,9.98
		c-0.457,1.878,0.695,3.771,2.574,4.228c0.278,0.067,0.556,0.101,0.83,0.101c1.577,0,3.009-1.074,3.398-2.674
		c0.943-3.879,1.422-7.793,1.422-11.634c0-0.392-0.005-0.783-0.015-1.174c-0.05-1.933-1.669-3.441-3.589-3.409
		C261.517,142.526,259.992,144.133,260.041,146.065z"/>
	<path d="M255.424,128.406c0.622,1.206,1.846,1.898,3.115,1.898c0.54,0,1.087-0.125,1.6-0.39c1.718-0.886,2.394-2.996,1.508-4.714
		c-1.881-3.652-4.267-7.214-7.089-10.587c-1.239-1.481-3.446-1.679-4.93-0.438c-1.482,1.24-1.679,3.448-0.438,4.931
		C251.682,122.084,253.779,125.213,255.424,128.406z"/>
	<path d="M230.86,197.623c-2.79,2.618-5.765,5.232-8.842,7.771c-1.491,1.231-1.702,3.436-0.472,4.928
		c0.692,0.838,1.693,1.271,2.702,1.271c0.784,0,1.573-0.262,2.226-0.8c3.191-2.633,6.278-5.347,9.176-8.065
		c1.41-1.322,1.48-3.537,0.158-4.947C234.484,196.371,232.269,196.302,230.86,197.623z"/>
	<path d="M121.932,245.823c1.313,0,2.571-0.742,3.168-2.008c0.825-1.749,0.076-3.834-1.673-4.659
		c-3.664-1.727-7.177-3.536-10.442-5.376c-1.686-0.95-3.818-0.354-4.768,1.331c-0.948,1.684-0.353,3.818,1.331,4.767
		c3.412,1.923,7.077,3.81,10.894,5.61C120.924,245.715,121.432,245.823,121.932,245.823z"/>
	<path d="M83.075,143.523c0.62,0.449,1.337,0.664,2.047,0.664c1.085,0,2.155-0.503,2.839-1.449c2.183-3.021,4.648-6.051,7.328-9.004
		c1.299-1.433,1.191-3.646-0.241-4.944c-1.433-1.3-3.646-1.19-4.944,0.241c-2.853,3.145-5.483,6.377-7.817,9.605
		C81.156,140.204,81.508,142.392,83.075,143.523z"/>
	<path d="M75.095,188.919c-0.296-1.91-2.083-3.218-3.995-2.923c-1.91,0.297-3.219,2.085-2.922,3.995
		c0.652,4.207,1.842,8.354,3.538,12.327c0.568,1.329,1.861,2.127,3.221,2.127c0.458,0,0.924-0.092,1.372-0.282
		c1.778-0.759,2.604-2.815,1.845-4.593C76.688,196.133,75.658,192.549,75.095,188.919z"/>
	<path d="M206.276,217.184c-3.19,2.178-6.532,4.342-9.933,6.433c-1.646,1.012-2.161,3.168-1.148,4.814
		c0.661,1.075,1.809,1.668,2.985,1.668c0.625,0,1.258-0.168,1.83-0.52c3.495-2.148,6.931-4.374,10.213-6.614
		c1.597-1.09,2.007-3.268,0.918-4.864C210.051,216.506,207.872,216.095,206.276,217.184z"/>
	<path d="M195.577,92.403c3.848,0.454,7.683,1.136,11.399,2.025c0.274,0.065,0.548,0.097,0.818,0.097
		c1.582,0,3.017-1.08,3.401-2.686c0.45-1.88-0.709-3.769-2.589-4.219c-3.981-0.953-8.089-1.683-12.207-2.17
		c-1.922-0.222-3.66,1.145-3.887,3.065C192.285,90.436,193.657,92.176,195.577,92.403z"/>
	<path d="M256.05,173.109c-1.621-1.051-3.789-0.589-4.84,1.033c-0.912,1.406-1.906,2.829-2.954,4.227
		c-1.264,1.686-2.603,3.383-3.981,5.048c-1.233,1.489-1.025,3.694,0.464,4.928c0.653,0.54,1.444,0.804,2.23,0.804
		c1.006,0,2.006-0.432,2.698-1.268c1.449-1.75,2.859-3.537,4.189-5.313c1.144-1.523,2.23-3.078,3.228-4.619
		C258.135,176.327,257.672,174.16,256.05,173.109z"/>
	<path d="M171.531,244.95c3.673-1.738,7.329-3.555,10.866-5.398c1.714-0.894,2.379-3.007,1.486-4.722
		c-0.894-1.714-3.008-2.381-4.721-1.485c-3.458,1.803-7.034,3.578-10.626,5.279c-1.747,0.826-2.493,2.913-1.666,4.66
		c0.598,1.264,1.855,2.004,3.166,2.004C170.538,245.288,171.047,245.179,171.531,244.95z"/>
	<path d="M164.127,93.448c0.206,0,0.416-0.018,0.627-0.056c3.801-0.688,7.676-1.172,11.518-1.439
		c1.928-0.134,3.383-1.806,3.249-3.735c-0.134-1.928-1.795-3.377-3.735-3.248c-4.095,0.285-8.226,0.801-12.277,1.534
		c-1.902,0.344-3.165,2.165-2.821,4.067C160.993,92.261,162.466,93.448,164.127,93.448z"/>
	<path d="M76.673,154.838c-1.795-0.717-3.832,0.153-4.55,1.948c-1.611,4.026-2.816,8.106-3.58,12.129
		c-0.361,1.899,0.886,3.732,2.785,4.092c0.221,0.042,0.44,0.062,0.657,0.062c1.648,0,3.116-1.168,3.435-2.847
		c0.68-3.581,1.757-7.225,3.202-10.834C79.34,157.593,78.468,155.556,76.673,154.838z"/>
	<path d="M96.883,222.98c-3.112-2.523-5.938-5.156-8.398-7.826c-1.311-1.421-3.525-1.512-4.945-0.201
		c-1.421,1.311-1.512,3.524-0.201,4.945c2.688,2.917,5.762,5.783,9.136,8.52c0.648,0.525,1.428,0.781,2.203,0.781
		c1.019,0,2.029-0.442,2.72-1.295C98.615,226.402,98.385,224.198,96.883,222.98z"/>
	<path d="M107.226,121.158c0.779,0,1.563-0.26,2.214-0.791c2.992-2.447,6.142-4.822,9.362-7.059
		c1.587-1.104,1.981-3.284,0.878-4.872c-1.103-1.587-3.283-1.979-4.872-0.878c-3.369,2.342-6.667,4.827-9.8,7.39
		c-1.496,1.224-1.717,3.429-0.494,4.925C105.206,120.719,106.212,121.158,107.226,121.158z"/>
	<path d="M133.926,103.615c0.536,0,1.08-0.123,1.589-0.384c3.42-1.747,6.989-3.325,10.608-4.69c1.809-0.683,2.722-2.701,2.039-4.51
		c-0.683-1.809-2.703-2.723-4.51-2.04c-3.862,1.458-7.671,3.142-11.322,5.007c-1.721,0.879-2.404,2.987-1.524,4.709
		C131.424,102.918,132.652,103.615,133.926,103.615z"/>
	<path d="M225.129,100.787c2.085,0.986,4.15,2.061,6.138,3.193c1.287,0.799,2.555,1.628,3.77,2.467
		c0.607,0.419,1.299,0.62,1.985,0.62c1.111,0,2.204-0.528,2.883-1.513c1.098-1.59,0.699-3.77-0.892-4.868
		c-1.328-0.917-2.712-1.821-4.116-2.69c-0.035-0.021-0.07-0.042-0.106-0.063c-2.161-1.234-4.406-2.404-6.672-3.475
		c-1.75-0.826-3.834-0.078-4.66,1.668C222.635,97.875,223.382,99.961,225.129,100.787z"/>
	<path d="M413.948,268.638c-1.882-0.441-3.766,0.722-4.21,2.602c-0.897,3.8-1.984,7.647-3.229,11.436
		c-0.604,1.836,0.395,3.814,2.231,4.418c0.363,0.119,0.732,0.176,1.094,0.176c1.471,0,2.84-0.935,3.324-2.408
		c1.308-3.978,2.45-8.02,3.393-12.013C416.994,270.967,415.829,269.083,413.948,268.638z"/>
	<path d="M379.951,151.441c-1.883-0.419-3.757,0.766-4.179,2.652c-0.421,1.887,0.767,3.758,2.653,4.18
		c2.954,0.659,5.937,2.365,8.864,5.072c0.673,0.622,1.525,0.93,2.375,0.93c0.942,0,1.881-0.378,2.571-1.124
		c1.313-1.419,1.226-3.634-0.194-4.946C388.195,154.649,384.127,152.373,379.951,151.441z"/>
	<path d="M246.764,265.085c-3.81,0.548-7.778,0.924-11.795,1.116c-1.931,0.093-3.421,1.732-3.329,3.663
		c0.09,1.874,1.637,3.333,3.493,3.333c0.057,0,0.113-0.001,0.17-0.004c4.237-0.203,8.429-0.601,12.458-1.181
		c1.913-0.275,3.241-2.05,2.965-3.963C250.452,266.136,248.679,264.806,246.764,265.085z"/>
	<path d="M409.189,208.505c0.949,3.886,1.741,7.808,2.355,11.66c0.275,1.723,1.763,2.95,3.453,2.95c0.183,0,0.369-0.015,0.556-0.045
		c1.909-0.304,3.21-2.099,2.905-4.008c-0.644-4.038-1.475-8.149-2.469-12.219c-0.458-1.877-2.349-3.026-4.23-2.569
		C409.881,204.732,408.73,206.627,409.189,208.505z"/>
	<path d="M416.738,236.33c-0.013,0-0.026,0-0.039,0c-1.933,0.021-3.483,1.605-3.463,3.538c0.006,0.485,0.009,0.97,0.009,1.454
		c0,3.461-0.141,6.959-0.42,10.399c-0.155,1.927,1.28,3.615,3.207,3.771c0.096,0.008,0.191,0.012,0.286,0.012
		c1.806,0,3.337-1.388,3.485-3.218c0.293-3.627,0.442-7.315,0.442-10.964c0-0.51-0.003-1.02-0.009-1.53
		C420.216,237.872,418.653,236.33,416.738,236.33z"/>
	<path d="M407.744,191.578c1.798-0.711,2.68-2.743,1.97-4.541c-1.618-4.098-3.356-7.945-5.168-11.435
		c-0.89-1.716-3.003-2.386-4.718-1.495c-1.716,0.891-2.386,3.004-1.494,4.719c1.7,3.277,3.338,6.905,4.869,10.781
		c0.543,1.377,1.861,2.216,3.256,2.216C406.887,191.823,407.322,191.744,407.744,191.578z"/>
	<path d="M325.627,211.205c-1.641-1.02-3.8-0.517-4.82,1.125c-2.342,3.767-4.494,7.047-6.579,10.028
		c-1.108,1.584-0.722,3.767,0.862,4.874c0.611,0.427,1.31,0.632,2.003,0.632c1.104,0,2.19-0.521,2.871-1.494
		c2.158-3.086,4.378-6.47,6.787-10.345C327.772,214.384,327.268,212.226,325.627,211.205z"/>
	<path d="M358.329,158.215c-2.138,1.809-4.303,3.987-6.445,6.486c-0.803,0.945-1.59,1.898-2.363,2.859
		c-1.211,1.507-0.971,3.709,0.535,4.921c0.646,0.519,1.421,0.772,2.191,0.772c1.023,0,2.039-0.447,2.73-1.308
		c0.732-0.911,1.478-1.815,2.231-2.7c1.89-2.206,3.789-4.12,5.642-5.688c1.476-1.248,1.66-3.457,0.411-4.934
		C362.013,157.149,359.806,156.965,358.329,158.215z"/>
	<path d="M342.422,183.383c-1.632-1.033-3.795-0.549-4.83,1.084c-2.41,3.805-4.686,7.604-6.4,10.49
		c-0.987,1.662-0.44,3.81,1.222,4.797c0.561,0.332,1.176,0.49,1.784,0.49c1.195,0,2.358-0.611,3.013-1.713
		c1.689-2.846,3.932-6.59,6.294-10.318C344.54,186.58,344.055,184.418,342.422,183.383z"/>
	<path d="M215.14,265.788c-3.862-0.326-7.855-0.801-11.87-1.409c-1.908-0.283-3.695,1.025-3.985,2.936
		c-0.289,1.911,1.025,3.695,2.936,3.985c4.166,0.631,8.314,1.123,12.329,1.462c0.1,0.009,0.2,0.013,0.299,0.013
		c1.799,0,3.33-1.38,3.484-3.205C218.496,267.643,217.066,265.95,215.14,265.788z"/>
	<path d="M276.711,256.067c-3.469,1.698-7.119,3.204-10.849,4.478c-1.829,0.625-2.806,2.614-2.182,4.443
		c0.497,1.455,1.857,2.37,3.312,2.37c0.375,0,0.756-0.061,1.131-0.188c4.007-1.368,7.932-2.988,11.664-4.815
		c1.736-0.85,2.455-2.946,1.605-4.683C280.543,255.935,278.448,255.218,276.711,256.067z"/>
	<path d="M301.784,237.672c-2.765,2.864-5.675,5.532-8.648,7.93c-1.505,1.213-1.741,3.416-0.528,4.921
		c0.692,0.858,1.705,1.304,2.727,1.304c0.771,0,1.548-0.254,2.195-0.775c3.199-2.578,6.325-5.444,9.291-8.518
		c1.343-1.391,1.303-3.606-0.087-4.949C305.343,236.243,303.126,236.28,301.784,237.672z"/>
	<path d="M183.681,260.441c-3.792-0.94-7.692-2.008-11.595-3.175c-1.852-0.551-3.802,0.5-4.356,2.352
		c-0.553,1.852,0.499,3.802,2.351,4.355c4.008,1.198,8.016,2.295,11.914,3.263c0.283,0.069,0.566,0.104,0.846,0.104
		c1.57,0,2.999-1.065,3.394-2.658C186.7,262.805,185.557,260.907,183.681,260.441z"/>
	<path d="M154.962,248.484c-0.722-1.793-2.761-2.658-4.553-1.94c-1.446,0.582-2.901,1.146-4.356,1.71
		c-1.442-0.496-2.901-1.007-4.386-1.548c-1.817-0.66-3.825,0.275-4.486,2.092c-0.416,1.142-0.198,2.357,0.469,3.27
		c-0.635,0.904-0.838,2.092-0.431,3.21c0.517,1.422,1.859,2.305,3.29,2.305c0.397,0,0.801-0.068,1.196-0.212
		c1.499-0.546,2.993-1.108,4.485-1.674l0.173,0.059c1.373,0.538,2.757,1.07,4.152,1.597c0.406,0.153,0.824,0.226,1.234,0.226
		c1.415,0,2.747-0.864,3.275-2.267c0.45-1.192,0.196-2.468-0.541-3.399C155.209,250.962,155.441,249.674,154.962,248.484z"/>
	<path d="M62.16,269.495c-3.796,0.462-7.591,0.849-11.281,1.15c-1.926,0.157-3.36,1.848-3.203,3.773
		c0.15,1.83,1.681,3.215,3.484,3.215c0.096,0,0.192-0.004,0.29-0.012c3.78-0.31,7.667-0.706,11.554-1.178
		c1.919-0.233,3.285-1.978,3.052-3.896C65.824,270.628,64.08,269.259,62.16,269.495z"/>
	<path d="M121.343,256.798c-3.616,1.104-7.292,2.165-10.924,3.153c-1.865,0.507-2.966,2.43-2.459,4.295
		c0.423,1.559,1.835,2.583,3.375,2.583c0.304,0,0.613-0.04,0.92-0.124c3.701-1.006,7.447-2.087,11.132-3.212
		c1.849-0.564,2.89-2.521,2.325-4.37C125.148,257.274,123.192,256.236,121.343,256.798z"/>
	<path d="M92.013,264.438c-3.72,0.803-7.471,1.548-11.147,2.217c-1.902,0.346-3.163,2.167-2.817,4.069
		c0.307,1.69,1.78,2.875,3.439,2.875c0.207,0,0.418-0.019,0.63-0.058c3.752-0.682,7.578-1.442,11.372-2.262
		c1.89-0.407,3.091-2.27,2.683-4.159C95.765,265.232,93.903,264.031,92.013,264.438z"/>
	<path d="M415.658,331.076l-1.826-10.956l1.712,0.893l2.082-3.989c21.029-40.306,25.039-82.364,11.921-124.993l-0.048-0.156
		c-7.402-23.442-21.499-52.463-46.614-57.59c-2.453-0.501-4.96-0.755-7.447-0.755c-13.061,0-25.372,6.638-36.604,19.741
		c-10.271,12.084-17.831,24.902-25.142,37.299c-11.808,20.02-22.005,37.311-41.191,48.055
		c-12.376,6.875-27.287,10.332-44.409,10.332c-7.769,0-15.996-0.712-24.644-2.141c27.026-15.876,48.975-34.555,63.909-54.468
		c13.77-18.359,19.13-38.227,15.501-57.458c-3.852-20.414-17.375-38.314-39.177-51.811l-0.552-0.327
		c-17.715-10.122-38.349-15.474-59.672-15.474c-22.51,0-44.668,5.854-64.038,16.902c-34.397,19.135-70.562,54.873-68.95,97.814
		c0.113,17.887,7.294,43.033,39.235,65.094c-20.818,4.593-41.094,6.999-59.262,6.999c-1.364,0-2.716-0.014-4.055-0.041l-4.499-0.092
		l-0.836,40.991l4.498,0.092c1.626,0.033,3.26,0.05,4.91,0.05c8.745,0,17.815-0.47,27.096-1.375l-9.351,13.777l-16.006,23.585H0
		v38.732h437.027v-38.732h-12.07H415.658z M44.285,331.076l16.739-24.666l6.03-8.886l4.295,7.652l14.538,25.899H44.285z
		 M189.688,331.076l-3.969-32.675c-3.422-0.693-6.874-1.466-10.354-2.318l4.251,34.993h-52.023l6.236-39.893
		c-3.531,1.098-7.07,2.156-10.614,3.152l-5.744,36.741H97.355l-15.438-27.504l-6.779-12.077c23.296-3.554,47.451-9.667,70.851-18.07
		c29.495,10.94,57.168,16.487,82.271,16.487c9.785,0,19.147-0.872,28.064-2.576l-9.916,14.61l-19.769,29.13H189.688z
		 M238.724,331.076l21.165-31.188l1.604-2.364l1.02,1.817l17.813,31.734H238.724z M347.891,331.076l29.003-126.312
		c-1.111-3.232-2.2-5.986-3.226-8.317c-2.73,3.881-5.345,8.012-7.949,12.298l-28.088,122.331h-45.837l-19.261-34.313l-6.277-11.183
		l-1.768-0.075c9.967-2.574,19.32-6.261,27.984-11.074c28.904-16.185,42.949-39.999,56.534-63.032
		c6.727-11.404,13.081-22.178,21.012-31.509c2.48-2.893,4.238-4.284,5.227-4.925c2.614,2.179,9.102,10.104,15.129,29.167
		c9.953,32.393,6.978,63.116-9.098,93.928l-2.082,3.989l23.534,12.278l2.677,16.06l0.115,0.689H347.891z M404.822,305.268
		c0.189-0.388,0.384-0.776,0.569-1.162c0.835-1.743,0.099-3.833-1.645-4.668c-1.744-0.838-3.833-0.099-4.669,1.645
		c-0.151,0.314-0.31,0.631-0.463,0.947l-7.333-3.825c15.433-31.674,17.944-63.36,7.685-96.752
		c-7.292-23.059-16.546-34.603-22.45-35.808c-0.338-0.071-0.691-0.108-1.049-0.108c-3.225,0-7.587,3.018-12.294,8.51
		c-8.444,9.936-14.989,21.031-21.92,32.783c-12.977,22-26.394,44.75-53.164,59.74c-17.128,9.518-37.257,14.342-59.828,14.342
		c-24.459,0-51.597-5.549-80.659-16.493l-1.559-0.587l-1.566,0.57c-38.426,13.984-78.943,21.686-114.087,21.686
		c-0.052,0-0.102,0-0.154,0l0.155-7.582c0.056,0,0.112,0.002,0.168,0.002c0.512,0,1.023-0.002,1.533-0.005
		c1.933-0.013,3.49-1.591,3.477-3.523c-0.013-1.925-1.578-3.477-3.5-3.477c-0.008,0-0.016,0-0.024,0c-0.503,0.004-1.007,0-1.511,0
		l0.171-8.414c21.794-0.025,46.512-3.383,71.504-9.714l10.624-2.691l-9.45-5.551c-29.007-17.037-43.781-38.322-43.913-63.26
		l-0.003-0.149c-1.497-38.899,32.249-71.831,64.371-89.701c18.055-10.299,38.673-15.743,59.621-15.743
		c19.759,0,38.85,4.941,55.139,14.248l0.416,0.246c19.527,12.09,31.631,27.922,35.002,45.785
		c3.148,16.682-1.644,34.105-13.856,50.39c-16.081,21.442-40.868,41.478-71.682,57.942l-10.606,5.666l11.722,2.688
		c13.681,3.138,26.661,4.727,38.581,4.727c18.602,0,34.986-3.863,48.713-11.488c21.318-11.939,32.088-30.199,44.558-51.342
		c7.118-12.068,14.478-24.549,24.235-36.027c9.433-11.005,19.445-16.585,29.759-16.585c1.885,0,3.785,0.192,5.647,0.573
		c20.828,4.252,33.157,30.343,39.819,51.437l0.039,0.125c11.965,38.887,8.847,77.276-9.262,114.181L404.822,305.268z"/>
</g>
<g>
</g>
<g>
</g>
<g>
</g>
<g>
</g>
<g>
</g>
<g>
</g>
<g>
</g>
<g>
</g>
<g>
</g>
<g>
</g>
<g>
</g>
<g>
</g>
<g>
</g>
<g>
</g>
<g>
</g>
</svg>
