<?xml version="1.0" encoding="iso-8859-1"?>
<!-- Generator: Adobe Illustrator 18.0.0, SVG Export Plug-In . SVG Version: 6.00 Build 0)  -->
<!DOCTYPE svg PUBLIC "-//W3C//DTD SVG 1.1//EN" "http://www.w3.org/Graphics/SVG/1.1/DTD/svg11.dtd">
<svg version="1.1" id="Capa_1" xmlns="http://www.w3.org/2000/svg" xmlns:xlink="http://www.w3.org/1999/xlink" x="0px" y="0px"
	 viewBox="0 0 357.199 357.199" style="enable-background:new 0 0 357.199 357.199;" xml:space="preserve">
<g>
	<path d="M159.599,223.377v76.556c0,5.522,4.477,10,10,10c5.523,0,10-4.478,10-10v-76.917c-1.887-0.047-3.762-0.079-5.611-0.079
		C169.318,222.936,164.517,223.085,159.599,223.377z"/>
	<path d="M159.599,84.569v31.242c0.533,0.055,1.058,0.104,1.597,0.161c2.377,0.251,4.656,0.379,6.779,0.379
		c4.474-0.001,8.275-0.577,11.624-1.651V84.569c5.972-3.459,10-9.903,10-17.303c0-11.047-8.955-20-20-20c-11.047,0-20,8.953-20,20
		C149.599,74.666,153.627,81.11,159.599,84.569z"/>
	<path d="M356.871,56.941c-0.451-0.796-1.293-1.273-2.206-1.273c-0.046,0-0.092,0.001-0.138,0.004
		c-2.753,0.171-5.602,0.254-8.706,0.254c-8.351,0-17.112-0.628-25.586-1.235c-8.729-0.626-17.757-1.273-26.624-1.273
		c-18.5,0-32.913,2.982-45.357,9.385c-17.553,9.031-27.25,22.595-35.805,34.561c-11.121,15.554-20.725,28.986-44.473,28.989
		c-0.002,0-0.004,0-0.007,0c-2.47,0-5.103-0.146-7.825-0.435c-9.27-0.982-17.488-1.46-25.125-1.46
		c-18.652,0-34.54,2.89-48.568,8.833c-2.021,0.856-3.925,1.273-5.818,1.273c-4.035,0-7.668-1.96-11.514-4.034
		c-4.096-2.211-8.739-4.716-14.461-5.071c-1.465-0.091-2.902-0.137-4.312-0.137c-17.555,0-30.839,7.042-39.435,20.895
		c-6.835,11.014-8.813,23.439-9.764,29.411c-0.098,0.612-0.185,1.156-0.251,1.554c-1.643,8.218-1.038,13.789,1.903,17.531
		c4.255,5.415,12.221,5.745,22.306,6.163c2.37,0.098,4.82,0.199,7.375,0.372c0.057,0.004,0.113,0.006,0.17,0.006
		c0.007,0,0.014,0,0.02,0c1.39,0,2.516-1.126,2.516-2.516c0-0.127-0.01-0.251-0.027-0.373c-0.268-13.282,1.729-37.844,10.922-47.251
		c2.538-2.599,5.406-3.861,8.767-3.861c0.576,0,1.455,0.122,2.43,1.176c3.267,3.531,6.556,15.431,3.739,52.02L22.8,265.654
		c-3.752,6.391-2.352,14.488,3.333,19.255c2.722,2.282,6.173,3.539,9.72,3.539c4.467,0,8.674-1.951,11.557-5.354l58.25-61.992
		c24.68-5.418,47.665-8.165,68.328-8.165c18.328,0,38.398,2.182,59.663,6.484l59.655,63.67c2.879,3.405,7.092,5.357,11.57,5.357
		c2.676,0,5.317-0.719,7.638-2.078c7.201-4.221,9.626-13.513,5.405-20.714l-40.487-69.085
		c-18.583-32.722-10.52-72.385,12.079-72.385c6.701,0,12.389,15.315,16.958,27.62c5.076,13.67,9.46,25.477,16.818,25.477
		c7.626,0,13.843-2.425,18.479-7.206c12.323-12.71,11.499-39.314,10.702-65.042c-0.596-19.273-1.16-37.478,4.29-45.431
		C357.302,58.81,357.345,57.777,356.871,56.941z"/>
</g>
<g>
</g>
<g>
</g>
<g>
</g>
<g>
</g>
<g>
</g>
<g>
</g>
<g>
</g>
<g>
</g>
<g>
</g>
<g>
</g>
<g>
</g>
<g>
</g>
<g>
</g>
<g>
</g>
<g>
</g>
</svg>
