<?xml version="1.0" encoding="iso-8859-1"?>
<!-- Generator: Adobe Illustrator 18.0.0, SVG Export Plug-In . SVG Version: 6.00 Build 0)  -->
<!DOCTYPE svg PUBLIC "-//W3C//DTD SVG 1.1//EN" "http://www.w3.org/Graphics/SVG/1.1/DTD/svg11.dtd">
<svg version="1.1" id="Capa_1" xmlns="http://www.w3.org/2000/svg" xmlns:xlink="http://www.w3.org/1999/xlink" x="0px" y="0px"
	 viewBox="0 0 434.859 434.859" style="enable-background:new 0 0 434.859 434.859;" xml:space="preserve">
<g>
	<path d="M286.945,265.672l27.049-52.073c0.289,0.01,0.576,0.022,0.867,0.022c0.289,0,0.576-0.012,0.863-0.022l27.049,52.073
		c6.484-2.478,12.555-5.79,18.088-9.808l-26.879-51.744c3.059-4.028,4.879-9.051,4.879-14.5c0-13.256-10.748-24-24-24
		c-13.256,0-24,10.744-24,24c0,5.448,1.818,10.47,4.875,14.498l-26.879,51.746C274.389,259.883,280.461,263.195,286.945,265.672z"/>
	<path d="M386.016,304.288l-12.465-23.992c-5.68,3.803-11.744,7.069-18.127,9.729l12.334,23.745
		c0.922,1.772,2.285,3.162,3.887,4.108h-113.59c1.607-0.946,2.982-2.332,3.904-4.108l12.336-23.745
		c-6.381-2.66-12.447-5.927-18.129-9.729l-12.463,23.992c-2.531,4.876-0.768,10.836,3.912,13.591h-75.707l25.281-76.186
		c1.332-0.303,2.65-0.614,3.939-0.922c7.582-1.809,13.398-3.026,18.594-2.232c3.787,0.578,7.244,2.223,10.805,5.506
		c1.254,2.038,2.58,4.027,3.973,5.964c-1.621,0.8-3.146,1.859-4.496,3.208c-0.316,0.316-0.604,0.649-0.889,0.983
		c-5.703,6.664-5.416,16.696,0.889,23.003c6.311,6.308,16.34,6.594,23.004,0.891c0.334-0.287,0.67-0.574,0.986-0.891
		c1.348-1.349,2.406-2.874,3.205-4.494c12.113,8.716,26.268,14.762,41.598,17.275c-0.572,1.699-0.895,3.512-0.895,5.404
		c0,0.465,0.033,0.921,0.07,1.376c0.701,8.722,7.988,15.584,16.887,15.584c8.898,0,16.185-6.863,16.887-15.584
		c0.037-0.456,0.07-0.912,0.07-1.376c0-1.892-0.324-3.705-0.895-5.404c15.33-2.514,29.484-8.559,41.598-17.275
		c0.799,1.621,1.857,3.145,3.207,4.494c0.316,0.317,0.65,0.604,0.984,0.891c6.662,5.703,16.693,5.415,23.004-0.891
		c6.305-6.307,6.592-16.338,0.889-23.002c-0.285-0.334-0.572-0.668-0.889-0.984c-1.35-1.349-2.875-2.408-4.496-3.208
		c8.715-12.112,14.762-26.266,17.273-41.593c1.701,0.571,3.516,0.895,5.41,0.895c0.463,0,0.918-0.033,1.371-0.069
		c8.721-0.7,15.586-7.986,15.586-16.892c0-8.904-6.865-16.191-15.586-16.892c-0.453-0.037-0.908-0.069-1.371-0.069
		c-1.895,0-3.709,0.323-5.41,0.895c-2.514-15.328-8.557-29.48-17.273-41.592c1.621-0.799,3.147-1.858,4.496-3.207
		c0.316-0.316,0.603-0.65,0.889-0.985c5.703-6.665,5.416-16.695-0.889-23.001c-6.311-6.308-16.342-6.594-23.002-0.891
		c-0.336,0.287-0.67,0.574-0.986,0.891c-1.348,1.349-2.408,2.873-3.207,4.494c-12.113-8.717-26.27-14.762-41.598-17.275
		c0.57-1.7,0.895-3.514,0.895-5.406c0-0.464-0.033-0.92-0.07-1.375c-0.701-8.723-7.988-15.586-16.887-15.586
		c-8.9,0-16.186,6.864-16.887,15.586c-0.037,0.455-0.07,0.911-0.07,1.375c0,1.893,0.322,3.706,0.895,5.406
		c-15.328,2.513-29.484,8.559-41.598,17.275c-0.799-1.621-1.857-3.146-3.205-4.496c-0.316-0.316-0.65-0.604-0.984-0.89
		c-6.664-5.704-16.695-5.417-23.006,0.892c-6.305,6.307-6.59,16.339-0.889,23.002c0.285,0.335,0.572,0.668,0.889,0.984
		c1.35,1.349,2.875,2.408,4.496,3.207c-8.715,12.112-14.76,26.265-17.273,41.592c-1.701-0.572-3.516-0.895-5.41-0.895
		c-0.463,0-0.916,0.033-1.369,0.069c-8.723,0.699-15.588,7.987-15.588,16.892c0,8.906,6.865,16.192,15.586,16.892
		c0.453,0.037,0.908,0.069,1.371,0.069c1.895,0,3.709-0.323,5.41-0.895c0.977,5.951,2.482,11.725,4.473,17.27
		c-2.461-0.374-4.912-0.467-7.336-0.356c-5.598,0.255-11.064,1.559-16.252,2.797c-2.678,0.639-5.445,1.3-8.186,1.816
		c-12.627,1.964-22.115-0.112-29.012-6.342c-15.531-14.028-15.654-46.612-14.395-69.9l0.01-0.351
		c0-16.559-1.865-30.618-10.965-45.407c-11.504-18.691-33.848-28.207-50.949-21.628c-9.185,3.674-16.492,11.734-19.543,21.56
		c-2.922,9.408-1.645,19.25,3.506,27.018c1.369,2.154,2.787,4.322,4.217,6.508c8.801,13.455,17.9,27.369,17.9,42.283
		c0,40.758-36.506,69.731-70.33,73.2l1.326,12.933c1.105-0.113,2.209-0.26,3.313-0.418l17.887,48.481H0v44.631h434v-44.631h-51.897
		C386.783,315.124,388.547,309.164,386.016,304.288z M314.859,107.055c47.029,0,85.291,38.263,85.291,85.295
		c0,47.033-38.262,85.297-85.291,85.297s-85.291-38.264-85.291-85.297C229.568,145.318,267.83,107.055,314.859,107.055z
		 M107.801,317.879H58.945l-19.16-51.932c14.256-4.615,27.731-12.765,38.549-23.584c16.354-16.355,25.361-37.194,25.361-58.679
		c0-18.789-10.637-35.051-20.021-49.399c-1.41-2.157-2.809-4.295-4.158-6.419l-0.078-0.121c-3.002-4.503-3.713-10.34-1.951-16.014
		c1.902-6.123,6.371-11.111,11.875-13.314c5.043-1.939,11.811-1.483,18.439,1.463V317.879z M122.863,317.879V112.316
		c0.563,0.784,1.109,1.594,1.629,2.439c7.496,12.181,9.025,23.742,9.037,38.42c-1.393,25.936-0.941,62.359,18.67,80.073
		c7.506,6.778,17.059,10.246,28.479,10.383l-24.639,74.248H122.863z"/>
</g>
<g>
</g>
<g>
</g>
<g>
</g>
<g>
</g>
<g>
</g>
<g>
</g>
<g>
</g>
<g>
</g>
<g>
</g>
<g>
</g>
<g>
</g>
<g>
</g>
<g>
</g>
<g>
</g>
<g>
</g>
</svg>
