<?xml version="1.0" encoding="iso-8859-1"?>
<!-- Generator: Adobe Illustrator 18.0.0, SVG Export Plug-In . SVG Version: 6.00 Build 0)  -->
<!DOCTYPE svg PUBLIC "-//W3C//DTD SVG 1.1//EN" "http://www.w3.org/Graphics/SVG/1.1/DTD/svg11.dtd">
<svg version="1.1" id="Capa_1" xmlns="http://www.w3.org/2000/svg" xmlns:xlink="http://www.w3.org/1999/xlink" x="0px" y="0px"
	 viewBox="0 0 348.191 348.191" style="enable-background:new 0 0 348.191 348.191;" xml:space="preserve">
<g>
	<path d="M308.436,58.203c0-12.513,0-25.025,0-37.538c-88.413-27.56-180.268-27.546-268.682,0c0,12.514,0,25.027,0,37.541
		c44.26-11.343,89.33-17.098,134.359-17.098C219.139,41.108,264.197,46.862,308.436,58.203z"/>
	<path d="M258.136,128.973c-3.294-0.864-6.04-0.477-8.177,1.109c-2.136,1.589-3.63,4.351-4.526,8.26
		c-0.896,3.909-0.774,7.033,0.314,9.377c1.087,2.346,3.142,3.887,6.194,4.687c6.126,1.604,10.302-1.319,12.586-9.062
		C266.817,135.587,264.708,130.696,258.136,128.973z"/>
	<path d="M122.149,121.864c-0.073,0.011-1.192,7.554-2.462,16.167c3.94-0.688,5.912-1,9.865-1.561
		c-3.629-7.307-5.822-11.389-6.31-12.339C122.752,123.182,122.149,121.864,122.149,121.864z"/>
	<path d="M338.937,182.654c1.567,0,2.993-0.59,4.08-1.554c1.272-1.129,2.078-2.77,2.078-4.604s-0.807-3.476-2.078-4.604
		c-1.087-0.964-2.513-1.554-4.08-1.554h-5.92c0-12.736,0-25.341,0-37.684h5.92c1.567,0,2.993-0.59,4.08-1.554
		c1.272-1.128,2.078-2.77,2.078-4.604s-0.807-3.476-2.078-4.604c-1.087-0.964-2.513-1.554-4.08-1.554h-5.92
		c0-15.498,0-30.52,0-44.782c-52.289-16.3-105.597-24.448-158.903-24.448c-53.319,0-106.638,8.151-158.94,24.448
		c0,14.263,0,29.284,0,44.782h-5.92c-1.567,0-2.993,0.59-4.08,1.554c-1.272,1.128-2.078,2.77-2.078,4.604s0.807,3.476,2.078,4.604
		c1.087,0.964,2.513,1.554,4.08,1.554h5.92c0,12.343,0,24.948,0,37.684h-5.92c-1.567,0-2.993,0.59-4.08,1.554
		c-1.272,1.128-2.078,2.77-2.078,4.604s0.807,3.476,2.078,4.604c1.087,0.964,2.513,1.554,4.08,1.554h5.92
		c0,12.511,0,25.108,0,37.684h-5.92c-1.567,0-2.993,0.59-4.08,1.554c-1.272,1.129-2.078,2.771-2.078,4.605s0.807,3.476,2.078,4.604
		c1.087,0.964,2.513,1.554,4.08,1.554h5.92c0,12.668,0,25.266,0,37.684h-5.92c-1.567,0-2.993,0.59-4.08,1.554
		c-1.272,1.129-2.078,2.77-2.078,4.604c0,1.834,0.807,3.476,2.078,4.604c1.087,0.964,2.513,1.554,4.08,1.554h5.92
		c0,22.881,0,44.984,0,65.537H138.43v-72.854h71.332v72.854h123.256c0-20.553,0-42.656,0-65.537h5.92c1.567,0,2.993-0.59,4.08-1.554
		c1.272-1.129,2.078-2.771,2.078-4.604c0-1.834-0.807-3.476-2.078-4.604c-1.087-0.964-2.513-1.554-4.08-1.554h-5.92
		c0-12.418,0-25.016,0-37.684h5.92c1.567,0,2.993-0.59,4.08-1.554c1.272-1.129,2.078-2.77,2.078-4.604s-0.807-3.476-2.078-4.605
		c-1.087-0.964-2.513-1.554-4.08-1.554h-5.92c0-12.575,0-25.173,0-37.684H338.937z M177.375,112.383
		c3.456,0.035,5.186,0.074,8.64,0.195c-0.425,11.959-0.851,23.921-1.277,35.88c-3.087-0.112-4.631-0.145-7.718-0.177
		C177.138,136.314,177.258,124.35,177.375,112.383z M147.764,115.605c2.28-2.003,5.604-3.151,9.918-3.359
		c2.119-0.103,4.152,0.039,6.087,0.423c1.934,0.382,3.955,0.961,6.052,1.736c-1.078,2.38-1.607,3.573-2.646,5.964
		c-2.138-0.741-3.918-1.233-5.322-1.495c-1.406-0.26-2.789-0.356-4.139-0.289c-1.605,0.079-2.819,0.487-3.632,1.208
		c-0.814,0.722-1.182,1.625-1.112,2.704c0.043,0.667,0.251,1.241,0.623,1.719c0.371,0.475,0.943,0.923,1.711,1.348
		c0.768,0.423,2.574,1.155,5.37,2.251c3.701,1.452,6.206,3.017,7.564,4.605c1.357,1.587,2.036,3.557,2.064,5.9
		c0.039,3.24-1.145,5.802-3.485,7.721c-2.339,1.924-5.58,2.959-9.784,3.197c-3.876,0.217-7.344-0.233-10.469-1.398
		c-0.256-2.818-0.385-4.226-0.641-7.042c2.619,0.846,4.799,1.445,6.564,1.763c1.766,0.32,3.361,0.444,4.798,0.366
		c1.724-0.094,3.031-0.47,3.929-1.148c0.898-0.676,1.328-1.642,1.282-2.899c-0.026-0.704-0.255-1.324-0.689-1.857
		c-0.437-0.532-1.064-1.032-1.894-1.504c-0.828-0.471-2.509-1.214-5.064-2.166c-2.391-0.891-4.233-1.745-5.483-2.601
		c-1.252-0.855-2.287-1.878-3.105-3.072c-0.818-1.194-1.309-2.628-1.457-4.308C144.519,120.209,145.486,117.605,147.764,115.605z
		 M96.766,158.833c-5.154,1.367-9.494,1.017-13.18-1.157c-3.685-2.177-6.5-6.034-8.332-11.668c-1.153-3.55-1.459-6.891-0.855-10.029
		c0.602-3.135,2.078-5.854,4.439-8.112c2.359-2.261,5.459-3.921,9.25-4.917c3.865-1.016,7.977-1.15,12.244-0.381
		c-0.545,2.66-0.806,3.988-1.309,6.648c-1.602-0.283-3.202-0.468-4.794-0.564c-1.593-0.093-3.106,0.051-4.53,0.425
		c-3.115,0.819-5.238,2.536-6.329,5.087c-1.091,2.554-1.063,5.679,0.028,9.37c2.27,7.676,6.404,10.576,12.461,8.985
		c2.541-0.668,5.46-2.056,8.836-4.125c0.572,2.487,0.857,3.734,1.43,6.223C103.457,156.491,100.352,157.882,96.766,158.833z
		 M117.723,153.565c-3.283,0.623-4.921,0.957-8.19,1.671c1.653-12.745,3.817-25.426,6.477-38c4.18-0.729,6.273-1.061,10.468-1.655
		c6.423,11.136,12.404,22.525,17.904,34.146c-3.316,0.329-4.971,0.514-8.279,0.934c-1.479-3.258-2.232-4.885-3.77-8.126
		c-5.423,0.733-8.129,1.161-13.523,2.137C118.346,148.228,118.127,150.009,117.723,153.565z M123.7,265.338
		c2.644-24.171,24.236-43.079,50.396-43.079s47.752,18.908,50.395,43.079H123.7z M226.008,152.779
		c-3.88-0.678-5.824-0.985-9.72-1.537c-4.024-9.836-8.595-19.377-13.374-28.863c-0.098-0.01-0.146-0.015-0.242-0.021
		c-0.076,4.809-0.215,8.229-0.398,10.27c-0.598,6.73-0.898,10.097-1.495,16.827c-2.752-0.243-4.13-0.353-6.884-0.532
		c0.785-11.942,1.574-23.884,2.363-35.822c4.354,0.285,6.526,0.467,10.869,0.894c4.836,9.46,9.461,18.975,13.554,28.783
		c0.069,0.012,0.105,0.017,0.176,0.026c0.45-4.651,0.811-7.933,1.099-9.841c1.017-6.723,1.525-10.084,2.542-16.805
		c3.083,0.466,4.622,0.718,7.698,1.258C230.135,129.203,228.066,140.992,226.008,152.779z M272.813,145.914
		c-1.836,5.649-4.751,9.496-8.62,11.643c-3.87,2.148-8.436,2.446-13.868,1.024c-5.432-1.422-9.245-3.919-11.549-7.684
		c-2.304-3.767-2.942-8.555-1.765-14.414c1.177-5.859,3.664-10.027,7.586-12.402c3.922-2.376,9.029-2.838,15.145-1.235
		c6.115,1.602,10.338,4.524,12.565,8.536C274.536,135.393,274.655,140.246,272.813,145.914z"/>
</g>
<g>
</g>
<g>
</g>
<g>
</g>
<g>
</g>
<g>
</g>
<g>
</g>
<g>
</g>
<g>
</g>
<g>
</g>
<g>
</g>
<g>
</g>
<g>
</g>
<g>
</g>
<g>
</g>
<g>
</g>
</svg>
