<?xml version="1.0" encoding="iso-8859-1"?>
<!-- Generator: Adobe Illustrator 18.0.0, SVG Export Plug-In . SVG Version: 6.00 Build 0)  -->
<!DOCTYPE svg PUBLIC "-//W3C//DTD SVG 1.1//EN" "http://www.w3.org/Graphics/SVG/1.1/DTD/svg11.dtd">
<svg version="1.1" id="Capa_1" xmlns="http://www.w3.org/2000/svg" xmlns:xlink="http://www.w3.org/1999/xlink" x="0px" y="0px"
	 viewBox="0 0 426 426" style="enable-background:new 0 0 426 426;" xml:space="preserve">
<g>
	<path d="M416.89,295.873V165.09H310.933l5.41,32.27h67.837v42.92h-60.643l9.32,55.594h-13.386L285.797,95H140.203l-33.675,200.873
		H93.143l9.32-55.594H41.82v-42.92h67.837l5.41-32.27H9.11v130.783H0V331h426v-35.127H416.89z M214.529,120.558
		c6.624,0,13.007,1.948,18.491,5.64l0.04-0.072l0.35,0.203c13.656,8.038,15.113,23.822,16.398,37.748
		c0.165,1.796,0.328,3.558,0.513,5.264c0.553,4.625,1.251,8.854,3.23,12.248c-0.425,0.962-0.742,1.973-0.973,3.006
		c-3.477-4.547-4.184-10.387-4.732-14.951c-0.179-1.651-0.336-3.328-0.493-5.031l-0.061-0.617c-0.095-1.053-0.191-2.127-0.302-3.207
		c-3.252,15.129-16.727,26.208-32.462,26.208c-18.315,0-33.217-14.898-33.217-33.218
		C181.313,135.459,196.214,120.558,214.529,120.558z M205.667,295.873h-29.339v-64.394h29.339V295.873z M245.564,295.873h-29.336
		v-64.394h29.336V295.873z M274.313,219.186H151.688v-9.623h122.625V219.186z"/>
	<path d="M205.465,153.774c0-5.322-4.326-9.649-9.652-9.649c-5.32,0-9.648,4.327-9.648,9.649c0,5.32,4.327,9.648,9.648,9.648
		C201.139,163.422,205.47,159.095,205.465,153.774z"/>
	<path d="M214.529,144.71c5.323,0,9.646-4.329,9.646-9.65c0-5.322-4.323-9.65-9.646-9.65c-5.32,0-9.652,4.328-9.647,9.65
		C204.882,140.381,209.211,144.71,214.529,144.71z"/>
	<path d="M233.244,163.422c5.32,0,9.648-4.327,9.648-9.648c0-5.322-4.328-9.649-9.648-9.649c-5.318,0-9.645,4.327-9.645,9.649
		C223.599,159.095,227.926,163.422,233.244,163.422z"/>
	<path d="M214.529,162.842c-5.318,0-9.647,4.324-9.647,9.648c0,5.318,4.329,9.647,9.647,9.647c5.323,0,9.646-4.329,9.646-9.647
		C224.176,167.166,219.852,162.842,214.529,162.842z"/>
</g>
<g>
</g>
<g>
</g>
<g>
</g>
<g>
</g>
<g>
</g>
<g>
</g>
<g>
</g>
<g>
</g>
<g>
</g>
<g>
</g>
<g>
</g>
<g>
</g>
<g>
</g>
<g>
</g>
<g>
</g>
</svg>
