<?xml version="1.0" encoding="iso-8859-1"?>
<!-- Generator: Adobe Illustrator 18.0.0, SVG Export Plug-In . SVG Version: 6.00 Build 0)  -->
<!DOCTYPE svg PUBLIC "-//W3C//DTD SVG 1.1//EN" "http://www.w3.org/Graphics/SVG/1.1/DTD/svg11.dtd">
<svg version="1.1" id="Capa_1" xmlns="http://www.w3.org/2000/svg" xmlns:xlink="http://www.w3.org/1999/xlink" x="0px" y="0px"
	 viewBox="0 0 454.832 454.832" style="enable-background:new 0 0 454.832 454.832;" xml:space="preserve">
<g>
	<path d="M441.416,318.81V158.125h-49.93l-3.366-2.829c-24.014-20.176-50.669-35.72-79.227-46.2
		c-27.899-10.239-56.992-15.43-86.472-15.43c-29.478,0-58.573,5.192-86.478,15.433c-28.561,10.481-55.218,26.024-79.231,46.199
		l-3.366,2.828H13.416V318.81H0v42.356h454.832V318.81H441.416z M222.422,111.616c53.165,0,103.789,17.811,146.98,51.608
		c-8.217,9.251-16.436,18.501-24.653,27.751c-36.389-27.81-78.51-42.461-122.34-42.461c-43.829,0-85.944,14.65-122.327,42.46
		l-24.651-27.749C118.628,129.427,169.256,111.616,222.422,111.616z M108.697,318.81H71.469l-3.188-53.001h43.604L108.697,318.81z
		 M283.44,318.81H171.392V174.005c16.522-4.985,33.63-7.539,51.018-7.539c20.927,0,41.446,3.698,61.031,10.885V318.81z
		 M383.363,318.81h-37.229l-3.188-53.001h43.604L383.363,318.81z"/>
	<path d="M200.805,205.313c-8.002,0-11.844,4.477-11.844,15.171v1.585c0,10.695,3.842,15.171,12.24,15.171
		c5.387,0,8.517-1.703,10.813-3.604V220.01h-10.497v5.545h4.08v4.952c-0.95,0.673-2.377,1.189-4.198,1.189h-0.356
		c-4.517,0-5.546-3.446-5.546-9.626v-1.585c0-6.179,1.069-9.625,5.308-9.625h0.356c3.565,0,4.477,2.456,4.477,6.694h6.417v-1.426
		C212.055,208.403,208.173,205.313,200.805,205.313z"/>
	<polygon points="212.129,205.828 221.002,227.259 221.002,236.725 227.42,236.725 227.42,227.259 236.253,205.828 229.242,205.828 
		224.211,219.336 219.141,205.828 	"/>
	<polygon points="243.418,223.138 243.22,216.959 248.726,236.725 255.262,236.725 260.768,216.959 260.609,223.138 
		260.609,236.725 267.026,236.725 267.026,205.828 257.52,205.828 252.014,225.594 246.468,205.828 237,205.828 237,236.725 
		243.418,236.725 	"/>
</g>
<g>
</g>
<g>
</g>
<g>
</g>
<g>
</g>
<g>
</g>
<g>
</g>
<g>
</g>
<g>
</g>
<g>
</g>
<g>
</g>
<g>
</g>
<g>
</g>
<g>
</g>
<g>
</g>
<g>
</g>
</svg>
