<?xml version="1.0" encoding="iso-8859-1"?>
<!-- Generator: Adobe Illustrator 18.0.0, SVG Export Plug-In . SVG Version: 6.00 Build 0)  -->
<!DOCTYPE svg PUBLIC "-//W3C//DTD SVG 1.1//EN" "http://www.w3.org/Graphics/SVG/1.1/DTD/svg11.dtd">
<svg version="1.1" id="Capa_1" xmlns="http://www.w3.org/2000/svg" xmlns:xlink="http://www.w3.org/1999/xlink" x="0px" y="0px"
	 viewBox="0 0 478.302 478.302" style="enable-background:new 0 0 478.302 478.302;" xml:space="preserve">
<g>
	<path d="M384.241,99.288c21.303,25.522,18.042,88.612,3.388,149.612c14.458-12.398,32.328-17.59,48.791-12.254
		c21.351,6.92,34.258,29.558,34.375,55.898C495.52,214.754,457.245,131.865,384.241,99.288z"/>
	<path d="M228.951,169.402c16.463,5.336,27.891,20.023,32.318,38.543c23.901-57.914,58.323-110.986,90.537-119.173
		c-78.234-16.455-157.873,28.22-183.488,105.734C183.866,173.242,207.599,162.482,228.951,169.402z"/>
	<path d="M369.589,89.15c4.283,1.388,8.042,3.646,11.325,6.65c0.164-0.376,0.314-0.761,0.442-1.158
		c2.194-6.771-1.515-14.038-8.285-16.232s-14.038,1.515-16.234,8.285c-0.129,0.4-0.234,0.802-0.324,1.204
		C360.938,87.387,365.308,87.762,369.589,89.15z"/>
	<path d="M63.276,382.435c15.459-7.093,26.325-19.131,36.469-32.105c9.862-12.611,19.191-25.678,31.215-36.432
		c9.596-8.584,19.806-16.057,32.663-19.182c9.982-2.426,18.84-0.566,26.788,5.906c4.021,3.276,8.508,5.615,13.665,6.583
		c7.593,1.427,14.415-1.241,18.413-7.64c3.99-6.386,2.656-12.916-0.938-18.793c-9.197-15.043-23.69-21.128-40.506-22.023
		c-18.14-0.969-34.433,4.864-49.474,14.863c-18.445,12.26-31.631,29.066-42.862,47.786c-7.099,11.833-13.402,24.147-21.91,35.142
		c-13.898,17.963-33.104,24.525-55.003,18.516c-4.011-1.101-7.862-2.585-11.796-3.864C16.17,387.547,42.66,391.895,63.276,382.435z"
		/>
	<path d="M139.568,338.827c5.445-4.662,11.584-8.067,18.5-10.093c3.345-0.98,6.638-0.798,9.991-0.302
		c6.11,0.902,12.192,1.541,18.254-0.524c3.456-1.176,6.04-3.276,6.89-6.739c0.951-3.867,0.303-7.504-2.892-10.509
		c-5.904-5.553-13.027-6.498-20.461-5.278c-10.743,1.764-19.597,7.568-27.869,14.307c-11.852,9.655-21.943,21.028-31.574,32.81
		c-8.986,10.992-18.247,21.718-29.801,30.108c-15.893,11.541-33.346,16.469-52.904,11.669c-4.4-1.081-8.483-2.97-12.803-4.582
		c2.81,2.94,6.363,4.859,10.025,6.299c15.846,6.224,31.623,6.076,47.389-0.694c10.263-4.406,19.166-10.664,27.539-17.956
		C113.788,365.207,125.536,350.842,139.568,338.827z"/>
	<path d="M447.001,304.868l-8.6-5.103l-21.273,35.844H303.513v10h20.94l-9.896,24.015c-8.484-0.36-17.225-0.615-26.173-0.753
		l52.558-162.149c14.376,8.336,23.551,24.762,25.639,44.045c21.658-84.314,12.549-137.498-3.159-142.589
		c-7.045-2.287-21.304,3.965-40.195,28.353c-16.384,21.148-32.486,51.061-46,85.262c13.001-14.387,30.062-22.303,46.592-20.621
		L269.5,368.754c-91.405,0.271-164.996,12.588-164.996,27.741h336.184c0-3.566-4.083-6.975-11.507-10.107l-18.176-40.78h11.818
		L447.001,304.868z M335.27,345.608h64.788l4.197,9.419h-72.866L335.27,345.608z M416.323,382.102
		c-20.606-5.592-52.837-9.886-91.159-11.967l2.105-5.108h80.789v-1.471L416.323,382.102z"/>
</g>
<g>
</g>
<g>
</g>
<g>
</g>
<g>
</g>
<g>
</g>
<g>
</g>
<g>
</g>
<g>
</g>
<g>
</g>
<g>
</g>
<g>
</g>
<g>
</g>
<g>
</g>
<g>
</g>
<g>
</g>
</svg>
