<?xml version="1.0" encoding="iso-8859-1"?>
<!-- Generator: Adobe Illustrator 18.0.0, SVG Export Plug-In . SVG Version: 6.00 Build 0)  -->
<!DOCTYPE svg PUBLIC "-//W3C//DTD SVG 1.1//EN" "http://www.w3.org/Graphics/SVG/1.1/DTD/svg11.dtd">
<svg version="1.1" id="Capa_1" xmlns="http://www.w3.org/2000/svg" xmlns:xlink="http://www.w3.org/1999/xlink" x="0px" y="0px"
	 viewBox="0 0 311.078 311.078" style="enable-background:new 0 0 311.078 311.078;" xml:space="preserve">
<g>
	<path d="M214.098,71.109H96.98c-13.616,0-24.656,11.04-24.656,24.659v190.652c0,13.619,11.04,24.657,24.656,24.657h117.117
		c13.616,0,24.656-11.038,24.656-24.657V95.769C238.754,82.149,227.714,71.109,214.098,71.109z M217.182,209.589H93.896v-70.275
		h123.285V209.589z"/>
	<circle cx="135.401" cy="16.438" r="16.438"/>
	<circle cx="175.677" cy="16.438" r="16.438"/>
	<path d="M306.08,47.238l-1.081-17.227c-44.655,2.802-96.337,4.282-149.459,4.282c-53.122,0-104.805-1.48-149.459-4.282
		L4.999,47.238c45.008,2.823,97.064,4.315,150.54,4.315S261.071,50.062,306.08,47.238z"/>
</g>
<g>
</g>
<g>
</g>
<g>
</g>
<g>
</g>
<g>
</g>
<g>
</g>
<g>
</g>
<g>
</g>
<g>
</g>
<g>
</g>
<g>
</g>
<g>
</g>
<g>
</g>
<g>
</g>
<g>
</g>
</svg>
