<?xml version="1.0" encoding="iso-8859-1"?>
<!-- Generator: Adobe Illustrator 18.0.0, SVG Export Plug-In . SVG Version: 6.00 Build 0)  -->
<!DOCTYPE svg PUBLIC "-//W3C//DTD SVG 1.1//EN" "http://www.w3.org/Graphics/SVG/1.1/DTD/svg11.dtd">
<svg version="1.1" id="Capa_1" xmlns="http://www.w3.org/2000/svg" xmlns:xlink="http://www.w3.org/1999/xlink" x="0px" y="0px"
	 viewBox="0 0 439.344 439.344" style="enable-background:new 0 0 439.344 439.344;" xml:space="preserve">
<g>
	<path d="M211.398,222.005c-0.19,4.822-0.445,9.645-0.79,14.476c6.04-0.001,12.079,0,18.117,0
		c-0.343-4.831-0.597-9.655-0.788-14.476c-2.746,0.034-5.503,0.05-8.271,0.05C216.9,222.055,214.143,222.038,211.398,222.005z"/>
	<path d="M33.276,236.481c6.039-0.001,12.077,0,18.116,0c-1.051-14.796-1.368-29.536-0.985-44.296h9.155
		c-5.751-4.575-9.395-9.907-9.395-16.092c0-2.13,0.434-4.159,1.234-6.092H0v22.184h34.263
		C34.646,206.945,34.329,221.686,33.276,236.481z"/>
	<path d="M387.951,241.393c0.669,9.404,1.031,18.787,1.12,28.166c-3.842-5.405-10.141-8.948-17.271-8.948H248.846
		c-11.68,0-21.184,9.503-21.184,21.184v0.982c-0.27-13.788,0.08-27.562,1.063-41.384c-6.039,0-12.078-0.002-18.117,0
		c0.984,13.835,1.335,27.624,1.064,41.425v-1.023c0-11.681-9.503-21.184-21.184-21.184H67.535c-7.121,0-13.419,3.543-17.261,8.948
		c0.089-9.379,0.45-18.761,1.118-28.165c-6.039,0-12.077-0.002-18.116,0c1.544,21.695,1.544,43.273,0,64.97
		c4.358-0.001,8.717,0,13.076,0v3.677c-4.358,0-8.717,0-13.076,0c1.544,21.697,1.544,43.274,0,64.971c6.039-0.001,12.077,0,18.116,0
		c-0.58-8.161-0.941-16.306-1.084-24.446c3.845,5.379,10.126,8.904,17.228,8.904h122.954c11.681,0,21.184-9.503,21.184-21.184v-4.7
		c0.271,13.801-0.08,27.589-1.064,41.425c6.04-0.001,12.079,0,18.117,0c-0.982-13.826-1.333-27.602-1.063-41.393v4.667
		c0,11.681,9.504,21.184,21.184,21.184h122.953c7.11,0,13.393-3.525,17.238-8.904c-0.144,8.141-0.505,16.285-1.086,24.446
		c6.04-0.001,12.079,0,18.117,0c-1.542-21.697-1.542-43.273,0-64.971c-4.358,0.001-8.717,0-13.076,0v-3.677
		c4.358,0,8.717,0,13.076,0c-1.542-21.697-1.542-43.274,0-64.97C400.03,241.393,393.991,241.391,387.951,241.393z M84.291,348.484
		H67.535c-5.624,0-10.199-4.575-10.199-10.199v-56.49c0-5.624,4.575-10.199,10.199-10.199h16.756V348.484z M123.52,348.484H95.274
		v-76.889h28.246V348.484z M162.749,348.484h-28.245v-76.889h28.245V348.484z M200.688,338.284c0,5.624-4.575,10.199-10.199,10.199
		h-16.755v-76.889h16.755c5.624,0,10.199,4.575,10.199,10.199V338.284z M265.601,348.484h-16.755
		c-5.624,0-10.199-4.575-10.199-10.199v-56.49c0-5.624,4.575-10.199,10.199-10.199h16.755V348.484z M304.831,348.484h-28.245
		v-76.889h28.245V348.484z M344.06,348.484h-28.245v-76.889h28.245V348.484z M382.008,338.284c0,5.624-4.583,10.199-10.209,10.199
		h-16.755v-76.889h16.755c5.625,0,10.209,4.575,10.209,10.199V338.284z"/>
	<path d="M231.83,231.051c-2.426,4.075-3.647,7.863-2.863,8.752c0.009,0.017,0.013,0.038,0.024,0.053
		c0.696,0.988,4.563-0.532,8.639-3.398c4.075-2.865,6.119-6.98,6.119-6.98s-3.793,0.448-7.55,2.697
		c1.968-3.925,2.128-7.754,2.128-7.754S234.378,226.77,231.83,231.051z"/>
	<polygon points="389.245,64.334 50.1,64.334 40.207,83.593 399.138,83.593 	"/>
	<polygon points="406.672,98.26 32.672,98.26 21.029,120.926 418.316,120.926 	"/>
	<path d="M337.194,142.277c16.225,4.04,34.576,10.308,44.559,19.391h57.491l-13.395-26.074H302.206
		C314.838,137.402,326.601,139.639,337.194,142.277z"/>
	<path d="M102.14,142.277c10.593-2.638,22.357-4.875,34.989-6.684H13.495L0.1,161.667H57.59
		C67.565,152.585,85.916,146.317,102.14,142.277z"/>
	<path d="M439.344,192.185v-22.184h-51.402c0.801,1.933,1.234,3.961,1.234,6.092c0,6.185-3.644,11.517-9.394,16.092h9.156
		c0.383,14.76,0.065,29.502-0.988,44.296c6.04-0.001,12.079,0,18.117,0c-1.051-14.796-1.368-29.536-0.985-44.296H439.344z"/>
	<path d="M379.177,176.093c0-15.017-60.688-35.962-159.509-35.962s-159.5,20.945-159.5,35.962s60.679,35.962,159.5,35.962
		S379.177,191.11,379.177,176.093z M190.035,197.529h-37.22v-6.866l22.585-26.799h-21.802v-8.492h36.074v6.865l-22.522,26.802
		h22.885V197.529z M215.993,198.01c-13.009,0-22.764-9.274-22.764-21.62c0-12.286,9.755-21.38,22.764-21.38
		c13.069,0,22.825,9.154,22.825,21.38C238.818,188.676,229.062,198.01,215.993,198.01z M263.694,198.01
		c-13.009,0-22.765-9.274-22.765-21.62c0-12.286,9.755-21.38,22.765-21.38c13.068,0,22.826,9.154,22.826,21.38
		C286.52,188.676,276.763,198.01,263.694,198.01z"/>
	<path d="M263.815,163.983c-6.505,0-11.924,5.361-11.924,12.468c0,7.106,5.48,12.588,11.924,12.588
		c6.503,0,11.684-5.481,11.684-12.588C275.499,169.344,270.318,163.983,263.815,163.983z"/>
	<path d="M216.114,163.983c-6.504,0-11.925,5.361-11.925,12.468c0,7.106,5.48,12.588,11.925,12.588
		c6.503,0,11.683-5.481,11.683-12.588C227.796,169.344,222.617,163.983,216.114,163.983z"/>
</g>
<g>
</g>
<g>
</g>
<g>
</g>
<g>
</g>
<g>
</g>
<g>
</g>
<g>
</g>
<g>
</g>
<g>
</g>
<g>
</g>
<g>
</g>
<g>
</g>
<g>
</g>
<g>
</g>
<g>
</g>
</svg>
