<?xml version="1.0" standalone="no"?>
<!DOCTYPE svg PUBLIC "-//W3C//DTD SVG 1.1//EN" "http://www.w3.org/Graphics/SVG/1.1/DTD/svg11.dtd" >
<svg xmlns="http://www.w3.org/2000/svg" xmlns:xlink="http://www.w3.org/1999/xlink" version="1.1">
<metadata>
Created by FontForge 20150715 at Fri Aug 21 17:37:39 2015
 By n3n Amos
</metadata>
<defs>
<font id="icons" horiz-adv-x="512" >
  <font-face 
    font-family="icons"
    font-weight="400"
    font-stretch="normal"
    units-per-em="512"
    panose-1="2 0 5 9 0 0 0 0 0 0"
    ascent="448"
    descent="-64"
    bbox="17 -52 491.222 436"
    underline-thickness="25"
    underline-position="-76"
    unicode-range="U+F101-F132"
  />
<missing-glyph 
d="M17 0v341h136v-341h-136zM34 17h102v307h-102v-307z" />
    <glyph glyph-name=".notdef" 
d="M17 0v341h136v-341h-136zM34 17h102v307h-102v-307z" />
    <glyph glyph-name=".null" horiz-adv-x="0" 
 />
    <glyph glyph-name="nonmarkingreturn" 
 />
    <glyph glyph-name="uniF101" unicode="&#xf101;" 
d="M387 217q-30 0 -55.5 -14.5t-40 -40t-14.5 -54.5q0 -3 1 -9h-140q-42 2 -70.5 33t-28.5 73q0 29 14 53.5t38.5 38.5t53.5 14q24 0 46 -11q9 28 33 45.5t54 17.5q34 0 60 -23.5t31 -57.5h1q38 0 65 -27t27 -65v-3q-32 30 -75 30zM387.5 194q35.5 0 60.5 -25.5t25 -61
t-25 -61t-60.5 -25.5t-61 25.5t-25.5 61t25.5 61t61 25.5zM387 48q25 0 42.5 17.5t17.5 42t-17.5 42t-42.5 17.5t-42.5 -17.5t-17.5 -42t17.5 -42t42.5 -17.5zM411 116q9 0 9 -9.5t-9 -9.5h-14v-14q0 -9 -9.5 -9t-9.5 9v14h-14q-9 0 -9 9.5t9 9.5h14v14q0 9 9.5 9t9.5 -9
v-14h14z" />
    <glyph glyph-name="uniF102" unicode="&#xf102;" 
d="M420 123q9 0 9 -9v-48q0 -9 -9 -9h-328q-9 0 -9 9v48q0 9 9 9h29v135q0 49 31.5 86.5t79.5 45.5v3q0 10 7 17t17 7t17 -7t7 -17v-3q48 -8 79.5 -45.5t31.5 -86.5v-135h29zM254.5 -33q-21.5 0 -37 17.5t-15.5 41.5h105q0 -24 -15.5 -41.5t-37 -17.5z" />
    <glyph glyph-name="uniF103" unicode="&#xf103;" 
d="M447 308q5 -6 5 -14t-6 -13l-222 -223q-6 -6 -13.5 -6t-13.5 6l-132 132q-5 5 -5 13t5 14l19 18q5 6 13 6t14 -6l100 -100l190 191q6 6 14 6t13 -6z" />
    <glyph glyph-name="uniF104" unicode="&#xf104;" 
d="M376 244q38 0 65 -27t27 -65t-27 -65t-65 -27h-232q-42 3 -71 33.5t-29 72.5q0 29 14.5 53.5t39 38.5t52.5 14q25 0 47 -10q4 13 12.5 24.5t20 20t25.5 13t29 4.5q34 0 60 -23t30 -57h2z" />
    <glyph glyph-name="uniF105" unicode="&#xf105;" 
d="M388 417q8 0 13 -5.5t5 -12.5v-414q0 -7 -5 -12.5t-13 -5.5h-264q-8 0 -13 5.5t-5 12.5v414q0 5 2 9t6.5 6.5t9.5 2.5h264zM136 380v-106q0 -7 7 -7h225q7 0 7 7v106q0 7 -7 7h-225q-7 0 -7 -7zM375 230q0 7 -7 7h-45q-8 0 -8 -7v-46q0 -7 8 -7h45q7 0 7 7v46zM196 4v46
q0 7 -8 7h-45q-7 0 -7 -7v-46q0 -7 7 -7h45q8 0 8 7zM196 94v46q0 7 -8 7h-45q-7 0 -7 -7v-46q0 -7 7 -7h45q8 0 8 7zM196 184v46q0 7 -8 7h-45q-7 0 -7 -7v-46q0 -7 7 -7h45q8 0 8 7zM286 4v46q0 7 -8 7h-45q-7 0 -7 -7v-46q0 -7 7 -7h45q8 0 8 7zM286 94v46q0 7 -8 7h-45
q-7 0 -7 -7v-46q0 -7 7 -7h45q8 0 8 7zM286 184v46q0 7 -8 7h-45q-7 0 -7 -7v-46q0 -7 7 -7h45q8 0 8 7zM315 140v-46q0 -7 8 -7h45q8 0 8 7v46q0 7 -8 7h-45q-8 0 -8 -7zM376 4v46q0 7 -8 7h-45q-7 0 -7 -7v-46q0 -7 7 -7h45q8 0 8 7z" />
    <glyph glyph-name="uniF106" unicode="&#xf106;" 
d="M256 417q93 0 159 -66t66 -159t-66 -159t-159 -66t-159 66t-66 159t66 159t159 66zM256.5 31q66.5 0 113.5 47t47 113.5t-47 113.5t-113.5 47t-113.5 -47t-47 -113.5t47 -113.5t113.5 -47zM338 207q10 0 16.5 -6.5t6.5 -16t-6.5 -16t-16.5 -6.5h-88q-9 0 -15.5 6.5
t-6.5 15.5v89q0 9 6.5 16t15.5 7t15.5 -7t6.5 -16v-66h66z" />
    <glyph glyph-name="uniF107" unicode="&#xf107;" 
d="M461 189q6 -4 8 -11.5t-1 -14.5l-70 -120q-4 -7 -11.5 -9t-14.5 2l-267 154q-16 10 -24 27l-38 97q-3 8 0.5 14t11.5 7l103 15q19 3 35 -6zM172 254.5q8 14.5 3.5 31t-19 25t-31 4t-24.5 -19t-4 -31t19 -25t31.5 -4t24.5 19z" />
    <glyph glyph-name="uniF108" unicode="&#xf108;" 
d="M321 417q7 0 12.5 -5.5t4.5 -12.5v-423q0 -8 -3 -9t-7 5q-42 55 -56 73q-12 13 -15.5 13t-12.5 -13l-59 -73q-5 -6 -8 -5t-3 9v423q0 7 5 12.5t13 5.5h129z" />
    <glyph glyph-name="uniF109" unicode="&#xf109;" 
d="M403 417q7 0 12.5 -5.5t5.5 -12.5v-414q0 -7 -5.5 -12.5t-12.5 -5.5h-294q-7 0 -12.5 5.5t-5.5 12.5v414q0 7 5.5 12.5t12.5 5.5h294zM196 348v-20q0 -8 9 -8h102q9 0 9 8v20q0 9 -9 9h-102q-9 0 -9 -9zM346 126v20q0 8 -9 8h-162q-9 0 -9 -8v-20q0 -9 9 -9h162q9 0 9 9z
M376 194v19q0 9 -9 9h-222q-9 0 -9 -9v-19q0 -10 9 -10h222q9 0 9 10zM376 261v19q0 10 -9 10h-222q-9 0 -9 -10v-19q0 -9 9 -9h222q9 0 9 9z" />
    <glyph glyph-name="uniF10A" unicode="&#xf10a;" 
d="M491 -32q1 -5 -2.5 -8t-8.5 -2l-38 6q-5 1 -6 4.5t3 7.5l34 34q4 4 7 2.5t4 -6.5zM139 262l200 -200q11 -11 11 -26.5t-11 -26.5t-26.5 -11t-25.5 11l-200 200q-9 9 0 18l35 35q9 9 17 0zM439 160q11 -11 11 -26t-10.5 -25.5t-26 -10.5t-25.5 11l-201 201q-9 8 0 17
l34 34q8 9 17 0zM196 403q9 -9 0 -18l-133 -134q-9 -9 -18 0l-20 20q-9 9 0 18l133 134q9 9 18 0z" />
    <glyph glyph-name="uniF10B" unicode="&#xf10b;" 
d="M319 192l125 -125q8 -8 8 -19t-8 -19l-26 -25q-8 -8 -19 -8t-19 8l-125 124l-124 -124q-8 -8 -19 -8t-19 8l-25 25q-8 8 -8 19.5t8 19.5l124 124l-125 124q-7 8 -7 19t7 19l26 26q8 8 19 8t19 -8l124 -125l126 125q8 8 19 8t19 -8l25 -25q8 -8 8 -19t-8 -19z" />
    <glyph glyph-name="uniF10C" unicode="&#xf10c;" 
d="M266 210q23 -11 34 -22t11 -29q0 -39 -37 -51v-8q0 -6 -4 -10.5t-10 -4.5h-11q-6 0 -10.5 4.5t-4.5 10.5v6q-14 4 -24 12q-9 7 -9 16q0 7 5 12.5t12 5.5t14 -6q8 -6 20 -6q22 0 22 18q0 10 -23 20q-11 5 -17 8.5t-14 10t-12 14.5t-4 18q0 14 8 26.5t22 18.5v9q0 6 4.5 10
t10.5 4h11q6 0 10 -4t4 -10v-9q10 -3 18 -9q9 -7 9 -16q0 -7 -5 -12.5t-12 -5.5t-13 5q-8 6 -17 6q-14 0 -14 -12q0 -3 1.5 -5.5t4.5 -4.5t5.5 -3.5t7.5 -3.5t7 -3zM256 392q83 0 141.5 -58.5t58.5 -141.5t-58.5 -141.5t-141.5 -58.5t-141.5 58.5t-58.5 141.5t58.5 141.5
t141.5 58.5zM256 49q39 0 72 19t52 52t19 72q0 23 -7 45t-20.5 39.5t-31 30.5t-39.5 20.5t-45 7.5q-59 0 -101 -42t-42 -101t42 -101t101 -42z" />
    <glyph glyph-name="uniF10D" unicode="&#xf10d;" 
d="M480 167q3 -5 -1 -9l-42 -40q-4 -4 -8 0l-29 27q-4 4 -9 0l-28 -27q-5 -4 -9 0l-41 38q-4 5 -10 5h-76q-10 -31 -36.5 -50t-58.5 -19q-42 0 -71.5 29t-29.5 71t29.5 71t71.5 29q33 0 59 -19t36 -50h210q6 0 9 -5zM131.5 161q12.5 0 22 9t9.5 22t-9.5 22t-22 9t-21.5 -9
t-9 -22t9 -22t21.5 -9z" />
    <glyph glyph-name="uniF10E" unicode="&#xf10e;" 
d="M450 216q7 -8 7 -18.5t-7 -18.5l-176 -175q-8 -8 -18.5 -8t-17.5 8l-176 175q-7 8 -7 18.5t7 18.5l25 24q7 7 17.5 7t18.5 -7l90 -90v212q0 11 7.5 18.5t18.5 7.5h34q11 0 18.5 -7.5t7.5 -18.5v-213l90 91q8 7 18.5 7t17.5 -7z" />
    <glyph glyph-name="uniF10F" unicode="&#xf10f;" 
d="M418 27q8 0 13 -5.5t5 -12.5v-24q0 -7 -5 -12.5t-13 -5.5h-324q-8 0 -13 5.5t-5 12.5v24q0 7 5 12.5t13 5.5h324zM243 59l-123 123q-5 5 -5 12.5t5 13.5l17 17q6 5 13.5 5t12.5 -5l63 -64v238q0 7 5.5 12.5t12.5 5.5h24q5 0 9 -2.5t6.5 -6.5t2.5 -9v-238l63 64
q6 5 13.5 5t12.5 -5l17 -17q5 -6 5 -13.5t-5 -12.5l-123 -123q-5 -5 -12.5 -5t-13.5 5z" />
    <glyph glyph-name="uniF110" unicode="&#xf110;" 
d="M239 157q5 -5 5 -12.5t-5 -12.5l-106 -106h90q7 0 12.5 -5.5t5.5 -12.5v-24q0 -7 -5.5 -12.5t-12.5 -5.5h-174q-7 0 -13 5q-5 6 -5 13v174q0 7 5 12.5t13 5.5h24q7 0 12.5 -5t5.5 -13v-90l105 106q6 5 13.5 5t12.5 -5zM475.5 412.5q5.5 -5.5 5.5 -12.5v-174
q0 -7 -5 -12.5t-13 -5.5h-24q-7 0 -12.5 5t-5.5 13v90l-105 -106q-6 -5 -13.5 -5t-12.5 5l-17 17q-5 5 -5 12.5t5 13.5l106 105h-90q-7 0 -12.5 5.5t-5.5 12.5v24q0 7 5.5 12.5t12.5 5.5h174q7 0 12.5 -5.5z" />
    <glyph glyph-name="uniF111" unicode="&#xf111;" 
d="M459 307q5 -3 5.5 -7.5t-5.5 -8.5l-85 -54q-6 -4 -9.5 -2t-3.5 9v19q-44 0 -78 -26.5t-46 -67.5q-5 18 -5 37q0 53 37.5 91t91.5 38v20q0 6 3.5 8t9.5 -1zM362 83v130l45 29v-204q0 -5 -2 -9t-6.5 -6.5t-8.5 -2.5h-325q-4 0 -8.5 2.5t-7 6.5t-2.5 9v234q0 8 5.5 13
t12.5 5h181q-14 -19 -21 -45h-115q-7 0 -12.5 -5t-5.5 -13v-144q0 -7 5.5 -12.5t12.5 -5.5h235q7 0 12 5.5t5 12.5z" />
    <glyph glyph-name="uniF112" unicode="&#xf112;" 
d="M468 204q5 -5 5 -12t-5 -12t-13.5 -13t-34 -28t-49.5 -35.5t-56.5 -28t-58.5 -12.5t-57.5 12t-58 29t-49 34.5t-34.5 29.5l-13 12q-5 5 -5 12t5 12t13.5 13t34 28t49.5 35.5t56.5 28t58.5 12.5t57.5 -12t58 -29t49 -34.5t34.5 -29.5zM257 98q39 0 66.5 27.5t27.5 66
t-27.5 66t-66.5 27.5t-66.5 -27.5t-27.5 -66t27.5 -66t66.5 -27.5zM255.5 252q24.5 0 42 -17.5t17.5 -42t-17.5 -42t-41.5 -17.5q-16 0 -30 8t-22 21.5t-8 30.5q0 24 17.5 41.5t42 17.5zM278 192q8 0 13.5 5.5t5.5 13.5t-5.5 13.5t-13.5 5.5q-5 0 -9 -2.5t-6.5 -7t-2.5 -9.5
t2.5 -9.5t6.5 -7t9 -2.5z" />
    <glyph glyph-name="uniF113" unicode="&#xf113;" 
d="M463 364q7 0 12.5 -5t5.5 -13v-308q0 -8 -5.5 -13t-12.5 -5h-414q-7 0 -12.5 5t-5.5 13v308q0 8 5.5 13t12.5 5h414zM118 51v36q0 5 -3.5 8.5t-8.5 3.5h-36q-5 0 -8.5 -3.5t-3.5 -8.5v-36q0 -5 3.5 -8.5t8.5 -3.5h36q5 0 8.5 3.5t3.5 8.5zM118 132v36q0 5 -3.5 8.5
t-8.5 3.5h-36q-5 0 -8.5 -3.5t-3.5 -8.5v-36q0 -5 3.5 -8.5t8.5 -3.5h36q5 0 8.5 3.5t3.5 8.5zM118 213v36q0 12 -12 12h-36q-12 0 -12 -12v-36q0 -12 12 -12h36q12 0 12 12zM118 294v36q0 12 -12 12h-36q-12 0 -12 -12v-36q0 -12 12 -12h36q12 0 12 12zM360 51v117
q0 7 -5 11.5t-12 4.5h-177q-5 0 -8.5 -2t-5.5 -5.5t-2 -8.5v-117q0 -7 4.5 -12t11.5 -5h177q7 0 12 5t5 12zM360 216v117q0 7 -5 12t-12 5h-177q-5 0 -8.5 -2.5t-5.5 -6t-2 -8.5v-117q0 -7 4.5 -12t11.5 -5h177q7 0 12 5t5 12zM451 51v36q0 5 -3.5 8.5t-8.5 3.5h-36
q-5 0 -8.5 -3.5t-3.5 -8.5v-36q0 -5 3.5 -8.5t8.5 -3.5h36q5 0 8.5 3.5t3.5 8.5zM451 132v36q0 5 -3.5 8.5t-8.5 3.5h-36q-5 0 -8.5 -3.5t-3.5 -8.5v-36q0 -5 3.5 -8.5t8.5 -3.5h36q5 0 8.5 3.5t3.5 8.5zM451 213v36q0 5 -3.5 8.5t-8.5 3.5h-36q-5 0 -8.5 -3.5t-3.5 -8.5
v-36q0 -5 3.5 -8.5t8.5 -3.5h36q5 0 8.5 3.5t3.5 8.5zM451 294v36q0 5 -3.5 8.5t-8.5 3.5h-36q-5 0 -8.5 -3.5t-3.5 -8.5v-36q0 -5 3.5 -8.5t8.5 -3.5h36q5 0 8.5 3.5t3.5 8.5z" />
    <glyph glyph-name="uniF114" unicode="&#xf114;" 
d="M403 371q46 -15 68 -58t7 -90q-9 -27 -60 -80.5t-101.5 -94.5t-62.5 -41t-61.5 41t-99.5 94.5t-59 80.5q-15 47 7 90t68 58t88.5 -6.5t58.5 -66.5q16 45 59 66.5t88 6.5z" />
    <glyph glyph-name="uniF115" unicode="&#xf115;" 
d="M479 208q7 -6 5.5 -10.5t-10.5 -4.5h-64v-186q0 -8 -5.5 -13t-12.5 -5h-78v122q0 7 -5.5 12.5t-13.5 5.5h-78q-8 0 -13.5 -5.5t-5.5 -12.5v-122h-77q-8 0 -13.5 5t-5.5 13v186h-63q-10 0 -11.5 4.5t5.5 10.5l206 181q7 6 17 6t17 -6z" />
    <glyph glyph-name="uniF116" unicode="&#xf116;" 
d="M178 26zM279 386q80 0 137 -57t57 -137t-57 -137t-137 -57q-54 0 -101 28q55 7 98 43h2q52 0 88 36t36 88q0 34 -16.5 62.5t-45 45t-62.5 16.5q-51 0 -87.5 -36.5t-36.5 -87.5q0 -8 1 -14l-63 -40q-7 26 -7 53q0 80 57 137t137 57zM314 190q0 -63 -44.5 -108t-108.5 -45
v-23q0 -7 -4.5 -9.5t-10.5 1.5l-101 64q-6 4 -6 9.5t6 9.5l101 64q6 4 10.5 1.5t4.5 -9.5v-23q52 0 92.5 31t54.5 80q6 -21 6 -43z" />
    <glyph glyph-name="uniF117" unicode="&#xf117;" 
d="M457 209v-35q0 -11 -7.5 -18.5t-18.5 -7.5h-219l93 -93q8 -7 8 -18t-8 -19l-25 -25q-8 -7 -19 -7t-18 7l-180 180q-8 8 -8 19t8 19l180 180q8 7 18.5 7t18.5 -7l25 -25q8 -8 8 -19t-8 -18l-93 -93h219q5 0 10 -2t8.5 -5.5t5.5 -8.5t2 -11z" />
    <glyph glyph-name="uniF118" unicode="&#xf118;" 
d="M403 417q7 0 12.5 -5.5t5.5 -12.5v-414q0 -7 -5.5 -12.5t-12.5 -5.5h-294q-7 0 -12.5 5.5t-5.5 12.5v414q0 7 5.5 12.5t12.5 5.5h294zM136 348v-20q0 -8 9 -8h102q9 0 9 8v20q0 9 -9 9h-102q-9 0 -9 -9zM316 126v20q0 8 -9 8h-162q-9 0 -9 -8v-20q0 -9 9 -9h162q9 0 9 9z
M376 194v19q0 9 -9 9h-222q-9 0 -9 -9v-19q0 -10 9 -10h222q9 0 9 10zM376 261v19q0 10 -9 10h-222q-9 0 -9 -10v-19q0 -9 9 -9h222q9 0 9 9z" />
    <glyph glyph-name="uniF119" unicode="&#xf119;" 
d="M256 413q59 0 100.5 -42t41.5 -101q0 -35 -33 -108t-66 -129l-34 -55q-3 -7 -8.5 -7t-9.5 7q-6 8 -15 23t-32 56t-40.5 77t-32 75t-14.5 61q0 59 42 101t101 42zM256 191q39 0 66 27.5t27 66t-27 66t-66 27.5t-66 -27.5t-27 -66t27 -66t66 -27.5zM198 284.5
q0 24.5 17 41.5t41 17t41 -17t17 -41.5t-17 -41.5t-41 -17t-41 17t-17 41.5z" />
    <glyph glyph-name="uniF11A" unicode="&#xf11a;" 
d="M393 240q6 0 11.5 -3t8.5 -8.5t3 -11.5v-204q0 -9 -7 -16t-16 -7h-274q-9 0 -16 7t-7 16v204q0 9 7 16t16 7h25v67q0 36 25.5 61.5t61.5 25.5h50q36 0 61 -25.5t25 -61.5v-67h26zM271 89q7 2 13 6.5t10.5 10.5t7 13.5t2.5 14.5q0 20 -14.5 34t-34 14t-33.5 -14t-14 -34
q0 -10 4 -19.5t11.5 -16t16.5 -9.5v-26q0 -6 4.5 -10.5t11 -4.5t11 4.5t4.5 10.5v26zM317 240v56q0 19 -13.5 32.5t-32.5 13.5h-31q-19 0 -32.5 -13.5t-13.5 -32.5v-56h123z" />
    <glyph glyph-name="uniF11B" unicode="&#xf11b;" 
d="M449 325q6 4 12 1.5t6 -9.5v-250q0 -9 -6.5 -15.5t-15.5 -6.5h-378q-9 0 -15.5 6.5t-6.5 15.5v250q0 6 6 9t11 -1l177 -143q7 -6 17 -6t17 6zM90 325q-7 6 -5.5 10t10.5 4h323q9 0 10 -4t-6 -10l-149 -121q-7 -5 -17 -5t-17 5z" />
    <glyph glyph-name="uniF11C" unicode="&#xf11c;" 
d="M320 267q7 3 9.5 0.5t-0.5 -9.5l-58 -126q-6 -14 -10.5 -13t-4.5 16v39q0 8 -5 13t-13 5h-40q-15 0 -16 4.5t12 11.5zM256 417q93 0 159 -66t66 -159t-66 -159t-159 -66t-159 66t-66 159t66 159t159 66zM256.5 31q66.5 0 113.5 47t47 113.5t-47 113.5t-113.5 47
t-113.5 -47t-47 -113.5t47 -113.5t113.5 -47z" />
    <glyph glyph-name="uniF11D" unicode="&#xf11d;" 
d="M225 285q6 0 11 -4.5t5 -11.5v-154q0 -7 -5 -11.5t-11 -4.5h-27q-7 0 -11.5 4.5t-4.5 11.5v154q0 5 2 8.5t6 5.5t8 2h27zM314 285q7 0 11.5 -4.5t4.5 -11.5v-154q0 -7 -4.5 -11.5t-11.5 -4.5h-27q-6 0 -11 4.5t-5 11.5v154q0 7 5 11.5t11 4.5h27zM256 392
q83 0 141.5 -58.5t58.5 -141.5t-58.5 -141.5t-141.5 -58.5t-141.5 58.5t-58.5 141.5t58.5 141.5t141.5 58.5zM256 49q59 0 101 42t42 101t-42 100.5t-101 41.5t-100.5 -41.5t-41.5 -100.5t41.5 -101t100.5 -42z" />
    <glyph glyph-name="uniF11E" unicode="&#xf11e;" 
d="M440 232q7 0 11.5 -4.5t4.5 -11.5v-128q0 -7 -4.5 -11.5t-11.5 -4.5h-64v37q0 7 -4.5 11.5t-11.5 4.5h-208q-7 0 -11.5 -4.5t-4.5 -11.5v-37h-64q-7 0 -11.5 4.5t-4.5 11.5v128q0 7 4.5 11.5t11.5 4.5h64v-37q0 -7 4.5 -11.5t11.5 -4.5h208q7 0 11.5 4.5t4.5 11.5v37h64z
M165 192q-6 0 -11 4.5t-5 11.5v168q0 7 5 11.5t11 4.5h182q4 0 7.5 -2t6 -6t2.5 -8v-168q0 -7 -5 -11.5t-11 -4.5h-182zM347 112q6 0 11 -4.5t5 -11.5v-88q0 -7 -5 -11.5t-11 -4.5h-182q-6 0 -11 4.5t-5 11.5v88q0 7 5 11.5t11 4.5h182z" />
    <glyph glyph-name="uniF11F" unicode="&#xf11f;" 
d="M450 176q5 0 9 -2.5t6 -6t2 -8.5q-5 -82 -66 -139t-145 -57q-87 0 -149.5 62t-62.5 149t62 149t150 63v23q0 8 4.5 11t11.5 -1l118 -60q7 -3 7 -8t-7 -9l-118 -60q-7 -3 -11.5 0t-4.5 11v22q-58 0 -99.5 -41.5t-41.5 -99.5t41.5 -99.5t99.5 -41.5q55 0 95 36.5t46 89.5
q0 7 5 12t12 5h36z" />
    <glyph glyph-name="uniF120" unicode="&#xf120;" 
d="M387 217q-30 0 -55.5 -14.5t-40 -40t-14.5 -54.5q0 -3 1 -9h-140q-42 2 -70.5 33t-28.5 73q0 29 14 53.5t38.5 38.5t53.5 14q24 0 46 -11q9 28 33 45.5t54 17.5q34 0 60 -23.5t31 -57.5h1q38 0 65 -27t27 -65v-3q-32 30 -75 30zM387.5 194q35.5 0 60.5 -25.5t25 -61
t-25 -61t-60.5 -25.5t-61 25.5t-25.5 61t25.5 61t61 25.5zM387 48q25 0 42.5 17.5t17.5 42t-17.5 42t-42.5 17.5t-42.5 -17.5t-17.5 -42t17.5 -42t42.5 -17.5zM411 116q9 0 9 -9.5t-9 -9.5h-47q-9 0 -9 9.5t9 9.5h47z" />
    <glyph glyph-name="uniF121" unicode="&#xf121;" 
d="M357 205l63 40q7 -26 7 -53q0 -80 -57 -137t-137 -57t-137 57t-57 137t57 137t137 57q54 0 101 -28q-55 -7 -97 -43h-3q-51 0 -87.5 -36.5t-36.5 -87.5t36.5 -87.5t87.5 -36.5t87.5 36.5t36.5 87.5q0 8 -1 14zM334 358zM467 314q6 -4 6 -9.5t-6 -9.5l-101 -64
q-7 -4 -11 -1.5t-4 9.5v23q-52 0 -92.5 -31t-54.5 -80q-6 21 -6 43q0 63 44.5 108t108.5 45v23q0 7 4 9.5t11 -1.5z" />
    <glyph glyph-name="uniF122" unicode="&#xf122;" 
d="M403 417q7 0 12.5 -5.5t5.5 -12.5v-414q0 -7 -5.5 -12.5t-12.5 -5.5h-294q-7 0 -12.5 5.5t-5.5 12.5v414q0 7 5.5 12.5t12.5 5.5h294zM376 126v20q0 8 -9 8h-162q-9 0 -9 -8v-20q0 -9 9 -9h162q9 0 9 9zM376 194v19q0 9 -9 9h-222q-9 0 -9 -9v-19q0 -10 9 -10h222
q9 0 9 10zM376 261v19q0 10 -9 10h-222q-9 0 -9 -10v-19q0 -9 9 -9h222q9 0 9 9zM376 328v20q0 9 -9 9h-102q-9 0 -9 -9v-20q0 -8 9 -8h102q9 0 9 8z" />
    <glyph glyph-name="uniF123" unicode="&#xf123;" 
d="M407 50q7 -6 5.5 -10t-10.5 -4h-76h-70l-70 1h-76q-9 0 -10.5 4t5.5 10l63 56q-19 92 -2 167q5 27 16 53t22 44.5t21.5 33t16.5 21.5l7 7q3 3 7 3q4 -1 7 -3q3 -3 7 -8t16 -21t22.5 -33.5t21.5 -44t16 -52.5q17 -75 -2 -167zM168 19h88h88q0 -18 -13 -30.5t-31 -12.5
q-2 0 -5 1q-10 -28 -39 -29q-29 1 -39 29q-3 -1 -5 -1q-18 0 -31 12.5t-13 30.5z" />
    <glyph glyph-name="uniF124" unicode="&#xf124;" 
d="M333 221q7 0 11.5 -4.5t4.5 -11.5v-26q0 -5 -2 -8.5t-5.5 -5.5t-8.5 -2h-48v-48q0 -7 -4.5 -11.5t-11.5 -4.5h-26q-7 0 -11.5 4.5t-4.5 11.5v48h-48q-7 0 -11.5 4.5t-4.5 11.5v26q0 5 2 8.5t5.5 5.5t8.5 2h48v48q0 4 1 6.5t3 5t5 3.5t7 1h26q7 0 11.5 -4.5t4.5 -11.5v-48
h48zM256 392q83 0 141.5 -58.5t58.5 -141.5t-58.5 -141.5t-141.5 -58.5t-141.5 58.5t-58.5 141.5t58.5 141.5t141.5 58.5zM256 49q39 0 72 19t52 52t19 72q0 23 -7 45t-20.5 39.5t-31 30.5t-39.5 20.5t-45 7.5q-59 0 -101 -42t-42 -101t42 -101t101 -42z" />
    <glyph glyph-name="uniF125" unicode="&#xf125;" 
d="M256 422q93 0 159 -66t66 -159t-66 -159t-159 -66t-159 66t-66 159t66 159t159 66zM361 183v30q0 7 -5.5 12.5t-12.5 5.5h-54v54q0 7 -5.5 12.5t-12.5 5.5h-30q-7 0 -12.5 -5.5t-5.5 -12.5v-54h-54q-7 0 -12.5 -5.5t-5.5 -12.5v-30q0 -8 5.5 -13t12.5 -5h54v-54
q0 -5 2.5 -9t6.5 -6.5t9 -2.5h30q7 0 12.5 5t5.5 13v54h54q7 0 12.5 5t5.5 13z" />
    <glyph glyph-name="uniF126" unicode="&#xf126;" 
d="M366 417q7 0 12 -5.5t5 -12.5v-414q0 -7 -5 -12.5t-12 -5.5h-220q-7 0 -12 5.5t-5 12.5v414q0 4 1 7t3.5 5.5t6 4t6.5 1.5h220zM256 402q-6 0 -10 -4t-4 -9.5t4 -9.5t10 -4q4 0 7 2t5 5t2 6t-1.5 5.5t-3 4.5t-4 3t-5.5 1zM256.5 -18q7.5 0 13.5 5.5t6 13.5t-5.5 13.5
t-13.5 5.5t-13.5 -5.5t-5.5 -13.5t5.5 -13.5t13 -5.5zM361 49v302q0 9 -9 9h-192q-9 0 -9 -9v-302q0 -9 9 -9h192q9 0 9 9z" />
    <glyph glyph-name="uniF127" unicode="&#xf127;" 
d="M251 341q8 6 13 3t5 -12v-280q0 -9 -5 -12t-13 3l-136 97h-54q-9 0 -15.5 6.5t-6.5 16.5v59q0 9 6.5 15.5t15.5 6.5h54zM326 340q61 0 104 -43t43 -104q0 -40 -20 -74t-53.5 -53.5t-73.5 -19.5q-8 0 -13.5 5t-5.5 13t5.5 13t13.5 5q45 0 77.5 32.5t32.5 78.5t-32.5 78
t-77.5 32q-8 0 -13.5 5.5t-5.5 13.5t5.5 13t13.5 5zM326 147q19 0 32.5 13.5t13.5 32.5t-13.5 32.5t-32.5 13.5q-8 0 -13.5 5.5t-5.5 13t5.5 13t13.5 5.5q34 0 58 -24.5t24 -58.5t-24 -58.5t-58 -24.5q-8 0 -13.5 5.5t-5.5 13.5q0 5 2.5 9t6.5 6.5t10 2.5z" />
    <glyph glyph-name="uniF128" unicode="&#xf128;" 
d="M288 367q9 6 15.5 3t6.5 -14v-329q0 -10 -6.5 -13.5t-15.5 3.5l-160 114h-63q-11 0 -18.5 8t-7.5 18v70q0 10 7.5 18t18.5 8h63zM376 290q40 0 68.5 -28.5t28.5 -68.5t-28.5 -68.5t-68.5 -28.5q-9 0 -15.5 6t-6.5 15t6.5 15.5t15.5 6.5q22 0 38 16t16 38.5t-16 38
t-38 15.5q-9 0 -15.5 6.5t-6.5 15.5t6.5 15t15.5 6z" />
    <glyph glyph-name="uniF129" unicode="&#xf129;" 
d="M254 343q8 6 13.5 3t5.5 -12v-284q0 -9 -5.5 -12t-13.5 3l-138 99h-54q-10 0 -16.5 6.5t-6.5 15.5v60q0 6 3 11t8 8t12 3h54zM417 191l52 -52q8 -8 0 -16l-10 -10q-8 -8 -16 0l-52 52l-52 -52q-8 -8 -16 0l-11 10q-8 8 0 16l52 52l-52 52q-8 8 0 16l11 11q8 7 16 0
l52 -52l52 52q8 8 16 0l11 -11q8 -8 0 -16z" />
    <glyph glyph-name="uniF12A" unicode="&#xf12a;" 
d="M256 417q93 0 159 -66t66 -159t-66 -159t-159 -66t-159 66t-66 159t66 159t159 66zM397 218q9 8 6.5 14t-14.5 6h-83l-39 91q-4 11 -11 11t-12 -11l-39 -91h-82q-12 0 -14.5 -6t6.5 -14l68 -60l-20 -83q-3 -12 2 -16t16 3l75 45l75 -45q11 -7 16 -3t1 16l-21 76z" />
    <glyph glyph-name="uniF12B" unicode="&#xf12b;" 
d="M472 319q8 -9 -1 -17l-10 -11q-9 -8 -17 0l-4 5l-101 -101q10 -18 7 -39.5t-19 -36.5l-36 -36q-9 -9 -17 0l-44 44l-167 -151q-9 -8 -18 1l-4 4q-9 9 -1 18l151 167l-45 44q-8 9 0 18l37 36q15 15 36.5 18t39.5 -7l101 101l-4 4q-9 9 0 17l10 10q8 9 17 0z" />
    <glyph glyph-name="uniF12C" unicode="&#xf12c;" 
d="M393 240q9 0 16 -7t7 -16v-204q0 -9 -7 -16t-16 -7h-274q-9 0 -16 7t-7 16v204q0 9 7 16t16 7h15h74h109v56q0 19 -13.5 32.5t-32.5 13.5h-30q-20 0 -33.5 -13.5t-13.5 -32.5v-18q0 -4 -3 -7.5t-8 -3.5h-27q-5 0 -8 3.5t-3 7.5v29q0 36 25 61.5t61 25.5h50q36 0 61 -25.5
t25 -61.5v-67h26zM271 89q7 2 13 6.5t10.5 10.5t7 13.5t2.5 14.5q0 20 -14 34t-34 14t-34 -14t-14 -34q0 -10 4 -19.5t11.5 -16t16.5 -9.5v-26q0 -6 4.5 -10.5t11 -4.5t11 4.5t4.5 10.5v26z" />
    <glyph glyph-name="uniF12D" unicode="&#xf12d;" 
d="M227 128.5q0 12.5 8.5 21.5t21 9t21.5 -9t9 -21.5t-9 -21t-21.5 -8.5t-21 8.5t-8.5 21zM271 285q6 0 11 -4.5t5 -11.5v-85q0 -7 -5 -11.5t-11 -4.5h-27q-7 0 -11.5 4.5t-4.5 11.5v85q0 4 1.5 6.5t3.5 5t5 3.5t6 1h27zM256 392q83 0 141.5 -58.5t58.5 -141.5t-58.5 -141.5
t-141.5 -58.5t-141.5 58.5t-58.5 141.5t58.5 141.5t141.5 58.5zM256 49q39 0 72 19t52 52t19 72q0 23 -7 45t-20.5 39.5t-31 30.5t-39.5 20.5t-45 7.5q-59 0 -101 -42t-42 -101t42 -101t101 -42z" />
    <glyph glyph-name="uniF12E" unicode="&#xf12e;" 
d="M443 69q5 0 9 -4t4 -9.5t-4 -9.5t-9 -4h-374q-5 0 -9 4t-4 9.5t4 9.5t9 4h374zM440 342q4 0 8 -2t6 -6t2 -8v-235q0 -6 -4.5 -11t-11.5 -5h-368q-7 0 -11.5 5t-4.5 11v235q0 7 4.5 11.5t11.5 4.5h368zM255.5 85q5.5 0 9.5 3.5t4 9.5t-3.5 9.5t-9.5 3.5t-9.5 -3.5
t-3.5 -9.5t3.5 -9.5t9 -3.5zM417 131v167q0 8 -8 8h-306q-8 0 -8 -8v-167q0 -8 8 -8h306q8 0 8 8z" />
    <glyph glyph-name="uniF12F" unicode="&#xf12f;" 
d="M275 215q5 -18 5 -36q0 -54 -37.5 -92t-91.5 -38v-20q0 -6 -3.5 -8t-9.5 1l-85 55q-5 3 -5 8t5 8l85 54q6 4 9.5 2t3.5 -9v-19q44 0 78 26.5t46 67.5zM447 364q7 0 12.5 -5.5t5.5 -12.5v-234q0 -8 -5.5 -13t-12.5 -5h-181q14 19 21 45h114q8 0 13 5t5 13v144q0 7 -5 12.5
t-13 5.5h-234q-7 0 -12 -5.5t-5 -12.5v-130l-45 -29v204q0 7 5 12.5t12 5.5h325z" />
    <glyph glyph-name="uniF130" unicode="&#xf130;" 
d="M468 41q14 -12 14 -29.5t-12 -30.5l-3 -2q-12 -13 -30 -12.5t-30 13.5l-210 227q-32 -18 -69.5 -13t-64.5 32q-40 41 -31 97q0 3 2 3q1 0 3 -2l69 -68q6 -7 15 -4l50 13q4 1 7 5q4 3 5 7l13 50q3 9 -4 15l-68 69q-2 2 -2 3q0 2 3 3q57 8 97 -32q27 -27 32 -64.5
t-13 -69.5zM452.5 -4.5q6.5 6.5 6.5 16t-6.5 16t-16 6.5t-16 -6.5t-6.5 -16t6.5 -16t16 -6.5t16 6.5z" />
    <glyph glyph-name="uniF131" unicode="&#xf131;" 
d="M466 30q9 -9 9 -21t-9 -20l-7 -7q-8 -9 -20 -9t-21 9l-63 63q-9 9 -8 22l-30 30q-51 -39 -116.5 -34.5t-112.5 50.5q-51 51 -51 123t51 123.5t123.5 51.5t123.5 -51q46 -47 50.5 -112.5t-34.5 -116.5l30 -30q13 1 22 -8zM297.5 150.5q35.5 35.5 35.5 86t-35.5 85.5
t-85.5 35t-85.5 -35.5t-35.5 -85.5t35 -85.5t85.5 -35.5t86 35.5zM259 255q4 0 7.5 -1.5t6 -4t4 -6t1.5 -7.5q0 -8 -5.5 -13.5t-13.5 -5.5h-94q-8 0 -13.5 5.5t-5.5 13.5t5.5 13.5t13.5 5.5h94z" />
    <glyph glyph-name="uniF132" unicode="&#xf132;" 
d="M466 30q9 -9 9 -21t-9 -20l-7 -7q-8 -9 -20 -9t-21 9l-63 63q-9 9 -8 22l-30 30q-51 -39 -116.5 -34.5t-112.5 50.5q-51 51 -51 123t51 123.5t123.5 51.5t123.5 -51q46 -47 50.5 -112.5t-34.5 -116.5l30 -30q13 1 22 -8zM297.5 150.5q35.5 35.5 35.5 86t-35.5 85.5
t-85.5 35t-85.5 -35.5t-35.5 -85.5t35 -85.5t85.5 -35.5t86 35.5zM259 255q8 0 13.5 -5.5t5.5 -13.5t-5.5 -13.5t-13.5 -5.5h-29v-28q0 -8 -5 -13.5t-13 -5.5t-13.5 5.5t-5.5 13.5v28h-28q-8 0 -13.5 5.5t-5.5 13.5t5.5 13.5t13.5 5.5h28v28q0 8 5.5 13.5t13.5 5.5
q5 0 9.5 -2.5t7 -7t2.5 -9.5v-28h28z" />
  </font>
</defs>
</svg>
