<?xml version="1.0" encoding="iso-8859-1"?>
<!-- Generator: Adobe Illustrator 19.0.0, SVG Export Plug-In . SVG Version: 6.00 Build 0)  -->
<svg version="1.1" id="Capa_1" xmlns="http://www.w3.org/2000/svg" xmlns:xlink="http://www.w3.org/1999/xlink" x="0px" y="0px"
	 viewBox="0 0 405.654 405.654" style="enable-background:new 0 0 405.654 405.654;" xml:space="preserve">
<g>
	<path d="M221.878,74.022c3.251-0.955,6.089-3.09,6.835-6.755c2.423-11.902,4.878-23.799,7.269-35.707
		c1.507-7.502,5.972-18.396,0.497-25.292c-5.656-7.123-18.367-5.428-26.351-5.765c-12.73-0.535-25.462-0.615-38.2-0.377
		c-4.471,0.084-7.407,2.42-8.944,5.488c-1.488,0.95-2.687,2.292-2.566,4.192c0.641,9.923,2.453,19.275,4.842,28.931
		c2.247,9.096,3.279,20.605,8.674,28.299c0.36,0.513,0.822,0.816,1.245,1.199c-12.107,31.806-14.84,67.269-20.72,100.665
		c-7.896,44.846-15.948,89.663-23.921,134.496c-0.61,3.437,0.719,6.148,2.759,8.058c0.077,0.178,0.081,0.342,0.178,0.522
		c16.748,31.358,41.568,58.686,60.191,89.151c3.947,6.458,12.088,5.593,16.201,0c22.039-29.985,43.726-60.39,62.621-92.48
		c2.049-2.006,3.324-4.835,2.548-8.418C259.105,226.532,249.249,144.769,221.878,74.022z"/>
</g>
<g>
</g>
<g>
</g>
<g>
</g>
<g>
</g>
<g>
</g>
<g>
</g>
<g>
</g>
<g>
</g>
<g>
</g>
<g>
</g>
<g>
</g>
<g>
</g>
<g>
</g>
<g>
</g>
<g>
</g>
</svg>
