<?xml version="1.0" encoding="iso-8859-1"?>
<!-- Generator: Adobe Illustrator 19.0.0, SVG Export Plug-In . SVG Version: 6.00 Build 0)  -->
<svg version="1.1" id="Capa_1" xmlns="http://www.w3.org/2000/svg" xmlns:xlink="http://www.w3.org/1999/xlink" x="0px" y="0px"
	 viewBox="0 0 400.166 400.166" style="enable-background:new 0 0 400.166 400.166;" xml:space="preserve">
<g>
	<path d="M343.512,352.882c-0.648-8.583-1.416-17.564-4.777-25.519c-0.507-1.2-1.374-1.992-2.395-2.495
		c-2.167-5.161-8.722-8.785-13.686-5.034c-12.144,9.173-44.228-4.023-53.329-12.88c-11.869-11.552-16.829-30.246-13.506-46.304
		c7.656-37.002,44.03-37.959,73.058-45.738c0.787-0.209,1.215-0.719,1.785-1.118c5.242-1.882,9.528-6.844,8.029-13.819
		c-2.053-9.548-4.194-19.026-4.701-28.802c-0.342-6.587-7.434-9.807-12.406-7.699c-43.62-7.341-86.55-7.052-130.693-4.945
		c-21.818,1.042-43.619,2.682-65.462,3.156c-14.525,0.461-29.046,0.372-43.564-0.274c-33.916-19.505-35.697-28.475-5.345-26.912
		c13.289-1.16,18.839-22.85,3.425-25.304c-22.663-3.607-49.831,6.068-59.786,22.651c-2.883,0.966-5.276,3.469-5.566,7.566
		c-4.511,63.826-4.477,127.954-3.952,191.926c0.22,26.9-3.253,48.447,23.78,60.37c37.383,16.492,110.199,2.711,151.001,3.064
		c41.565,0.36,106.03,13.445,144.529-2.503c5.086-2.107,9.017-5.95,9.011-11.836c-0.001-0.988-0.001-1.971-0.002-2.96
		C344.888,370.91,344.154,361.395,343.512,352.882z M315.667,372.258c-0.411,2.479-213.063-3.338-230.634-3.476
		c-32.317-0.252-39.662,7.799-49.693-37.443c-4.061-18.316-0.074-41.359-0.155-59.978c-0.14-32.211-0.869-64.261-2.272-96.339
		c26.21,22.916,71.81,16.276,103.423,15.163c60.008-2.114,118.34-6.618,178.098,0.209c-0.01,1.861,0.112,3.73,0.222,5.596
		c-38.568-10.238-82.389,33.413-83.59,70.765c-1.6,49.742,43.591,83.851,90.856,77.231c-0.671,3.066-1.361,6.159-1.879,9.121
		c-0.838,4.795-1.661,9.331-1.414,13.634C317.229,368.106,316.074,369.806,315.667,372.258z"/>
	<path d="M383.014,224.205c0.995-5.764-6.2-10.917-11.012-5.958c-10.345,10.666-24.773,18.953-39.729,20.455
		c-12.113,1.217-25.003-1.938-36.062,4.838c-17.898,10.964-18.449,37.558-4.358,51.785c17.65,17.82,44.102,14.967,65.206,5.833
		c9.236-3.997,24.086-8.977,28.398-19.122c1.924-4.526,1.036-8.928,0.532-13.728c-1.243-11.845-0.731-21.77,3.189-33.074
		C391.226,229.328,387.622,225.311,383.014,224.205z M301.627,269.646c0.418-1.762,1.291-3.173,2.361-4.426
		c10.875-4.448,19.084,4.308,15.501,14.988c-1.383,4.121,0.093,7.319,2.672,9.264C312.025,288.262,298.727,281.854,301.627,269.646z
		"/>
	<path d="M322.27,126.773c-6.573-18.926-10.809-41.71-22.439-58.142c-1.676-2.37-4.463-4.771-7.651-4.39
		c-27.92,3.327-56.834,19.821-82.811,30.371c-25.245,10.254-50.529,20.375-74.81,32.694c-0.993,0.049-1.987,0.105-2.981,0.154
		c-4.234,0.207-6.923,2.639-8.294,5.658c-0.512,0.283-1.047,0.519-1.559,0.804c-4.739,2.628-2.27,9.333,2.442,9.662
		c1.547,2.065,3.951,3.494,7.41,3.356c60.664-2.372,121.514-3.952,182.041-8.808C319.02,137.697,324.326,132.692,322.27,126.773z"/>
	<path d="M251.575,43.975c-11.464-13.832-22.791-27.787-34.599-41.328c-3.075-3.525-9.805-3.532-12.87,0
		c-33.038,38.048-68.965,73.684-102.777,111.06c-5.088,5.626-1.14,12.911,4.338,14.547c1.518,1.64,3.938,2.468,6.662,1.159
		c46.559-22.38,90.512-49.528,137.429-71.34C255.453,55.423,254.909,47.996,251.575,43.975z"/>
	<path d="M372.538,123.676c-9.828-14.596-31.478-15.039-41.815-1.322c-4.56,6.05,4.561,15.248,10.61,10.61
		c13.873-10.641,14.548,17.324,13.52,24.14c-1.725,11.438-5.877,25.26,1.616,35.284c4.96,6.636,14.754,6.004,17.57-2.296
		c1.989-5.866,1.379-11.665,2.089-17.762c0.699-5.986,1.989-11.903,2.53-17.914C379.598,143.954,378.559,132.617,372.538,123.676z"
		/>
	<path d="M376.266,325.661c-4.562-5.469-13.362-3.191-16.708,2.154c-3.882,6.204-2.52,11.968-3.197,18.956
		c-0.632,6.52-2.403,12.613-4.043,18.923c-3.104,11.946,13.348,18.864,19.814,8.354
		C380.048,361.176,386.838,338.345,376.266,325.661z"/>
</g>
<g>
</g>
<g>
</g>
<g>
</g>
<g>
</g>
<g>
</g>
<g>
</g>
<g>
</g>
<g>
</g>
<g>
</g>
<g>
</g>
<g>
</g>
<g>
</g>
<g>
</g>
<g>
</g>
<g>
</g>
</svg>
