<?xml version="1.0" encoding="iso-8859-1"?>
<!-- Generator: Adobe Illustrator 19.0.0, SVG Export Plug-In . SVG Version: 6.00 Build 0)  -->
<svg version="1.1" id="Capa_1" xmlns="http://www.w3.org/2000/svg" xmlns:xlink="http://www.w3.org/1999/xlink" x="0px" y="0px"
	 viewBox="0 0 416.882 416.882" style="enable-background:new 0 0 416.882 416.882;" xml:space="preserve">
<g>
	<path d="M377.884,231.908c-0.444-2.303-1.766-3.955-3.405-5.233c0.093-5.639-3.55-11.204-11.095-11.313
		c-74.867-1.081-153.031-4.885-228.024,1.27c-4.067-11.98-7.925-24.032-11.617-36.148c-3.415-11.198-5.253-22.382-16.86-27.553
		c-16.525-7.36-42.547,0.059-59.109,3.823c-14.575,3.313-11.646,27.283,3.565,26.348c19.057-1.172,34.897-6.984,44.278,11.339
		c8.608,16.815,12.324,38.845,19.347,56.592c11.354,28.694,22.259,63.262,43.884,85.611c1.497,1.549,3.138,2.36,4.796,2.868
		c1.68,1.868,4.153,3.238,7.464,3.581c51.311,5.311,105.851,4.907,157.313,1.384c7.999-0.547,11.734-6.718,11.398-12.659
		c10.891-14.029,18.677-30.105,25.358-46.526C371.9,268.771,381.356,249.908,377.884,231.908z"/>
	<path d="M212.012,365.232c-5.66-4.708-13.294-7.015-21.444-4.709c-18.142,5.135-24.394,27.984-14.909,43.205
		c10.361,16.624,37.041,17.912,48.175,1.456C232.832,391.886,227.378,368.898,212.012,365.232z"/>
	<path d="M333.118,366.674c-6.97-4.826-16.016-4.672-23.42-1.247c-2.492,0.213-5.038,0.935-7.924,2.915
		c-7.174,4.92-10.671,14.266-9.159,22.709c3.072,17.172,23.87,26.226,38.599,16.819
		C345.013,399.056,347.062,376.331,333.118,366.674z"/>
	<path d="M303.217,122.476c-0.451-0.452-0.902-0.903-1.351-1.354c-6.867-6.883-17.567-6.281-24.531,0
		c-2.984,2.69-5.506,5.879-7.852,9.263c-1.865-40.692-4.272-81.513-11.266-121.526c-2.526-14.45-23.146-9.684-24.141,3.267
		c-2.975,38.605-1.514,77.59,0.471,116.405c-0.198-0.2-0.393-0.4-0.592-0.6c-15.741-15.966-39.44,8.07-24.488,24.488
		c11.32,12.43,21.859,27.254,36.061,36.425c5.304,3.425,12.151,2.838,17.498,0c15.846-8.409,22.071-23.801,32.537-36.465
		c3.592-0.999,6.976-3.489,9.532-7.857l0.792-1.357C309.713,136.62,308.563,127.835,303.217,122.476z"/>
</g>
<g>
</g>
<g>
</g>
<g>
</g>
<g>
</g>
<g>
</g>
<g>
</g>
<g>
</g>
<g>
</g>
<g>
</g>
<g>
</g>
<g>
</g>
<g>
</g>
<g>
</g>
<g>
</g>
<g>
</g>
</svg>
