<?xml version="1.0" encoding="iso-8859-1"?>
<!-- Generator: Adobe Illustrator 19.0.0, SVG Export Plug-In . SVG Version: 6.00 Build 0)  -->
<svg version="1.1" id="Capa_1" xmlns="http://www.w3.org/2000/svg" xmlns:xlink="http://www.w3.org/1999/xlink" x="0px" y="0px"
	 viewBox="0 0 447.714 447.714" style="enable-background:new 0 0 447.714 447.714;" xml:space="preserve">
<path d="M433.934,133.522c-2.664-33.505-8.099-44.112-41.253-49.766c-37.742-6.438-82.274-0.453-120.627-0.607
	c-34.278-0.138-68.563-0.393-102.844-0.5c-3.481-6.283-8.741-12.188-12.535-17.573c-5.892-8.366-11.738-16.692-18.13-24.686
	c-0.617-0.773-1.296-1.292-1.992-1.691c-0.944-1.546-2.387-2.73-4.411-3.053C94.329,29.62,22.35,12.474,7.254,57.908
	c-13.219,39.788-4.269,97.359-4.579,139.27c-0.47,63.717,1.513,127.364,6.143,190.914c0.303,4.163,2.78,6.814,5.802,8.121
	c7.237,9.649,23.946,13.672,41.074,16.135c110.334,15.874,236.328,3.183,347.947,2.257c3.227-0.026,5.638-1.274,7.292-3.11
	c19.41-0.853,30.125-11.423,33.419-36.632C454.174,299.742,439.94,209.047,433.934,133.522z"/>
<g>
</g>
<g>
</g>
<g>
</g>
<g>
</g>
<g>
</g>
<g>
</g>
<g>
</g>
<g>
</g>
<g>
</g>
<g>
</g>
<g>
</g>
<g>
</g>
<g>
</g>
<g>
</g>
<g>
</g>
</svg>
