<?xml version="1.0" encoding="iso-8859-1"?>
<!-- Generator: Adobe Illustrator 19.0.0, SVG Export Plug-In . SVG Version: 6.00 Build 0)  -->
<svg version="1.1" id="Capa_1" xmlns="http://www.w3.org/2000/svg" xmlns:xlink="http://www.w3.org/1999/xlink" x="0px" y="0px"
	 viewBox="0 0 408.328 408.328" style="enable-background:new 0 0 408.328 408.328;" xml:space="preserve">
<g>
	<path d="M201.41,169.119c-4.822,0.79-8.786,2.781-12.035,5.435c-6.12,4.02-10.765,10.365-12.73,17.56
		c-7.718,28.228,28.757,49.718,49.93,29.654C247.739,201.718,230.882,164.283,201.41,169.119z"/>
	<path d="M266.899,75.419c4.337-3.548,1.672-11.046-4.472-11.864c-10.935-1.457-22.255-1.231-33.577-0.719
		c0.3-7.489,0.681-14.976,0.775-22.473c0.123-9.806,1.36-20.748-1.739-30.118c0.338-3.896-1.918-8.062-6.947-8.037
		c-13.656,0.067-27.676,0.06-41.218,1.927c-3.531,0.487-4.497,4.625-3.354,7.65c-2.249,10.092-0.861,20.953-0.122,31.173
		c0.499,6.916,1.014,13.834,1.693,20.734c-10.255-0.071-20.479,0.263-30.415,2.527c-1.195,0.274-2.019,0.88-2.54,1.651
		c-2.462,1.796-3.837,5.051-1.79,8.092c11.667,17.306,24.433,33.859,37.552,50.083c6.644,8.214,13.35,20.856,25.337,20.619
		c11.999-0.236,18.492-13.294,25.191-21.327c11.774-14.115,26.833-25.305,37.641-40.033
		C271.801,81.368,270.067,77.576,266.899,75.419z"/>
	<path d="M142.902,192.337c-24.349-15.912-46.247-35.424-70.625-51.074c-5.262-3.379-9.402,3.154-6.949,7.647
		c-0.561,7.348,0.314,14.94,1.069,22.503c-8.074,0.541-16.219,2.353-24.194,3.057c-10.833,0.956-21.662,1.309-32.533,1.015
		c-1.351-0.035-2.176,0.72-2.712,1.655c-2.277,0.307-4.335,1.857-5.203,4.698c-0.945,3.093-0.769,6.822-0.286,10.613
		c-0.67,3.323-0.875,6.833-1.161,10.057c-0.697,7.824-0.206,15.739,1.425,23.419c0.399,1.885,1.429,2.952,2.67,3.489
		c0.565,0.705,1.214,1.376,2.332,1.62c17.513,3.833,40.834,7.092,60.343,4.125c-1.365,12.148-2.755,27.501,4.236,33.037
		c1.263,1,2.81,1.637,4.367,1.812c2.234,1.448,5.04,1.811,7.59-0.055c23.119-16.896,42.825-42.141,61.408-63.834
		C148.465,201.699,147.893,195.599,142.902,192.337z"/>
	<path d="M272.15,321.254c-12.97-16.13-29.22-29.782-44.133-44.138c-6.624-6.374-13.746-17.312-24.048-16.406
		c-11.723,1.034-22.111,16.803-29.469,24.178c-13.443,13.473-28.275,26.711-37.517,43.469c-0.831,1.508-0.605,3.041-0.025,4.433
		c-0.109,1.973,0.734,3.892,3.263,4.303c10.24,1.661,21.096,3.222,32.223,4.498c-0.169,6.4-0.063,12.822-0.018,19.208
		c0.092,12.684-0.652,25.943,2.164,38.351c0.616,2.707,3.496,3.741,5.995,3.304c0.346,0.174,0.667,0.374,1.099,0.451
		c7.18,1.294,14.404,2.296,21.684,2.829c5.94,0.438,12.275,0.962,17.819-1.263c1.991,1.73,5.261,2.099,6.601-0.793
		c4.858-10.492,3.432-22.516,3.105-33.896c-0.245-8.556-0.914-17.029-1.773-25.498c12.707-0.4,25.147-1.552,36.753-4.035
		c2.841-0.607,4.268-3.316,4.254-5.972C273.788,331.702,275.461,325.37,272.15,321.254z"/>
	<path d="M408.285,175.799c0.51-3.799-3.575-6.758-6.892-6.892c-10.312-0.416-20.721-0.062-31.039,0.227
		c-6.479,0.182-13.27-0.079-19.755,0.866c-0.006-7.742,0.034-15.481-0.044-23.235c-0.053-5.108-5.207-9.534-10.342-7.876
		c-28.533,9.21-43.884,36.464-70.08,49.573c-5.522,2.762-5.307,9.986-1.813,14.068c21.712,25.368,45,49.507,72.267,68.965
		c5.6,3.995,11.554-3.152,9.298-8.506c2.526-5.605,0.614-12.783,0.416-18.771c-0.11-3.224,0.138-6.478,0.36-9.727
		c16.049,4.438,36.392,3.369,50.921-1.36c5.459-1.776,5.832-9.421,1.566-11.857C406.104,206.107,406.242,191.055,408.285,175.799z"
		/>
</g>
<g>
</g>
<g>
</g>
<g>
</g>
<g>
</g>
<g>
</g>
<g>
</g>
<g>
</g>
<g>
</g>
<g>
</g>
<g>
</g>
<g>
</g>
<g>
</g>
<g>
</g>
<g>
</g>
<g>
</g>
</svg>
