<?xml version="1.0" encoding="iso-8859-1"?>
<!-- Generator: Adobe Illustrator 19.0.0, SVG Export Plug-In . SVG Version: 6.00 Build 0)  -->
<svg version="1.1" id="Capa_1" xmlns="http://www.w3.org/2000/svg" xmlns:xlink="http://www.w3.org/1999/xlink" x="0px" y="0px"
	 viewBox="0 0 372.912 372.912" style="enable-background:new 0 0 372.912 372.912;" xml:space="preserve">
<g>
	<path d="M346,11.576c-4.155-3.072-4.965-3.578-8.401-4.349c-1.484-3.273-5.481-4.546-8.978-2.965
		c-9.416,4.256-17.34,17.489-24.32,25.179c-9.717,10.704-19.378,21.449-28.988,32.248c-9.619,10.806-19.237,21.626-28.455,32.778
		c-2.198,2.659-4.91,5.197-7.104,7.968c-3.033-2.198-6.116-4.31-9.401-5.797c-2.129-0.965-4.179-0.498-5.548,1.456
		c-0.148,0.207-0.294,0.416-0.44,0.624c-0.561,0.799-0.45,1.829-0.059,2.762c-0.887,0.979-1.596,2.134-1.551,3.565
		c-10.901,24.372-20.586,49.189-32.558,73.13c-2.467,4.937,3.337,9.31,7.494,5.782c22.005-18.668,44.216-37.103,66.755-55.125
		c3.134-2.507,1.45-6.968-1.146-8.894c-1.716-1.273-3.559-2.478-5.328-3.735c14.292-11.376,26.659-25.88,39.066-38.944
		c16.989-17.891,33.679-36.065,50.443-54.167C350.96,19.342,349.858,14.428,346,11.576z"/>
	<path d="M225.927,188.615c0.975-2.529-1.502-5.142-3.93-5.157c-0.581-0.003-1.159-0.006-1.736-0.01
		c-1.141-0.007-2.099,0.42-2.927,1.022c-0.825-0.27-1.714-0.446-2.764-0.121c-7.089,2.186-13.161,6.559-20.245,8.933
		c-3.532,1.184-7.163,2.08-10.826,2.753c-8.344,1.535-6.6,2.032-4.609-4.647c2.406-8.066,5.061-16.041,7.66-24.044
		c1.292-3.987,2.641-7.981,3.794-12.011c0.697-1.981,1.22-4.011,1.564-6.089c0.237-0.463,0.061-0.6,0.081-0.889
		c0.114-0.134,0.339-0.057,0.401-0.254c0.395-1.287,0.469-1.519,0.022-2.754c-0.267-0.739-0.852-1.596-1.717-1.716
		c-0.266-0.037-0.452,0.133-0.706,0.128c-0.248-2.209-1.42-4.04-5.091-5.456c-8.055-3.11-20.277,3.622-26.289,8.082
		c-16.88,12.519-28.978,36.688-23.601,57.69c7.509,29.33,43.229,41.16,66.521,29.103c2.505-0.862,5.063-1.538,7.407-2.923
		c6.966-4.117,12.385-10.304,15.529-17.771c1.463-3.473,2.534-7.161,2.789-10.941C227.482,198.143,224.825,191.462,225.927,188.615z
		"/>
	<path d="M284.758,137.89c-2.203-4.125-6.896-3.41-9.3-0.684c-0.121,0.021-0.21-0.045-0.331-0.015
		c-9.457,2.28-16.858,9.343-26.82,11.558c-2.621,0.582-3.417,2.756-2.977,4.783c-0.899,1.232-1.254,2.868-0.528,4.877
		c22.109,61.168-39.64,127.577-99.652,87.748c-29.734-19.734-38.533-58.443-21.455-89.994
		c16.416-30.332,48.457-38.814,80.498-39.385c1.564-0.027,2.495-1.045,3.011-2.234c0.203-0.171,0.506-0.085,0.67-0.311
		c4.915-6.889,6.116-16.269,7.58-24.47c0.139-0.815,0.069-1.556-0.066-2.263c3.532,0.894,5.219-4.142,2.302-6.096
		c-1.645-1.103-3.347-1.985-5.026-2.952c-1.134-1.948-3.273-3.004-5.471-2.953c-44.263-21.248-97.742,1.524-123.384,42.806
		c-34.072,54.855-22.299,114.835,21.688,158.622C194.527,365.551,342.966,246.796,284.758,137.89z"/>
	<path d="M367.42,136.164c0-0.013-0.01-0.03-0.01-0.043c-6.373-23.153-18.313-46.064-37.283-67.676
		c-3.394-3.867-8.364-0.809-9.095,3.178c-4.997,2.984-8.69,7.961-12.963,11.931c-4.787,4.443-9.621,8.847-14.452,13.245
		c-4.256,0.869-7.65,6.569-3.767,10.889c111.562,124.08-90.739,295.257-204.818,177.692
		c-49.818-51.338-49.573-136.341-0.541-187.872c1.257-1.322,2.569-2.464,3.851-3.71c3.381-2.521,6.682-5.549,9.883-8.704
		C141.54,50.746,195.972,53.98,248.29,71.333c1.754,0.582,3.004-0.211,3.854-1.346c0.082-0.06,0.163-0.02,0.247-0.086
		c8.821-7.138,16.965-15.056,24.834-23.221c2.401-2.488,1.857-5.531,0.119-7.55c1.282-1.271,1.507-3.818-0.277-5.055
		C88.547-96.763-103.005,195.71,63.936,331.938C206.59,448.351,408.877,286.983,367.42,136.164z"/>
</g>
<g>
</g>
<g>
</g>
<g>
</g>
<g>
</g>
<g>
</g>
<g>
</g>
<g>
</g>
<g>
</g>
<g>
</g>
<g>
</g>
<g>
</g>
<g>
</g>
<g>
</g>
<g>
</g>
<g>
</g>
</svg>
