<?xml version="1.0" encoding="iso-8859-1"?>
<!-- Generator: Adobe Illustrator 19.0.0, SVG Export Plug-In . SVG Version: 6.00 Build 0)  -->
<svg version="1.1" id="Capa_1" xmlns="http://www.w3.org/2000/svg" xmlns:xlink="http://www.w3.org/1999/xlink" x="0px" y="0px"
	 viewBox="0 0 437.491 437.491" style="enable-background:new 0 0 437.491 437.491;" xml:space="preserve">
<g>
	<path d="M432.677,123.711c-5.275-30.047-20.508-43.517-45.06-48.785c-1.128-3.303-3.974-5.974-8.557-6.065
		c-56.599-1.118-113.161,1.372-169.763,1.507c-49.777,0.12-112.174-12.57-160.273-0.235c-29.859,7.657-41.076,27.37-40.693,52.632
		c-2.409,33.544-2.037,67.211-3.723,100.814c-1.44,28.697-8.399,60.738-1.837,89.056c7.077,30.539,27.563,52.303,57.561,51.741
		c0.242,0.044,0.321,0.25,0.582,0.272c53.86,4.751,108.453,2.126,162.525,2.801c48.89,0.611,104.671,10.949,152.699,1.004
		c37.577-7.782,60.592-31.066,57.51-67.998c0.715-1.245,1.229-2.669,1.219-4.466C434.567,240.693,442.227,178.109,432.677,123.711z
		 M181.003,86.108c66.031-0.216,132.042,2.881,198.057,1.633c0.098-0.003,0.16-0.052,0.256-0.056
		c21.825,11.921,30.509,28.643,34.021,48.42c-1.237-1.101-2.821-1.927-4.957-2.041c-127.518-6.755-259.371-4.55-387.076,1.467
		C40.919,71.618,122.771,86.298,181.003,86.108z M415.914,298.2c4.333,76.873-266.39,52.749-342.058,54.014
		c-1.247-2.092-3.301-3.645-6.168-3.528c-68.704,2.789-46.981-109.432-46.151-143.703c0.348-14.372,0.155-28.612-0.348-42.824
		c0.358,0.061,0.72,0.112,1.079,0.172c0.511,0.803,1.194,1.516,2.093,2.08c-0.283,0.083-0.59,0.139-0.873,0.221
		c-2.475,0.725-2.723,4.673,0,5.267c55.349,12.073,114.674,2.673,171.021,1.204c71.368-1.86,142.834,1.169,214.123-1.258
		c3.177-0.108,5.5-1.352,7.03-3.141c0.118,7.822,0.097,15.883,0.201,24.19c0.434,34.525,0.461,69.057,0.826,103.583
		C416.167,295.571,415.834,296.785,415.914,298.2z"/>
	<path d="M129.895,220.56c-10.591-6.357-25.362-3.698-37.338-3.33c-11.217,0.345-23.396-0.597-32.536,6.533
		c-2.372,1.85-2.359,6.723,0,8.563c9.12,7.113,21.339,6.188,32.536,6.533c12.063,0.37,26.672,3.072,37.338-3.331
		C135.507,232.161,135.507,223.928,129.895,220.56z"/>
	<path d="M206.323,252.029c-23.663-4.311-48.359-2.192-72.359-2.023c-23.973,0.168-48.098,0.026-71.758,4.199
		c-7.536,1.329-7.541,13.898,0,15.228c23.66,4.174,47.785,4.031,71.758,4.199c24,0.169,48.696,2.288,72.359-2.023
		C216.01,269.843,216.016,253.796,206.323,252.029z"/>
</g>
<g>
</g>
<g>
</g>
<g>
</g>
<g>
</g>
<g>
</g>
<g>
</g>
<g>
</g>
<g>
</g>
<g>
</g>
<g>
</g>
<g>
</g>
<g>
</g>
<g>
</g>
<g>
</g>
<g>
</g>
</svg>
