<?xml version="1.0" encoding="iso-8859-1"?>
<!-- Generator: Adobe Illustrator 19.0.0, SVG Export Plug-In . SVG Version: 6.00 Build 0)  -->
<svg version="1.1" id="Capa_1" xmlns="http://www.w3.org/2000/svg" xmlns:xlink="http://www.w3.org/1999/xlink" x="0px" y="0px"
	 viewBox="0 0 407.409 407.409" style="enable-background:new 0 0 407.409 407.409;" xml:space="preserve">
<path d="M264.039,210.152c-13.021-11.693-28.665-17.517-44.559-24.004c0.715-36.401,1.075-72.791,1.31-109.088
	c9.082,1.45,18.098,5.057,26.206,11.494c10.612,8.425,24.596-0.846,24.652-10.729c4.107-4.622,5.422-12.546,0.983-18.182
	c-12.578-15.971-31.342-24.943-51.558-27.935c0.035-6.151,0.069-12.317,0.108-18.459c0.112-17.679-27.022-17.649-27.439,0
	c-0.142,5.982-0.391,11.985-0.552,17.97c-30.306,3.543-59.285,19.621-72.145,46.022c-25.102,51.537,5.346,105.432,49.277,134.13
	c1.025,2.28,2.848,4.352,5.863,5.856c3.32,1.655,6.917,3.386,10.643,5.204c-1.04,31.478-1.842,62.943-2.382,94.393
	c-9.54-3.023-18.674-8.046-25.938-14.396c-0.648-0.568-1.349-0.867-2.035-1.242c-3.239-4.09-8.85-6.527-13.933-4.731
	c-7.622,2.694-14.842,7.54-17.741,15.495c-1.187,3.256-1.504,7.107-1.104,10.568c0.48,4.167,2.585,5.808,4.872,8.955
	c0.879,1.209,2.154,1.888,3.478,2.231c13.935,17.411,32.424,28.419,51.967,33.129c-0.034,9.47-0.301,18.956-0.247,28.418
	c0.095,16.499,23.772,15.924,25.235,0c0.795-8.657,1.408-17.353,2.095-26.032c34.744-1.819,67.842-22.864,80.332-63.007
	C302.174,271.668,290.715,234.108,264.039,210.152z M160.377,138.461c-7.203-27.83,8.897-50.042,31.317-58.513
	c-1.015,30.465-2.04,60.942-3.152,91.439C175.597,163.562,164.202,153.242,160.377,138.461z M241.332,288.934
	c-4.042,17.224-14.321,26.221-26.75,29.481c1.504-26.027,2.671-52.109,3.511-78.234
	C234.466,251.957,246.405,267.319,241.332,288.934z"/>
<g>
</g>
<g>
</g>
<g>
</g>
<g>
</g>
<g>
</g>
<g>
</g>
<g>
</g>
<g>
</g>
<g>
</g>
<g>
</g>
<g>
</g>
<g>
</g>
<g>
</g>
<g>
</g>
<g>
</g>
</svg>
