<?xml version="1.0" encoding="iso-8859-1"?>
<!-- Generator: Adobe Illustrator 19.0.0, SVG Export Plug-In . SVG Version: 6.00 Build 0)  -->
<svg version="1.1" id="Capa_1" xmlns="http://www.w3.org/2000/svg" xmlns:xlink="http://www.w3.org/1999/xlink" x="0px" y="0px"
	 viewBox="0 0 401.664 401.664" style="enable-background:new 0 0 401.664 401.664;" xml:space="preserve">
<g>
	<path d="M396.928,124.771c0.029-10.07-1.411-18.819-8.766-27.26c-7.44-8.54-18.106-13.448-29.465-12.481
		c-1.419,0.12-2.498,0.695-3.569,1.282c-1.375-1.383-3.281-2.36-5.857-2.425c-52.673-1.323-105.823-0.566-158.49,0.745
		c-48.678,1.212-99.597-2.995-148.069,0.758c-0.661-1.21-1.649-2.228-3.242-2.62c-10.427-2.573-22.997,2.195-29.473,10.719
		c-3.745,4.93-5.147,10.925-5.501,17.125c-0.208,0.463-0.58,0.814-0.592,1.389c-0.708,31.682,1.017,62.651-1.678,94.36
		c-2.125,25.003-4.188,50.15,1.203,74.657c0.292,9.027,3.991,17.569,11.203,23.667c8.313,7.034,24.291,14.669,35.262,11.059
		c0.241-0.079,0.354-0.285,0.572-0.391c40.062,7.979,84.739,2.286,124.78,2.033c60.278-0.381,120.509,0.416,180.786,0.592
		c2.545,0.007,4.433-0.971,5.841-2.359c7.71,0.432,15.046-1.001,21.989-6.818c6.963-5.833,11.263-14.496,9.172-22.93
		C402.913,234.538,404.448,175.915,396.928,124.771z M86.688,289.635c0.741-2.218,1.132-4.697,0.71-7.654
		c-3.706-25.933-25.64-48.183-52.247-48.576c2.819-26.099,4.219-52.745,4.32-78.557c19.816-1.329,37.143-15.633,42.965-35.334
		c32.825,2.31,66.312,3.009,99.866,3.034c-41.501,26.276-46.536,137.963-14.945,169.121
		C140.341,291.726,113.378,291.334,86.688,289.635z M358.405,213.782c-0.296,6.151-0.851,12.608-1.408,19.172
		c-2.207,0.021-4.451,0.44-6.662,1.464c-19.209,8.904-38.058,30.35-38.684,52.704c-30.495,1.528-61.299,2.875-92.126,3.778
		c10.732-8.754,19.462-21.259,24.206-32.799c13.26-32.257,13.901-80.863,0.35-113.046c-5.008-11.897-11.783-19.209-19.033-22.866
		c29.982-0.537,59.893-1.409,89.284-2.514c2.24,9.513,9.187,17.993,16.926,23.516c7.341,5.237,19.285,11.047,29.905,11.847
		C359.679,174.637,359.334,194.437,358.405,213.782z"/>
	<path d="M116.146,194.667c-4.498-15.721-21.717-20.087-35.143-13.204c-6.921,3.548-8.877,9.728-7.681,15.528
		c-2.362,12.324,8.951,24.639,21.323,25.572C110.052,223.725,120.287,209.139,116.146,194.667z"/>
	<path d="M295.908,177.109c-18.573,10.57-12.868,37.081,6.248,42.767c3.369,1.003,6.262,0.668,8.904-0.151
		c10.16,0.249,20.635-6.524,21.759-18.989C334.574,181.278,313.15,167.296,295.908,177.109z"/>
</g>
<g>
</g>
<g>
</g>
<g>
</g>
<g>
</g>
<g>
</g>
<g>
</g>
<g>
</g>
<g>
</g>
<g>
</g>
<g>
</g>
<g>
</g>
<g>
</g>
<g>
</g>
<g>
</g>
<g>
</g>
</svg>
