<?xml version="1.0" encoding="iso-8859-1"?>
<!-- Generator: Adobe Illustrator 19.0.0, SVG Export Plug-In . SVG Version: 6.00 Build 0)  -->
<svg version="1.1" id="Capa_1" xmlns="http://www.w3.org/2000/svg" xmlns:xlink="http://www.w3.org/1999/xlink" x="0px" y="0px"
	 viewBox="0 0 434.62 434.62" style="enable-background:new 0 0 434.62 434.62;" xml:space="preserve">
<g>
	<path d="M433.013,165.76c0.024-8.205-6.642-13.857-14.416-14.416c-8.172-0.589-15.773-0.316-23.495,1.071
		c-0.925-18.018-2.23-36.018-4.138-53.959c-0.761-7.126-5.568-13.668-13.491-13.49c-116.694,2.614-233.369,5.229-350.053,7.8
		c-0.788,0.017-1.36,0.339-2.072,0.467c-3.779-1.535-8.38-0.654-9.67,4.446C-3.522,173.548-0.044,256.736,0.771,334.509
		c0.073,7.033,5.742,12.373,12.643,12.644c120.071,4.7,240.087,2.685,359.981-5.199c5.376-0.355,12.037-3.889,12.98-9.882
		c2.866-18.211,4.984-36.511,6.609-54.846c18.506,0.403,37.507,4.624,40.218-19.697C436.537,227.603,432.934,195.858,433.013,165.76
		z M354.414,310.181c-24.518,22.297-100.786,12.833-133.215,13.732c-46.164,1.281-92.374,1.231-138.543,0.227
		c-62.05-1.351-57.522-23.947-55.973-81.066c1.122-41.387,5.175-83.182,4.269-124.612c88.594-1.693,177.133-3.682,265.739-5.007
		c20.115-0.301,55.283-8.617,69.906,10.505c6.092,7.962,2.799,40.933,3.147,51.193C370.954,210.936,381.208,285.812,354.414,310.181
		z"/>
	<path d="M342.195,159.481c-4.686-14.535-4.88-10.949-18.403-18.241c-25.631-13.821-89.333-6.5-118.963-7.132
		c-45.695-0.973-91.585-0.791-137.177,2.466c-8.617,0.614-13.171,7.325-11.86,15.57c0.822,11.489,1.64,22.98,2.462,34.47
		c-0.003,0.692,0.265,1.19,0.356,1.817c-2.264,19.829-2.806,39.855-2.325,59.848c0.016,1.144-0.158,2.178-0.131,3.333
		c0.012,0.472,0.198,0.91,0.253,1.377c0.365,10.986,0.937,21.959,1.917,32.87c0.487,5.45,3.295,9.236,8.437,11.083
		c10.993,3.947,11.045,1.327,22.398,1.37c28.957,0.109,57.741-3.972,87.048-3.27c51.242,1.231,102.472,2.804,153.711,4.054
		c6.746,0.164,12.351-5.818,12.405-12.404c0.225-27.65-0.596-55.208-0.62-82.845C341.693,191.185,345.77,170.574,342.195,159.481z"
		/>
</g>
<g>
</g>
<g>
</g>
<g>
</g>
<g>
</g>
<g>
</g>
<g>
</g>
<g>
</g>
<g>
</g>
<g>
</g>
<g>
</g>
<g>
</g>
<g>
</g>
<g>
</g>
<g>
</g>
<g>
</g>
</svg>
