<?xml version="1.0" encoding="iso-8859-1"?>
<!-- Generator: Adobe Illustrator 19.0.0, SVG Export Plug-In . SVG Version: 6.00 Build 0)  -->
<svg version="1.1" id="Capa_1" xmlns="http://www.w3.org/2000/svg" xmlns:xlink="http://www.w3.org/1999/xlink" x="0px" y="0px"
	 viewBox="0 0 414.654 414.654" style="enable-background:new 0 0 414.654 414.654;" xml:space="preserve">
<path d="M411.575,158.055c-0.896-7.389-5.142-11.926-12.706-12.703c-9.808-1.008-18.674-0.739-28.182,1.436
	c-0.862-15.047-1.553-30.104-2.88-45.128c-0.49-5.542-3.917-9.079-8.024-10.64c-1.211-5.762-5.418-10.81-13.014-10.903
	c-105.953-1.295-220.393-12.581-325.5,0.553C13.866,77.582,3.59,81.241,3.201,91.85c-2.748,74.76-5.927,152.036,0.836,226.589
	c0.859,9.449,9.634,12.456,15.891,9.359c105.28,15.845,223.88,15.787,329.245,4.433c6.182-0.667,9.81-4.732,11.034-9.321
	c14.781-11.131,14.853-35.715,13.926-56.824c6.552-0.719,12.775-0.829,19.256,1.553c6.722,2.472,16.954-2.819,17.966-10.201
	C415.863,224.431,415.571,191.117,411.575,158.055z M342.023,307.945c-103.28-3.674-212.271-4.151-315.404,3.315
	c6.238-69.363,4.367-140.93,2.352-210.578c102.001,13.775,212.297,6.421,314.926,7.498
	C345.94,174.396,347.261,241.876,342.023,307.945z"/>
<g>
</g>
<g>
</g>
<g>
</g>
<g>
</g>
<g>
</g>
<g>
</g>
<g>
</g>
<g>
</g>
<g>
</g>
<g>
</g>
<g>
</g>
<g>
</g>
<g>
</g>
<g>
</g>
<g>
</g>
</svg>
