<?xml version="1.0" encoding="iso-8859-1"?>
<!-- Generator: Adobe Illustrator 19.0.0, SVG Export Plug-In . SVG Version: 6.00 Build 0)  -->
<svg version="1.1" id="Capa_1" xmlns="http://www.w3.org/2000/svg" xmlns:xlink="http://www.w3.org/1999/xlink" x="0px" y="0px"
	 viewBox="0 0 426.218 426.218" style="enable-background:new 0 0 426.218 426.218;" xml:space="preserve">
<g>
	<path d="M385.055,150.146c-4.007,0.288-6.736,2.357-8.447,5.031c-0.858-18.407-2.204-36.865-4.616-55.494
		c-0.896-6.916-5.123-12.674-12.766-12.766c-113.911-1.346-230.726-4.007-344.442,1.686c-5.098,0.256-8.238,2.987-9.623,6.403
		c-0.171,0.366-0.542,0.542-0.615,0.987C-7.52,169.517,9.089,244.412,1.811,318.323c-0.765,7.747,6.903,13.149,13.667,13.67
		c110.067,8.463,230.364,15.884,339.764-1.202c5.694-0.889,7.979-5.055,7.929-9.518c1.645-1.523,3.009-3.474,3.508-6.416
		c2.455-14.395,4.245-28.688,5.862-42.975c10.579,7.438,24.469,9.193,37.152,7.269c4.589-0.696,7.979-5.247,9.309-9.311
		c4.056-12.374,3.423-26.902,4.398-39.811c1.324-17.481,2.728-35.224,2.817-52.757C426.343,152.505,407.188,148.552,385.055,150.146
		z M341.648,307.954c-0.03,0.171,0.036,0.305,0.012,0.473c-86.728-4.248-174.468,2.351-261.465-1.195
		c-34.076-1.389-44.399,6.947-55.442-38.006c-4.586-18.674-1.072-42.323-1.425-61.37c-0.606-32.956-0.859-65.132-6.185-97.336
		c82.368,8.223,166.663,4.95,249.354,4.371c16.402-0.115,36.957-3.702,52.993-0.597c30.763,5.957,26.409,11.046,32.024,38.291
		C361.348,200.283,349.773,261.432,341.648,307.954z"/>
	<path d="M179.531,149.1c-0.484-6.945-6.121-9.017-10.935-7.546c-0.259-0.097-0.363-0.391-0.637-0.463
		c-36.641-9.48-78.823-5.454-116.505-6.826c-5.085-0.184-9.986,4.617-9.745,9.742c1.194,25.134,1.937,50.264,2.948,75.401
		c0.795,19.742-2.22,43.006,3.767,61.759c1.568,4.918,5.847,8.298,11.045,8.411c1.77,0.038,3.247-0.072,4.678-0.215
		c0.048,0.009,0.055,0.061,0.1,0.069c15.29,2.557,30.438,3.105,45.913,3.236c15.08,0.127,31.945,3.322,46.221-2.137
		c1.145-0.438,1.72-1.291,2.576-1.955c0.81,0.157,1.602,0.237,2.412,0.409c8.304,1.768,14.831-3.616,15.549-11.844
		C180.682,234.072,182.546,192.234,179.531,149.1z"/>
</g>
<g>
</g>
<g>
</g>
<g>
</g>
<g>
</g>
<g>
</g>
<g>
</g>
<g>
</g>
<g>
</g>
<g>
</g>
<g>
</g>
<g>
</g>
<g>
</g>
<g>
</g>
<g>
</g>
<g>
</g>
</svg>
