<?xml version="1.0" encoding="iso-8859-1"?>
<!-- Generator: Adobe Illustrator 19.0.0, SVG Export Plug-In . SVG Version: 6.00 Build 0)  -->
<svg version="1.1" id="Capa_1" xmlns="http://www.w3.org/2000/svg" xmlns:xlink="http://www.w3.org/1999/xlink" x="0px" y="0px"
	 viewBox="0 0 405.025 405.025" style="enable-background:new 0 0 405.025 405.025;" xml:space="preserve">
<g>
	<path d="M371.441,144.414c-0.046-0.238-0.281-0.315-0.35-0.537c0.117-2.795-0.88-5.647-3.837-7.613
		c-97.288-64.688-215.576-1.44-321.896-27.63c-8.738-2.152-11.88,10.246-3.663,13.292c103.485,38.373,218.626-34.833,315.873,28.963
		c-8.128,48.493-1.705,102.049-2.175,150.882c-0.112,11.615,18.074,11.634,18.05,0C373.337,250.753,380.943,194.609,371.441,144.414
		z"/>
	<path d="M396.194,131.629c2.342-3.191,3.107-7.737-0.01-11.62c-77.945-97.125-227.887-23.22-328.809-38.723
		c-7.793-1.196-11.108,9.452-3.315,12.026c100.125,33.071,237.689-58.518,318.93,38.488c-0.058,0.294-0.203,0.544-0.221,0.857
		c-2.571,43.435,2.3,88.831,6.063,132.161c0.887,10.213,16.452,10.57,16.191,0C403.935,220.942,403.555,174.949,396.194,131.629z"/>
	<path d="M341.334,162.177c2.244-4.291,1.742-9.64-3.96-12.218c-46.724-21.117-90.511-16.757-141.013-11.896
		c-62.84,6.048-121.666,1.159-184.328-2.781c-3.564-0.224-5.405,2.064-5.689,4.72c-1.493,1.461-2.54,3.474-2.569,6.184
		c-0.535,49.976-9.653,109.894,2.54,158.755c-1.818,3.341-1.065,7.913,3.883,9.433c44.247,13.594,85.213,5.139,130.019-0.659
		c59.555-7.707,112.202-0.325,169.373,15.594c5.845,3.987,11.946,5.765,20.85,6.827c5.088,0.607,8.953-4.7,9.167-9.168
		c2.571-53.649,2.677-107.646,2.421-161.35C342.022,164.306,341.753,163.175,341.334,162.177z M166.725,278.721
		c-8.787,2.829-9.806-12.884-9.808-17.578c-0.001-2.28-1.265-3.774-2.832-4.829c0.102-1.256-0.138-2.537-0.955-3.681
		c-3-4.194-6.997-7.568-9.855-11.853c-0.935-1.401-4.529-8.948-0.565-10.126c2.012-0.598,7.986,6.676,9.267,7.717
		c3.501,2.842,6.998,4.591,11.545,4.825c8.747,0.449,9.269-11.687,1.949-14.397c-6.724-2.49-10.225-9.709-17.133-12.214
		c-1.354-0.491-2.719-0.633-4.08-0.789c-1.79-4.577-2.786-9.795-2.368-13.467c0.758-6.65,5.539-12.308,11.761-14.701
		c6.015-2.313,6.738-9.068,3.868-12.975c0.744-4.643,4.71-10.044,9.256-7.122c2.035,1.308,2.902,4.189,2.918,6.427
		c0.029,3.994-1.594,5.745,0.333,9.915c0.57,1.233,1.898,2.139,3.334,2.745c4.441,2.47,8.491,5.68,10.794,10.352
		c1.369,2.779,1.652,5.564,1.834,8.376c-5.491-3.324-11.529-5.776-17.581-7.149c-9.004-2.041-12.679,8.941-5.943,14.096
		c7.418,5.679,17.798,10.876,22.474,19.296c3.403,6.129,2.972,15.888-4.71,18.285c-6.416,2.001-8.282,7.781-6.906,12.673
		c-0.982,2.308-1.799,4.681-2.382,7.19C170.22,272.819,170.222,277.595,166.725,278.721z"/>
</g>
<g>
</g>
<g>
</g>
<g>
</g>
<g>
</g>
<g>
</g>
<g>
</g>
<g>
</g>
<g>
</g>
<g>
</g>
<g>
</g>
<g>
</g>
<g>
</g>
<g>
</g>
<g>
</g>
<g>
</g>
</svg>
