<?xml version="1.0" encoding="iso-8859-1"?>
<!-- Generator: Adobe Illustrator 19.0.0, SVG Export Plug-In . SVG Version: 6.00 Build 0)  -->
<svg version="1.1" id="Capa_1" xmlns="http://www.w3.org/2000/svg" xmlns:xlink="http://www.w3.org/1999/xlink" x="0px" y="0px"
	 viewBox="0 0 447.159 447.159" style="enable-background:new 0 0 447.159 447.159;" xml:space="preserve">
<path d="M406.67,206.875c-0.007-0.057-0.038-0.093-0.044-0.148c4.817-8.866,0.79-22.994-12.539-23.376
	c-12.142-0.349-24.291-0.548-36.436-0.871c1.565-31.606-10.785-73.801-15.112-92.137c-10.854-46.028-37.382-80.542-86.123-88.679
	C190.449-9.348,129.66,35.728,110.538,93.678c-7.452,10.686-12.887,23.502-16.365,33.532c-5.626,16.215-7.863,35.094-6.015,52.992
	c-11.075,1.704-22.022,4.013-32.686,7.613c-1.053,0.354-1.741,1.031-2.362,1.73c-2.959-3.699-9.269-3.728-11.075,1.942
	c-22.844,71.733-14.901,158.14-7.822,231.905c0.383,3.997,2.331,6.917,4.935,8.853c0.985,1.823,2.683,3.286,5.404,3.837
	c115.304,23.32,234.89-8.476,351.703,10.873c5.988,0.991,10.667-1.729,13.527-5.671c3.847-1.84,7.062-5.338,7.563-9.864
	C425.443,357.897,414.944,280.138,406.67,206.875z M255.89,306.867c-1.526,2.856-1.734,5.591-1.43,8.2
	c-3.909,3.914-6.306,9.564-5.149,15.369c3.18,15.98,10.854,31.475,18.603,46.667c-25.451,3.502-50.975,6.295-76.577,8.483
	c4.714-22.918,11.061-48.257,7.034-69.521c3.419-2.806,5.187-8.169,2.514-11.742c-9.911-13.221-22.316-25.591-18.327-43.909
	c5.446-25.016,35.38-29.671,56.362-25.829c19.124,3.502,42.006,17.524,40.425,40.154C278.247,290.445,262.534,294.42,255.89,306.867
	z M302.689,181.168c-30.044-0.715-60.088-1.569-90.132-2.151c-21.356-0.413-43.219-1.772-65.027-2.148
	c-2.052-58.51,25.434-135.748,98.676-125.355c33.826,4.799,42.811,29.274,49.083,58.992c3.332,15.793,5.846,31.705,7.528,47.761
	C303.235,162.26,302.559,173.29,302.689,181.168z"/>
<g>
</g>
<g>
</g>
<g>
</g>
<g>
</g>
<g>
</g>
<g>
</g>
<g>
</g>
<g>
</g>
<g>
</g>
<g>
</g>
<g>
</g>
<g>
</g>
<g>
</g>
<g>
</g>
<g>
</g>
</svg>
