<?xml version="1.0" encoding="iso-8859-1"?>
<!-- Generator: Adobe Illustrator 19.0.0, SVG Export Plug-In . SVG Version: 6.00 Build 0)  -->
<svg version="1.1" id="Capa_1" xmlns="http://www.w3.org/2000/svg" xmlns:xlink="http://www.w3.org/1999/xlink" x="0px" y="0px"
	 viewBox="0 0 414.067 414.067" style="enable-background:new 0 0 414.067 414.067;" xml:space="preserve">
<g>
	<path d="M200.947,50.661c-18.889-12.913-37.156-26.722-56.019-39.675c-0.693-6.869-6.409-13.205-14.407-10.233
		C93.038,14.676,58.165,36.401,25.421,59.098c-9.226-1.306-18.693,10.432-12.676,19.097c11.868,17.073,31.456,29.486,51.976,35.17
		c-10.82,3.639-19.895,13.368-27.708,21.236c-8.736,8.791-19.704,20.898-22.711,33.448c-6.258-2.78-12.381,4.751-7.373,10.049
		c34.456,36.473,80.191,62.107,123.627,86.291c6.017,3.35,12.865,1.175,16.616-4.359c13.49-19.9,27.512-39.165,42.48-57.99
		c0.863-1.085,1.254-2.241,1.747-3.382c7.867-2.752,11.624-14.489,2.389-20.283c-22.066-13.847-45.113-26.213-67.887-38.85
		c-11.971-6.643-24.605-14.693-37.858-19.763c38.194-14.782,75.76-31.172,112.903-48.4C209.751,67.28,207.669,55.257,200.947,50.661
		z"/>
	<path d="M407.192,158.832c-7.463-9.812-17.03-17.539-26.791-25.018c-6.312-4.835-13.173-9.826-20.45-13.628
		c6.537-6.917,13.231-13.659,19.87-20.478c7.084-7.271,16.33-14.141,20.414-23.479c3.068-7.022-0.862-13.439-6.985-14.431
		c-0.866-2.305-2.391-4.452-5.261-5.945c-19.716-10.262-39.451-20.482-59.119-30.837c-12.884-6.782-32.754-23.034-48.077-23.307
		c-20.909-0.372-48.04,27.621-58.859,43.593c-0.507,0.751-0.468,1.562-0.596,2.36c-3.036,2.697-2.857,8.893,0.917,11.305
		c19.219,12.291,40.041,21.728,60.43,31.906c14.721,7.349,29.378,15.36,44.433,22.197c-10.092,5.21-19.693,12.381-28.352,17.758
		c-25.503,15.842-50.985,31.972-76.049,48.493c-1.045,0.688-1.699,1.531-2.427,2.344c-3.905,1.751-6.2,7.268-2.677,11.796
		c18.225,23.438,37.902,45.089,61.052,63.732c3.597,2.895,8.54,5.38,13.314,3.518c19.521-7.612,35.688-21.876,52.249-34.453
		c20.103-15.268,43.179-29.019,59.895-48.105c2.513-2.874,3.046-6.091,2.424-8.975C409.125,166.487,410.122,162.686,407.192,158.832
		z"/>
	<path d="M375.838,253.927c5.623-8.31-3.321-20.602-14.151-15.239c-30.811,15.255-62.918,32.44-90.504,53.561
		c-5.831-11.462-20.559-18.964-30.616-26.513c-11.723-8.803-23.187-18.015-35.828-25.493c-4.206-2.488-8.967-0.585-11.692,2.797
		c-0.943-0.064-1.853-0.314-2.818-0.131c-12.641,2.38-22.181,15.747-29.757,25.398c-6.299,8.031-11.964,16.518-17.123,25.303
		c-27.913-15.923-56.782-31.177-85.352-45.332c-6.152-3.05-11.041,1.442-11.22,6.495c-5.091,6.287-4.982,15.329-5.438,23.667
		c-0.744,13.657-1.32,27.698,0.827,41.224c0.439,2.772,2.302,4.286,4.501,5.24c0.41,0.457,0.481,1.08,1.064,1.428
		c26.339,15.733,52.756,31.311,79.262,46.768c23.62,13.775,47.35,32.106,73.375,40.553c3.129,1.015,5.639,0.028,7.732-1.566
		c0.782,0.045,1.455,0.412,2.302,0.207c34.899-8.507,67.394-33.416,98.141-51.499c16.436-9.666,54.413-21.7,62.26-41.698
		c0.59-0.726,1.311-1.257,1.68-2.289c3.062-8.582,3.289-17.828,4.106-26.853c0.892-9.839,2.447-19.882,1.805-29.757
		C378.23,257.661,377.214,255.608,375.838,253.927z"/>
</g>
<g>
</g>
<g>
</g>
<g>
</g>
<g>
</g>
<g>
</g>
<g>
</g>
<g>
</g>
<g>
</g>
<g>
</g>
<g>
</g>
<g>
</g>
<g>
</g>
<g>
</g>
<g>
</g>
<g>
</g>
</svg>
