<?xml version="1.0" encoding="iso-8859-1"?>
<!-- Generator: Adobe Illustrator 19.0.0, SVG Export Plug-In . SVG Version: 6.00 Build 0)  -->
<svg version="1.1" id="Capa_1" xmlns="http://www.w3.org/2000/svg" xmlns:xlink="http://www.w3.org/1999/xlink" x="0px" y="0px"
	 viewBox="0 0 416.631 416.631" style="enable-background:new 0 0 416.631 416.631;" xml:space="preserve">
<path d="M411.423,200.32c0.09-31.26,6.463-68.226-24.24-86.377c-21.742-12.855-56.391-12.829-89.439-10.801
	c1.942-17.677,6.018-46.02-10.098-55.604c-7.611-4.525-18.578-2.756-26.9-2.719c-16.934,0.074-33.869,0.186-50.803,0.301
	c-19.323,0.131-52.781-6.495-68.929,7.619c-13.934,12.177-12.759,37.382-10.536,56.25c-32.151,1.834-64.226,4.9-96.331,10.129
	c-7.551,1.231-11.092,6.242-11.618,11.905c-6.12,1.385-11.505,5.975-11.892,14.137C7.52,210.829-30.397,350.802,58.889,365.893
	c69.784,11.794,148.439,5.534,219.011,4.277c31.566-0.562,102.606,10.868,125.737-20.688
	C427.369,317.107,411.314,237.685,411.423,200.32z M164.221,77.545c5.589-5.007,42.096-0.082,50.803-0.098
	c11.856-0.024,35.55,5.024,45.723-0.132c2.319,0.605,3.792,0.382,4.863-0.24l-0.013,1.444c-0.17,8.965-0.016,17.883,0.416,26.825
	c-10.602,0.772-20.616,1.411-29.014,1.356c-27.26-0.18-54.34,0.236-81.362,1.233C157.619,96.599,159.624,81.666,164.221,77.545z"/>
<g>
</g>
<g>
</g>
<g>
</g>
<g>
</g>
<g>
</g>
<g>
</g>
<g>
</g>
<g>
</g>
<g>
</g>
<g>
</g>
<g>
</g>
<g>
</g>
<g>
</g>
<g>
</g>
<g>
</g>
</svg>
