<?xml version="1.0" encoding="iso-8859-1"?>
<!-- Generator: Adobe Illustrator 19.0.0, SVG Export Plug-In . SVG Version: 6.00 Build 0)  -->
<svg version="1.1" id="Capa_1" xmlns="http://www.w3.org/2000/svg" xmlns:xlink="http://www.w3.org/1999/xlink" x="0px" y="0px"
	 viewBox="0 0 397.759 397.759" style="enable-background:new 0 0 397.759 397.759;" xml:space="preserve">
<g>
	<path d="M395.3,112.314c3.618-5.583-0.62-15.643-8.622-16.289c-31.684-2.564-63.805-1.856-95.937-0.483
		c5.166-7.795,3.68-18.171,3.416-27.549c-0.335-12.058-1.418-24.008-3.92-35.816c-0.849-3.998-4.529-6.041-8.252-6.221
		c-0.234-0.069-0.315-0.328-0.566-0.375c-48.209-9.087-107.69-6.764-156.436-0.812c-0.534-0.031-0.976,0.091-1.504,0.147
		c-0.141,0.017-0.297,0.026-0.437,0.043c-0.981,0.122-1.898,0.436-2.736,0.894c-0.671,0.342-1.151,0.798-1.707,1.319
		c-2.415,2.212-3.682,5.595-3.105,8.448c-1.477,9.026-1.736,18.407-2.227,27.479c-0.62,11.515-1.483,23.316-0.623,34.81
		c0.013,0.172,0.159,0.244,0.181,0.411c-31.223-0.405-62.42-0.36-93.301,2.029c-7.823,0.605-10.355,7.744-7.955,12.991
		c-3.591,11.872-1.51,25.4-1.995,37.719c-0.533,13.52-1.062,26.938,3.624,39.83c1.758,4.843,6.602,6.486,10.675,5.269
		c7.888,3.031,18.863,0.255,26.99-0.03c17.372-0.608,35.259,0.891,52.423-1.596c1.34-0.194,2.062-1.097,2.96-1.806
		c2.195-0.651,3.958-2.394,3.85-5.195c-0.297-7.436-1.774-14.756,4.589-20.328c6.23-5.459,16.331-4.228,20.828,2.881
		c2.528,3.997,1.994,11.22,3.531,16.222c-2.626,3.559-0.555,9.362,4.804,9.846c18.73,1.696,37.084,0.389,55.847-0.082
		c18.72-0.47,37.246,1.669,55.925,1.306c0.93-0.017,1.739-0.291,2.542-0.567c5.02-0.475,10.088-5.59,8.993-11.525
		c-1.941-10.527,4.548-22.568,16.138-22.556c14.045,0.015,15.048,12.739,15.153,23.404c0,0.021,0.019,0.031,0.019,0.053
		c-3.019,4.535,0.216,12.154,6.721,12.795c14.517,1.432,28.579,0.903,43.122,0.538c12.997-0.325,27.034,1.503,39.373-2.804
		c6.286-2.195,7.953-9.238,4.728-13.794C397.101,160.075,394.674,135.493,395.3,112.314z M129.043,98.567
		c5.213-16.661,7.586-38.142,5.488-56.604c43.813,5.534,93.74,7.894,137.057,2.073c-0.943,7.95-1.645,15.923-2,23.958
		c-0.442,9.965-2.426,20.23,3.284,28.38c-23.335,1.12-46.649,2.317-69.749,2.678C178.538,99.435,153.796,98.965,129.043,98.567z"/>
	<path d="M395.607,233.065c-0.76-2.666-2.421-4.559-4.476-5.74c-0.436-3.254-2.226-6.319-6.13-7.377
		c-14.013-3.794-29.417-1.66-43.856-1.613c-14.684,0.047-28.991,0.754-43.482,3.231c-2.744,0.469-4.111,2.532-4.823,4.866
		c-0.102,0.231-0.137,0.508-0.219,0.757c-0.164,0.799-0.42,1.484-0.366,2.308c-0.024,0.364-0.175,0.629-0.161,1.02
		c0.291,9.41-2.192,24.281-15.095,22.765c-10.956-1.287-9.041-17.328-9.727-25.466c-0.28-3.337-2.426-5.231-4.866-5.997
		c-0.03-0.021-0.067-0.029-0.097-0.049c-0.397-0.117-0.709-0.376-1.119-0.419c-0.612-0.271-1.162-0.613-1.914-0.715
		c-21.006-2.848-42.044-4.938-63.26-5.315c-18.213-0.325-39.093-2.468-54.876,7.755c-2.265,1.468-2.718,3.735-2.06,5.751
		c-2.006,8.744,0.097,19.178-11.511,22.07c-13.118,3.269-18.656-9.386-18.531-20.189c0.032-2.873-1.3-4.579-3.011-5.751
		c-0.502-1.742-1.508-3.298-3.55-3.685c-17.076-3.235-35.127-3.11-52.472-3.059c-14.197,0.042-29.115-3.035-40.669,6.125
		c-0.264,0.209-0.321,0.487-0.507,0.726c-1.629,0.723-2.96,2.057-3.359,4.635c-6.931,45.104-5.003,90.617-5.47,136.211
		c-0.062,5.984,5.119,11.055,11.061,11.061c123.82,0.126,247.616,0.803,371.436,1.267c6.095,0.023,9.754-3.685,11.115-8.201
		c0.652-0.736,1.375-1.403,1.596-2.629c4.22-23.348,1.888-46.78,0.2-70.292C393.919,276.346,401.215,252.763,395.607,233.065z"/>
</g>
<g>
</g>
<g>
</g>
<g>
</g>
<g>
</g>
<g>
</g>
<g>
</g>
<g>
</g>
<g>
</g>
<g>
</g>
<g>
</g>
<g>
</g>
<g>
</g>
<g>
</g>
<g>
</g>
<g>
</g>
</svg>
