<?xml version="1.0" encoding="iso-8859-1"?>
<!-- Generator: Adobe Illustrator 19.0.0, SVG Export Plug-In . SVG Version: 6.00 Build 0)  -->
<svg version="1.1" id="Capa_1" xmlns="http://www.w3.org/2000/svg" xmlns:xlink="http://www.w3.org/1999/xlink" x="0px" y="0px"
	 viewBox="0 0 417.025 417.025" style="enable-background:new 0 0 417.025 417.025;" xml:space="preserve">
<path d="M394.945,88.722c-18.36-15.454-57.311-18.623-96.212-18.115c1.997-10.081-1.936-22.674-5.698-31.937
	c-0.201-0.716-0.518-1.357-0.842-2.028c-0.213-0.508-0.442-1.084-0.65-1.565c-0.11-0.252-0.389-0.297-0.522-0.522
	c-0.351-0.461-0.804-0.818-1.225-1.224c-0.66-0.616-1.202-1.314-2.046-1.622c-1.543-0.9-3.303-1.565-5.457-1.696
	c-49.262-2.996-103.569-4.466-151.617,8.094c-3.77,0.986-5.484,3.741-5.691,6.685c-3.098,6.405-2.264,13.349-1.758,20.448
	c0.294,4.118,0.681,8.245,1.288,12.334c-16.136,0.783-32.268,1.562-48.391,2.551C63.884,80.874,37.93,78.619,26.5,87.076
	C7.686,100.998,3.335,131.932,3.826,163.401c-1.071,11.582,0.19,23.833-0.449,35.188C2.582,212.69-2.174,229.33,1.19,243.118
	c0.754,3.086,2.688,4.841,4.971,5.657c-4.365,37.937-16.24,104.114,16.727,123.872c15.094,9.046,44.81,3.667,61.623,4.062
	c42.392,0.996,84.725,2.391,127.096,3.98c37.864,1.42,145.868,20.791,177.056-4.652c28.464-23.219,17.073-89.023,14.947-126.777
	c0.377-0.167,0.803-0.275,1.176-0.45c1.703-0.798,2.861-2.201,3.544-3.852c2.672-2.037,4.551-5.166,4.523-9.587
	C412.6,195.16,430.198,118.401,394.945,88.722z M275.022,239.306c0.112-1.789,0.347-3.782,0.368-5.701
	c5.205,0.205,12.835-0.233,13.836-0.257c5.148-0.125,10.26-0.583,15.368-1.184c0.007,4.517,0.011,9.035,0.017,13.552
	c0.003,3.271,0.271,7.052,0.335,10.774c-5.358,0.333-11.001-0.025-15.92,0.085c-5.131,0.114-10.263,0.007-15.393-0.035
	C274.26,250.796,274.658,245.016,275.022,239.306z M141.851,66.824c0.26-4.05,1.028-8.294,1.198-12.445
	c43.084,2.098,86.934-0.896,130.179-0.798c-1.024,6.112-1.445,12.305-0.364,17.808c-25.557,1.177-49.025,3.161-63.947,3.35
	c-22.538,0.287-45.066,0.984-67.584,1.946C141.508,73.405,141.637,70.123,141.851,66.824z M101.852,231.758
	c4.938-0.33,9.877-0.583,14.817-0.99c4.149-0.342,8.301-0.677,12.448-1.036c0.377-0.032,0.939-0.018,1.557,0.007
	c-0.076,5.301-0.745,10.825-0.812,15.717c-0.059,4.17-0.118,8.34-0.178,12.509c-9.585-0.092-19.29,0.046-28.664,1.354
	C101.839,250.206,101.799,240.907,101.852,231.758z M375.208,321.106c-5.711,28.139,3.383,24.747-25.888,34.4
	c-38.399,12.665-97.585,1.725-137.714,1.422c-42.38-0.319-84.723-0.892-127.096-1.836c-36.539-0.816-49.038,2.475-57.286-37.028
	c-4.119-19.74-2.596-42.35-2.894-63.615c18.916,4.293,38.568,4.973,57.823,2.343c0.461,5.517,1.155,10.978,2.567,16.216
	c0.508,1.888,1.729,3.164,3.201,4.041c1.261,2.825,3.525,5.082,7.139,5.576c15.184,2.082,31.07,0.097,46.33-0.851
	c6.375-0.398,11.917-5.12,11.874-11.876c-0.034-5.451-0.068-10.904-0.102-16.356c32.118,4.998,64.107,7.464,96.443,2.806
	c0.036,3.755,0.182,7.357,0.423,10.296c0.176,2.157,1.181,3.918,2.575,5.221c1.199,4.811,4.901,8.959,11.293,9.15
	c12.564,0.373,25.129,0.414,37.689-0.116c9.86-0.416,22.669,0.729,26.732-10.505c1.739-4.811,2.014-10.67,1.864-16.617
	c14.282,1.978,31.406,3.323,47.335,1.778C377.831,277.355,379.082,302.008,375.208,321.106z"/>
<g>
</g>
<g>
</g>
<g>
</g>
<g>
</g>
<g>
</g>
<g>
</g>
<g>
</g>
<g>
</g>
<g>
</g>
<g>
</g>
<g>
</g>
<g>
</g>
<g>
</g>
<g>
</g>
<g>
</g>
</svg>
