<?xml version="1.0" encoding="iso-8859-1"?>
<!-- Generator: Adobe Illustrator 19.0.0, SVG Export Plug-In . SVG Version: 6.00 Build 0)  -->
<svg version="1.1" id="Capa_1" xmlns="http://www.w3.org/2000/svg" xmlns:xlink="http://www.w3.org/1999/xlink" x="0px" y="0px"
	 viewBox="0 0 398.639 398.639" style="enable-background:new 0 0 398.639 398.639;" xml:space="preserve">
<g>
	<path d="M57.298,89.143c3.491-3.961,0.768-11.414-5.186-11.291c-0.409-0.095-0.758,0.015-1.155,0.065
		c-0.198,0.036-0.361-0.021-0.565,0.033c-0.307,0.08-0.545,0.134-0.847,0.213c-0.693,0.038-1.341,0.202-1.944,0.49
		C24.795,84.431,16.52,84.618,8.63,108.302c-11.517,34.567-4.607,85.416-6.064,121.849C0.811,274.025-13.109,354.01,48.416,361.88
		c3.665,0.469,5.557-2.214,5.708-5.176c0.82-0.993,1.399-2.239,1.341-3.918c-2.624-75.627,2.349-151.949,0.951-227.599
		C58.183,113.282,58.133,101.263,57.298,89.143z"/>
	<path d="M394.847,221.432c1.156-47.015,19.546-121.06-36.546-137.562c-1.549-1.017-3.263-1.473-5.04-1.402
		c-0.504-0.11-0.906-0.296-1.421-0.397c-0.867-0.167-1.653-0.113-2.403,0.015c-0.005-0.002-0.007-0.002-0.011,0
		c-3.665,0.625-5.631,4.343-5.188,7.533c-0.346,1.342-0.483,2.808-0.215,4.441c0.588,3.588,1.019,7.171,1.561,10.758
		c-5.381,83.941-1.822,169.559-2.446,253.514c-0.023,3.201,2.013,5.034,4.421,5.64c0.859,2.869,3.462,5.02,7.364,3.799
		C410.333,350.445,393.756,265.808,394.847,221.432z"/>
	<path d="M319.039,356.458c2.428-90.783,4.728-186.934-1.401-277.432c-0.212-3.142-3.417-3.756-5.176-2.15
		c-0.926-0.505-1.989-0.875-3.251-0.987c-8.792-0.779-17.625-1.237-26.469-1.6c-0.311-3.176-0.806-6.373-1.183-9.499
		c-1.014-8.39-2.019-16.96-4.461-25.067c-0.421-1.395-1.301-2.483-2.354-3.359c-1.545-2.843-4.24-5.089-8.372-5.335
		c-28.277-1.671-56.631-2.027-84.951-1.489c-21.894,0.418-44.931-1.018-64.652,9.301c-1.034,0.541-1.649,1.321-1.993,2.188
		c-3.309,1.009-6.114,3.698-6.369,8.146c-0.433,7.569-0.19,15.378,0.805,23.047c-8.248,0.582-16.452,1.543-24.578,3.128
		c-0.091,0.018-0.116,0.109-0.202,0.131c-3.29-0.898-7.245,0.8-7.297,5.324c-1.058,91.994,3.58,183.572-1.908,275.586
		c-0.327,5.473,5.239,7.377,9.247,5.755c0.862,0.531,1.83,0.924,3.016,0.92c75.149-0.141,148.217,1.561,223.411,6.247
		c7.054,0.44,9.529-6.356,7.577-11.539C318.662,357.322,319.023,357.049,319.039,356.458z M126.55,71.552
		c-0.157-7.184-0.319-14.368-0.219-21.563c19.494,4.361,40.934,0.964,60.755,0.625c24.7-0.422,49.363,0.157,74.049,0.826
		c-0.342,4.993-0.496,10.003-0.506,14.994c-0.004,2.499-0.05,4.911-0.031,7.268c-23.93-0.375-47.917-0.108-71.742-0.541
		C168.221,72.785,147.304,71.308,126.55,71.552z"/>
	<path style="stroke:#E71D73;stroke-width:0;stroke-linecap:round;stroke-linejoin:round;" d="M48.451,356.576
		c0.134,0,0.134-0.211,0-0.211"/>
</g>
<g>
</g>
<g>
</g>
<g>
</g>
<g>
</g>
<g>
</g>
<g>
</g>
<g>
</g>
<g>
</g>
<g>
</g>
<g>
</g>
<g>
</g>
<g>
</g>
<g>
</g>
<g>
</g>
<g>
</g>
</svg>
