<?xml version="1.0" encoding="iso-8859-1"?>
<!-- Generator: Adobe Illustrator 19.0.0, SVG Export Plug-In . SVG Version: 6.00 Build 0)  -->
<svg version="1.1" id="Capa_1" xmlns="http://www.w3.org/2000/svg" xmlns:xlink="http://www.w3.org/1999/xlink" x="0px" y="0px"
	 viewBox="0 0 392.903 392.903" style="enable-background:new 0 0 392.903 392.903;" xml:space="preserve">
<g>
	<path d="M287.547,365.962c-48.548-6.356-96.821-9.798-145.602-10.718c19.044-34.813,26.172-71.713,24.637-113.175
		c-0.047-1.305-0.226-2.584-0.299-3.885c11.083,0.625,22.169,1.175,33.274,1.056c6.392-0.069,12.758-0.299,19.129-0.849
		c2.433-0.21,10.203,0.096,12.284-0.851c4.638,2.028,10.329,1.543,14.304-2.5c0.399-0.406,0.799-0.814,1.199-1.221
		c4.574-4.65,5.691-14.277,0-18.741c-15.502-12.159-42.646-2.226-61.31-2.694c-6.888-0.172-14.268-0.908-21.85-1.744
		c-2.061-13.422-4.698-26.751-7.182-40.199c-5.553-21.04-9.583-42.386-12.091-64.034c10.362-81.994,52.457-98.583,126.29-49.767
		c11.333,11.819,28.142-5.617,17.769-17.768c-41.368-48.45-115.45-55.715-154.251,1.726c-18.838,27.886-17.936,60.113-13.525,91.973
		c3.607,26.036,8.852,50.981,12.667,75.331c-11.736-0.484-23.14,0.155-33.212,3.654c-7.323,2.544-10.491,13.982-2.347,17.967
		c11.835,5.789,25.559,7.156,39.246,7.654c3.731,41.808-0.734,82.385-29.981,124.303c-5.965,8.551,2.037,20.161,11.575,20.169
		c56.878,0.06,112.863,3.737,169.276,11.121C304.602,395.003,304.44,368.174,287.547,365.962z"/>
</g>
<g>
</g>
<g>
</g>
<g>
</g>
<g>
</g>
<g>
</g>
<g>
</g>
<g>
</g>
<g>
</g>
<g>
</g>
<g>
</g>
<g>
</g>
<g>
</g>
<g>
</g>
<g>
</g>
<g>
</g>
</svg>
