<?xml version="1.0" encoding="iso-8859-1"?>
<!-- Generator: Adobe Illustrator 19.0.0, SVG Export Plug-In . SVG Version: 6.00 Build 0)  -->
<svg version="1.1" id="Capa_1" xmlns="http://www.w3.org/2000/svg" xmlns:xlink="http://www.w3.org/1999/xlink" x="0px" y="0px"
	 viewBox="0 0 421.119 421.119" style="enable-background:new 0 0 421.119 421.119;" xml:space="preserve">
<g>
	<path d="M157.592,4.445c-40.996-3.122-44.272,60.883-21.87,84.056c2.229,2.946,5.394,5.777,8.947,7.666
		c0.4,0.526,0.923,0.993,1.649,1.343C193.272,120.154,210.882,8.5,157.592,4.445z"/>
	<path d="M236.882,138.788c-8.373-17.703-21.813-35.965-42.186-39.723c-0.946-0.175-1.671,0.118-2.364,0.432
		c-1.61-0.531-3.522-0.278-4.773,1.439c-7.662,10.513-16.307,20.81-22.72,32.19c-1.167-2.087-2.354-4.134-3.528-6.078
		c0.554-0.24,1.062-0.598,1.366-1.235c1.907-3.992,2.882-8.762,2.46-13.187c-0.006-0.061-0.051-0.109-0.063-0.166
		c0.051-0.912-0.372-1.836-1.399-2.07c-6.053-1.378-12.977,0.109-19.021,1.217c-0.692,0.126-0.98,0.618-1.066,1.163
		c-0.371,0.336-0.614,0.79-0.384,1.362c1.602,4.004,3.243,8.057,6.121,11.293c0.22,0.248,0.477,0.224,0.715,0.36
		c-1.395,1.908-2.704,4.111-3.909,6.434c-7.452-10.523-16.135-20.625-25.307-29.601c-0.979-0.956-2.251-0.865-3.364-0.408
		c-23.143-1.073-36.749,18.216-44.62,40.087c-0.544,0.87-0.86,1.746-0.947,2.635c-4.794,14.265-7.25,29.31-8.331,40.35
		c-0.204,2.066,0.879,3.355,2.341,3.875c-0.088,1.113,0.358,2.3,1.78,2.884c54.716,22.417,119.057,18.136,174.347-0.074
		c1.586,0.662,3.503,0.544,4.801-0.783C256.162,181.645,241.24,148,236.882,138.788z"/>
	<path d="M312.432,170.912c-40.996-3.122-44.271,60.884-21.87,84.056c2.23,2.946,5.395,5.777,8.948,7.666
		c0.399,0.526,0.923,0.993,1.648,1.343C348.113,286.622,365.723,174.968,312.432,170.912z"/>
	<path d="M391.722,305.255c-8.374-17.703-21.813-35.966-42.187-39.723c-0.945-0.175-1.671,0.118-2.363,0.432
		c-1.61-0.531-3.522-0.278-4.774,1.439c-7.662,10.513-16.307,20.81-22.719,32.19c-1.167-2.086-2.354-4.134-3.528-6.078
		c0.553-0.24,1.062-0.598,1.366-1.235c1.906-3.991,2.882-8.762,2.459-13.186c-0.006-0.061-0.051-0.109-0.064-0.167
		c0.051-0.912-0.371-1.836-1.399-2.07c-6.053-1.378-12.977,0.109-19.02,1.217c-0.693,0.126-0.981,0.619-1.067,1.163
		c-0.371,0.336-0.614,0.79-0.384,1.362c1.602,4.004,3.243,8.057,6.122,11.293c0.221,0.248,0.476,0.224,0.714,0.36
		c-1.394,1.908-2.704,4.112-3.908,6.434c-7.452-10.522-16.136-20.625-25.307-29.601c-0.979-0.956-2.252-0.865-3.365-0.408
		c-23.143-1.073-36.749,18.216-44.621,40.087c-0.543,0.87-0.86,1.746-0.946,2.635c-4.795,14.265-7.251,29.309-8.332,40.35
		c-0.203,2.066,0.879,3.355,2.342,3.874c-0.088,1.113,0.358,2.3,1.78,2.884c54.715,22.417,119.057,18.136,174.346-0.073
		c1.587,0.662,3.504,0.543,4.801-0.784C411.002,348.112,396.08,314.467,391.722,305.255z"/>
	<path d="M419.427,155.112c-0.793-3.208-3.131-5.84-7.184-5.415c-8.958,0.94-18.01,1.177-27.064,1.364
		C378.425,75.189,306.075-5.222,224.52,8.686c-7.657,1.304-5.853,13.832,1.826,13.509c73.144-3.08,137.113,58.402,143.234,129.319
		c-7.74,0.252-15.459,0.637-23.076,1.656c-1.621,0.218-3.016,1.014-4.076,2.103c-3.104,1.29-5.429,5.353-3.617,8.93
		c10.681,21.082,24.685,40.075,38.681,59.075c3.079,4.18,10.799,5.894,13.475,0c8.35-18.398,15.105-42.516,28.15-58.089
		C421.999,161.749,421.468,157.825,419.427,155.112z"/>
	<path d="M1.782,271.995c0.851,3.193,3.237,5.782,7.281,5.283c8.94-1.103,17.985-1.505,27.035-1.857
		c8.136,75.737,81.938,154.817,163.226,139.426c7.632-1.444,5.6-13.937-2.072-13.474c-73.076,4.412-138.154-55.895-145.566-126.688
		c7.734-0.394,15.445-0.918,23.042-2.077c1.617-0.247,2.997-1.069,4.037-2.177c3.08-1.347,5.33-5.45,3.454-8.994
		c-11.063-20.884-25.411-39.619-39.75-58.36c-3.154-4.123-10.905-5.697-13.472,0.245c-8.013,18.548-14.329,42.784-27.088,58.591
		C-0.91,265.406-0.308,269.32,1.782,271.995z"/>
</g>
<g>
</g>
<g>
</g>
<g>
</g>
<g>
</g>
<g>
</g>
<g>
</g>
<g>
</g>
<g>
</g>
<g>
</g>
<g>
</g>
<g>
</g>
<g>
</g>
<g>
</g>
<g>
</g>
<g>
</g>
</svg>
