<?xml version="1.0" encoding="iso-8859-1"?>
<!-- Generator: Adobe Illustrator 19.0.0, SVG Export Plug-In . SVG Version: 6.00 Build 0)  -->
<svg version="1.1" id="Capa_1" xmlns="http://www.w3.org/2000/svg" xmlns:xlink="http://www.w3.org/1999/xlink" x="0px" y="0px"
	 viewBox="0 0 424.47 424.47" style="enable-background:new 0 0 424.47 424.47;" xml:space="preserve">
<path d="M306.417,26.445c-1.007-1.006-1.874-2.101-3.225-2.888C196.933-38.296,59.359,28.968,20.51,140.275
	c-42.84,122.74,33.221,263.399,165.324,282.189c124.1,17.651,230.454-83.661,230.099-206.136
	C415.702,137.619,371.365,60.759,306.417,26.445z M183.31,118.985c0.082-19.007,3.855-37.981,4.893-56.894
	c18.904-7.462,36.379-10.773,42.62,18.216c3.866,17.949,3.311,49.961-1.305,67.217c-4.001,14.975-20.134,32.458-36.329,18.941
	C181.446,156.665,183.252,132.587,183.31,118.985z M157.115,162.687c-25.241,12.313-31.247,42.682-24.025,68.255
	c7.902,27.975,31.013,48.413,59.771,52.406c61.363,8.52,111.077-62.432,72.864-115.293c-1.117-1.545-2.461-2.538-3.776-3.594
	c2.763-7.177,4.801-15.449,6.308-24.135c30.415,28.365,49.301,66.023,41.137,109.116c-9.388,49.538-51.072,87.353-102.002,88.788
	c-57.737,1.625-104.9-48.313-109.107-104.406c-3.457-46.054,20.856-78.571,54.166-104.703
	C152.927,140.95,154.171,152.504,157.115,162.687z"/>
<g>
</g>
<g>
</g>
<g>
</g>
<g>
</g>
<g>
</g>
<g>
</g>
<g>
</g>
<g>
</g>
<g>
</g>
<g>
</g>
<g>
</g>
<g>
</g>
<g>
</g>
<g>
</g>
<g>
</g>
</svg>
