<?xml version="1.0" encoding="iso-8859-1"?>
<!-- Generator: Adobe Illustrator 19.0.0, SVG Export Plug-In . SVG Version: 6.00 Build 0)  -->
<svg version="1.1" id="Capa_1" xmlns="http://www.w3.org/2000/svg" xmlns:xlink="http://www.w3.org/1999/xlink" x="0px" y="0px"
	 viewBox="0 0 425.197 425.197" style="enable-background:new 0 0 425.197 425.197;" xml:space="preserve">
<path d="M375.34,39.975c-4.485-17.682-3.155-23.744-19.588-33.212c-22.297-12.849-69.547-3.451-93.101-3.396L72.732,3.809
	c-10.339,0.025-15.981,6.982-17.465,14.858c-2.341,2.615-4.129,5.942-4.466,10.414c-9.341,123.063-4.709,248.086-6.045,371.483
	c-0.117,10.741,8.81,18.302,18.964,18.966c55.08,3.597,110.13,5.414,165.331,3.987c32.335-0.835,98.682,8.882,125.153-10.747
	c11.783-8.733,11.783-13.382,16.28-27.503c15.413-48.403,1.834-121.454,2.524-172.646C373.691,162.068,387.765,88.956,375.34,39.975
	z M154.708,218.151c0.178,7.125,0.356,14.251,0.572,21.359c-23.529-1.08-49.828-1.41-69.664,5.097
	c0.196-10.127,0.178-20.247,0.35-30.373C108.418,216.155,131.468,217.376,154.708,218.151z M86.278,187.312
	C86.46,172,86.85,156.677,86.806,141.38c21.606,3.125,45.104,5.549,69.247,7.075c-0.823,10.49-1.413,21.018-1.567,31.636
	C131.376,181.892,108.492,184.212,86.278,187.312z M156.139,281.055c0.055,10.57-0.006,21.176-0.055,31.797
	c-24.155,1.14-48.262,3.292-71.815,6.741c0.313-14.507,0.553-28.977,0.866-43.496C107.718,280.31,131.919,281.179,156.139,281.055z
	 M83.01,383.069c0.184-13.204,0.529-26.478,0.789-39.711c24.094,1.611,48.458,2.836,72.813,3.811
	c0.517,14.142,1.911,28.179,4.178,42.104C134.076,387.604,107.522,385.059,83.01,383.069z M185.062,390.256
	c3.063-13.895,5.059-27.996,6.076-42.275c20.487,0.447,41.012,0.971,61.291,0.562c-0.108,13.486-0.139,26.912,3.09,39.639
	C233.188,391.024,209.211,391.084,185.062,390.256z M335.295,237.14c-16.507-2.233-34.952-2.341-53.658-1.579
	c0.851-6.526,1.41-13.108,1.683-19.714c17.352-1.087,34.759-2.124,51.557-4.016c-0.003,0.263-0.006,0.527-0.012,0.789
	C334.736,220.443,335.053,228.837,335.295,237.14z M192.63,240.943c-0.068,0.001-0.154-0.003-0.221-0.003
	c-0.025-7.401-0.194-14.797-0.313-22.217c20.009,0.116,39.98-0.432,59.86-1.16c0.246,6.595,0.719,13.159,1.499,19.671
	C231.477,238.809,210.249,240.72,192.63,240.943z M253.971,280.265c-1.634,11.253-1.867,23.24-1.788,35.156
	c-19.588-2.24-39.569-3.031-59.614-3.205c0.067-10.668,0.104-21.273,0.006-31.859c15.459-0.49,30.691-0.98,45.116-1.004
	C242.117,279.346,247.816,279.754,253.971,280.265z M250.073,176.888c-19.846-0.068-39.814,0.264-59.771,1.196
	c-0.697-9.485-1.803-18.892-3.127-28.268c20.955,0.498,41.952-0.167,62.563-1.653C249.195,157.709,249.52,167.296,250.073,176.888z
	 M333.028,327.717c-7.344,39.422-5.897,44.224-47.607,54.963c7.454-29.562-0.384-63.108,3.983-93.2
	c15.285-2.398,31.662-0.915,46.72-3.653C336.048,300.279,335.486,314.537,333.028,327.717z M335.443,180.795
	c-16.559-1.612-33.561-2.546-50.709-3.19c0.377-11.092,0.224-22.179-1.238-33.098c18.485-2.646,36.451-6.039,52.81-11.156
	C336.054,149.167,335.743,164.98,335.443,180.795z M336.776,97.524c-0.006,1.912-0.065,3.825-0.073,5.738
	c-41.958-4.73-86.599,3.415-128.806,4.787c-40.54,1.318-80.956,0.904-121.403,3.718c-0.325-23.621-0.756-47.23-1.892-70.762
	c69.64-1.674,156.331-15.412,221.876-0.232c23.621-9.78,33.622-5.128,29.998,13.955C337.599,68.973,337.7,83.237,336.776,97.524z"/>
<g>
</g>
<g>
</g>
<g>
</g>
<g>
</g>
<g>
</g>
<g>
</g>
<g>
</g>
<g>
</g>
<g>
</g>
<g>
</g>
<g>
</g>
<g>
</g>
<g>
</g>
<g>
</g>
<g>
</g>
</svg>
