<?xml version="1.0" encoding="iso-8859-1"?>
<!-- Generator: Adobe Illustrator 19.0.0, SVG Export Plug-In . SVG Version: 6.00 Build 0)  -->
<svg version="1.1" id="Capa_1" xmlns="http://www.w3.org/2000/svg" xmlns:xlink="http://www.w3.org/1999/xlink" x="0px" y="0px"
	 viewBox="0 0 395.239 395.239" style="enable-background:new 0 0 395.239 395.239;" xml:space="preserve">
<g>
	<path d="M154.058,233.126c-30.947-15.397-62.239-30.018-93.906-43.873c-5.634-2.464-11.398-1.495-14.946,3.919
		c-4.365,6.663-7.743,12.907-10.924,20.209c-0.263,0.604-0.206,1.253-0.376,1.878c-3.89,3.98-4.466,11.519,1.43,14.952
		c30.625,17.838,64.348,31.053,96.265,46.458c6.971,3.363,13.153,0.281,16.021-6.518c3.182-7.54,6.655-14.811,10.35-22.1
		C160.493,243.068,159.587,235.877,154.058,233.126z"/>
	<path d="M183.473,167.43l-43.917-21.172c-13.96-6.73-29.108-16.842-43.917-21.174c-16.784-4.91-27.967,11.392-34.152,26.298
		c-4.102,9.895,0.864,19.388,10.504,21.134c28.593,15.775,60.508,26.441,90.831,38.288c5.649,2.207,11.761-2.476,13.412-7.613
		c2.749-8.574,5.85-13.904,11.148-20.841C190.772,177.912,188.305,169.76,183.473,167.43z"/>
	<path d="M210.69,111.208c-23.582-15.427-48.952-30.477-75.546-40.137c-18.688-6.786-30.303,1.274-35.955,19.513
		c-0.643,2.074-0.289,4.412,0.507,6.602c-3.646,3.85-4.379,10.173,1.746,13.038c29.913,13.979,61.041,22.147,88.513,41.299
		c6.155,4.292,13.955-0.374,16.069-6.538c2.282-6.656,5.1-12.701,8.592-18.81C217.657,120.853,215.683,114.473,210.69,111.208z"/>
	<path d="M392.24,51.026c-17.637-19.37-58.646-28.59-82.062-38.562c-4.897-2.087-12.411-2.02-14.967,3.923
		c-23.734,55.169-47.468,110.339-71.199,165.507c-13.4,31.144-38.394,134.552-77.515,148.375
		c-6.191-16.126-24.715-26.579-41.934-25.361c-0.473-0.007-0.935,0.02-1.411,0.036c-0.941,0.103-1.853,0.246-2.777,0.422
		c-1.188,0.148-2.335,0.714-3.521,0.988c-24.81-14.584-59.57-32.331-88.675-32.06c-8.27,0.077-11.309,11.267-4.201,15.509
		c11.899,7.103,25.859,10.247,38.757,15.178c11.193,4.281,21.903,9.439,32.603,14.673c-3.075,3.681-5.678,7.698-6.941,12.278
		c-7.561,27.437,15.783,53.173,43.358,52.05c20.216-0.822,35.046-16.655,37.152-35.185c46.691-1.85,59.769-76.305,75.009-111.726
		c18.986-44.135,37.971-88.271,56.96-132.406c6.935-16.126,14.083-52.385,30.446-60.214c11.785-5.636,45.615,6.567,60.815,18.016
		c0.009,0.036,0.018,0.071,0.03,0.107c1.463,5.606,7.349,8.481,12.771,7.252c0.832-0.189,1.66-0.377,2.488-0.564
		C395.817,67.361,397.494,56.794,392.24,51.026z M114.299,361.775c-12.372,2.832-26.699-7.063-25.689-20.332
		c0.441-5.79,2.827-9.544,6.164-11.96c10.736-2.327,23.552-5.656,30.428,6.314C130.863,345.653,125.435,359.227,114.299,361.775z"/>
</g>
<g>
</g>
<g>
</g>
<g>
</g>
<g>
</g>
<g>
</g>
<g>
</g>
<g>
</g>
<g>
</g>
<g>
</g>
<g>
</g>
<g>
</g>
<g>
</g>
<g>
</g>
<g>
</g>
<g>
</g>
</svg>
