<?xml version="1.0" encoding="iso-8859-1"?>
<!-- Generator: Adobe Illustrator 19.0.0, SVG Export Plug-In . SVG Version: 6.00 Build 0)  -->
<svg version="1.1" id="Capa_1" xmlns="http://www.w3.org/2000/svg" xmlns:xlink="http://www.w3.org/1999/xlink" x="0px" y="0px"
	 viewBox="0 0 408.178 408.178" style="enable-background:new 0 0 408.178 408.178;" xml:space="preserve">
<g>
	<path d="M321.036,98.223c1.181-7.415-1.981-15.308-10.781-16.572c-45.472-6.528-91.703-5.758-137.525-4.171
		c-13.634,0.472-36.714-1.72-55.038,1.998c-0.573-22.278-1.452-44.503-3.123-66.584c-1.318-17.434-24.802-16.946-26.753,0
		c-14.233,123.603-5.284,253.174-4.266,377.53c0.05,6.109,3.211,10.061,7.333,12.3c2.39,2.853,5.7,4.928,9.923,5.094
		c36.036,1.419,72.333-1.759,108.401-2.456c32.161-0.621,64.934,2.375,96.585-3.54c0.038-0.006,0.061-0.032,0.098-0.039
		c8.315,2.621,18.66-1.681,19.056-13.352C328.169,294.062,332.072,192.146,321.036,98.223z M115.517,271.629
		c13.026,0.195,26.051,0.038,39.074,0.059c-0.144,9.743-0.184,19.415-0.558,28.575c-0.046,1.059-0.129,2.21-0.182,3.283
		c-12.99,1.028-25.981,2.186-38.981,3.681C115.149,295.34,115.194,283.538,115.517,271.629z M113.589,377.867
		c0.045-16.83,0.596-33.843,0.921-50.772c12.695,1.034,25.382,1.806,38.072,2.509c-0.606,15.288-0.32,30.713,3.628,44.637
		C141.957,375.005,127.73,376.082,113.589,377.867z M156.043,245.929c-13.339,1.425-26.662,3.047-39.971,5.03
		c0.303-10.951,0.596-21.882,0.879-32.84c14.394,2.157,28.984,3.348,43.575,4.271C158.3,229.928,156.854,237.798,156.043,245.929z
		 M201.457,372.608c-9.285,0.235-18.589,0.627-27.889,0.969c7.578-10.742,8.636-27.932,9.284-42.6
		c12.809,0.496,25.63,0.779,38.449,1.089c0.018,13.306-0.007,26.615,0.154,39.906C214.76,372.196,208.073,372.441,201.457,372.608z
		 M290.062,271.018c0.197,9.424,0.585,18.759,0.891,28.139c-12.771-0.069-25.478,0.123-38.194,0.298
		c0.604-9.397,0.863-18.79,1.113-28.18C265.934,271.184,277.998,271.079,290.062,271.018z M254.044,239.876
		c-0.05-4.013-0.032-8.044-0.144-12.035c11.862,0.5,23.709,0.782,35.445,0.274c-0.028,3.686,0.181,7.352,0.184,11.04
		C277.677,239.193,265.863,239.549,254.044,239.876z M221.222,241.204c-10.486,0.539-20.977,0.985-31.441,1.772
		c-0.184-6.527-0.84-12.878-1.91-19.057c1.593,0.081,3.211,0.187,4.796,0.269c9.456,0.492,18.998,1.147,28.566,1.806
		C221.253,231.062,221.218,236.136,221.222,241.204z M188.689,271.739c10.834-0.063,21.671-0.146,32.509-0.231
		c-0.026,9.567,0.002,19.127-0.02,28.696c-11.928,0.377-23.858,0.699-35.765,1.34C186.578,291.844,187.794,281.822,188.689,271.739z
		 M244.088,371.443c2.247-12.791,4.125-25.701,5.589-38.759c14.192,0.229,28.386,0.44,42.606,0.559
		c0.664,13.772,1.358,27.524,2.31,40.984C278.021,371.662,261.054,371.227,244.088,371.443z M289.961,197.458
		c-53.199-10.534-118.206-12.05-172.434-3.653c0.618-28.687,1.05-57.359,0.777-85.924c59.237,2.563,118.673,1.671,178.053,3.764
		C292.841,139.62,290.91,168.417,289.961,197.458z"/>
</g>
<g>
</g>
<g>
</g>
<g>
</g>
<g>
</g>
<g>
</g>
<g>
</g>
<g>
</g>
<g>
</g>
<g>
</g>
<g>
</g>
<g>
</g>
<g>
</g>
<g>
</g>
<g>
</g>
<g>
</g>
</svg>
