<?xml version="1.0" encoding="iso-8859-1"?>
<!-- Generator: Adobe Illustrator 19.0.0, SVG Export Plug-In . SVG Version: 6.00 Build 0)  -->
<svg version="1.1" id="Capa_1" xmlns="http://www.w3.org/2000/svg" xmlns:xlink="http://www.w3.org/1999/xlink" x="0px" y="0px"
	 viewBox="0 0 424.135 424.135" style="enable-background:new 0 0 424.135 424.135;" xml:space="preserve">
<path d="M347.717,4.842c-2.535-5.804-10.227-5.947-14.783-2.466c-0.439-0.017-0.796-0.204-1.26-0.163
	c-79.979,6.861-163.93-12.511-242.073,6.183c-3.75,0.898-5.624,4.012-5.972,7.333c-26.987,121.871-15.528,266.2-5.095,389.543
	c0.47,5.524,4.111,8.466,8.247,9.476c0.67,1.15,1.648,2.145,3.146,2.66c24.837,8.551,60.59,8.923,85.8,1.261
	c53.889,1.132,108.962-3.086,160.942-3.509c8.97-0.073,12.639-8.046,11.342-14.861c1.416-1.863,2.469-4.092,2.488-7.065
	c0.401-77.545,0.439-155.083,1.316-232.625C352.326,115.603,365.949,46.622,347.717,4.842z M177.407,29.77
	c1.072-1.293,1.724-2.867,1.987-4.493c22.813,1.21,45.595,2.574,68.292,3.329c0.319,1.045,0.435,2.116,1.416,3.067
	c5.79,5.63,10.439,11.812,9.7,20.167c-15.435-0.934-31.051-0.838-45.902-1.141c-12.388-0.252-24.633-0.073-36.831,0.521
	c-0.21-0.633-0.376-1.282-0.815-1.841C168.894,41.288,171.821,36.505,177.407,29.77z M138.18,326.887
	c1.266-42.331-4.762-83.928-6.386-127.071c-1.592-42.469,3.531-84.685,6.126-126.913c27.225,2.107,54.34,2.48,81.712,2.826
	c25.266,0.32,51.516,3.626,76.438-0.612c-5.088,83.953-0.339,169.727,2.808,253.476C244.59,330.204,192.237,330.42,138.18,326.887z
	 M224.437,377.177c0.031,0.059,0.075,0.1,0.107,0.16c-5.99,5.707-15.842,7.512-22.562,1.965c-6.564-5.415-6.057-15.937,0.028-21.64
	c0.542-0.509,1.254-0.711,1.846-1.132c7.692,0.464,15.318,0.538,22.998,0.555C222.144,362.371,221.072,370.453,224.437,377.177z"/>
<g>
</g>
<g>
</g>
<g>
</g>
<g>
</g>
<g>
</g>
<g>
</g>
<g>
</g>
<g>
</g>
<g>
</g>
<g>
</g>
<g>
</g>
<g>
</g>
<g>
</g>
<g>
</g>
<g>
</g>
</svg>
