<?xml version="1.0" encoding="iso-8859-1"?>
<!-- Generator: Adobe Illustrator 19.0.0, SVG Export Plug-In . SVG Version: 6.00 Build 0)  -->
<svg version="1.1" id="Capa_1" xmlns="http://www.w3.org/2000/svg" xmlns:xlink="http://www.w3.org/1999/xlink" x="0px" y="0px"
	 viewBox="0 0 428.408 428.408" style="enable-background:new 0 0 428.408 428.408;" xml:space="preserve">
<g>
	<path d="M77.745,122.294c-31.507,1.201-58.618,31.062-56.802,62.535c1.04,18.04,12.541,32.415,27.701,40.291
		c8.721,6.769,19.35,11.059,30.969,11.439C147.843,238.796,149.467,119.562,77.745,122.294z"/>
	<path d="M157.724,356.687c-6.348-42.388-28.304-111.156-82.51-106.297c-2.095,0.188-3.495,1.277-4.447,2.672
		c-44.19,6.364-54.6,60.476-59.795,98.653c-1.825,13.405-11.651,40.881-2.61,53.892c12.003,17.275,56.037,19.418,74.777,21.479
		c20.681,2.275,48.745,3.41,65.353-12.222C164.547,399.754,160.701,376.566,157.724,356.687z M96.869,278.637
		c0.117,2.526,0.344,4.272,0.769,6.899c0.163,1.011,0.748,1.723,1.451,2.271c0.5,9.029,5.282,17.226,12.157,24.439
		c7.567,7.945,16.576,12.825,18.256,24.163c0.589,3.992,1.869,25.651,0.674,35.187c-11.409-5.424-27.082-8.312-33.056-16.762
		c-5.541-7.84-2.903-19.471-3.028-28.753c-0.147-10.747-0.59-21.326-1.912-31.998c-0.309-2.493-2.062-3.721-3.847-3.798
		c-1.47-4.66-4.338-8.469-7.559-12.063c0.957-0.806,1.5-2.008,2.237-3.008c0.191,0.005,0.278,0.186,0.48,0.168
		c2.635-0.227,14.104-1.611,13.932-1.748C96.178,272.642,96.806,277.231,96.869,278.637z"/>
	<path d="M378.745,61.704c-13.689-12.643-34.826-15.038-52.46-7.159c-22.632,10.111-32.786,32.445-33.19,56.237
		c-0.42,24.71,10.405,47.997,34.249,57.512c21.448,8.559,45.174,3.355,60.487-14.077C412.3,126.355,408.669,77.384,378.745,61.704z"
		/>
	<path d="M351.12,188.847c-65.332,3.536-106.051,93.74-85.099,150.739c-0.988,2.302-1.021,4.93,1.238,6.805
		c16.281,13.502,49.965,11.365,69.79,11.99c25.917,0.817,54.414,3.2,78.039-9.289c3.203-1.691,4.168-4.392,3.743-6.981
		c0.639-0.997,1.14-2.183,1.364-3.661C428.248,285.668,429.449,184.608,351.12,188.847z M284.959,276.232
		c4.152-10.728,11.763-17.203,20.248-24.872c13.428-12.133,15.817-16.58,15.637-33.4c0.022-0.015,0.038-0.036,0.06-0.052
		c3.517,1.712,7.115,3.226,10.716,4.743c0.268,0.103,0.338,0.399,0.644,0.456c0.426,0.081,0.758,0.265,1.178,0.35
		c0.65,0.266,1.272,0.594,1.927,0.853c-1.943,1.741-3.792,3.585-5.811,5.254c-1.528,1.265-2.106,2.757-2.035,4.201
		c-0.961,0.717-1.823,1.608-2.368,2.91c-7.066,16.849-8.152,30.432-10.544,47.772c-1.896,13.724-18.45,20.994-32.205,26.537
		C281.025,299.219,280.649,287.372,284.959,276.232z"/>
	<path d="M251.578,119.785c-2.783-9.823-8.359-15.194-18.491-16.185c-8.893-0.869-18.496,1.405-27.509,1.345
		c-10.754-0.072-21.249-2.164-31.941-2.54c-26.083-0.915-42.334,22.48-34.265,47.748c6.258,19.604,26.302,23.806,46.552,22.859
		c-1.746,3.805-3.748,7.449-6.389,10.812c-2.737,3.492-1.397,9.911,3.988,9.629c11.469-0.602,25.685-10.305,28.937-22.33
		c0.54,0.119,0.805,0.574,1.456,0.53c12.099-0.817,25.102,2.907,33.302-8.495C255.272,151.965,255.185,132.502,251.578,119.785z
		 M226.387,159.614c-1.686-0.252-3.361,0.078-5.044,0.04c-0.172-0.023-0.257-0.179-0.44-0.18
		c-16.291-0.146-39.633,3.567-55.461-1.042c-13.411-3.904-17.899-17.776-13.835-29.494c6.18-17.814,18.21-15.237,30.615-13.999
		c7.799,0.778,15.503,1.619,23.355,1.693c6.372,0.059,14.557-2.212,20.548-0.984c10.113,2.074,15.725,10.364,15.583,21.06
		C242.559,146.831,237.45,154.467,226.387,159.614z"/>
	<path d="M283.895,27.448c-0.857-9.27-3.732-24.067-14.246-27.037c-4.965-1.401-10.514,1.157-15.299,2.049
		c-12.65,2.356-25.551,2.251-38.346,1.625c-12.009-0.587-28.334-5.673-37.369,4.837c-7.74,9.004-7.982,29.558-6.744,40.526
		c1.249,11.05,4.708,21.717,16.238,25.43c14.559,4.689,33.902,3.156,49.4-0.483c0.835,1.163,2.112,1.951,3.989,1.947
		c6.509,9.216,16.311,13.795,28.224,11.786c3.989-0.673,4.196-6.435,1.081-8.274c-2.425-1.432-3.844-2.941-4.938-4.61
		c4.155-1.058,7.982-3.046,11.119-6.898C285.055,58.465,284.983,39.204,283.895,27.448z M270.745,54.343
		c-5.516,14.106-17.858,9.868-28.464,10.649c-0.196-0.035-0.295-0.207-0.508-0.218c-20.618-1.107-56.512,7.094-57.873-24.655
		c0.319-5.761,1.083-11.455,2.292-17.088c4.008-7.031,9.466-9.533,16.371-7.504c7.423-0.867,15.984,1.081,23.519,1.18
		c7.81,0.105,15.575-0.149,23.328-1.155c10.97-1.424,16.682-7.674,21.778,7.562C273.425,29.803,273.405,47.536,270.745,54.343z"/>
</g>
<g>
</g>
<g>
</g>
<g>
</g>
<g>
</g>
<g>
</g>
<g>
</g>
<g>
</g>
<g>
</g>
<g>
</g>
<g>
</g>
<g>
</g>
<g>
</g>
<g>
</g>
<g>
</g>
<g>
</g>
</svg>
