<?xml version="1.0" encoding="iso-8859-1"?>
<!-- Generator: Adobe Illustrator 19.0.0, SVG Export Plug-In . SVG Version: 6.00 Build 0)  -->
<svg version="1.1" id="Capa_1" xmlns="http://www.w3.org/2000/svg" xmlns:xlink="http://www.w3.org/1999/xlink" x="0px" y="0px"
	 viewBox="0 0 412.862 412.862" style="enable-background:new 0 0 412.862 412.862;" xml:space="preserve">
<g>
	<path d="M144.613,13.354c-0.001-0.243-0.004-0.489-0.007-0.735c-0.149-13.864-17.082-16.663-24.411-6.611
		C101.042,32.276,77.98,56.199,56.307,80.672C44.624,67.485,33.401,53.86,21.011,41.401C12.104,32.443-2.5,43.852,3.651,54.798
		c11.385,20.255,27.74,37.866,43.402,54.895c4.594,4.997,13.98,5.145,18.545,0c15.425-17.372,30.641-34.93,45.916-52.432
		c7.127-8.169,14.338-16.272,21.387-24.513c2.924-3.07,5.654-6.3,8.189-9.689c0.785-1.441,0.863-2.056,0.6-2.27
		C143.386,18.858,144.648,16.515,144.613,13.354z"/>
	<path d="M402.694,58.947c-35.855-5.533-71.556-0.989-107.647-2.715c-34.546-1.651-75.88-12.539-105.361,9.08
		c-3.573,2.622-3.154,7.839,1.221,9.338c28.833,9.881,65.505,5.978,96.181,7.655c36.074,1.977,72.79-3.263,108.538,2.284
		c-0.013-0.094-0.025-0.192-0.037-0.286C412.286,88.326,419.351,61.518,402.694,58.947z"/>
	<path d="M123.08,149.094c-24.545,23.597-45.021,53.298-65.545,81.178c-13.717-13.379-26.551-27.579-40.562-40.654
		c-7.848-7.325-20.425,1.944-14.986,11.561c12.306,21.753,30.361,40.426,47.989,57.933c6.584,6.535,15.507,3.925,20.557-2.651
		c23.457-30.545,51.412-59.891,71.626-92.645C149.517,151.896,132.913,139.64,123.08,149.094z"/>
	<path d="M398.196,199.281c-65.96-2.961-135.296-8.904-200.888,0.203c-8.726,1.209-8.702,16.351,0,17.597
		c65.129,9.309,133.16,6.322,198.909,8.607C411.8,229.87,418.332,200.186,398.196,199.281z"/>
	<path d="M149.237,296.688l-0.147-1.278c-1.116-9.7-10.041-15.979-19.336-11.098c-14.97,7.865-24.362,31.363-33.078,45.238
		c-10.193,16.221-20.002,32.696-29.494,49.344c-15.55-15.407-31.102-30.857-47.761-45.028c-9.686-8.241-21.611,4.059-13.788,13.788
		c17.253,21.464,36.57,41.266,55.279,61.451c5.719,6.17,16.259,4.353,20.351-2.625c10.172-17.34,20.243-34.719,30.841-51.802
		c8.867-14.298,18.328-34.517,30.343-47.208C146.34,305.602,149.701,300.718,149.237,296.688z"/>
	<path d="M395.817,337.805c-64.4-6.488-131.687-11.684-196.124-3.403c-13.766,1.77-14.62,21.413,0,22.108
		c65.539,3.107,130.632,1.568,196.124,7.803C412.795,365.931,412.668,339.428,395.817,337.805z"/>
</g>
<g>
</g>
<g>
</g>
<g>
</g>
<g>
</g>
<g>
</g>
<g>
</g>
<g>
</g>
<g>
</g>
<g>
</g>
<g>
</g>
<g>
</g>
<g>
</g>
<g>
</g>
<g>
</g>
<g>
</g>
</svg>
