<?xml version="1.0" encoding="iso-8859-1"?>
<!-- Generator: Adobe Illustrator 19.0.0, SVG Export Plug-In . SVG Version: 6.00 Build 0)  -->
<svg version="1.1" id="Capa_1" xmlns="http://www.w3.org/2000/svg" xmlns:xlink="http://www.w3.org/1999/xlink" x="0px" y="0px"
	 viewBox="0 0 438.215 438.215" style="enable-background:new 0 0 438.215 438.215;" xml:space="preserve">
<path d="M419.478,57.6c-4.204-10.371-10.365-15.77-22.041-23.931c-10.207-7.128-25.829-3.874-34.228,4.417
	c-43.465,42.895-85.078,87.691-123.244,135.401c-18.552,23.19-45.458,50.994-61.826,80.388
	c-7.892-6.538-15.687-13.074-22.879-19.789c-24.005-22.419-50.45-49.585-80.482-64.037c-24.829-11.947-43.577-1.082-59.326,19.564
	c-4.649,6.098-10.083,16.253-10.045,25.038c-6.33,6.75-8.076,17.693,0.111,27.766c52.981,65.151,118.587,115.962,188.124,162.255
	c9.269,6.171,26.848,4.903,34.094-4.398c74.598-95.779,145.574-201.187,206.4-306.092C444.352,76.56,433.857,61.88,419.478,57.6z"/>
<g>
</g>
<g>
</g>
<g>
</g>
<g>
</g>
<g>
</g>
<g>
</g>
<g>
</g>
<g>
</g>
<g>
</g>
<g>
</g>
<g>
</g>
<g>
</g>
<g>
</g>
<g>
</g>
<g>
</g>
</svg>
