<?xml version="1.0" encoding="iso-8859-1"?>
<!-- Generator: Adobe Illustrator 19.0.0, SVG Export Plug-In . SVG Version: 6.00 Build 0)  -->
<svg version="1.1" id="Capa_1" xmlns="http://www.w3.org/2000/svg" xmlns:xlink="http://www.w3.org/1999/xlink" x="0px" y="0px"
	 viewBox="0 0 426.307 426.307" style="enable-background:new 0 0 426.307 426.307;" xml:space="preserve">
<g>
	<path d="M209.054,0.556c-284.791-18.973-260.01,453.857-18.203,424.432c1.973,0.764,4.131,1.233,6.554,1.161
		c117.199-3.515,225.306-91.889,226.425-214.844C424.881,95.704,319.236,7.897,209.054,0.556z M208.802,386.482
		C-41.655,375.252,9.869-15.574,245.919,49.787c87.549,24.242,154.126,106.408,130.137,199.923
		C354.969,331.92,284.796,370.011,208.802,386.482z"/>
	<path d="M342.219,195.068c-39.041,0.426-78.315,5.378-117.156,10.758c-2.532-42.036-6.16-83.269-13.9-124.994
		c-2.551-13.749-21.944-9.194-22.955,3.108c-3.959,48.203-2.561,95.266-0.191,143.553c0.676,13.694,11.647,20.201,24.265,18.481
		c43.215-5.893,86.683-8.26,129.938-13.372C365.531,229.849,367.028,194.796,342.219,195.068z"/>
</g>
<g>
</g>
<g>
</g>
<g>
</g>
<g>
</g>
<g>
</g>
<g>
</g>
<g>
</g>
<g>
</g>
<g>
</g>
<g>
</g>
<g>
</g>
<g>
</g>
<g>
</g>
<g>
</g>
<g>
</g>
</svg>
