<?xml version="1.0" encoding="iso-8859-1"?>
<!-- Generator: Adobe Illustrator 19.0.0, SVG Export Plug-In . SVG Version: 6.00 Build 0)  -->
<svg version="1.1" id="Capa_1" xmlns="http://www.w3.org/2000/svg" xmlns:xlink="http://www.w3.org/1999/xlink" x="0px" y="0px"
	 viewBox="0 0 431.573 431.573" style="enable-background:new 0 0 431.573 431.573;" xml:space="preserve">
<g>
	<path d="M254.655,119.692c2.37-19.449,2.608-39.26,3.695-58.82c0.886-15.985,4.488-33.886,1.451-49.568
		c-0.776-4.004-4.486-7.055-8.187-8.187c-20.292-6.213-47.58-1.259-68.769-1.022c-6.044,0.067-10.889,4.995-11.013,11.015
		c-0.737,35.687-0.797,71.456,4.517,106.783c-38.223,18.071-56.448,62.476-53.195,106.71c2.986,40.593,23.661,67.265,52.973,78.803
		c-2.416,37.732-3.357,76.624-3.803,114.294c-0.08,6.722,7.923,9.832,12.816,7.254c7.917,5.825,20.02,4.503,29.585,4.461
		c11.791-0.059,25.285-0.488,36.883-4.042c5.005,2.673,12.611,0.02,13.617-7.546c3.233-24.296,2.217-49.521,1.529-73.989
		c-0.074-2.635-0.109-5.315-0.149-7.997c1.695-9.348,1.513-18.431-1.677-26.165c-0.4-2.689-0.808-5.374-1.469-7.991
		C326.542,271.213,323.946,152.152,254.655,119.692z M151.241,220.614c-0.973-35.955,13.345-72.585,52.659-79.715
		c94.919-17.213,106.859,152.534,13.671,142.496c-2.048-0.221-3.864,0.093-5.49,0.742c-7.25-0.031-14.453-0.411-21.417-2.211
		C161.742,274.446,151.969,247.461,151.241,220.614z"/>
	<path d="M221.818,162.297c-1.753-5.704-9.469-5.444-11.33,0c-3.699,10.829-2.915,24.918-1.438,37.041
		c-0.121-0.055-0.173-0.109-0.299-0.163c-2.257-0.977-4.513-1.397-6.95-1.743c-6.732-0.954-13.217-0.235-19.861,1.096
		c-11.408,2.286-6.632,20.327,4.843,17.564c5.498-1.325,10.858-1.632,16.477-1.981c4.771-0.295,6.745-1.646,10.864-3.379
		c0.363-0.154,0.4-0.494,0.676-0.709c2.79,0.251,5.781-1,6.314-3.982C223.469,192.849,225.809,175.294,221.818,162.297z"/>
</g>
<g>
</g>
<g>
</g>
<g>
</g>
<g>
</g>
<g>
</g>
<g>
</g>
<g>
</g>
<g>
</g>
<g>
</g>
<g>
</g>
<g>
</g>
<g>
</g>
<g>
</g>
<g>
</g>
<g>
</g>
</svg>
