<?xml version="1.0" encoding="iso-8859-1"?>
<!-- Generator: Adobe Illustrator 19.0.0, SVG Export Plug-In . SVG Version: 6.00 Build 0)  -->
<svg version="1.1" id="Capa_1" xmlns="http://www.w3.org/2000/svg" xmlns:xlink="http://www.w3.org/1999/xlink" x="0px" y="0px"
	 viewBox="0 0 432.587 432.587" style="enable-background:new 0 0 432.587 432.587;" xml:space="preserve">
<path d="M399.452,106.558c-17.071-20.258-33.379-47.903-55.185-63.311c-5.29-3.739-11.136-6.141-17.2-7.958
	c-15.971-8.708-37.947-14.494-53.624-14.635c-4.569-0.042-9.566,3.406-10.694,8.026c-5.001,1.547-9.525,5.135-11.831,11.556
	c-6.524,18.152-24.028,26.61-42.549,27.657c-11.252,0.635-44.828-4.468-45.394-20.944c-0.194-5.738-5.839-10.985-11.798-8.987
	c-0.804,0.269-1.611,0.54-2.415,0.809c-1.298-0.91-2.719-1.545-4.234-1.349c-21.932,2.828-45.19-2.575-64.635,11.651
	c-22.771,16.663-34.742,51.303-54.194,72.22C13.775,134.116-3.977,144.879,0.796,164.49c6.589,27.09,42.41,52.734,62.614,69.25
	c9.41,7.692,20.304,6.13,27.478-3.541c2.569-3.462,5.192-6.947,7.822-10.402c-3.332,57.15,2.173,114.646,2.054,171.874
	c-0.024,9.923,8.207,17.496,17.861,17.861c62.798,2.376,125.666,3.24,188.492,1.444c3.979-0.115,7.052-1.482,9.702-3.277
	c7.167-0.262,13.978-4.936,13.504-13.909c-1.737-32.779,5.992-64.539,8.306-97.103c2.006-28.277,0.749-56.413-2.494-84.465
	c9.88,7.348,20.604,13.809,30.514,19.867c8.316,5.085,18.175,1.332,23.36-6.125c12.877-18.527,39.898-44.059,42.43-67.204
	C434.664,138.422,411.154,120.449,399.452,106.558z"/>
<g>
</g>
<g>
</g>
<g>
</g>
<g>
</g>
<g>
</g>
<g>
</g>
<g>
</g>
<g>
</g>
<g>
</g>
<g>
</g>
<g>
</g>
<g>
</g>
<g>
</g>
<g>
</g>
<g>
</g>
</svg>
