<?xml version="1.0" encoding="iso-8859-1"?>
<!-- Generator: Adobe Illustrator 19.0.0, SVG Export Plug-In . SVG Version: 6.00 Build 0)  -->
<svg version="1.1" id="Capa_1" xmlns="http://www.w3.org/2000/svg" xmlns:xlink="http://www.w3.org/1999/xlink" x="0px" y="0px"
	 viewBox="0 0 389.594 389.594" style="enable-background:new 0 0 389.594 389.594;" xml:space="preserve">
<g>
	<path d="M336.352,227.569c-5.339-44.861-25.424-86.59-76.231-95.723c-51.682-9.29-97.251,28.323-100.298,78.332
		c-29.516-11.383-64.283,8.976-66.287,43.768c-3.732,64.771,72.384,64.386,115.782,65.065
		c36.521,0.571,168.091,19.704,179.261-38.268C395.472,244.98,366.032,229.817,336.352,227.569z"/>
	<path d="M209.552,77.715c-23.367-14.052-53.887-14.737-76.265,1.547c-26.024,18.936-32.831,52.92-34.635,83.248
		C56.234,162.651,0.193,177.069,0,228.123c-0.102,27.361,24.794,55.942,52.256,60.496c0.745,0.481,1.496,0.889,2.218,1.175
		c8.808,3.495,20.06,5.043,28.378-0.441c2.597-1.713,3.352-4.214,2.9-6.47c1.325-1.462,1.871-3.614,0.617-5.989
		c-20.69-39.22,7.046-83.165,51.488-79.14c3.435,0.311,5.5-1.536,6.277-3.972c1.718-1.005,3.103-2.667,3.333-4.79
		c3.176-29.414,24.584-45.823,49.83-57.623c10.663-4.985,21.858-4.166,32.042-8.083c2.755-1.06,5.737-1.249,7.857-3.839
		C248.644,105.465,218.937,83.358,209.552,77.715z"/>
</g>
<g>
</g>
<g>
</g>
<g>
</g>
<g>
</g>
<g>
</g>
<g>
</g>
<g>
</g>
<g>
</g>
<g>
</g>
<g>
</g>
<g>
</g>
<g>
</g>
<g>
</g>
<g>
</g>
<g>
</g>
</svg>
