<?xml version="1.0" encoding="iso-8859-1"?>
<!-- Generator: Adobe Illustrator 19.0.0, SVG Export Plug-In . SVG Version: 6.00 Build 0)  -->
<svg version="1.1" id="Capa_1" xmlns="http://www.w3.org/2000/svg" xmlns:xlink="http://www.w3.org/1999/xlink" x="0px" y="0px"
	 viewBox="0 0 406.432 406.432" style="enable-background:new 0 0 406.432 406.432;" xml:space="preserve">
<g>
	<path d="M242.289,329.097c-6.737,2.6-10.713,5.063-16.163,9.826c-1.65,1.442-4.056,3.223-6.655,5.152
		c3.928-42.915,1.66-89.601-1.085-130.67c-0.986-14.774-21.582-14.614-22.85,0c-3.725,42.971-7.045,92.004-3.193,136.575
		c-6.59-4.127-13.171-8.253-19.894-12.168c-4.57-2.661-11.504-2.154-15.171,1.957c-1.147,1.286-1.923,2.286-2.573,3.909
		c-0.215,0.539-0.43,1.077-0.646,1.614c-2.15,5.372,1.534,11.212,5.753,14.138c12.315,8.543,33.489,29.189,49.735,25.93
		c8.062-1.617,14.967-9.674,20.739-14.774c8.865-7.832,18.804-14.826,24.377-25.392
		C258.705,337.536,251.813,325.423,242.289,329.097z"/>
	<path d="M335.784,195.628c6.582-77.637-30.374-167.7-118.415-174.574C139.432,14.97,90.814,94.505,97.831,165.067
		C47.143,161.222-8.793,188.364,1.16,249.021c12.457,75.915,108.758,70.73,165.982,64.078c5.292-0.616,8.177-7.103,5.478-10.772
		c0.18-0.713,0.409-1.4,0.377-2.222c-0.878-22.386-6.664-138.264,42.634-112.064c33.458,17.782,19.106,83.899,17.654,113.979
		c-0.016,0.331,0.125,0.553,0.135,0.869c-0.089,5.889,3.634,11.644,11.287,11.349c49.293-1.908,132.935,10.122,157.727-47.022
		C420.457,225.668,373.896,194.189,335.784,195.628z"/>
</g>
<g>
</g>
<g>
</g>
<g>
</g>
<g>
</g>
<g>
</g>
<g>
</g>
<g>
</g>
<g>
</g>
<g>
</g>
<g>
</g>
<g>
</g>
<g>
</g>
<g>
</g>
<g>
</g>
<g>
</g>
</svg>
