<?xml version="1.0" encoding="iso-8859-1"?>
<!-- Generator: Adobe Illustrator 19.0.0, SVG Export Plug-In . SVG Version: 6.00 Build 0)  -->
<svg version="1.1" id="Capa_1" xmlns="http://www.w3.org/2000/svg" xmlns:xlink="http://www.w3.org/1999/xlink" x="0px" y="0px"
	 viewBox="0 0 436.682 436.682" style="enable-background:new 0 0 436.682 436.682;" xml:space="preserve">
<g>
	<path d="M419.538,296.204c-0.537-2.448-1.546-4.881-3.753-7.117c-38.465-38.955-72.197-93.147-127.275-104.255
		c-32.363-6.527-124.525-19.188-148.856,10.098c-6.377,7.675-5.5,22.762,6.555,24.829c22.465,3.852,48.517,0.77,69.917,5.355
		c91.889,19.687-19.347,14.323-37.679,15.025c-74.371,2.847-94.568-47.89-146.259-87.637c-5.27-4.052-13.154-1.609-17.579,2.267
		c-0.36,0.315-0.72,0.63-1.079,0.945c-9.295,1.69-17.898,12.369-11.076,21.409c31.418,41.641,69.831,92.706,117.474,116.47
		c56.919,28.392,147.166,9.676,208.442,7.403c0.485-0.018,0.813-0.247,1.272-0.303c15.578,16.76,32.267,32.523,46.979,50.062
		c11.267,13.432,26.145,33.099,44.92,17.833C445.329,349.25,438.327,316.277,419.538,296.204z"/>
	<path d="M301.467,158.61c2.273-3.137,1.617-7.566,0-10.762c-9.917-19.608-45.334-14.431-63.168-15.171
		c-41.628-1.729-83.746-2.505-125.258,1.4c-5.481,0.516-8.996,3.959-9.499,9.499c-1.141,12.572-1.318,23.581-0.223,35.764
		c-1.385,5.494-0.51,11.843,3.471,19.271c3.155,5.886,11.09,2.57,11.616-3.146c3.694-40.058,149.973-21.335,179.003-27.149
		c4.649-0.931,5.691-5.96,4.009-9.64L301.467,158.61z"/>
	<path d="M285.63,74.009c-7.285-6.307-18.913-6.531-30.277-5.677c-41.574-4.319-84.155,1.007-124.602-5.042
		c-19.003-2.843-29.715,2.356-33.43,16.879c-2.024,6.371-2.078,7.275-1.541,15.492c0.174,2.659,1.294,4.644,2.787,6.16
		c0.154,0.861,0.162,1.73,0.346,2.59c0.206,1.543,1.01,2.606,1.7,3.759c0.04,3.992,1.998,7.884,6.311,8.91
		c24.499,5.834,47.755,4.077,72.403-0.035c1.169-0.196,2.369-0.25,3.543-0.425c5.817,0.053,11.58,0.149,17.186,0.469
		c12.411,0.71,24.821,1.519,37.231,2.257c11.572,0.687,30.539,5.927,41.592,2.964C297.059,117.435,298.452,85.109,285.63,74.009z"/>
</g>
<g>
</g>
<g>
</g>
<g>
</g>
<g>
</g>
<g>
</g>
<g>
</g>
<g>
</g>
<g>
</g>
<g>
</g>
<g>
</g>
<g>
</g>
<g>
</g>
<g>
</g>
<g>
</g>
<g>
</g>
</svg>
