<?xml version="1.0" encoding="iso-8859-1"?>
<!-- Generator: Adobe Illustrator 19.0.0, SVG Export Plug-In . SVG Version: 6.00 Build 0)  -->
<svg version="1.1" id="Capa_1" xmlns="http://www.w3.org/2000/svg" xmlns:xlink="http://www.w3.org/1999/xlink" x="0px" y="0px"
	 viewBox="0 0 449.996 449.996" style="enable-background:new 0 0 449.996 449.996;" xml:space="preserve">
<g>
	<path d="M203.1,1.512c-37.043,4.717-71.721,18.127-95.751,47.699c-18.963,23.342-38.673,67.714-22.851,97.011
		c1.529,2.832,3.712,4.531,6.078,5.735c1.647,2.542,3.791,4.847,6.464,6.071c-0.043,0.059-0.09,0.116-0.136,0.175
		c11.474,3.658,23.919,2.265,35.814,1.826c12.199-0.448,24.444-0.664,36.429-3.141c10.988-2.269,11.763-13.233,6.66-20.403
		c6.868-30.464,22.033-64.384,60.18-57.633c41.431,7.335,31.987,47.592,40.188,77.224c1.604,5.796,6.392,8.565,11.381,9.054
		c1.043,0.343,1.712,1.16,2.969,1.185c20.81,0.413,41.027-1.77,61.276-6.739c7.233-1.774,10.249-8.735,9.698-15.22
		c1.136-2.262,1.883-4.865,1.611-8.19C355.815,46.492,294.559-10.13,203.1,1.512z"/>
	<path d="M240.886,109.118c-3.54-4.118-9.169-5.624-14.61-5.098c-7.24-3.648-17.637,0.274-21.232,8.813
		c-10.334,24.56-6.632,50.92-0.586,76.176c4.895,20.458,36.243,20.301,41.242,0C251.545,165.284,258.034,129.066,240.886,109.118z"
		/>
	<path d="M364.533,200.947c1.887-4.799,0.568-10.297-4.456-13.863c-11.756-8.347-29.486-5.383-43.365-6.26
		c-12.156-0.768-23.89-1.676-35.854-0.954c-2.201-1.105-4.634-1.742-7.196-1.033c-0.428,0.12-0.857,0.238-1.286,0.357
		c-2.515,0.695-4.645,2.557-6.196,4.833c-4.784,1.897-8.465,6.183-8.254,13.097c0.622,20.171-20.346,34.201-39.162,27.823
		c-17.145-5.812-28.182-25.361-35.282-41.008c-2.065-4.549-6.281-5.281-10.001-3.893c-9.023-4.647-19.964-4.147-30.033-5.274
		c-12.885-1.445-25.77-2.244-38.716-1.049c-6.171,0.569-10.573,5.485-12.21,10.879c-2.773,0.546-5.345,1.961-6.932,4.956
		C63.13,231.98,84.587,325.321,102.85,368.287c18.952,44.588,56.514,76.735,105.824,81.237
		c53.777,4.912,104.334-29.184,135.553-70.969C382.643,327.138,377.39,260.426,364.533,200.947z"/>
</g>
<g>
</g>
<g>
</g>
<g>
</g>
<g>
</g>
<g>
</g>
<g>
</g>
<g>
</g>
<g>
</g>
<g>
</g>
<g>
</g>
<g>
</g>
<g>
</g>
<g>
</g>
<g>
</g>
<g>
</g>
</svg>
