<?xml version="1.0" encoding="iso-8859-1"?>
<!-- Generator: Adobe Illustrator 19.0.0, SVG Export Plug-In . SVG Version: 6.00 Build 0)  -->
<svg version="1.1" id="Capa_1" xmlns="http://www.w3.org/2000/svg" xmlns:xlink="http://www.w3.org/1999/xlink" x="0px" y="0px"
	 viewBox="0 0 401.998 401.998" style="enable-background:new 0 0 401.998 401.998;" xml:space="preserve">
<g>
	<path d="M400.814,314.982c-0.203-0.615-0.659-1.001-1.018-1.481c-0.136-0.35-0.004-0.69-0.235-1.035
		c-6.365-9.436-13.962-17.731-21.698-26.044c-6.188-6.65-11.833-13.703-17.611-20.658c1.442-1.348,2.598-3.053,3.026-5.352
		c6.163-33.069,2.627-67.701,2.91-101.282c0.286-33.727,3.495-67.848-1.083-101.306c-0.848-6.19-6.48-8.86-12.016-8.502
		c-1.675-0.923-3.557-1.581-5.868-1.506c-98.329,3.195-200.903-4.623-298.525,5.202c-8.981,0.903-13.017,8.249-12.23,14.909
		c-0.138,0.844-0.477,1.528-0.479,2.475c-0.111,63.015-2.495,127.13,0.289,190.025c0.048,1.107,0.43,1.926,0.649,2.889
		c-4.271,5.704-8.405,11.506-12.53,17.429c-7.43,10.669-18.51,20.639-23.609,32.514c-1.054,2.456-0.535,5.233,0.852,7.239
		c-1.789,6.307-2.541,13.051-0.022,19.091c0.602,1.446,1.746,2.308,2.998,2.87c0.781,1.037,1.949,1.835,3.75,1.965
		c123.607,8.944,257.577,14.208,381.135,4.781c5.155-0.393,7.659-4.704,7.531-8.725
		C401.414,332.865,403.473,323.082,400.814,314.982z M336.625,235.1c-0.032-0.002-0.056-0.02-0.089-0.021
		c-49.271-2.275-98.875-0.543-148.197,0.067c-26.083,0.322-53.628-1.67-80.27,0.213c-3.852-0.226-7.688-0.457-11.465-0.787
		c-10.234-0.894-21.061-2.781-31.303-1.343c3.823-50.646,2.507-102.988-1.032-153.308c88.635,5.527,188.621,13.686,275.136-5.382
		c-3.614,27.908-2.769,56.545-3.006,84.59C336.187,184.128,334.447,209.961,336.625,235.1z"/>
</g>
<g>
</g>
<g>
</g>
<g>
</g>
<g>
</g>
<g>
</g>
<g>
</g>
<g>
</g>
<g>
</g>
<g>
</g>
<g>
</g>
<g>
</g>
<g>
</g>
<g>
</g>
<g>
</g>
<g>
</g>
</svg>
