<?xml version="1.0" encoding="iso-8859-1"?>
<!-- Generator: Adobe Illustrator 19.0.0, SVG Export Plug-In . SVG Version: 6.00 Build 0)  -->
<svg version="1.1" id="Capa_1" xmlns="http://www.w3.org/2000/svg" xmlns:xlink="http://www.w3.org/1999/xlink" x="0px" y="0px"
	 viewBox="0 0 425.166 425.166" style="enable-background:new 0 0 425.166 425.166;" xml:space="preserve">
<g>
	<path d="M228.449,39.973c-89.746-0.18-63.018,135.93-17.618,153.046c0.695,0.563,1.527,1.032,2.627,1.275
		C303.972,214.296,316.145,40.149,228.449,39.973z"/>
	<path d="M341.251,239.649c-12.41-17.879-39.598-53.286-64.797-44.433c-2.037-1.651-5.037-2.176-7.526,0.09
		c-28.498,25.948-59.588,24.837-88.304,1.224c-1.087-0.893-2.368-1.191-3.601-1.108c-0.944-0.824-2.145-1.348-3.654-1.197
		c-47.018,4.669-66.208,39.629-85.721,78.112c-4.09,8.062-5.809,10.864-13.659,16.585c-9.547,6.958-15.172,4.987-25.208,10.021
		c-5.093,2.556-8.956,5.76-12.006,10.679c-6.377,10.281-5.229,20.841,2.087,29.739c0.904,1.1,2.052,0.946,2.912,0.273
		c1.962,0.773,4.651,0.174,5.472-2.187c2.145-6.178,6.317-10.143,11.023-12.313l19.624,3.041c2.685,2.683,4.756,6.358,5.521,11.288
		c0.564,3.634,3.653,4.481,6.343,3.534c0.016,0.003,0.021,0.016,0.038,0.019c6.395,0.842,12.603,0.954,19.05,0.538
		c5.898-0.381,11.958-1.541,17.773-0.043c3.185,0.819,5.293-1.459,5.663-3.96c0.293-0.458,0.67-0.868,0.742-1.438
		c2.143-17.206,0.5-34.429,0.307-51.698c-0.173-15.515,2.2-30.701,3.055-46.066c18.41-15.261,67.618-6.008,88.043-5.641
		c26.273,0.473,52.549,1.092,78.825,1.249c15.794,11.389,12.063,34.05,11.672,51.22c-0.368,16.062-0.889,32.135-1.004,48.201
		c-0.027,3.742,3.532,5.032,6.196,3.985c8.19,1.42,16.645,0.339,24.929,0.041c8.723-0.314,17.935,0.959,26.439-0.983
		c1.475-0.335,2.156-1.316,2.507-2.419c0.669-0.436,1.284-1.026,1.77-1.885C389.271,310.296,354.326,258.487,341.251,239.649z"/>
	<path d="M306.521,283.687c0.514-9.818,2.46-20.32-1.905-28.912c2.194-2.859,0.935-8.131-3.811-8.312
		c-49.113-1.861-102.63-7.225-151.352-0.436c-0.498,0.069-0.776,0.412-1.111,0.689c-1.952,0.493-3.609,1.98-3.612,4.576
		c-0.016,17.762-0.11,35.525-0.191,53.289c-0.045,10.293-1.482,21.732,1.729,31.688c-1.489,1.181-1.25,4.232,0.877,4.564
		c48.277,7.519,101.839,4.155,150.728,2.73c0.414,0.107,0.833,0.206,1.25,0.151c0.335-0.041,0.667-0.085,1.003-0.129
		c2.344-0.301,5.167-1.979,4.83-4.83l-0.009-0.075c0.132-0.415,0.467-0.643,0.454-1.165c-0.1-4.067-0.414-8.124-0.668-12.185
		c-0.02-0.329-0.154-0.581-0.235-0.868c0.583-3.855,0.214-8.212,0.465-12.72C305.479,302.39,306.028,293.04,306.521,283.687z"/>
	<path d="M425.066,356.582c-0.024-3.814-2.381-6.014-5.184-6.755c-1.235-1.381-3.062-2.289-5.506-2.238
		c-135.366,2.874-272.596-4.775-407.589,3.665c-1.15,0.072-2.053,0.438-2.84,0.913c-2.102,0.326-4.001,1.883-3.946,4.5L0.34,373.2
		c0.074,3.609,2.996,6.66,6.667,6.667c136.81,0.286,273.911,11.575,410.509,0.395c4.103-0.335,7.676-3.232,7.649-7.649
		C425.132,367.269,425.099,361.924,425.066,356.582z"/>
</g>
<g>
</g>
<g>
</g>
<g>
</g>
<g>
</g>
<g>
</g>
<g>
</g>
<g>
</g>
<g>
</g>
<g>
</g>
<g>
</g>
<g>
</g>
<g>
</g>
<g>
</g>
<g>
</g>
<g>
</g>
</svg>
