<?xml version="1.0" encoding="iso-8859-1"?>
<!-- Generator: Adobe Illustrator 19.0.0, SVG Export Plug-In . SVG Version: 6.00 Build 0)  -->
<svg version="1.1" id="Capa_1" xmlns="http://www.w3.org/2000/svg" xmlns:xlink="http://www.w3.org/1999/xlink" x="0px" y="0px"
	 viewBox="0 0 451.223 451.223" style="enable-background:new 0 0 451.223 451.223;" xml:space="preserve">
<path d="M380.511,14.753c-0.19-0.78-0.654-1.32-1.229-1.684c0.771-5.381-2.198-11.353-9.212-11.28
	c-51.325,0.541-102.651,0.761-153.978,0.446c-36.227-0.223-73.914-4.289-109.98,0.293C97.758-1.3,86.804-0.477,78.407,2.966
	c-2.048-0.921-4.465-0.628-4.862,2.247c-16.246,117.605-12.376,249.092-7.302,368.069c-0.451,5.148-0.982,10.317-1.239,15.392
	c-0.806,15.97-3.417,34.511,1.888,49.74c0.267,0.766,0.861,1.109,1.263,1.716c0.026,3.304,2.306,6.621,6.803,7.099
	c97.405,10.358,195.836-3.521,292.881,3.351c4.738,0.335,8.953-3.566,10.276-7.824c6.155-19.805,6.546-16.604,4.537-30.961
	c2.11-1.769,3.54-4.427,3.561-8.007c0.4-69.68,0.807-139.361,1.198-209.041C387.745,135.105,394.619,72.887,380.511,14.753z
	 M147.526,243.285c-14.277,1.043-28.544,2.147-42.572,3.715c0.264-14.633,0.428-29.26,0.488-43.9
	c14.435,1.363,28.86,1.772,43.282,1.792C148.267,217.689,147.909,230.487,147.526,243.285z M170,272.351
	c0.024-2.019,0.048-4.038,0.072-6.056c14.487,0.344,28.961,0.569,43.451,0.934c0.235,10.467,0.498,20.846,0.81,31.141
	c-15.458-0.253-30.857-0.162-46.163,0.218C171.727,290.896,172.448,282.191,170,272.351z M171.804,135.907
	c14.235,0.149,28.409,0.375,42.655,0.457c-0.654,14.368-1.14,28.789-1.379,43.262c-13.767,1.042-27.536,2.065-41.309,2.986
	c0.045-2.589,0.138-5.177,0.17-7.766C172.1,161.86,172.048,148.882,171.804,135.907z M283.786,197.418
	c-0.668,14.912-1.315,29.823-1.757,44.71c-13.385-0.808-26.784-1.592-40.254-1.818c0.871-13.303,1.518-26.679,1.948-40.13
	C257.068,199.155,270.424,198.211,283.786,197.418z M243.789,136.418c14.381,0.008,28.741-0.078,43.088-0.202
	c-0.739,13.075-1.477,26.149-2.133,39.241c-13.496,0.434-26.99,1.089-40.488,1.976C244.409,163.697,244.223,150.027,243.789,136.418
	z M347.024,248.447c-12.391-1.823-25.021-2.953-37.626-4.139c1.014-15.974,1.611-32.03,1.927-48.114
	c11.98-0.358,23.967-0.534,35.975-0.177C347.19,213.496,347.105,230.971,347.024,248.447z M212.89,202.423
	c-0.05,12.65,0.002,25.256,0.167,37.824c-14.245,0.182-28.433,0.881-42.601,1.619c0.239-12.437,0.512-24.872,0.836-37.307
	C185.156,204.105,199.021,203.391,212.89,202.423z M347.418,176.209c-11.946-0.825-23.891-1.083-35.836-1.128
	c0.03-13.09-0.162-26.159-0.521-39.207c12.178-0.192,24.363-0.361,36.479-0.719C347.522,148.839,347.492,162.523,347.418,176.209z
	 M347.299,74.65c0.151,13.712,0.205,27.426,0.231,41.139c-12.229-2.319-24.736-3.842-37.344-5.037
	C309.613,98,308.865,85.33,307.99,72.728C321.044,73.657,334.118,74.477,347.299,74.65z M307.466,268.858
	c13.153,0.173,26.334,0.582,39.467,0.596c-0.028,11.504,0.018,23.005,0.053,34.507c-14.107-0.664-28.573-1.425-43.052-2.163
	C305.31,290.887,306.487,279.909,307.466,268.858z M290.566,71.499c-0.726,12.521-1.451,25.044-2.186,37.618
	c-15.18-0.777-30.494-1.057-45.899-0.783c-0.886-13.417-2.199-26.585-3.811-39.566C256.091,68.944,273.332,70.198,290.566,71.499z
	 M239.701,267.836c13.973,0.332,27.91,0.371,41.874,0.632c-0.196,10.773-0.396,21.547-0.411,32.28
	c-14.769-0.701-29.579-1.407-44.464-1.865C237.807,288.669,238.797,278.32,239.701,267.836z M219.558,68.812
	c-1.446,13.309-2.679,26.751-3.605,40.37c-15.023,0.726-29.991,1.941-44.914,3.179c-0.042-0.79-0.032-1.582-0.077-2.372
	c-0.541-9.468-3.521-25.536-5.063-40.23C183.783,69.427,201.664,68.979,219.558,68.812z M150.21,153.204
	c-0.162,10.246-0.561,20.484-0.883,30.725c-14.596,0.756-29.196,1.315-43.804,1.331c-0.008-16.72-0.105-33.411-0.274-50.069
	c14.544,0.193,29.211,0.295,43.814,0.47C149.786,142.321,150.287,148.351,150.21,153.204z M144.346,69.838
	c-1.023,13.885,0.445,29.749,2.206,44.619c-13.939,1.32-27.89,2.67-41.474,4.066c-0.198-16.283-0.424-32.512-0.672-48.664
	C117.726,70.191,131.035,69.97,144.346,69.838z M104.573,264.887c14.029,0.184,28.086,0.609,42.128,0.906
	c-0.641,9.443-2.399,21.967-2.269,33.753c-13.873,0.749-27.647,1.756-41.148,3.38C103.806,290.263,104.259,277.593,104.573,264.887z
	"/>
<g>
</g>
<g>
</g>
<g>
</g>
<g>
</g>
<g>
</g>
<g>
</g>
<g>
</g>
<g>
</g>
<g>
</g>
<g>
</g>
<g>
</g>
<g>
</g>
<g>
</g>
<g>
</g>
<g>
</g>
</svg>
