<?xml version="1.0" encoding="iso-8859-1"?>
<!-- Generator: Adobe Illustrator 19.0.0, SVG Export Plug-In . SVG Version: 6.00 Build 0)  -->
<svg version="1.1" id="Capa_1" xmlns="http://www.w3.org/2000/svg" xmlns:xlink="http://www.w3.org/1999/xlink" x="0px" y="0px"
	 viewBox="0 0 400.907 400.907" style="enable-background:new 0 0 400.907 400.907;" xml:space="preserve">
<g>
	<path d="M394.016,312.661c-9.395-2.262-19.259-2.138-28.928-0.888c0.161-0.526,0.602-0.764,0.661-1.377
		c6.469-67.275,5.968-140.332,1.765-208.248c8.948-0.139,17.863-0.479,26.687-1.393c8.839-0.914,9.041-13.231,0-13.906
		c-54.895-4.102-111.483,0.091-166.509,1.504c-2.635,0.068-5.542,1.413-6.772,3.885c-16.593,33.288-33.783,66.275-48.283,100.545
		c-0.097,0.229-0.081,0.444-0.149,0.672c-0.816,1.026-1.663,2.06-1.839,3.687c-3.782,34.955-3.192,75.079,4.719,109.439
		c0.153,0.666,0.574,0.942,0.904,1.357c-2.609,2.985-4.821,6.309-6.317,9.93c-0.395-0.063-0.694-0.252-1.125-0.266
		c-38.683-1.289-22.896-89.195-22.856-120.071c0.066-49.563,2.279-99.599-2.269-148.967c-0.74-8.014-11.712-8.015-12.469,0
		c-7.212,76.237-4.252,154.47-3.142,231.596c-39.331-3.871-82.381,0.028-121.285,1.594c-9.132,0.367-9.029,13.497,0,14.111
		c38.228,2.605,82.707,6.015,121.478-0.173c0.105,9.862,0.186,19.713,0.176,29.524c-0.005,4.801,3.979,8.516,8.67,8.67
		c10.352,0.343,20.705,0.684,31.057,1.027c2.098,12.247,11.21,22.749,25.441,22.121c16.913-0.75,34.527-15.43,35.911-32.67
		c0.1-1.247-0.198-2.419-0.283-3.637c11.94,1.982,24.194,1.805,36.285,1.881c12.166,0.077,24.965,1.084,37.072-0.836
		c-3.223,15.675,4.096,32.298,21.293,35.916c18.293,3.849,34.677-9.402,36.404-27.578c0.124-1.305,0.079-2.743-0.042-4.227
		c10.501,1.207,21.124,2.731,31.587,2.723C400.869,328.6,403.069,314.841,394.016,312.661z M212.689,142.612
		c13.853-26.785,17.887-34.316,48.306-38.702c30.724-4.43,62.64-1.951,94.205-1.692c-2.547,23.844-4.145,48.564-5.228,73.425
		c-0.383-0.194-0.759-0.445-1.144-0.577c-9.593-3.282-20.508-1.792-30.465-1.447c-11.826,0.41-23.705,0.698-35.414,2.451
		c-0.264,0.04-0.478,0.311-0.74,0.421c-4.072-0.789-9.486,1.123-10.275,5.841c-2.966,17.771-5.257,35.622-5.89,53.646
		c-0.407,11.595-1.532,24.319,1.366,35.727c-16.503-0.159-33.243,1.727-49.709,2.082c-9.641,0.207-21.93-1.648-32.303-0.016
		c1.215-25.605,0.516-51.939-1.116-76.628c-0.041-0.63-0.488-0.868-0.637-1.407C193.918,178.319,203.396,160.578,212.689,142.612z
		 M210.175,328.857c-3.642,6.148-15.368,14.185-22.137,9.056c-7.685-5.825-1.727-16.978,3.884-21.796
		c1.202-1.032,2.509-1.851,3.837-2.641c1.943,2.11,4.833,3.357,8.154,2.514C212.509,313.81,213.697,322.911,210.175,328.857z
		 M327.312,340.717c-9.307-2.03-9.783-12.599-6.522-19.892c1.931-4.315,5.038-7.606,8.817-9.644
		c0.169,0.075,0.247,0.235,0.426,0.301c8.211,3.041,14.152,7.257,13.015,17.295C342.159,336.655,335.368,342.474,327.312,340.717z"
		/>
	<path d="M102.809,211.318c-14.801-2.52-32.572,0.466-47.616,0.75c-13.472,0.255-30.598-2.31-43.502,1.663
		c-2.448,0.754-4.781,2.717-5.335,5.334c-2.212,10.442-0.492,24.313,2.94,34.274c0.174,0.498,0.602,0.753,0.883,1.158
		c-2.117,2.761-0.124,7.801,3.989,8.192c15.615,1.49,31.221,1.462,46.879,2.146c15.449,0.674,31.293,3.673,46.692,2.826
		c0.432-0.023,0.637-0.342,1.027-0.434c2.526,0.308,5.038-0.75,5.496-3.99C116.181,249.699,122.161,214.613,102.809,211.318z"/>
	<path d="M111.626,189.81c1.81-11.587,3.834-28.008,0.514-39.298c-0.982-3.345-1.113-5.356-4.11-7.275
		c-6.163-3.945-19.393-1.37-26.331-1.563c-14.661-0.407-29.328-0.757-43.994-0.959c-8.737-0.12-17.861-2.391-24.138,0.766
		c-1.351,0.223-2.471,1.009-3.168,2.384c-1.106,1.189-2.101,2.594-2.838,4.521c-3.469,9.039-5.966,30.929-3.661,40.043
		c1.153,4.563,1.646,6.196,6.072,7.747c0.167,0.058,0.309-0.062,0.476-0.029c0.656,0.567,1.479,0.979,2.502,1.016
		c31.449,1.113,63.441,2.207,94.884,2.329c5.002,0.019,6.658-6.405,3.539-9.28C111.424,190.047,111.598,189.99,111.626,189.81z"/>
	<path d="M108.648,76.594c-18.717-1.14-37.44-2.118-56.179-2.86C38.395,73.176,21.11,69.872,7.381,73.26
		c-2.003,0.495-3.768,2.254-4.26,4.259c-2.481,10.113-3.739,35.124,6.544,42.068c0.285,0.193,0.58,0.089,0.873,0.193
		c0.259,0.66,0.711,1.239,1.62,1.45c15.417,3.569,31.865,1.787,47.624,1.978c15.955,0.192,32.217,2.392,48.023,0.104
		c1.836-0.266,2.602-1.607,2.809-3.088c1.744-0.794,3.185-2.137,3.137-4.685c-0.202-11.063,0-22.073,0.73-33.112
		C114.697,79.145,111.626,76.776,108.648,76.594z"/>
</g>
<g>
</g>
<g>
</g>
<g>
</g>
<g>
</g>
<g>
</g>
<g>
</g>
<g>
</g>
<g>
</g>
<g>
</g>
<g>
</g>
<g>
</g>
<g>
</g>
<g>
</g>
<g>
</g>
<g>
</g>
</svg>
