<?xml version="1.0" encoding="iso-8859-1"?>
<!-- Generator: Adobe Illustrator 19.0.0, SVG Export Plug-In . SVG Version: 6.00 Build 0)  -->
<svg version="1.1" id="Capa_1" xmlns="http://www.w3.org/2000/svg" xmlns:xlink="http://www.w3.org/1999/xlink" x="0px" y="0px"
	 viewBox="0 0 413.373 413.373" style="enable-background:new 0 0 413.373 413.373;" xml:space="preserve">
<path d="M379.116,140.498c3.716-46.17-20.403-92.9-37.113-134.362c-2.891-7.175-13.575-8.285-16.727-2.122
	c-1.859,0.366-3.667,1.234-5.245,2.799c-31.553,31.285-77.168,3.648-112.331,2.402c-22.444-0.797-44.678,3.414-65.49,11.863
	c-28.65,11.634-51.805,30.442-66.852,56.107c-3.435-9.181-6.709-18.432-10.695-27.374c-8.619-19.347-33.727-4.11-31.277,13.187
	C42.109,124.591,64.425,185.146,81.288,245c15.09,53.568,26.393,109.332,49.289,160.136c6.761,15.008,33.682,7.934,31.732-8.596
	c-6.291-53.374-23.721-105.45-38.981-157.175c20.912-26.499,48.996-48.512,81.896-57.664c33.21-9.238,62.423-0.034,95.303,3.331
	c31.931,3.267,61.078-3.292,77.593-32.548C380.634,148.032,380.634,143.877,379.116,140.498z"/>
<g>
</g>
<g>
</g>
<g>
</g>
<g>
</g>
<g>
</g>
<g>
</g>
<g>
</g>
<g>
</g>
<g>
</g>
<g>
</g>
<g>
</g>
<g>
</g>
<g>
</g>
<g>
</g>
<g>
</g>
</svg>
