<?xml version="1.0" encoding="iso-8859-1"?>
<!-- Generator: Adobe Illustrator 19.0.0, SVG Export Plug-In . SVG Version: 6.00 Build 0)  -->
<svg version="1.1" id="Capa_1" xmlns="http://www.w3.org/2000/svg" xmlns:xlink="http://www.w3.org/1999/xlink" x="0px" y="0px"
	 viewBox="0 0 410.135 410.135" style="enable-background:new 0 0 410.135 410.135;" xml:space="preserve">
<path d="M341.641,228.116c-17.126-34.803-78.436-63.921-92.92-99.222c5.515-29.575,39.985-40.068,47.449-68.982
	c3.882-15.032-0.709-33.411-15.198-41.037c-19.666-10.35-31.468,4.344-47.186,11.673c-7.169,3.343-5.328,21.924-6.042-3.039
	c-0.08-2.768,0.752-5.658,0.203-8.456c-1.31-6.652-3.402-12.667-9.721-16.245c-17.522-9.922-25.611,8.863-34.472,18.903
	c-10.029,11.365-7.131,4.441-18.202-0.177c-6.364-2.655-10.339-4.372-17.139-2.838c-46.667,10.516-3.764,82.136,16.635,106.972
	c-1.961,15.213-68.889,52.109-79.728,66.353c-21.272,27.959-31.272,64.177-26.489,99.036
	c9.242,67.331,66.161,111.985,131.48,118.293c64.779,6.255,127.604-25.079,152.672-86.884
	C355.391,291.867,356.35,258.013,341.641,228.116z M237.578,222.604c-2.567,0.138-4.991,0.595-7.251,1.517
	c-5.044-4.228-9.324-9.107-11.449-15.879c-1.754-5.594-11.363-6.701-12.482,0c-2.037,12.212,2.767,21.443,12.355,29.182
	c6.305,5.09,14.306,8.606,19.447,14.953c11.09,13.692-0.12,27.749-11.686,35.008c-2.43,0.095-4.708,1.426-5.36,4.492
	c-1.252,5.903-2.221,11.882-2.887,17.882c-0.01,0.089-0.02,0.302-0.03,0.437c-1.918,0.834-3.749,1.519-5.337,1.845
	c-0.865,0.177-1.538,0.319-2.3,0.477c-0.941-5.968-1.641-12.803-2.151-16.595c1.352-2.22,0.456-5.289-1.726-6.924
	c-5.746-4.305-12.506-6.04-17.305-11.783c-2.066-2.472-3.764-5.541-4.655-8.649c-0.648-2.257-0.581-4.524-0.528-6.803
	c0.066,0.006,0.133,0.018,0.198,0.025c3.764,0.38,7.512,0.453,11.291,0.505c0.442,0.006,0.897-0.261,1.36-0.355
	c2.669,6.584,7.676,13.404,14.721,13.665c7.145,0.264,12.055-6.843,10.467-13.628c-2.207-9.419-15.725-13.679-22.696-18.219
	c-8.454-5.507-16.03-14.658-15.068-25.521c1.079-12.206,11.463-15.211,20.402-20.348c2.174-1.249,2.552-3.568,1.838-5.555
	c0.17-0.379,0.297-0.767,0.266-1.194c0.098-0.104,0.2-0.219,0.329-0.853c0.412-1.21,0.773-2.434,1.083-3.671
	c0.615-2.498,0.99-5.055,1.429-7.592c0.773-4.456,0.907-11.102,3.577-15.019c1.971-2.891,1.392-1.197,2.516,2.187
	c0.791,2.38,1.345,4.87,1.715,7.351c0.873,5.865,0.201,11.834,1.514,17.613c0.695,3.058,3.562,4.201,6.241,3.846
	C234.299,201.934,248.425,211.712,237.578,222.604z M228.694,126.243c0.276,2.638,0.659,5.197,1.215,7.627
	c-15.433-0.686-32.617,5.426-47.99,1c-0.075-2.795-0.757-5.688-2.322-8.729c-0.059-0.755-0.245-1.524-0.626-2.29
	c-0.059-0.116-0.158-0.289-0.221-0.412C194.161,130.889,213.799,133.062,228.694,126.243z"/>
<g>
</g>
<g>
</g>
<g>
</g>
<g>
</g>
<g>
</g>
<g>
</g>
<g>
</g>
<g>
</g>
<g>
</g>
<g>
</g>
<g>
</g>
<g>
</g>
<g>
</g>
<g>
</g>
<g>
</g>
</svg>
