<?xml version="1.0" encoding="iso-8859-1"?>
<!-- Generator: Adobe Illustrator 19.0.0, SVG Export Plug-In . SVG Version: 6.00 Build 0)  -->
<svg version="1.1" id="Capa_1" xmlns="http://www.w3.org/2000/svg" xmlns:xlink="http://www.w3.org/1999/xlink" x="0px" y="0px"
	 viewBox="0 0 406.533 406.533" style="enable-background:new 0 0 406.533 406.533;" xml:space="preserve">
<g>
	<path d="M96.593,53.796c-20.874,1.702-41.766,2.636-62.662,3.893c-14.407,0.868-16.261,19.34-3.294,24.347
		c5.138,1.983,10.409,3.729,15.747,5.174c-47.852,37.838-58.339,117.275-33.037,169.424c5.431,11.193,22.878,3.264,19.742-8.321
		c-8.077-29.872-12.427-59.132-2.618-89.41c7.034-21.708,19.447-36.172,33.101-51.621c0.257,5.032,0.726,10.06,1.337,15.058
		c1.553,12.689,22.767,18.974,24.989,3.382c2.68-18.78,8.366-36.283,17.645-52.844C111.918,65.064,106.535,52.987,96.593,53.796z"/>
	<path d="M360.065,28.865c-3.29-11.127-22.488-13.095-24.57,0c-1.528,9.626-3.895,19.683-4.977,29.639
		c-23.593-16.523-52.328-29.934-69.596-36.734C229.66,9.46,171.551-5.024,145.419,24.247c-2.528,2.834-1.714,7.789,2.316,8.776
		c30.233,7.41,59.268-2.365,91.045,7.594c17.156,5.376,41.784,16.023,63.465,29.285c-5.31,0.59-10.593,1.452-15.759,2.855
		c-11.266,3.052-12.543,21.836,0,24.107c23.565,4.26,46.679,10.741,68.732,20.134c7.919,3.375,20.028-0.264,19.134-10.981
		C372.165,79.792,367.533,54.112,360.065,28.865z"/>
	<path d="M382.946,341.193c-11.387-2.397-22.38-5.251-33.44-8.446c42.712-54.892,80.603-124.332,39.076-190.458
		c-4.718-7.511-18.334-2.771-14.99,6.317c21.777,59.181-1.292,111.1-35.595,157.7c-1.598-6.251-3.441-12.505-5.851-19.055
		c-5.171-14.043-23.098-10.723-24.962,3.379c-2.99,22.653-12.001,51.76-9.074,74.318c0.675,5.216,3.447,11.228,9.36,12.297
		c23.439,4.236,52.606-7.175,75.475-11.46C395.262,363.48,394.964,343.724,382.946,341.193z"/>
	<path d="M253.505,374.738c-57.502,5.264-105.554-12.54-153.491-41.495c11.269-2.556,24.213-3.556,33.259-5.508
		c15.302-3.299,9.673-23.354-3.388-25.031c-24.133-3.104-48.158-6.636-72.174-10.539c-11.486-1.865-19.028,8.171-14.379,18.703
		c10.439,23.649,22.565,45.797,36.869,67.342c6.393,9.63,24.854,7.077,23.705-6.418c-0.211-2.476-0.622-4.802-0.902-7.209
		c47.064,26.358,98.959,44.398,153.106,29.406C266.406,391.143,264.822,373.703,253.505,374.738z"/>
</g>
<g>
</g>
<g>
</g>
<g>
</g>
<g>
</g>
<g>
</g>
<g>
</g>
<g>
</g>
<g>
</g>
<g>
</g>
<g>
</g>
<g>
</g>
<g>
</g>
<g>
</g>
<g>
</g>
<g>
</g>
</svg>
