<?xml version="1.0" encoding="iso-8859-1"?>
<!-- Generator: Adobe Illustrator 19.0.0, SVG Export Plug-In . SVG Version: 6.00 Build 0)  -->
<svg version="1.1" id="Capa_1" xmlns="http://www.w3.org/2000/svg" xmlns:xlink="http://www.w3.org/1999/xlink" x="0px" y="0px"
	 viewBox="0 0 415.828 415.828" style="enable-background:new 0 0 415.828 415.828;" xml:space="preserve">
<g>
	<path d="M202.205,0.688C78.246,10.969-16.156,126.405,4.943,250.192c15.812,92.78,109.268,178.031,204.22,164.144
		c101.989,3.067,205.416-80.411,204.679-187.083C413.007,106.96,331.779-10.06,202.205,0.688z M185.142,83.319
		c16.493-5.808,32.558-18.36,47.96-5.524c18.683,15.566,12.979,43.57-5.499,56.199c-20.87,14.262-51.852,1.492-53.926-24.99
		C172.911,99.23,177.87,90.404,185.142,83.319z M278.423,328.191c-0.498,4.697-1.073,9.369-1.719,14.029
		c-16.222,1.044-32.448,2.088-48.667,3.132c-13.587,0.873-30.583,4.221-45.199,3.555c-1.811-18.789,2.167-41.879,2.775-59.111
		c0.656-18.435,0.834-34.924-4.149-52.187c3.02-5.968,1.155-13.939-6.48-15.925c-8.708-2.266-16.294,0.005-24.353,1.317
		c0.072-3.477-0.055-7.428-0.04-6.995c-0.165-5.514-0.031-10.988,0.088-16.501c0.161-7.276,0.318-14.627,0.154-21.95
		c28.819,6.023,58.578,7.735,88.107,8.41c-3.776,40.887-0.902,82.901-0.164,123.84c0.113,6.382,4.931,10.206,10.885,10.884
		c9.876,1.124,19.65,1.584,29.54,1.664C278.881,324.688,278.56,326.904,278.423,328.191z"/>
</g>
<g>
</g>
<g>
</g>
<g>
</g>
<g>
</g>
<g>
</g>
<g>
</g>
<g>
</g>
<g>
</g>
<g>
</g>
<g>
</g>
<g>
</g>
<g>
</g>
<g>
</g>
<g>
</g>
<g>
</g>
</svg>
