<?xml version="1.0" encoding="iso-8859-1"?>
<!-- Generator: Adobe Illustrator 19.0.0, SVG Export Plug-In . SVG Version: 6.00 Build 0)  -->
<svg version="1.1" id="Capa_1" xmlns="http://www.w3.org/2000/svg" xmlns:xlink="http://www.w3.org/1999/xlink" x="0px" y="0px"
	 viewBox="0 0 405.427 405.427" style="enable-background:new 0 0 405.427 405.427;" xml:space="preserve">
<g>
	<path d="M149.981,278.835c-3.022-2.246-6.441-1.032-8.682,1.368c-5.533,0.426-10.456,5.286-14.122,9.966
		c-3.486,4.449-6.272,9.155-11.031,12.432c-2.878,1.983-6.792,3.325-10.58,3.512c-0.209-0.726-0.56-1.463-1.127-2.199
		c-21.352-27.643-27.786-60.324-36.045-93.836c-2.466-10.018-9.52-30.92,4.932-36.635c4.31-1.705,12.304,1.729,17.005,1.38
		c6.012-0.449,10.047-1.639,13.965-4.263c3.468,0.249,7.237-1.456,8.477-5.301c10.04-31.127-0.562-88.91-33.25-104.231
		c-1.028-0.479-2.217-0.41-3.362-0.123c-0.476-0.075-0.875-0.328-1.401-0.238C-32.271,78.711-0.199,194.753,24.57,268.002
		c28.413,84.017,55.03,156.593,155.478,127.104c1.959,0.117,3.938-0.527,5.532-2.513l2.206-2.747c1.092-1.361,1.14-2.804,0.68-4.226
		C199.896,346.181,182.546,303.044,149.981,278.835z"/>
	<path d="M390.686,119.948C343.114,6.918,191.713-35.768,96.85,46.292c-9.568,8.276,2.681,23.068,13.215,17.13
		c87.32-49.235,196.761-44.034,249.373,52.907c56.144,103.455-14.386,241.298-139.047,224.904c-17.093-2.246-16.926,24.643,0,26.869
		C357.608,386.149,440.89,239.238,390.686,119.948z"/>
	<path d="M183.377,215.991c-6.685,0.263-13.171,0-19.639-0.6c8.429-21.977,19.292-42.912,27.236-65.122
		c5.519-15.427,8.82-35.882-6.759-46.939c-27.782-19.716-64.123,24.531-34.799,42.627c2.77,1.709,7.237,0.761,8.722-2.287
		c1.275-2.619,5.098-20.587,10.129-10.264c2.85,5.848-10.535,27.557-12.928,32.973c-8.219,18.616-16.689,36.876-22.753,56.343
		c-2.058,6.608,2.435,15.088,9.383,16.526c13.855,2.872,27.231,4.169,41.409,3.611C200.609,242.183,200.697,215.31,183.377,215.991z
		"/>
	<path d="M271.308,174.952c-0.836,0.08-1.672,0.15-2.509,0.23c-1.797-25.689-4.279-51.38-6.081-76.855
		c-1.107-15.663-20.693-17.461-26.316-3.562c-8.107,20.028-16.215,40.055-24.321,60.084c-4.108,10.153-16.564,28.36-12.618,39.804
		c5.018,14.558,25.477,14.353,44.04,11.763c1.114,10.685,2.382,21.341,4.043,31.909c2.133,13.579,23.196,9.836,23.388-3.167
		c0.163-11.046-0.075-22.127-0.536-33.22c0.289-0.035,0.64-0.092,0.91-0.117C288.369,200.176,288.533,173.284,271.308,174.952z
		 M239.013,177.933c-3.219,0.27-6.439,0.54-9.656,0.809c2.675-8.685,6.105-17.457,9.931-26.211
		c0.509,8.415,1.109,16.812,1.735,25.217C240.353,177.807,239.683,177.877,239.013,177.933z"/>
	<path d="M330.709,199.845c-6.56-1.236-11.999,0.695-16.501,4.378c-1.659-11.732-3.763-23.381-6.968-34.662
		c-2.316-8.155-13.714-6.083-14.281,1.934c-1.709,24.176,1.313,48.815,3.733,72.862c1.44,14.287,20.455,14.115,22.109,0
		c0.553-4.725,1.888-9.223,3.688-13.612c1.767-4.312,1.701-7.83,3.835-4.005c4.039,7.235,1.128,18.402,4.39,26.472
		c2.517,6.229,11.986,9.286,15.696,2.05C354.087,240.293,351.824,203.826,330.709,199.845z"/>
</g>
<g>
</g>
<g>
</g>
<g>
</g>
<g>
</g>
<g>
</g>
<g>
</g>
<g>
</g>
<g>
</g>
<g>
</g>
<g>
</g>
<g>
</g>
<g>
</g>
<g>
</g>
<g>
</g>
<g>
</g>
</svg>
