<?xml version="1.0" encoding="iso-8859-1"?>
<!-- Generator: Adobe Illustrator 19.0.0, SVG Export Plug-In . SVG Version: 6.00 Build 0)  -->
<svg version="1.1" id="Capa_1" xmlns="http://www.w3.org/2000/svg" xmlns:xlink="http://www.w3.org/1999/xlink" x="0px" y="0px"
	 viewBox="0 0 417.578 417.578" style="enable-background:new 0 0 417.578 417.578;" xml:space="preserve">
<g>
	<path d="M121.484,14.363c-5.821-9.972-20.368-12.098-28.525-3.675C81.053,22.978,81.76,41.137,82.045,57.451
		c0.284,16.421,1.037,33.819,10.268,47.918c7.813,11.939,26.162,10.106,30.39-3.971c4.317-14.374,2.209-29.176,2.416-43.947
		C125.326,42.499,129.348,27.828,121.484,14.363z"/>
	<path d="M339.236,62.889c-0.16-15.933,1.513-30.343-9.552-42.924c-8.465-9.623-22.064-5.032-28.528,3.676
		c-8.814,11.873-5.318,28.061-4.142,41.982c1.178,13.991,2.167,29.366,7.04,42.592c5.318,14.437,26.66,16.298,31.246,0
		C339.339,93.86,339.384,77.72,339.236,62.889z"/>
	<path d="M414.903,69.616c-3.435-20.424-19.672-24.529-38.242-18.547c-2.072,0.669-3.612,1.768-4.874,3.037
		c-4.027,1.99-7.366,5.559-7.828,10.553c-1.196,13.003,2.86,28.618-0.888,41.267c-4.719,15.935-25.072,22.178-39.503,25.842
		c-45.503,11.549-46.681-39.646-47.85-70.83c-0.139-3.764-2.786-6.063-5.8-7.183c-1.875-1.682-4.282-2.936-7.533-3.085
		c-31.639-1.451-62.491-1.269-94.063,1.365c-2.508,0.209-4.397,1.153-5.978,2.35c-6.715-0.204-13.191,4.013-12.945,13.078
		c0.793,29.145,1.279,73.966-41.363,67.094c-36.49-5.881-40.54-46.256-39.859-75.937c0.13-5.734-6.194-8.818-10.783-6.952
		c-0.575-0.579-0.746-1.295-1.569-1.769c-10.949-6.295-23.017-8.826-35.364-6.135c-6.935,1.51-9.57,7.43-8.871,13.106
		c-17.706,23.519-9.072,69.376-9.543,94.721c-1.471,79.176-5.442,160.592,4.386,239.246c0.923,7.413,6.65,11.271,12.228,11.318
		c0.104,0.024,0.163,0.092,0.27,0.114c61.467,12.536,121.49,1.683,183.522,2.782c65.55,1.161,128.397,8.915,194.261,6.66
		c7.529-0.258,11.624-4.398,12.966-9.426c1.91-1.797,3.266-4.185,3.514-7.017c6.221-71.11,2.795-144.488-1.468-217.276
		C415.78,143.173,420.748,104.372,414.903,69.616z M39.098,383.272c-0.997-70.238,0.589-140.255,0.758-210.451
		c2.638-0.175,5.303-0.379,7.808-0.487c6.929-0.297,13.65-0.445,19.05-3.384c100.615,9.112,210.679,3.245,310.368-2.329
		c0.568-0.031,0.965-0.27,1.486-0.36c0.627,72.754,1.879,146.148,11.582,217.045C272.732,379.887,156.522,383.314,39.098,383.272z"
		/>
	<path d="M85.729,195.029c-18.547,0-18.576,28.822,0,28.822C104.275,223.851,104.305,195.029,85.729,195.029z"/>
	<path d="M143.086,192.309c-19.094,0-19.127,29.674,0,29.674C162.177,221.982,162.213,192.309,143.086,192.309z"/>
	<path d="M202.439,188.903c-0.61,0.182-1.22,0.363-1.827,0.545c-7.861,2.346-14.401,11.549-11.316,19.929
		c0.198,0.54,0.4,1.079,0.596,1.62c3.659,9.935,16.148,17.96,26.387,10.733c5.537-3.91,9.028-8.411,8.894-15.507
		C224.956,194.803,213.838,185.5,202.439,188.903z"/>
	<path d="M263.657,189.696c-0.592,0.294-1.187,0.587-1.779,0.882c-12.525,6.225-12.525,26.91,0,33.135
		c0.592,0.293,1.187,0.588,1.779,0.883c13.449,6.685,30.408-1.346,30.408-17.45C294.065,191.04,277.106,183.01,263.657,189.696z"/>
	<path d="M355.467,196.657c-0.829-0.705-1.652-1.409-2.475-2.113c-17.499-14.939-40.155,7.695-25.206,25.202
		c0.705,0.826,1.409,1.651,2.114,2.476C345.069,239.988,373.238,211.833,355.467,196.657z"/>
	<path d="M338.093,257.151c-15.361,0-15.387,23.877,0,23.877C353.457,281.028,353.484,257.151,338.093,257.151z"/>
	<path d="M278.444,250.355c-15.254,0-15.278,23.705,0,23.705C293.698,274.06,293.722,250.355,278.444,250.355z"/>
	<path d="M211.914,255.856c-22.938,0-22.976,35.645,0,35.645C234.848,291.501,234.884,255.856,211.914,255.856z"/>
	<path d="M145.378,256.043c-16.788,0-16.818,26.094,0,26.094C162.169,282.137,162.195,256.043,145.378,256.043z"/>
	<path d="M81.139,256.128c-16.678,0-16.705,25.922,0,25.922C97.82,282.05,97.85,256.128,81.139,256.128z"/>
	<path d="M81.139,325.451c-21.946,0-21.981,34.109,0,34.109C103.088,359.56,103.126,325.451,81.139,325.451z"/>
	<path d="M128.936,335.576c-0.541,0.894-1.086,1.788-1.631,2.683c-6.715,11.036,6.688,24.453,17.736,17.732
		c0.894-0.544,1.786-1.086,2.679-1.631C166.986,342.638,140.735,316.185,128.936,335.576z"/>
	<path d="M209.616,328.776c-17.665,0-17.695,27.457,0,27.457C227.286,356.233,227.316,328.776,209.616,328.776z"/>
	<path d="M254.479,327.932c-0.468,0.937-0.941,1.873-1.41,2.809c-8.545,17.03,8.616,34.226,25.664,25.668
		c0.939-0.471,1.877-0.94,2.813-1.411C311.167,340.132,269.449,298.103,254.479,327.932z"/>
	<path d="M333.504,327.326c-19.53,0-19.565,30.357,0,30.357C353.039,357.684,353.072,327.326,333.504,327.326z"/>
</g>
<g>
</g>
<g>
</g>
<g>
</g>
<g>
</g>
<g>
</g>
<g>
</g>
<g>
</g>
<g>
</g>
<g>
</g>
<g>
</g>
<g>
</g>
<g>
</g>
<g>
</g>
<g>
</g>
<g>
</g>
</svg>
