<?xml version="1.0" encoding="iso-8859-1"?>
<!-- Generator: Adobe Illustrator 19.0.0, SVG Export Plug-In . SVG Version: 6.00 Build 0)  -->
<svg version="1.1" id="Capa_1" xmlns="http://www.w3.org/2000/svg" xmlns:xlink="http://www.w3.org/1999/xlink" x="0px" y="0px"
	 viewBox="0 0 417.079 417.079" style="enable-background:new 0 0 417.079 417.079;" xml:space="preserve">
<g>
	<path d="M114.134,14.541c-4.549,21.189-5.82,45.6-1.911,66.651c2.47,13.299,20.098,8.185,21.54-2.916
		c2.719-20.932,3.871-42.908,5.184-63.997C140.038-3.23,113.075,1.057,114.134,14.541z"/>
	<path d="M311.96,14.817c-2.405-8.696-16.127-11.597-20.409-2.667c-5.188,10.815-4.272,23.747-3.152,35.522
		c1.046,10.99,2.451,21.412,9.709,30.09c2.467,2.949,8.562,2.343,10.145-1.308c4.073-9.397,3.656-18.676,3.866-28.782
		C312.342,36.922,314.84,25.228,311.96,14.817z"/>
	<path d="M412.232,169.331c1.198-77.701,24.686-158.534-72.522-133.403c-5.955-2.215-13.45,0.49-12.748,8.596
		c1.63,18.802,5.127,65.296-26.746,60.465c-14.231-2.158-21.754-15.663-25.74-28.043c-1.425-4.426-8.867-28.562-6.428-31.595
		c1.918-2.382,1.195-5.439-1.724-6.527c-2.771-1.033-4.92-0.967-6.654-0.237c-29.281-12.722-72.541-8.471-103.283-2.883
		c-3.636,0.661-5.179,3.196-5.284,5.967c-0.08,0.174-0.264,0.243-0.33,0.43c-6.995,19.339-1.066,60.467-30.432,62.451
		c-34.966,2.364-25.271-44.629-29.779-65.998c-0.381-1.806-1.427-3.174-2.78-4.145c-3.017-6.24-11.454-7.233-18.065-7.831
		c-14.805-1.34-30.011-1.419-44.861-0.857c-4.797,0.181-7.407,3.126-8.265,6.562C-7.686,45.271,1.838,89.724,1.855,112.408
		C1.92,193.785,2.533,275.99,9.388,357.151c-6.354,36.619,6.549,49.687,44.571,51.954c103.961,6.204,209.657,3.833,313.896,3.957
		c4.574,0.431,9.15,0.772,13.722,1.231c3.846,0.386,6.405-1.162,7.988-3.453c16.11-3.314,16.88-13.99,20.698-30.326
		C424.913,317.814,411.233,234.124,412.232,169.331z M37.128,372.837c6.787-78.566,1.87-160.053,1.989-239.308
		c110.983,8.38,224.288,6.046,335.649,6.005c0.026,75.574-3.836,153.737,4.236,229.006
		C265.789,372.865,149.578,361.738,37.128,372.837z"/>
	<path d="M240.79,204.066c1.327-9.402,7.94-28.02,4.152-37.628c-2.55-6.465-8.243-8.189-14.586-8.878
		c-15.881-1.721-33.225,0.647-49.176,1.179c-4.246,0.143-8.641,3.7-8.311,8.311c2.337,32.61,5.095,65.387,15.757,96.502
		c1.222,3.564,5.262,4.833,8.354,3.916c2.509,0.793,5.354,0.992,7.715,1.151c7.626,0.515,15.743,1.426,23.272,0.136
		c5.565-0.953,6.621-8.298,3.469-12.066c0.085-0.185,0.215-0.31,0.291-0.504C237.909,240.043,238.37,221.213,240.79,204.066z"/>
	<path d="M235.853,302.853c0.346-4.451-4.058-8.243-8.247-8.247c-9.404-0.009-24.567-1.476-33.553,3.758
		c-3.758-0.47-7.936,1.471-9.236,5.628c-3.593,11.494-1.891,26.099-2.206,38.113c-0.157,5.995,5.767,9.763,11.213,8.54
		c9.922-2.225,19.885-2.477,29.89-0.598c5.21,0.977,11.222-2.316,10.934-8.329C234.021,328.656,234.846,315.865,235.853,302.853z"/>
</g>
<g>
</g>
<g>
</g>
<g>
</g>
<g>
</g>
<g>
</g>
<g>
</g>
<g>
</g>
<g>
</g>
<g>
</g>
<g>
</g>
<g>
</g>
<g>
</g>
<g>
</g>
<g>
</g>
<g>
</g>
</svg>
