<?xml version="1.0" encoding="iso-8859-1"?>
<!-- Generator: Adobe Illustrator 19.0.0, SVG Export Plug-In . SVG Version: 6.00 Build 0)  -->
<svg version="1.1" id="Capa_1" xmlns="http://www.w3.org/2000/svg" xmlns:xlink="http://www.w3.org/1999/xlink" x="0px" y="0px"
	 viewBox="0 0 425.84 425.84" style="enable-background:new 0 0 425.84 425.84;" xml:space="preserve">
<g>
	<path d="M305.004,323.363c0.072-0.906-0.042-1.854-0.604-2.808c-9.367-15.934-22.886-30.396-35.404-43.91
		c-12.022-12.98-24.846-26.528-40.116-35.752c-1.517-4.035-7.45-6.868-10.748-2.81c-12.736,15.671-26.456,30.472-39.852,45.572
		c-11,12.398-28.125,25.805-32.496,42.146c-0.214,0.794-0.005,1.614,0.351,2.374c0.082,0.454,0.214,0.904,0.515,1.299
		c5.624,7.413,22.447,6.465,36.079,5.199c-0.45,9.553,0.746,19.289,0.705,28.834c-0.049,11.173-0.757,22.224-1.788,33.345
		c-0.072,0.77,0.04,1.458,0.278,2.07c3.58,19.237,70.38,9.874,81.688,6.899c0.987-0.26,1.664-0.767,2.198-1.355
		c3.137,0.388,6.538-1.365,6.44-5.435c-0.521-21.719,1.13-43.532,0.254-65.21c-0.008-0.227-0.109-0.41-0.15-0.622
		c9.298-0.018,18.595-0.077,27.894-0.027C305.864,333.203,307.4,326.928,305.004,323.363z"/>
	<path d="M283.141,92.668c-9.299,0.05-18.597-0.009-27.894-0.027c0.04-0.213,0.142-0.395,0.15-0.622
		c0.875-21.677-0.775-43.49-0.254-65.21c0.098-4.071-3.303-5.824-6.44-5.436c-0.534-0.589-1.21-1.096-2.197-1.355
		c-11.309-2.975-78.108-12.338-81.689,6.899c-0.237,0.612-0.35,1.3-0.278,2.07c1.031,11.122,1.74,22.172,1.788,33.345
		c0.041,9.545-1.155,19.281-0.705,28.834c-13.633-1.266-30.454-2.213-36.079,5.2c-0.3,0.396-0.432,0.845-0.515,1.299
		c-0.357,0.761-0.564,1.581-0.351,2.374c4.371,16.34,21.497,29.747,32.496,42.146c13.397,15.099,27.116,29.901,39.853,45.571
		c3.298,4.058,9.231,1.225,10.747-2.811c15.271-9.224,28.095-22.772,40.117-35.752c12.518-13.514,26.037-27.976,35.404-43.91
		c0.56-0.954,0.676-1.902,0.604-2.808C290.291,98.912,288.756,92.637,283.141,92.668z"/>
	<path d="M77.555,143.226c0.05,9.299-0.009,18.596-0.027,27.894c-0.213-0.04-0.395-0.142-0.622-0.15
		c-21.677-0.875-43.49,0.775-65.209,0.254c-4.071-0.098-5.824,3.302-5.436,6.44c-0.589,0.534-1.096,1.211-1.356,2.197
		C1.93,191.17-7.433,257.969,11.804,261.55c0.612,0.237,1.3,0.35,2.07,0.278c11.122-1.031,22.172-1.74,33.346-1.788
		c9.545-0.042,19.281,1.155,28.834,0.705c-1.266,13.633-2.213,30.454,5.2,36.079c0.396,0.3,0.845,0.432,1.3,0.515
		c0.761,0.357,1.581,0.565,2.375,0.351c16.34-4.371,29.747-21.497,42.146-32.496c15.099-13.397,29.901-27.116,45.571-39.853
		c4.058-3.298,1.225-9.231-2.811-10.748c-9.224-15.27-22.772-28.094-35.752-40.116c-13.514-12.518-27.976-26.037-43.91-35.404
		c-0.954-0.56-1.902-0.676-2.808-0.604C83.799,136.077,77.524,137.612,77.555,143.226z"/>
	<path d="M338.477,138.471c-0.907-0.072-1.854,0.043-2.809,0.604c-15.934,9.367-30.396,22.886-43.91,35.404
		c-12.979,12.022-26.527,24.846-35.752,40.116c-4.036,1.517-6.869,7.45-2.81,10.748c15.67,12.737,30.471,26.456,45.571,39.853
		c12.399,10.999,25.806,28.125,42.146,32.496c0.794,0.213,1.614,0.005,2.375-0.351c0.455-0.083,0.904-0.215,1.3-0.515
		c7.412-5.625,6.465-22.447,5.199-36.079c9.553,0.45,19.289-0.747,28.833-0.705c11.174,0.048,22.224,0.757,33.346,1.788
		c0.77,0.072,1.458-0.04,2.07-0.278c19.237-3.581,9.874-70.381,6.899-81.689c-0.26-0.987-0.767-1.663-1.355-2.197
		c0.388-3.138-1.364-6.538-5.435-6.44c-21.719,0.521-43.533-1.13-65.21-0.254c-0.228,0.008-0.41,0.11-0.623,0.15
		c-0.018-9.298-0.077-18.595-0.027-27.894C348.316,137.612,342.041,136.077,338.477,138.471z"/>
</g>
<g>
</g>
<g>
</g>
<g>
</g>
<g>
</g>
<g>
</g>
<g>
</g>
<g>
</g>
<g>
</g>
<g>
</g>
<g>
</g>
<g>
</g>
<g>
</g>
<g>
</g>
<g>
</g>
<g>
</g>
</svg>
