<?xml version="1.0" encoding="iso-8859-1"?>
<!-- Generator: Adobe Illustrator 19.0.0, SVG Export Plug-In . SVG Version: 6.00 Build 0)  -->
<svg version="1.1" id="Capa_1" xmlns="http://www.w3.org/2000/svg" xmlns:xlink="http://www.w3.org/1999/xlink" x="0px" y="0px"
	 viewBox="0 0 410.557 410.557" style="enable-background:new 0 0 410.557 410.557;" xml:space="preserve">
<g>
	<path d="M376.085,249.163c-1.5-75.869-2.801-151.742-4.373-227.61c-0.06-2.89-1.352-4.943-3.147-6.282
		c0.149-4.165-2.413-8.404-7.787-8.339c-84.484,1.003-168.67-1.292-253.079-4.441c-16.911-0.631-55.667-9.234-65.144,9.726
		c-4.167-0.288-8.59,2.179-8.647,7.564c-1.212,112.602-6.601,226.227-3.403,338.759c1.311,46.105,7.015,53.137,46.856,47.199
		c90.037,11.118,189.026-0.336,278.772-1.407c1.604,4.137,7.971,5.914,10.56,1.135C391.258,360.118,377.073,299.153,376.085,249.163
		z M83.655,393.533C24.69,376.585,46.405,267.72,47.02,217.389c0.81-65.86,1.987-131.716,2.767-197.577
		c30.965-16.493,117.812,1.639,149.902,2.468c51.771,1.336,103.541,1.481,155.322,0.909c1.182,61.102,2.558,122.199,3.829,183.298
		c1.169,56.171,12.313,127.6-0.644,183.778C269.981,391.162,172.425,381.821,83.655,393.533z"/>
	<path d="M141.028,75.379c-7.77-3.354-14.212-0.92-18.444,3.576c-12.092,4.766-11.749,27.019,4.313,31.348
		C148.137,116.029,162.655,84.715,141.028,75.379z"/>
	<path d="M129.651,122.517c-26.087,3.494-29.314,35.377-24.664,55.785c0.094,0.421,0.422,0.524,0.584,0.864
		c0.122,0.281,0.305,0.492,0.499,0.742c0.534,0.697,1.078,1.223,1.848,1.449c0.007,0.002,0.01,0.012,0.017,0.015
		c13.02,4.428,27.645,6.032,41.097,2.768c1.609-0.391,2.734-1.317,3.581-2.43c2.886-0.762,5.409-2.992,5.687-6.807
		C159.785,154.387,159.777,118.482,129.651,122.517z"/>
	<path d="M315.779,79.2c-34.573-6.063-72.301-5.086-106.586,2.374c-6.338,1.379-4.885,11.346,1.52,11.24
		c34.563-0.576,68.563-0.012,103.089,0.997C321.997,94.051,324.168,80.672,315.779,79.2z"/>
	<path d="M315.526,120.561c-1.663-0.231-3.328-0.461-4.991-0.692c-0.469-0.064-0.777,0.196-1.217,0.204
		c-32.78-1.778-65.779-3.579-98.589-3.46c-6.461,0.023-6.002,8.922,0,9.727c34.007,4.558,68.489,7.12,102.702,9.729
		C322.181,136.736,324.376,121.785,315.526,120.561z"/>
	<path d="M316.057,167.269c-8.846-9.139-35.234-2.602-46.771-2.19c-21.509,0.767-43.258,0.664-64.567,3.838
		c-3.343,0.498-3.281,6.13,0,6.69c17.378,2.967,35.035,3.316,52.632,3.759c9.281,0.233,18.566,0.379,27.846,0.448
		c5.302,0.022,10.606,0.029,15.908,0.022c6.707,1.186,9.061,0.865,7.294-0.88c0.678,0.246,1.251,0.636,2.036,0.726l0.457,0.053
		C317.507,180.498,320.08,171.425,316.057,167.269z"/>
	<path d="M306.489,208.312c-28.805-8.731-67.401-6.245-97.052-3.38c-5.965,0.576-6.084,8.94,0,9.368
		c15.916,1.121,31.849,1.288,47.762,2.651c15.591,1.336,32.023,4.88,47.599,3.864C311.843,220.355,313.579,210.461,306.489,208.312z
		"/>
	<path d="M318.267,251.035c-16.092-10.421-58.192-1.999-76.249-2.53c-49.533-1.458-98.753-1.64-148.205,2.103
		c-5.759,0.436-5.92,9.068,0,9.082c43.986,0.118,87.983-0.079,131.951,1.383c17.845,0.593,35.704,1.933,53.559,2.078
		c7.932,0.133,15.859,0.001,23.778-0.395c4.205,1.12,6.976,0.857,8.575-0.535c0.084,0.053,0.169,0.108,0.258,0.161
		c2.019,1.265,4.927,0.826,6.576-0.849l0.981-0.995C322.325,257.666,321.531,253.15,318.267,251.035z"/>
	<path d="M316.107,287.677c-75.936,1.305-153.193,1.074-228.722,9.47c-4.282,0.475-4.456,6.547,0,6.794
		c75.817,4.215,152.885-0.33,228.722-3.242c-0.005-0.046-0.01-0.093-0.017-0.139C323.736,300.756,324.992,287.525,316.107,287.677z"
		/>
	<path d="M313.733,335.76c-75.137-5.548-153.938-1.947-228.867,5.427c-4.286,0.421-4.45,6.628,0,6.795
		c75.564,2.827,153.368,4.748,228.867,0.58C322.003,348.105,321.933,336.365,313.733,335.76z"/>
</g>
<g>
</g>
<g>
</g>
<g>
</g>
<g>
</g>
<g>
</g>
<g>
</g>
<g>
</g>
<g>
</g>
<g>
</g>
<g>
</g>
<g>
</g>
<g>
</g>
<g>
</g>
<g>
</g>
<g>
</g>
</svg>
