<?xml version="1.0" encoding="iso-8859-1"?>
<!-- Generator: Adobe Illustrator 19.0.0, SVG Export Plug-In . SVG Version: 6.00 Build 0)  -->
<svg version="1.1" id="Capa_1" xmlns="http://www.w3.org/2000/svg" xmlns:xlink="http://www.w3.org/1999/xlink" x="0px" y="0px"
	 viewBox="0 0 426.06 426.06" style="enable-background:new 0 0 426.06 426.06;" xml:space="preserve">
<g>
	<path d="M209.403,113.018c-60.769,7.411-25.55,107.71,11.638,95.122c15.234-0.642,25.554-38.348,25.948-49.171
		C247.779,137.129,235.165,109.876,209.403,113.018z"/>
	<path d="M250.696,208.839c-0.948,0.016-1.548,0.532-2.253,0.901c-2.364,0.162-4.685,1.134-6.163,3.351
		c-16.882,25.287-43.43,22.654-60.668-1.004c-2.068-2.839-5.31-2.791-7.49-1.199c-19.575-4.916-38.964,17.564-47.309,32.994
		c-12.784,23.638-16.135,56.879-11.046,82.938c0.262,1.346,1.016,2.355,1.979,3.102c-0.12,1.996,0.727,3.929,3.348,4.369
		c56.6,9.457,118.557,6.809,175.594,2.624c4.213-0.31,6.424-3.458,6.717-6.702c1.255-0.798,2.312-1.961,2.836-3.601
		C319.173,286.255,305.386,207.894,250.696,208.839z"/>
	<path d="M383.882,93.192c-0.073-0.161-0.078-0.326-0.165-0.484c-10.982-20.183-32.677-36.871-48.638-53.317
		c-12.428-12.809-26.55-34.947-45.196-37.345c-0.081-0.011-0.147,0.096-0.23,0.096c-1.273-1.337-3.021-2.201-5.185-2.138
		c-75.157,2.147-151.175,3.613-226.224,7.5c-1.615,0.083-2.842,0.627-3.895,1.326c-2.47-2.463-7.415-2.238-8.42,1.995
		c-14.459,60.818-7.346,126.143-6.194,188.142c1.273,68.486-2.387,139.184,5.469,207.236c0.234,2.019,1.124,3.542,2.266,4.73
		c0.216,2.777,2.177,5.5,5.893,5.951c100.96,12.245,214.839,11.841,315.992,1.138c1.089-0.115,2.025-0.431,2.837-0.869
		c2.3,0.393,4.58-0.568,5.011-3.66c14.206-101.928,7.484-209.554,11.876-312.447C389.257,96.841,386.905,94.227,383.882,93.192z
		 M366.305,404.678c-99.625-5.738-206.193-6.63-305.968-0.509c2.435-126.994-1.342-255.767-4.358-382.798
		c0.702,0.275,1.404,0.555,2.264,0.637c74.099,6.979,154.489,3.385,228.185-6.812c-1.403,18.045-1.635,36.067-1.339,54.189
		c0.169,10.2-3.532,29.885,3.122,38.652c6.27,8.261,22.316,8.476,31.667,9.408c9.478,0.945,19.014,1.051,28.508,0.257
		c3.259-0.273,7.244-0.037,10.471-0.585c3.951,0.683,7.986,1.913,11.939,1.915C366.071,212.908,356.347,311.582,366.305,404.678z"/>
</g>
<g>
</g>
<g>
</g>
<g>
</g>
<g>
</g>
<g>
</g>
<g>
</g>
<g>
</g>
<g>
</g>
<g>
</g>
<g>
</g>
<g>
</g>
<g>
</g>
<g>
</g>
<g>
</g>
<g>
</g>
</svg>
