<?xml version="1.0" encoding="iso-8859-1"?>
<!-- Generator: Adobe Illustrator 19.0.0, SVG Export Plug-In . SVG Version: 6.00 Build 0)  -->
<svg version="1.1" id="Capa_1" xmlns="http://www.w3.org/2000/svg" xmlns:xlink="http://www.w3.org/1999/xlink" x="0px" y="0px"
	 viewBox="0 0 419.552 419.552" style="enable-background:new 0 0 419.552 419.552;" xml:space="preserve">
<path d="M378.848,28.583c-0.414-5.518-4.053-8.826-8.255-10.043c-0.459-4.374-3.569-8.607-9.394-9.305
	c-80.216-9.612-168.412-11.7-251.381-6.362c-18.783-0.413-37.47,0.23-55.747,3.459c-2.622,0.463-3.866,2.305-4.5,4.392
	c-0.493,0.313-1.01,0.473-1.475,0.924C40.246,19.273,40.259,33,40.202,43.452c-0.035,6.524,0.859,12.711,2.334,18.769
	c-7.984,48.215-5.875,99.426-6.78,147.385c-1.213,64.322-2.775,129.415,5.934,193.24c0.515,3.768,2.54,5.993,5.105,7.163
	c1.294,1.212,2.884,2.222,5.179,2.629c17.721,3.138,36.515,4.895,54.519,4.645c4.343-0.06,7.467-1.676,9.505-4.04
	c75.412,4.133,152.887,4.171,227.648,1.352c0.693,0.503,1.175,1.229,2.101,1.445c4.522,1.057,9.045,2.116,13.567,3.173
	c7.398,1.729,12.814-3.325,13.611-10.369C386.789,286.347,388.053,151.371,378.848,28.583z M94.61,88.48
	c35.354-1.885,70.811-2.337,106.281-2.345c0.052,6.966,0.6,13.833,1.758,20.555c0.305,2.447,0.727,4.9,1.108,7.346
	c-36.484,0.407-72.955,0.974-109.352,2.832C94.477,107.406,94.503,97.939,94.61,88.48z M94.243,139.133
	c75.032,8.126,151.727,5.247,227.045,1.335c0.037,5.45,0.235,10.844,0.312,16.291c-51.803-3.87-104.828-2.055-156.539-0.511
	c-14.76,0.44-48.963-3.057-70.926,3.117C94.169,152.621,94.204,145.876,94.243,139.133z M94.003,183.38
	c74.84,3.827,153.054,3.38,228.103-0.121c0.089,4.164,0.161,8.31,0.24,12.481c-34.599-2.402-73.053,5.647-107.214,6.619
	c-40.302,1.148-81.228-1.824-121.286,2.893C93.894,197.96,93.964,190.671,94.003,183.38z M93.711,224.469
	c46.681,6.173,226.711,13.826,224.17-9.021c0.461,4.137,2.272,7.539,5.028,9.686c0.013,0.732,0.026,1.478,0.042,2.209
	c0.163,7.362,0.238,14.789,0.295,22.244c-37.558-1.199-75.381,1.529-113.002,0.467c-38.415-1.084-78.525-7.688-116.855-4.357
	C93.467,238.62,93.65,231.549,93.711,224.469z M92.229,304.396c0.168-7.829,0.399-15.653,0.533-23.485
	c12.588,1.182,26.22,0.575,33.881,1.077c25.719,1.688,58.684,8.587,83.159-0.312c39.596,0.964,79.476-1.951,113.652-7.306
	c0.079,7.257,0.289,14.523,0.502,21.784c-42.711,3.713-85.157,4.672-128.09,4.18C161.946,299.945,125.614,296.797,92.229,304.396z
	 M209.602,346.442c0.796-5.256,1.492-10.559,2.042-15.91c39.637-1.073,79.302-5.253,113.648-9.284
	c0.587,8.279,1.469,16.497,2.528,24.673C288.787,346.253,249.125,345.747,209.602,346.442z"/>
<g>
</g>
<g>
</g>
<g>
</g>
<g>
</g>
<g>
</g>
<g>
</g>
<g>
</g>
<g>
</g>
<g>
</g>
<g>
</g>
<g>
</g>
<g>
</g>
<g>
</g>
<g>
</g>
<g>
</g>
</svg>
