<?xml version="1.0" encoding="iso-8859-1"?>
<!-- Generator: Adobe Illustrator 19.0.0, SVG Export Plug-In . SVG Version: 6.00 Build 0)  -->
<svg version="1.1" id="Capa_1" xmlns="http://www.w3.org/2000/svg" xmlns:xlink="http://www.w3.org/1999/xlink" x="0px" y="0px"
	 viewBox="0 0 406.301 406.301" style="enable-background:new 0 0 406.301 406.301;" xml:space="preserve">
<g>
	<path d="M329.432,166.115c-2.448-1.191-5.171-1.966-8.194-2.107c-19.497-0.903-39.202-1.326-58.916-1.689
		c4.739-46.949,7.708-99.404-1.509-143.725C258.522,7.583,245.697,3.951,236.48,7.701c-19.551-9.366-46.74-10.078-65.401-2.742
		c-1.388,0.545-2.632,1.378-3.806,2.302c-7.13-2.09-15.437,0.61-17.437,9.515c-6.026,26.803-2.515,55.38-3.271,82.816
		c-0.568,20.793-1.709,41.546-2.438,62.314c-25.724,0.226-51.389,0.5-76.816,0.716c-9.073,0.077-13.772,7.62-13.418,14.886
		c-0.816,2.946-0.695,6.171,0.94,8.958h-0.625c22.206,34.658,53.562,62.475,83.46,90.493c13.758,12.889,38.48,47.332,58.9,47.978
		c20.266,0.64,35.015-20.269,48.605-32.418c32.848-29.36,66.619-57.952,97.975-88.895c-0.077-0.046-0.157-0.092-0.234-0.138
		C356.046,190.68,345.715,167.965,329.432,166.115z"/>
	<path d="M379.202,282.352c-12.715-17.827-44.901-13.358-44.118,11.949c0.019,0.722,0.043,1.444,0.067,2.167
		c0.047,1.602,0.515,2.889,0.796,4.322c3.151,16.451,1.806,35.796,0.595,54.273c-55.402-0.401-110.81-0.802-166.212-1.204
		c-14.875-0.108-85.133,8.767-94.831-0.687c-13.334-13.003-5.749-48.029-8.364-68.221c-2.605-20.134-32.269-28.311-38.215-5.172
		c-8.107,31.53-13.625,68.853-9.123,101.294c1.19,8.584,9.725,14.426,17.08,17.082c41.626,15.033,101.235,4.591,145.307,4.911
		c59.268,0.43,118.535,0.859,177.803,1.289c13.324,0.095,24.494-11.332,24.56-24.561
		C384.673,354.213,395.335,304.98,379.202,282.352z"/>
</g>
<g>
</g>
<g>
</g>
<g>
</g>
<g>
</g>
<g>
</g>
<g>
</g>
<g>
</g>
<g>
</g>
<g>
</g>
<g>
</g>
<g>
</g>
<g>
</g>
<g>
</g>
<g>
</g>
<g>
</g>
</svg>
