<?xml version="1.0" encoding="iso-8859-1"?>
<!-- Generator: Adobe Illustrator 19.0.0, SVG Export Plug-In . SVG Version: 6.00 Build 0)  -->
<svg version="1.1" id="Capa_1" xmlns="http://www.w3.org/2000/svg" xmlns:xlink="http://www.w3.org/1999/xlink" x="0px" y="0px"
	 viewBox="0 0 410.782 410.782" style="enable-background:new 0 0 410.782 410.782;" xml:space="preserve">
<g>
	<path d="M268.607,146.451c-42.287-80.493-165.399-8.468-146.117,79.593c9.321,42.563,51.977,79.368,97.024,69.094
		c18.052-4.116,31.023-13.559,40.93-25.625c10.538,10.431,24.51,17.45,43.976,17.52c46.963,0.167,75.054-42.404,82.014-83.955
		C409.609,64.765,285.276-36.085,155.845,12.284C22.74,62.024-17.377,206.199,62.424,322.24
		c69.967,101.737,220.554,124.793,300.546,21.53c20.962-27.062-16.883-65.436-38.068-38.068
		C227.819,431.11,57.908,307.57,75.619,172.841C85.394,98.477,170.238,41.5,244.13,53.716c44.163,7.302,72.639,36.314,85.167,78.648
		c4.831,16.508,6.78,33.292,5.85,50.35c-28.172,18.597-44.072,22.528-48.297,12.5c0.883-8.109,1.543-16.153,1.85-23.846
		C289.304,156.279,279.742,148.315,268.607,146.451z M174.171,195.299c22.142-24.91,42.576-33.043,61.36-24.992
		c-0.044,0.394-0.268,0.658-0.3,1.061c-0.521,6.049-0.792,12.41-0.77,18.905C229.15,206.206,209.126,207.953,174.171,195.299z"/>
</g>
<g>
</g>
<g>
</g>
<g>
</g>
<g>
</g>
<g>
</g>
<g>
</g>
<g>
</g>
<g>
</g>
<g>
</g>
<g>
</g>
<g>
</g>
<g>
</g>
<g>
</g>
<g>
</g>
<g>
</g>
</svg>
