<?xml version="1.0" encoding="iso-8859-1"?>
<!-- Generator: Adobe Illustrator 19.0.0, SVG Export Plug-In . SVG Version: 6.00 Build 0)  -->
<svg version="1.1" id="Capa_1" xmlns="http://www.w3.org/2000/svg" xmlns:xlink="http://www.w3.org/1999/xlink" x="0px" y="0px"
	 viewBox="0 0 432.292 432.292" style="enable-background:new 0 0 432.292 432.292;" xml:space="preserve">
<g>
	<path d="M385.326,405.377c-34.553-25.638-70.585-49.745-106.13-73.961c-16.909-11.523-45.48-37.44-68.287-38.477
		c-22.066-1.005-47.168,26.027-63.438,37.332c-37.567,26.097-76.201,51.089-109.984,81.98c-4.419,4.041-2.481,9.178,1.341,11.937
		c1.673,3.005,4.144,5.554,7.998,5.737c13.818,0.66,27.649,1.002,41.485,1.115c3.102,1.013,6.493,1.594,10.39,1.036
		c1.454-0.208,2.715-0.833,4.129-1.13c91.331-0.259,183.019-9.256,274.625-3.72c5.969,0.362,9.272-3.581,10.186-8.194
		C390.229,415.036,390.264,409.042,385.326,405.377z"/>
	<path d="M184.833,258.916c-56.852-33.678-103.377-71.649-153.452-114.234c-2.485-2.11-5.16-2.505-7.567-1.982
		c-2.958-1.331-6.572-0.859-7.13,3.176c-11.471,82.98-3.247,170.463-0.805,253.901c0.219,7.514,8.651,10.333,14.034,5.815
		c50.989-42.788,101.442-85.77,154.92-125.517C192.019,274.737,193.396,263.989,184.833,258.916z"/>
	<path d="M412.99,172.141c-0.032-11.102-0.035-22.195-0.105-33.321c-0.056-8.778-9.77-11.238-15.819-6.552
		c-53.213,41.234-108.248,80.448-155.486,128.735c-2.661,2.725-3.385,5.649-2.996,8.328c-1.775,2.262-2.284,5.439,0.321,7.613
		c27.742,23.164,58.804,41.158,85.532,65.836c25.405,23.453,50.34,43.165,80.866,59.673c0.202,0.108,0.353,0.005,0.551,0.096
		c5.767,3.25,12.939-1.366,13.546-7.929C426.14,321.642,415.094,245.742,412.99,172.141z"/>
	<path d="M385.75,80.053c4.419-19.672,1.425-41.631-0.621-61.043c-0.049-0.481-0.374-0.822-0.487-1.279
		c0.127-6.732-4.052-13.529-12.621-13.301c-73.984,1.969-151.487-2.743-227.165-0.531c-11.361-3.927-24.749-2.827-36.625-3.034
		C88.579,0.523,68.807-0.476,49.162,0.271c-5.408,0.204-9.269,4.235-9.586,9.586c-0.734,12.598-3.343,28.789-0.254,42.256
		c-3.677,27.335-2.696,55.747,0.508,82.691c0.547,4.601,4.348,6.902,7.92,6.849c0.989,1.195,2.23,2.137,3.748,2.705
		c6.233,17.113,35.019,31.338,46.137,39.479c36.904,27.027,75.346,52.308,115.335,74.515c1.292,0.716,2.541,1.041,3.741,1.128
		c2.089,1.674,4.92,2.088,7.871-0.147c54.515-41.225,104.867-89.09,158.238-132.003c3.947-3.173,3.844-7.881,1.814-11.761
		C389.597,106.203,387.105,90.938,385.75,80.053z M362.349,30.682c-0.212,4.14,0.032,8.427,0.262,12.72
		c-53.076-0.6-106.416,3.49-159.569,3.752c-45.067,0.222-90.476-1.855-135.188,3.872c-0.141-6.838-0.296-13.678-0.434-20.45
		C163.452,40.66,265.65,30.341,362.349,30.682z M250.234,209.691c-1.899-2.448-4.624-4.198-8.245-4.115
		c-20.789,0.471-42.918,4.101-63.371,9.951c-9.519-6.215-19.105-12.326-28.546-18.663c38.065,2.735,76.938,0.905,114.914-1.467
		C259.925,200.063,255.119,204.902,250.234,209.691z M286.76,176.055c-1.645-1.516-3.864-2.507-6.857-2.298
		c-51.756,3.625-103.86,1.207-155.443,5.571c-0.021,0.002-0.035,0.023-0.053,0.025c-8.989-6.256-17.989-12.496-26.904-18.856
		c-1.991-1.422-5.986-3.803-10.398-6.457c68.838,15.171,148.854,9.54,218.69,6.092C299.374,165.34,293.049,170.682,286.76,176.055z
		 M332.936,138.792c-1.857-1.83-4.426-3.004-7.882-2.756c-43.86,3.14-88.006,5.631-131.983,3.811
		c-42.882-1.773-85.779-10.096-128.669-6.926c0.656-4.993,1.249-9.998,1.701-15.035c45.261,6.902,220.19,10.147,279.905,10.823
		C341.642,131.978,337.301,135.451,332.936,138.792z M178.502,102.116c-32.319-1.165-76.974-10.8-111.184-2.748
		c0.212-5.37,0.515-10.722,0.575-16.114c42.336,13.511,90.986,5.418,135.033,4.878c53.259-0.653,106.398,1.135,159.615,2.905
		c0.148,3.605,0.882,7.186,1.253,10.782C302.06,102.871,240.235,104.339,178.502,102.116z"/>
</g>
<g>
</g>
<g>
</g>
<g>
</g>
<g>
</g>
<g>
</g>
<g>
</g>
<g>
</g>
<g>
</g>
<g>
</g>
<g>
</g>
<g>
</g>
<g>
</g>
<g>
</g>
<g>
</g>
<g>
</g>
</svg>
