<?xml version="1.0" encoding="iso-8859-1"?>
<!-- Generator: Adobe Illustrator 19.0.0, SVG Export Plug-In . SVG Version: 6.00 Build 0)  -->
<svg version="1.1" id="Capa_1" xmlns="http://www.w3.org/2000/svg" xmlns:xlink="http://www.w3.org/1999/xlink" x="0px" y="0px"
	 viewBox="0 0 429.267 429.267" style="enable-background:new 0 0 429.267 429.267;" xml:space="preserve">
<g>
	<path d="M387.796,152.041c0.619-2.821,0.311-5.82-1.471-8.561c-19.18-29.511-49.542-53.963-75.329-77.652
		C291.042,47.495,267.897,20.43,241.51,9.796c-2.524-4.529-7.665-5.926-12.646-4.781c-0.6-0.086-1.044-0.362-1.689-0.389
		C173.418,2.377,114.136-1.248,60.014,5.561c-4.802-8.949-19.896-7.032-21.074,5.27c-12.619,131.828-4.285,266.988,2.494,399.022
		c0.754,14.671,18.371,18.083,26.198,10.272c101.119,8.834,203.663,7.839,305.076,9.14c9.915,0.128,14.728-7.544,14.567-15.201
		c1.166-1.717,2.089-3.706,2.299-6.295c6.551-80.353,6.098-161.895,7.295-242.499C396.976,158.064,392.898,153.847,387.796,152.041z
		 M344.075,140.687c-14.828-0.574-29.799-0.234-44.3-0.465c-16.297-0.261-33.263-1.902-49.331,0.572
		c2.289-18.621-0.906-38.475-1.781-56.958c-0.564-11.917-1.186-23.807-2.077-35.673c13.847,13.861,30.27,26.171,43.415,38.66
		C308.061,103.979,325.349,123.496,344.075,140.687z M365.235,398.746c-97.817-2.771-196.554-7.429-294.357-3.009
		c-5.502-121.745-2.724-243.814-8.484-365.42c49.543,9.188,105.125,7.524,154.924,4.166c-0.19,18.159,0.333,36.313,1.079,54.472
		c0.875,21.294-1.465,44.658,6.389,64.598c0.689,1.751,1.757,3.154,2.955,4.39c0.719,1.479,1.758,2.768,3.24,3.546
		c20.695,10.855,45.842,8.524,68.794,9.267c21.974,0.711,44.749,2.665,66.774,0.511
		C362.875,246.671,360.145,323.363,365.235,398.746z"/>
	<path d="M192.523,126.846c-29.954-0.869-61.412-4.317-90.935,1.967c-10.644,2.266-10.653,19.262,0,21.53
		c29.549,6.291,60.97,2.837,90.935,1.967C208.904,151.836,208.931,127.323,192.523,126.846z"/>
	<path d="M316.94,190.693c-70.516-3.109-145.193-10.387-215.241,0.524c-12.584,1.96-8.513,20.354,2.856,21.099
		c70.182,4.599,142.045,2.606,212.385,2.274C332.379,214.516,332.26,191.369,316.94,190.693z"/>
	<path d="M314.722,237.961c-34.807-1.925-70.173,1.575-105.074,1.682c-34.94,0.108-70.325-2.832-105.151-0.171
		c-11.292,0.862-15.807,19.311-2.887,21.336c66.85,10.473,149.185,8.655,215.679-3.881
		C328.464,254.819,325.083,238.535,314.722,237.961z"/>
	<path d="M313.186,286.122c-68.816-2.388-142.306-4.453-210.99,0.489c-8.092,0.582-11.028,13.217-2.036,15.054
		c67.102,13.702,148.497,18.948,215.705,4.252C327.29,303.418,324.226,286.505,313.186,286.122z"/>
	<path d="M317.683,332.893c-34.243-5.931-75.646,0.291-110.135,3.665c-9.006,0.882-12.958,15.65-2.343,17.306
		c34.167,5.329,79.045,10.449,112.477-0.141C327.032,350.763,328.856,334.828,317.683,332.893z"/>
</g>
<g>
</g>
<g>
</g>
<g>
</g>
<g>
</g>
<g>
</g>
<g>
</g>
<g>
</g>
<g>
</g>
<g>
</g>
<g>
</g>
<g>
</g>
<g>
</g>
<g>
</g>
<g>
</g>
<g>
</g>
</svg>
