<?xml version="1.0" encoding="iso-8859-1"?>
<!-- Generator: Adobe Illustrator 19.0.0, SVG Export Plug-In . SVG Version: 6.00 Build 0)  -->
<svg version="1.1" id="Capa_1" xmlns="http://www.w3.org/2000/svg" xmlns:xlink="http://www.w3.org/1999/xlink" x="0px" y="0px"
	 viewBox="0 0 420.956 420.956" style="enable-background:new 0 0 420.956 420.956;" xml:space="preserve">
<g>
	<path d="M363.528,252.084c-0.144-47.127,3.453-94.365-0.509-141.367c-0.509-6.047-7.688-9.306-12.145-6.899
		c-0.044-0.023-0.057-0.079-0.103-0.102c-13.877-6.923-30.157-4.824-45.39-3.948c-10.367,0.595-20.845,1.756-31.261,3.208
		c-0.6-5.825-1.391-11.655-2.059-17.487c0.13-4.013,0.024-7.877,0.13-10.781c0.693-19.405,4.235-42.849-1.61-61.55
		c-1.169-3.743-4.328-5.437-7.467-5.312c-1.012-0.461-2.056-0.901-3.421-1.093C201.119-1.541,135.112-1.55,76.232,3.239
		c-3.648,0.296-6.351,1.701-8.514,3.513c-0.563,0.284-1.028,0.721-1.515,1.149c-0.038,0.04-0.081,0.074-0.12,0.116
		c-1.058,0.97-1.858,2.315-2.381,4.052c-0.048,0.137-0.092,0.268-0.14,0.406c-0.108,0.429-0.341,0.707-0.412,1.184
		c-19.124,125.956-3.68,263.049,4.73,389.569c0.592,8.931,6.944,15.921,16.188,16.191c88.002,2.557,175.818,1.952,263.763-2.041
		c11.314-0.514,16.526-10.042,15.934-18.825c1.093-1.453,1.932-3.116,2.081-5.127C369.298,346.668,363.672,299.008,363.528,252.084z
		 M88.881,63.945c19.982,3.113,39.536,2.95,60.135,2.621c0.644-0.011,1.283,0.047,1.927,0.04c10.765,0.817,21.54,1.066,32.159,0.683
		c15.251,0.59,30.503,1.155,45.768,1.418c-0.184,4.886-0.506,9.743-0.214,14.736c0.012,0.195,0.017,0.401,0.028,0.595
		c-21.048-3.037-42.892-1.751-64.094-1.875c-24.953-0.145-49.763-0.09-74.57,2.414C89.563,77.716,89.438,70.786,88.881,63.945z
		 M91.029,102.825c22.477,2.515,44.954,3.507,67.647,3.757c23.584,0.261,47.898,2.314,71.328-0.96
		c0.395,3.398,1.077,6.688,1.935,9.897c-46.783,0.375-93.78-1.695-140.384,0.951C91.338,111.931,91.279,107.359,91.029,102.825z
		 M92.653,148.375c69.135,5.375,141.867,5.015,211.62-0.956c-0.278,4.714-0.349,9.455-0.552,14.18
		c-69.182,0.465-141.827-3.349-210.591,4.925C92.956,160.477,92.859,154.415,92.653,148.375z M93.66,186.734
		c68.264,7.109,140.382,1.744,209.049,0.843c-0.119,6.024-0.371,12.03-0.408,18.063c-33.421-4.691-68.148-2.608-101.826-2.663
		c-35.441-0.059-71.295-3.013-106.442,1.826C93.906,198.782,93.803,192.754,93.66,186.734z M94.534,229.027
		c24.049,9.399,68.916,0.701,89.67,0.618c38.922-0.155,79.594,2.721,118.227-2.869c0.035,6.693,0.032,13.376,0.122,20.075
		c-68.938-0.928-139.188-5.116-207.588,2.356C94.837,242.476,94.661,235.759,94.534,229.027z M95.381,268.499
		c68.332,8.758,138.533,6.431,207.504,7.144c0.103,5.178,0.184,10.349,0.286,15.528c-38.248,0.778-76.507,2.219-114.76,1.686
		c-23.89-0.334-49.213-3.76-72.313,1.319c-6.9-1.715-13.787-2.854-20.144-2.639C95.751,283.86,95.538,276.189,95.381,268.499z
		 M96.798,320.436c6.278,0.516,12.399,2.13,18.678,2.643c5.761,0.471,12.08-0.038,17.931-1.782
		c18.093,1.341,36.981-0.609,55.004-1.077c38.421-0.997,76.848-1.122,115.253-2.506c0.092,5.682,0.095,11.351,0.157,17.027
		c-24.187-3.917-58.035,3.527-77.329,4.113c-43.165,1.311-86.033,1.357-128.635,8.518C97.543,338.383,97.059,329.438,96.798,320.436
		z M99.424,387.298c-0.392-6.852-0.509-13.775-0.812-20.651c68.232,7.283,137.275-7.345,205.166-1.724
		c-0.027,6.753,0.092,13.529-0.032,20.268C235.649,387.77,167.58,388.803,99.424,387.298z"/>
	<path d="M358.641,77.863c-20.253-21.148-40.126-43.373-62.1-62.732c-2.836-2.497-6.936-1.828-9.483,0.277
		c-1.426,0.377-2.698,1.165-2.922,2.758c-3.053,21.814-3.848,44.088-6.3,66.019c-0.395,3.542,3.616,7.58,7.155,7.156
		c22.632-2.703,46.261-3.307,69.014-2.287C359.864,89.316,362.414,81.8,358.641,77.863z"/>
</g>
<g>
</g>
<g>
</g>
<g>
</g>
<g>
</g>
<g>
</g>
<g>
</g>
<g>
</g>
<g>
</g>
<g>
</g>
<g>
</g>
<g>
</g>
<g>
</g>
<g>
</g>
<g>
</g>
<g>
</g>
</svg>
