<?xml version="1.0" encoding="iso-8859-1"?>
<!-- Generator: Adobe Illustrator 19.0.0, SVG Export Plug-In . SVG Version: 6.00 Build 0)  -->
<svg version="1.1" id="Capa_1" xmlns="http://www.w3.org/2000/svg" xmlns:xlink="http://www.w3.org/1999/xlink" x="0px" y="0px"
	 viewBox="0 0 425.321 425.321" style="enable-background:new 0 0 425.321 425.321;" xml:space="preserve">
<path d="M345.67,17.534c1.356-7.356-2.536-15.586-12.15-15.131c-35.39,1.679-70.722,2.496-106.144,1.352
	c-17.889-0.579-43.124-6.318-62.74-2.391c-3.825-1.646-9.379-0.165-11.646,4c-0.61,0.324-1.312,0.5-1.898,0.86
	c-4.235,2.606-5.439,8.441-2.946,12.431c-26.386,72.202-43.68,147.818-69.772,220.313c-2.455,6.818,4.1,15.969,11.552,15.163
	c20.15-2.178,40.094-5.164,60.083-8.161c-14.514,55.409-30.2,110.438-46.896,165.245c-4.162,13.659,13.896,18.859,21.371,9.01
	c62.714-82.66,124.202-165.937,182.926-251.499c4.924-7.176-0.012-18.194-8.187-20.119c-16.067-3.78-31.403-5.889-46.992-7.285
	c28.911-36.796,59.224-72.316,91.085-106.639C348.4,29.211,348.354,22.708,345.67,17.534z"/>
<g>
</g>
<g>
</g>
<g>
</g>
<g>
</g>
<g>
</g>
<g>
</g>
<g>
</g>
<g>
</g>
<g>
</g>
<g>
</g>
<g>
</g>
<g>
</g>
<g>
</g>
<g>
</g>
<g>
</g>
</svg>
