<?xml version="1.0" encoding="iso-8859-1"?>
<!-- Generator: Adobe Illustrator 19.0.0, SVG Export Plug-In . SVG Version: 6.00 Build 0)  -->
<svg version="1.1" id="Capa_1" xmlns="http://www.w3.org/2000/svg" xmlns:xlink="http://www.w3.org/1999/xlink" x="0px" y="0px"
	 viewBox="0 0 392.291 392.291" style="enable-background:new 0 0 392.291 392.291;" xml:space="preserve">
<path d="M390.668,191.286c0.566-2.271,0.099-4.723-2.386-5.795c-7.301-3.15-17.656,0.081-22.45-7.915
	c-5.29-8.826,4.597-13.363,12.315-15.56c5.497,2.589,13.833-3.554,9.281-9.599c-2.773-3.682-5.389-7.12-7.672-11.079
	c0.157-2.393-0.847-4.185-3.191-5.166c-7.824-3.273-19.406,7.687-25.523-1.818c-0.566-1.337-1.133-2.672-1.699-4.009
	c-1.602-8.479,7.413-16.62,13.253-21.224c1.247-0.983,1.74-2.269,1.793-3.602c0.259-0.426,0.55-0.846,0.664-1.305
	c1.764-7.124-2.229-10.854-6.704-15.998c-1.355-1.555-2.997-1.754-4.593-1.483c-0.835-0.114-1.699-0.161-2.62,0.106
	c-5.783,1.675-7.547,6.762-12.824,9.145c-5.563,2.511-10.199,0.151-10.724-5.798c-0.414-4.692,2.282-8.257,4.328-12.213
	c2.219-4.289,3.419-8.439,4.11-13.081c0.186-0.51,0.269-0.943,0.297-1.495c0.008-0.072,0.033-0.131,0.041-0.204
	c0.022-0.19-0.122-0.305-0.124-0.486c-0.049-0.841,0.059-1.696-0.305-2.473c-1.465-3.11-4.106-4.105-6.519-5.816
	c-1.912-4.49-7.401-7.221-11.627-2.694c-5.306,5.686-13.462,21.726-22.589,11.548c-5.868-6.547-2.388-15.891-0.668-23.751
	c1.605-1.517,2.53-3.78,1.793-5.979c-2.315-6.92-8.912-9.951-15.865-11.382c-2.103-1.683-5.143-1.46-7.444-0.441
	c-7.164,3.173-5.479,17.527-14.408,17.529c-11.386,0-9.259-16.665-6.932-23.316c0.878-2.511-0.422-4.712-2.349-6.003
	c-0.75-1.612-1.905-2.981-3.934-3.372c-2.743-0.53-5.53-0.918-8.324-1.18c-4.636-4.157-12.843-1.928-13.344,5.663
	c-0.453,6.789-0.227,17.453-9.675,17.972c-9.54,0.523-10.917-14.244-9.96-21.016c0.428-3.016-1.97-5.291-4.45-5.427
	c-3.264-2.281-5.229-2.658-9.275-2.555c-2.139,0.055-3.802,1.069-5.163,2.45c-2.677-0.095-5.165,1.141-5.648,4.669
	c-1.123,8.189-0.952,20.473-11.164,22.92c-7.606,1.823-11.755-6.883-13.377-13.681c1.188-4.6-1.214-10.269-7.393-10.302
	c-4.486-0.026-8.896,0.643-13.317,1.362c-4.885,0.795-6.136,7.105-3.8,10.788c-0.006,0.048-0.047,0.085-0.051,0.135
	c-0.556,7.891,4.365,18.894-5.783,22.622c-8.729,3.208-14.306-4.306-17.405-11.364c-0.562-1.28-1.463-1.873-2.454-2.125
	c-1.015-0.46-2.192-0.581-3.545-0.029c-3.501,1.429-5.302,2.971-7.165,5.262c-3.839,1.43-6.502,6.545-4.209,10.548
	c4.258,7.44,15.235,19.787,0.65,23.692c-8.138,2.178-13.458-2.662-18.394-7.941c0.526-6.896-8.75-12.155-14.288-4.677
	c-2.152,2.91-3.989,5.925-5.506,9.211c-1.001,2.167-0.851,4.171-0.108,5.818c-0.548,1.614-0.446,3.489,0.833,5.478
	c2.82,4.386,6.291,8.245,9.475,12.367c2.922,3.785,2.083,6.786-1.422,10.269c-6.293,6.257-14.73,3.154-20.984-1.434
	c0.041-5.487-7.886-7.572-12.046-4.31c-4.183,3.276-5.583,7.667-6.699,12.763c-0.371,1.707-0.055,3.275,0.66,4.593
	c-1.157,3.176-0.562,7.013,2.963,8.9c7.044,3.772,21.049,8.497,19.767,18.909c-1.229,10.001-15.411,5.851-23.753,3.066
	c-2.009-3.991-9.084-5.672-11.297-0.69c-2.347,5.296-2.608,10.239-1.132,15.565c-1.83,4.394,0.336,10.948,6.667,11.409
	c6.718,0.49,16.79,2.37,14.397,11.517c-1.907,7.31-11.421,9.727-18.379,8.843c-3.519-3.216-11.626-2.269-10.182,5.387
	c0.487,2.581,1.3,5.033,2.215,7.456c-1.202,4.48,3.281,10.306,8.817,9.086c8.099-1.783,17.621,1.844,14.55,11.958
	c-2.253,7.419-11.19,9.253-16.449,13.838c-1.155,1.007-1.459,2.269-1.436,3.546c-0.257,0.277-0.646,0.344-0.85,0.688
	c-1.367,2.308-2.109,4.049-3.038,6.568c-0.838,2.271,0.099,5.396,1.85,6.997c0.522,0.477,1.046,0.956,1.57,1.434
	c0.122,0.111,0.293,0.165,0.424,0.265c0.819,3.163,3.745,5.698,8.103,4.693c6.291-1.45,24.401-6.235,22.4,5.532
	c-1.406,8.284-11.736,12.149-17.531,17.063c-4.247,3.602-1.863,8.449,2.087,10.297c1.616,4.378,3.244,8.754,6.744,11.9
	c2.836,2.549,7.288,0.855,7.939-2.533c5.685-3.566,13.88-7.546,19.547-3.293c9.302,6.978-4.711,16.325-7.751,21.896
	c-1.153,2.112-0.748,4.353,0.513,5.929c1.765,6.438,6.291,11.529,12.238,14.507c4.669,2.336,8.809-0.826,9.562-4.652
	c5.29-4.368,11.024-9.427,18.347-6.553c11.835,4.644,0.758,15.306-2.439,21.771c-0.915,1.848-0.616,4.067,0.36,5.855
	c0.016,0.202-0.041,0.393,0,0.597c1.715,8.245,10.979,13.549,18.581,10.135c0.413-0.185,0.413-0.673,0.715-0.954
	c0.493-0.088,0.99-0.157,1.45-0.389c7.356-3.738,8.261-15.539,18.271-15.416c5.402,0.067,9.227,4.371,10.733,9.226
	c1.642,5.291-0.5,9.984-0.607,15.163c-2.148,2.887-1.406,8.039,2.82,9.304c3.394,1.016,6.736,2.11,10.221,2.774
	c3.61,0.689,6.231-1.337,7.498-3.953c0.045-0.046,0.039-0.131,0.081-0.179c0.314-0.69,0.524-1.382,0.632-2.114
	c0.098-0.498,0.475-0.779,0.411-1.386c-0.999-9.805,12.757-14.383,20.71-11.756c5.253,1.736,4.145,6.642,4.353,11.151
	c0.106,2.351,0.422,4.139,1.076,5.79c-0.495,2.255,0.167,4.668,2.628,5.892c4.126,2.054,7.417,2.814,11.924,1.517
	c0.497-0.142,0.809-0.582,1.239-0.851c3.242-0.216,6.272-2.381,5.96-6.362c-0.556-7.135,4.159-15.735,12.008-16.464
	c9.883-0.918,12.057,8.885,15.278,15.67c1.891,3.984,6.158,3.831,9.192,1.793c2.007-0.018,4,0.075,6.119-0.274
	c1.687-0.277,2.702-1.136,3.256-2.222c2.023-1.068,3.509-3.304,2.796-5.654c-2.242-7.401-5.436-18.306,3.284-23.191
	c8.656-4.85,15.47,5.187,20.813,11.198c1.245,3.314,5.578,5.86,9.365,3.961c3.847-1.93,6.567-3.211,9.385-6.465
	c0.202-0.233,0.168-0.535,0.328-0.784c2.504-1.686,3.902-4.852,1.863-7.969c-4.049-6.189-7.171-14.182-1.068-20.29
	c6.535-6.539,15.469-2.905,19.188,4.503c4.173,8.31,16.081,1.701,13.395-6.471c5.043-0.657,9.082-7.057,4.342-11.628
	c-2.708-2.614-8.415-9.312-10.394-15.081c2.249-3.104,4.495-6.208,6.744-9.311c5.603-0.232,12.937,2.156,17.642,5.008
	c0.139,0.412,0.11,0.788,0.289,1.21c1.487,3.511,7.046,3.798,9.4,1.211c4.554-5.006,3.242-10.414,5.825-16.46
	c0.139-0.325,0.007-0.615,0.08-0.937c2.74-2.091,3.47-6.529-0.239-8.894c-6.019-3.837-23.983-9.783-18.098-20.541
	c5.196-9.499,19.932-2.538,26.575,0.587c3.888,1.832,10.025-0.247,9.524-5.467c-0.444-4.671-0.038-9.321-0.481-13.976
	c-0.05-0.547-0.297-1.011-0.55-1.462c0.714-2.1,0.216-4.387-2.587-5.652c-5.771-2.603-20.604-5.938-17.418-15.01
	c1.968-5.607,10.547-7.079,16.987-7.836c2.727,2.014,7.519,1.677,9.037-1.602C391.937,200.587,391.57,196.598,390.668,191.286z
	 M266.085,230.293c-17.45,34.922-56.719,46.565-92.981,44.886c-36.533-20.533-64.214-49.845-50.447-95.99
	c13.173-44.157,63.309-68.606,105.777-50.194C267.734,146.033,285.441,191.551,266.085,230.293z"/>
<g>
</g>
<g>
</g>
<g>
</g>
<g>
</g>
<g>
</g>
<g>
</g>
<g>
</g>
<g>
</g>
<g>
</g>
<g>
</g>
<g>
</g>
<g>
</g>
<g>
</g>
<g>
</g>
<g>
</g>
</svg>
