<?xml version="1.0" encoding="iso-8859-1"?>
<!-- Generator: Adobe Illustrator 19.0.0, SVG Export Plug-In . SVG Version: 6.00 Build 0)  -->
<svg version="1.1" id="Capa_1" xmlns="http://www.w3.org/2000/svg" xmlns:xlink="http://www.w3.org/1999/xlink" x="0px" y="0px"
	 viewBox="0 0 407.499 407.499" style="enable-background:new 0 0 407.499 407.499;" xml:space="preserve">
<g>
	<path d="M258.862,220.351c-0.113-3.495-2.478-5.364-5.099-5.794c-0.058-0.065-0.046-0.16-0.109-0.225
		c-3.033-3.188-5.521-2.681-9.645-3.027c-4.657-0.392-9.416-2.387-12.487-6.045c-1.058-4.824-2.012-9.673-2.224-14.306
		c1.926-4.219,5.68-8.021,9.243-11.389c1.223-1.156,1.232-2.851,0.701-4.331c1.343-1.196,2.171-2.911,1.443-4.894
		c-2.924-7.956-10.622-14.542-16.671-20.303c-6.6-6.287-13.339-12.57-20.736-17.914c-1.726-1.247-3.408-0.867-4.615,0.206
		c-1.81-0.345-3.801,0.082-5.529,1.716c-6.134,5.807-11.565,13.286-20.284,12.564c-1.848-1.101-3.663-2.404-5.539-3.297
		c-1.797-0.859-3.628-1.559-5.46-2.24c-4.256-5.234-4.184-13.012-2.653-19.859c0.283-1.26-0.028-2.32-0.569-3.23
		c0.558-3.181-1.3-6.864-5.608-7.306c-9.182-0.942-18.471-0.971-27.694-0.832c-5.97,0.091-12.075-0.524-17.112,2.378
		c-3.059-2.262-7.708-2.53-9.657,1.509c-3.923,8.128,1.347,20.592-7.697,26.386c-7.293,4.674-15.199-6.013-19.451-10.9
		c-1.952-2.241-5.192-1.099-6.45,1.177c-0.777-0.057-1.562,0.007-2.29,0.328c-8.475,3.736-16.319,11.104-23.472,16.978
		c-7.137,5.862-15.914,11.856-20.913,19.695c-1.101,1.726-1.02,3.202-0.381,4.377c-2.67,2.676-3.344,7.808,0.687,10.713
		c3.802,2.737,7.163,4.064,9.013,8.691c1.495,3.741,1.514,8.404-0.753,11.872c-2.159,3.297-6.117,5.358-9.934,5.991
		c-2.029,0.335-8.508,0.954-9.335,0.927c-1.692-0.055-2.991,1.88-2.353,3.439c-0.342,0.522-0.616,1.12-0.737,1.844
		c-1.473,8.927-2.541,17.935-3.353,26.944c-0.797,8.799-2.35,18.285,0.517,26.791c0.422,1.249,1.179,2.068,2.061,2.612
		c0.318,3.371,3.344,6.569,7.376,5.411c5.887-1.692,11.919-4.536,18.17-2.977c5.85,1.459,9.223,5.946,8.04,11.957
		c-2.022,10.267-13.289,14.679-21.478,18.935c-2.442,1.27-2.778,3.978-1.843,6.111c-0.32,0.819-0.434,1.744-0.088,2.497
		c3.576,7.764,11.29,14.441,17.194,20.517c6.71,6.904,13.345,14.12,20.727,20.311c0.26,0.218,0.537,0.289,0.806,0.456
		c-0.066,0.672-0.155,1.343-0.069,2.014c0.372,2.892,2.779,5.684,6.059,4.616l0.593-0.193c1.989-0.649,3.824-2.99,2.949-5.193
		c0.78,1.962,8.553-5.374,10.149-6.257c4.64-2.569,10.325-3.904,15.609-2.844c13.027,2.613,13.668,12.889,12.773,23.845
		c-0.329,4.002,4.398,6.477,7.836,5.14c0.477,0.245,0.996,0.461,1.668,0.552c12.794,1.724,26.37,2.107,39.275,1.782
		c3.101-0.077,5.048-1.823,5.929-4.009c0.712-0.367,1.381-0.866,1.622-1.797c1.17-4.516-0.405-9.192,0.395-13.847
		c0.861-5.004,3.273-9.88,7.181-13.163c13.026-10.953,21.157,3.41,27.66,12.95c2.748,4.031,7.055,3.683,9.577,1.249
		c4.263-2.03,8.339-6.233,11.221-9.139c2.61-2.632,5.945-6.045,8.462-9.684c5.655-4.327,11.32-8.712,16.355-13.737
		c1.343-1.339,1.851-2.795,1.89-4.199c3.324-1.827,5.029-6.296,1.589-9.777c-6.492-6.566-19.34-14.886-13.484-25.818
		c0.906-1.694,2.176-2.968,3.584-4.077c1.635-0.747,3.291-1.47,5.412-1.708c1.817-0.624,3.463-1.564,5.028-2.648
		c4.486-0.96,9.17-1.448,12.994-2.431c2.444-0.628,2.889-2.965,2.051-4.803C259.923,254.909,259.41,237.238,258.862,220.351z
		 M128.799,312.004C88.18,312.65,58.326,279.121,59.4,239.198c0.881-32.718,22.741-57.694,50.899-69.129
		c29.307-6.854,59.564,1.428,76.103,33.238C209.693,248.105,181.675,311.161,128.799,312.004z"/>
	<path d="M407.495,93.994c0.116-2.339-2.524-3.192-4.21-2.141c-0.598-0.517-1.255-0.993-2.218-1.162
		c-2.996-0.527-5.22-0.24-8.153,0.547c-2.359,0.631-6.213,1.879-8.467,0.234c-5.27-3.845,0.762-12.152,2.996-15.979
		c0.769-1.318,0.552-2.83-0.056-4.143c1.829-1.551,2.831-4.142,1.49-7.025c-4.627-9.959-13.333-17.409-23.193-21.894
		c-1.725-0.784-3.312-0.543-4.58,0.174c-0.499-0.237-1.054-0.375-1.672-0.338c-5.054,0.29-7.428,5.156-12.51,5.498
		c-5.636,0.38-9.959-5.117-7.061-10.303c1.318-2.356-0.529-4.756-2.691-5.094c-0.666-1.507-2.058-2.728-4.278-2.896
		c-9.145-0.69-18.749-0.38-27.812,1.032c-0.141,0.022-0.232,0.166-0.365,0.21c-2.331-0.905-5.288-0.442-5.711,2.574
		c-0.906,6.442,0.905,13.008-5.377,17.494c-5.412,3.868-12.411,1.346-15.975-3.671c-2.025-2.853-6.464-1.58-6.521,1.716
		c-7.545-3.68-17.295,5.91-20.242,12.266c-0.516,1.112-0.557,2.275-0.274,3.332c-1.622,0.765-2.745,2.149-2.82,4.009
		c-0.133,3.356,1.973,4.587,3.548,7.155c1.362,2.224,1.779,5.186,1.318,7.724c-1.478,8.125-9.866,7.165-15.484,10.55
		c-0.686,0.413-1.151,1.082-1.482,1.826c-1.015,0.374-1.947,0.938-2.508,1.894c-2.723,4.635-2.146,9.882-2.116,15.127
		c0.03,5.473-0.052,11.005,1.435,16.308c0.325,1.161,1.042,1.844,1.876,2.288c-0.044,0.234-0.204,0.425-0.232,0.662
		c-0.715,6.224,6.349,5.275,10.079,5.51c7.896,0.499,8.715,9.468,4.292,14.481c-1.004,1.138-1.76,2.876-1.167,4.41
		c0.248,0.639,0.442,1.246,0.929,1.752c0.078,0.083,0.16,0.167,0.239,0.25c0.034,0.038,0.103,0.031,0.14,0.067
		c-0.946,0.036-1.903,0.386-2.599,1.153c-1.098,1.21-1.533,3.148-0.595,4.604c5.852,9.08,16.114,18.551,25.257,24.239
		c0.193,0.119,0.373,0.129,0.563,0.222c0.017,0.101-0.003,0.192,0.016,0.292c0.86,4.646,7.093,4.545,9.329,1.219
		c2.253-3.352,4.723-9.087,9.979-6.321c4.125,2.169,3.67,7.226,2.406,10.856c-0.905,2.599,0.884,4.628,3.112,5.374
		c0.49,2.334,2.381,4.558,5.092,4.835c9.672,0.987,19.039,2.212,28.604,3.959c5.728,1.046,9.154-4.212,8.185-8.466
		c-0.017-0.314,0.138-0.561,0.006-0.912c-1.776-4.759-1.233-11.821,3.633-14.691c5.349-3.156,10.042,1.544,12.228,5.967
		c2.497,5.041,8.9,3.256,10.8-0.906c0.855-0.079,1.699-0.326,2.417-0.917c4.949-4.053,9.62-8.285,14.258-12.686
		c4.182-3.968,8.555-6.836,8.787-12.934c0.009-0.247-0.107-0.492-0.148-0.74c1.91-1.695,2.03-4.693-0.405-6.316
		c-4.583-3.06-11.583-7.552-9.128-14.266c2.207-6.036,9.918-5.771,14.326-2.864c4.775,3.153,10.497-2.587,9.161-7.128
		C405.013,119.349,406.863,106.671,407.495,93.994z M351.094,151.575c-19.856,21.183-48.429,21.439-69.353,3.87
		c-0.027-1.045-0.318-2.129-1.126-3.153c-20.958-26.584-17.59-54.353,3.93-76.556c18.357-5.322,37.809-9.056,55.821-0.871
		c9.402,4.273,15.491,10.858,20.962,18.104C369.85,112.385,367.726,133.833,351.094,151.575z"/>
	<path d="M343.335,95.721c-11.75-16.711-36.362-18.628-51.831-6.051c-15.072,12.253-15.81,35.179-3.422,49.657
		c13.034,15.238,36.621,14.271,50.165,0.185c1.998-2.076,3.576-4.659,4.944-7.422C350.252,121.456,351.358,107.132,343.335,95.721z"
		/>
</g>
<g>
</g>
<g>
</g>
<g>
</g>
<g>
</g>
<g>
</g>
<g>
</g>
<g>
</g>
<g>
</g>
<g>
</g>
<g>
</g>
<g>
</g>
<g>
</g>
<g>
</g>
<g>
</g>
<g>
</g>
</svg>
