<?xml version="1.0" encoding="iso-8859-1"?>
<!-- Generator: Adobe Illustrator 19.0.0, SVG Export Plug-In . SVG Version: 6.00 Build 0)  -->
<svg version="1.1" id="Capa_1" xmlns="http://www.w3.org/2000/svg" xmlns:xlink="http://www.w3.org/1999/xlink" x="0px" y="0px"
	 viewBox="0 0 412.529 412.529" style="enable-background:new 0 0 412.529 412.529;" xml:space="preserve">
<g>
	<path d="M408.556,154.805C376.335,41.08,258.204-24.731,144.462,11.272C33.751,46.315-30.09,172.353,14.166,280.974
		c1.139,2.795,3.479,3.824,5.77,3.857c2.594,6.432,10.476,8.145,16.086,5.548c1.997,0.39,4.004,0.758,5.995,1.161
		c6.415,1.301,15.106,4.299,21.676,2.587c5.249-1.369,7.633-4.906,10.558-9.208c5.433-7.992,10.829-16.201,15.675-24.559
		c0.401-0.69,0.497-1.341,0.702-2.007c1.046-0.744,1.898-1.805,2.027-3.513c4.48-59.101,8.951-118.633,67.177-150.72
		c60.762-33.484,134.18-2.396,151.575,64.885c0.769,2.97,2.509,4.814,4.605,5.769c2.221,4.893,8.421,7.749,13.268,2.598
		c7.712-8.196,15.436-16.378,23.098-24.62c13.102,6.629,27.963,12.11,42.241,12.453c1.781,0.042,3.329-0.607,4.609-1.605
		C404.299,165.007,410.445,161.469,408.556,154.805z"/>
	<path d="M409.402,200.112c3.706-2.311,4.593-8.222,0.039-11.315c-9.007-6.117-19.434-9.897-29.452-14.113
		c-7.257-3.053-17.8-10.154-25.925-8.075c-7.493,1.916-14.592,12.833-19.338,17.979c-4.989,5.41-9.77,9.963-12.785,16.076
		c-3.692-0.504-7.512,1.483-7.096,6.286c2.072,23.948-3.117,46.649-13.966,65.82c-3.848,3.097-7.768,5.962-11.552,9.427
		c-3.545,3.246-4.297,7.425-3.541,11.392c-1.582,1.627-3.514,2.928-5.215,4.453c-3.14,1.598-6.135,3.324-9.491,4.748
		c-3.334,1.415-5.221,3.877-6.169,6.676c-8.76,5.197-18.273,9.562-29.043,12.195c-51.092,12.493-90.793-14.129-124.481-48.944
		c-1.411-1.461-3.22-1.268-4.501-0.32c-1.764-0.537-3.864-0.151-5.261,1.781c-8.625,11.919-12.679,25.389-16.616,39.28
		c-0.539,0.18-1.002,0.448-1.478,0.705c-18.342-2.787-35.932-6.543-53.356-13.33c-4.5-1.752-7.466,4.457-4.783,7.622
		c-0.587,1.341-0.766,2.822,0.212,4.35c63.895,99.955,192.384,120.547,283.688,76.048c0.456-0.124,0.911-0.192,1.368-0.319
		c1.872-0.517,3.318-1.52,4.555-2.712c60.788-32.113,103.487-93.964,96.193-181.349C411.254,202.604,410.45,201.207,409.402,200.112
		z"/>
</g>
<g>
</g>
<g>
</g>
<g>
</g>
<g>
</g>
<g>
</g>
<g>
</g>
<g>
</g>
<g>
</g>
<g>
</g>
<g>
</g>
<g>
</g>
<g>
</g>
<g>
</g>
<g>
</g>
<g>
</g>
</svg>
