<?xml version="1.0" encoding="iso-8859-1"?>
<!-- Generator: Adobe Illustrator 19.0.0, SVG Export Plug-In . SVG Version: 6.00 Build 0)  -->
<svg version="1.1" id="Capa_1" xmlns="http://www.w3.org/2000/svg" xmlns:xlink="http://www.w3.org/1999/xlink" x="0px" y="0px"
	 viewBox="0 0 384.367 384.367" style="enable-background:new 0 0 384.367 384.367;" xml:space="preserve">
<g>
	<path d="M351.468,99.564c0.39-1.922,0.147-4.032-1.352-6.195C277.588-11.204,109.282-30.482,40.471,87.378
		c-1.931,2.18-4.006,4.31-5.733,6.549c-1.633,2.115-1.391,4.375-0.272,6.267c0.2,2.831,2.539,5.317,5.137,5.454
		c18.74,16,45.016,24.639,66.796,35.694c27.199,13.807,54.176,28.035,81.007,42.543c3.062,1.656,5.867,0.783,7.859-1.031
		c5.38-0.891,11.328-2.633,15.427-6.016c2.579-1.198,5.128-2.443,7.254-3.272c13.571-5.293,26.379-12.734,39.184-19.594
		c30-16.07,60.359-31.289,91.286-45.504C352.547,106.57,352.982,102.728,351.468,99.564z"/>
	<path d="M175.582,193.154c-47.818-25.909-98.987-49.032-148.548-71.491c-5.452-2.47-10.022,4.318-5.839,8.001
		c-53.382,73.993,2.748,187.585,72.27,227.676c5.474,3.157,10.558-1.119,11.319-5.902c0.546-0.419,1.041-0.945,1.435-1.623
		c26.506-45.558,51.329-97.646,70.746-146.681c0.122-0.307,0.102-0.573,0.159-0.862C179.101,199.487,179.173,195.1,175.582,193.154z
		"/>
	<path d="M368.598,128.711c-1.019-2.373-2.897-3.554-4.998-3.95c-1.971-3.324-6.257-5.511-10.853-3.486
		c-51.006,22.47-98.419,56.443-151.473,73.832c-3.124,1.024-4.511,3.372-4.603,5.781c-0.005,0.01-0.015,0.015-0.02,0.026
		c-14.481,28.611-29.001,57.204-43.442,85.835c-10.057,19.938-29.103,45.563-32.752,67.891c-2.639,3.622-2.072,9.47,3.636,11.203
		c73.698,22.375,156.695,15.523,212.41-42.276C387.432,270.732,397.02,194.928,368.598,128.711z"/>
</g>
<g>
</g>
<g>
</g>
<g>
</g>
<g>
</g>
<g>
</g>
<g>
</g>
<g>
</g>
<g>
</g>
<g>
</g>
<g>
</g>
<g>
</g>
<g>
</g>
<g>
</g>
<g>
</g>
<g>
</g>
</svg>
