<?xml version="1.0" encoding="iso-8859-1"?>
<!-- Generator: Adobe Illustrator 19.0.0, SVG Export Plug-In . SVG Version: 6.00 Build 0)  -->
<svg version="1.1" id="Capa_1" xmlns="http://www.w3.org/2000/svg" xmlns:xlink="http://www.w3.org/1999/xlink" x="0px" y="0px"
	 viewBox="0 0 417.682 417.682" style="enable-background:new 0 0 417.682 417.682;" xml:space="preserve">
<g>
	<path d="M74.351,21.918c-39.413,2.799-31.751,72.533-5.192,78.676c0.498,0.235,1.071,0.282,1.608,0.425
		c0.208,0.026,0.395,0.121,0.605,0.141c6.885,1.407,16.288-3.598,21.068-7.59c6.869-5.738,12.318-18.703,11.075-29.071
		C106.411,43.079,97.197,20.296,74.351,21.918z"/>
	<path d="M226.375,144.232c-0.66-0.351-1.335-0.482-2.006-0.506c-4.355-2.525-9.812-3.339-15.482-2.892
		c-8.826,0.693-16.983,1.557-25.81,1.696c-5.274,0.084-9.917,0.56-14.485,2.234c-9.526-10.18-22.215-18.223-33.209-26.765
		c-8.78-6.821-17.098-12.537-28.249-14.461c-0.007,0-0.009,0.004-0.016,0.003c-1.111-0.465-2.402-0.572-3.487-0.094
		c-0.303,0.133-0.606,0.268-0.908,0.401c-1.072,0.472-1.431,1.304-1.528,2.187c-5.834,6.7-11.558,13.931-16.392,21.386
		c-1.408-2.888-3.153-5.719-4.646-8.319c0.57-0.087,1.118-0.312,1.474-0.854c1.77-2.695,1.887-5.811,2.565-8.924
		c0.036-0.16-0.037-0.269-0.048-0.41c0.274-1.21-0.865-2.554-2.235-2.201c-4.833,1.254-7.789,2.505-12.937,1.374
		c-0.572-0.126-1.015,0.153-1.323,0.531c-0.603,0.19-1.098,0.664-0.927,1.349c0.834,3.35,2.654,6.407,5.111,8.827
		c-1.217,2.09-2.448,4.352-3.526,6.66c-2.474-2.657-5.463-5.073-7.859-7.429c-3.232-3.178-6.467-6.353-9.7-9.527
		c0.79-1.545,0.376-3.516-1.729-4.239c-18.049-6.2-36.247,12.814-43.268,27.874c-6.511,13.966-5.412,28.978-5.189,44.003
		c0.317,21.267-2.333,45.921,1.682,66.767c1.772,9.205,6.49,17.583,16.34,9.333c6.84-5.729,1.451-23.711,1.2-31.536
		c-0.458-14.304-3.998-54.881,5.276-73.789c0.78,0.083,1.555,0.141,2.343,0.269c1.273,0.207,2.336,0.728,3.391,1.275
		c0.809,5.842-0.204,13.559,0.332,17.887c-4.107,47.715,0.16,97.267,0.803,144.906c0.254,18.809-9.612,69.356,12.62,80.678
		c38.572,19.639,29.23-100.817,26.223-142.874c0.636-2.866,2.134-7.049,6.024-5.074c1.564,0.794,2.129,2.511,2.948,4.098
		c-2.717,37.525-13.207,170.721,29.777,144.34c20.938-12.852,12.381-64.664,12.919-82.95c1.482-50.563,7.436-108.792-1.199-159.757
		c3.822,3.441,7.753,6.756,11.89,9.881c7.208,5.45,14.716,12.499,22.982,16.144c0.201,0.089,0.398,0.093,0.597,0.154
		c10.332,5.383,21.398,4.307,32.802,3.073c11.146-1.202,25.749-0.487,36.036-5.558C237.559,167.483,238.466,150.668,226.375,144.232
		z"/>
	<path d="M415.951,148.146c-0.539-24.208,1.56-49.398-3.145-73.166c1.722-3.509,0.105-8.776-5.017-8.827
		c-83.279-0.821-170.082-8.028-252.948,0.037c-0.278,0.028-0.376,0.235-0.625,0.298c-2.076,0.124-3.973,1.277-4.394,3.855
		c-2.56,15.632-3.472,32.263-0.599,47.876c0.674,3.665,6.446,3.495,7.242,0c3.195-14.027,4.04-29.003,4.063-43.445
		c80.336,8.333,164.324,2.986,245.084,3.286c-4.561,22.711-1.646,47.054-1.09,70.085c0.668,27.721,0.025,55.822,2.812,83.419
		c-47.176,0.247-94.352,0.306-141.526,0.053c-33.801-0.181-74.002-7.232-106.861,2.354c-0.271-0.273-0.523-0.585-0.841-0.765
		c3.111,1.771,1.783-10.404,1.759-11.814c-0.059-3.806-0.13-7.607-0.293-11.411c-0.338-7.901-0.688-15.911-2.855-23.548
		c-0.721-2.542-4.609-2.662-5.271,0c-2.209,8.891-2.169,18.232-2.138,27.352c0.022,7.19-1.776,18.409,0.94,25.078
		c1.264,3.104,4.119,4.191,6.668,3.248c0.066,0.007,0.093,0.064,0.162,0.067c83.721,3.81,168.271,1.486,252.062,0.982
		c2.351-0.013,3.874-1.225,4.746-2.807c1.547-0.517,2.819-1.883,2.979-4.164C418.886,207.046,416.603,177.361,415.951,148.146z"/>
	<path d="M364.175,97.071c-5.904,3.08-12.235,4.686-18.989,4.82c-8.09,0.658-8.192,12.133,0,12.658
		c0.502,0.032,1.004,0.064,1.507,0.096c-6.91,7.938-13.863,15.843-20.962,23.614c-5.154-7.216-10.002-14.573-14.391-22.364
		c-2.499-4.435-9.469-3.445-10.788,1.41c-7.169,26.417-17.262,52.185-24.19,78.628c-8.087-7.152-16.502-13.978-24.82-20.843
		c-2.913-2.406-6.394-1.932-8.607,1.11c-8.276,11.378-17.775,22.551-24.269,35.064c-1.656,3.192,2.25,6.208,4.935,3.806
		c9.242-8.269,16.911-18.497,24.721-28.23c7.784,6.896,15.563,13.848,23.699,20.296c4.24,3.36,9.82-0.119,9.839-4.193
		c11.834-21.439,19.437-45.615,26.275-69.335c3.705,5.936,7.582,11.755,11.846,17.407c2.242,2.972,6.589,4.353,9.522,1.227
		c8.424-8.98,16.561-18.208,24.726-27.414c1.219,4.391,6.19,6.61,9.941,3.172c5.64-5.168,5.654-16.133,7.893-23.038
		C373.451,100.691,368.72,95.163,364.175,97.071z"/>
</g>
<g>
</g>
<g>
</g>
<g>
</g>
<g>
</g>
<g>
</g>
<g>
</g>
<g>
</g>
<g>
</g>
<g>
</g>
<g>
</g>
<g>
</g>
<g>
</g>
<g>
</g>
<g>
</g>
<g>
</g>
</svg>
