<?xml version="1.0" encoding="iso-8859-1"?>
<!-- Generator: Adobe Illustrator 19.0.0, SVG Export Plug-In . SVG Version: 6.00 Build 0)  -->
<svg version="1.1" id="Capa_1" xmlns="http://www.w3.org/2000/svg" xmlns:xlink="http://www.w3.org/1999/xlink" x="0px" y="0px"
	 viewBox="0 0 424.552 424.552" style="enable-background:new 0 0 424.552 424.552;" xml:space="preserve">
<g>
	<path d="M221.918,8.63c-7.747-9.097-21.843-10.599-32.607-6.39c-12.173,4.759-16.92,17.796-16.344,30.039
		c0.538,11.436,3.422,27.064,13.46,34.158c8.124,5.742,22.493,5.86,30.747-0.557C232.51,55.561,232.158,20.655,221.918,8.63z"/>
	<path d="M229.428,72.994c-1.276-1.927-4.366-2.597-6.048-0.02c-4.79,7.34-9.62,14.713-14.395,22.113
		c-0.142-0.261-0.255-0.496-0.399-0.765c-1.418-2.658-2.837-5.35-4.491-7.875c2.244-2.035,2.814-4.49,3.531-7.468
		c0.293-1.217-0.59-2.079-1.587-2.277c-0.446-0.271-0.946-0.44-1.468-0.342c-2.457,0.465-4.504,1.289-7.09,1.263
		c-1.163-0.012-1.925,0.003-2.74,0.225c-0.245,0.014-0.445,0.107-0.659,0.228c-0.155,0.074-0.272,0.049-0.446,0.153
		c-0.076,0.045-0.039,0.169-0.098,0.243c-0.454,0.556-0.657,1.345-0.272,2.038c1.432,2.566,2.99,4.485,5.311,6.198
		c-1.632,2.716-3.148,5.639-4.334,8.646c-1.422-1.875-2.859-3.758-4.243-5.647c-4.102-5.598-8.117-11.827-13.479-16.346
		c-0.316-2.021-2.502-3.839-4.897-2.588c-13.188,6.889-23.97,17.536-30.864,30.762c-4.774,9.159-11.347,25.069-6.783,35.226
		c0.065,0.146,0.266,0.198,0.374,0.324c0.148,0.848,0.58,1.606,1.704,1.778c18.12,2.778,37.233,4.242,55.565,3.661
		c23.985-0.761,48.984,1.029,72.821-1.917c1.846,1.819,5.974,1.035,6.109-2.404C271.524,113.2,257.741,77.245,229.428,72.994z"/>
	<path d="M95.665,290.531c-7.747-9.097-21.843-10.599-32.607-6.39c-12.173,4.759-16.92,17.796-16.344,30.039
		c0.538,11.436,3.422,27.064,13.46,34.158c8.124,5.742,22.493,5.86,30.746-0.556C106.256,337.462,105.904,302.556,95.665,290.531z"
		/>
	<path d="M103.175,354.895c-1.276-1.927-4.366-2.597-6.048-0.02c-4.791,7.34-9.621,14.713-14.395,22.113
		c-0.142-0.261-0.256-0.496-0.399-0.765c-1.418-2.658-2.837-5.349-4.491-7.875c2.243-2.035,2.814-4.49,3.531-7.467
		c0.292-1.217-0.591-2.08-1.587-2.277c-0.446-0.271-0.947-0.44-1.469-0.342c-2.457,0.465-4.504,1.289-7.09,1.263
		c-1.163-0.012-1.925,0.003-2.739,0.225c-0.246,0.014-0.446,0.107-0.659,0.227c-0.156,0.074-0.272,0.049-0.446,0.153
		c-0.076,0.045-0.04,0.169-0.099,0.243c-0.453,0.557-0.656,1.345-0.271,2.038c1.431,2.566,2.989,4.485,5.312,6.198
		c-1.632,2.716-3.148,5.638-4.335,8.646c-1.422-1.875-2.859-3.758-4.243-5.647c-4.102-5.598-8.117-11.827-13.478-16.346
		c-0.316-2.021-2.502-3.84-4.897-2.588c-13.189,6.889-23.97,17.536-30.864,30.762c-4.775,9.159-11.348,25.069-6.784,35.226
		c0.065,0.146,0.267,0.198,0.374,0.324c0.148,0.848,0.58,1.606,1.704,1.778c18.119,2.778,37.233,4.242,55.565,3.661
		c23.985-0.761,48.984,1.029,72.821-1.916c1.845,1.819,5.974,1.035,6.108-2.405C145.271,395.101,131.487,359.146,103.175,354.895z"
		/>
	<path d="M369.69,289.568c-7.747-9.096-21.843-10.599-32.607-6.39c-12.173,4.76-16.92,17.796-16.344,30.04
		c0.538,11.435,3.422,27.064,13.46,34.157c8.124,5.742,22.493,5.86,30.746-0.556C380.282,336.499,379.931,301.593,369.69,289.568z"
		/>
	<path d="M377.201,353.932c-1.276-1.928-4.366-2.597-6.048-0.02c-4.79,7.341-9.621,14.713-14.395,22.114
		c-0.142-0.261-0.256-0.496-0.399-0.765c-1.418-2.659-2.837-5.35-4.491-7.875c2.244-2.035,2.814-4.49,3.531-7.467
		c0.292-1.217-0.59-2.08-1.587-2.277c-0.447-0.272-0.947-0.441-1.469-0.343c-2.456,0.465-4.504,1.289-7.089,1.263
		c-1.163-0.012-1.925,0.003-2.74,0.225c-0.246,0.014-0.445,0.107-0.659,0.227c-0.155,0.074-0.272,0.049-0.446,0.153
		c-0.076,0.045-0.04,0.169-0.098,0.243c-0.454,0.557-0.657,1.346-0.272,2.038c1.432,2.566,2.99,4.486,5.311,6.198
		c-1.632,2.717-3.148,5.639-4.334,8.646c-1.422-1.875-2.859-3.758-4.243-5.647c-4.102-5.597-8.118-11.827-13.479-16.346
		c-0.316-2.021-2.502-3.839-4.897-2.588c-13.188,6.889-23.97,17.536-30.864,30.761c-4.774,9.159-11.348,25.069-6.783,35.226
		c0.065,0.146,0.266,0.198,0.373,0.324c0.149,0.848,0.58,1.606,1.704,1.778c18.119,2.778,37.233,4.242,55.565,3.661
		c23.985-0.761,48.984,1.029,72.821-1.916c1.846,1.819,5.974,1.034,6.108-2.405C419.296,394.138,405.513,358.184,377.201,353.932z"
		/>
	<path d="M349.199,213.757c-0.068-1.828-1.029-3.135-2.292-3.93c-0.899-1.298-2.315-2.246-4.372-2.26
		c-45.335-0.319-90.98-0.781-136.586-0.226c0.118-1.163,0.197-2.326,0.195-3.513c0.557-0.835,0.96-1.819,0.914-3.115
		c-0.519-14.518,0.998-32.043-3.612-45.913c-1.283-3.858-7.69-4.603-8.59,0c-2.489,12.736-0.354,27.238,0.553,40.545
		c-0.4,0.752-0.689,1.571-0.684,2.505c0.017,3.145-0.21,6.488,0.143,9.679c-39.712,0.636-79.376,2.076-118.757,5.212
		c-1.035,0.082-1.842,0.463-2.545,0.945c-1.271,0.385-2.441,1.171-3.009,2.853c-1.947,5.758-0.956,12.351-0.981,18.386
		c-0.03,6.681-0.241,13.355-0.569,20.027c-0.359,7.306,10.999,7.287,11.359,0c0.327-6.671,0.543-13.345,0.569-20.027
		c0.013-3.972,0.27-8.208-0.167-12.26c85.811-0.291,171.54-4.172,257.406-3.72c-2.12,10.85-2.487,22.827-1.972,33.466
		c-1.014,5.877,10.327,9.458,10.987,0.683C348.15,240.273,349.674,226.586,349.199,213.757z"/>
</g>
<g>
</g>
<g>
</g>
<g>
</g>
<g>
</g>
<g>
</g>
<g>
</g>
<g>
</g>
<g>
</g>
<g>
</g>
<g>
</g>
<g>
</g>
<g>
</g>
<g>
</g>
<g>
</g>
<g>
</g>
</svg>
