<?xml version="1.0" encoding="iso-8859-1"?>
<!-- Generator: Adobe Illustrator 19.0.0, SVG Export Plug-In . SVG Version: 6.00 Build 0)  -->
<svg version="1.1" id="Capa_1" xmlns="http://www.w3.org/2000/svg" xmlns:xlink="http://www.w3.org/1999/xlink" x="0px" y="0px"
	 viewBox="0 0 444.968 444.968" style="enable-background:new 0 0 444.968 444.968;" xml:space="preserve">
<g>
	<path d="M441.342,279.782c-23.21-1.567-47.666-4.254-72.179-6.073c0.495-5.073,0.091-10.045-0.047-15.251
		c-0.181-6.916,0.223-13.843-0.062-20.748c-0.067-1.622-1.279-2.622-2.586-2.808c-0.34-2.531-2.073-4.784-5.373-4.644
		c-45.066,1.914-89.87,2.003-134.659,1.341c2.681-21.507,2.296-44.208,0.573-65.724c-0.069-0.841-0.562-1.288-0.896-1.896
		c25.559-0.183,51.142-0.977,76.524-1.251c4.41-0.048,5.641-4.416,4.279-7.501c4.194-32.457,0.143-67.604-1.431-100.086
		c-0.057-1.15-0.737-1.795-1.231-2.597c0.404-2.865-1.112-6.108-4.892-6.431c-25.809-2.202-51.717-1.72-77.592-2.074
		c-22.4-0.308-45.51-2.818-67.299,3.006c-2.227,0.595-2.501,3.456-0.941,4.771c-0.342,0.67-0.932,1.12-0.984,2.012
		c-1.678,29.623-7.089,61.336-5.102,90.912c0.573,8.561,4.179,17.457,12.223,15.233c0.418,1.2,1.276,2.258,3.016,2.385
		c18.516,1.348,37.172,1.629,55.848,1.604c-0.34,0.611-0.834,1.063-0.903,1.914c-1.719,21.47-2.104,44.124,0.559,65.584
		c-43.597-0.731-87.193-2.101-131.018-3.225c-0.143-0.003-0.18,0.114-0.313,0.121c-2.097-1.306-5.601,0.323-5.948,3.248
		c-1.754,14.827-1.426,30.169-2.403,45.125c-21.456,0.251-42.907,0.658-64.308,1.759c-2.082,0.107-3.131,1.437-3.649,2.944
		c-1.652-0.458-3.551,0.062-3.953,2.1c-6.679,33.9-9.094,76.284-3.413,110.68c-1.674,1.739-1.624,5.179,1.302,5.593
		c48.013,6.769,95.57-7.126,143.707,0.74c1.736,0.283,3.067-0.359,4.117-1.312c1.64,0.385,3.43-0.215,3.874-2.316
		c7.783-36.932,7.391-75.496,10.224-113.012c0.193-2.534-1.315-3.824-3.126-4.506c-0.437-1.948-1.682-3.689-4.265-3.631
		c-23.41,0.522-46.858,0.599-70.306,0.818c1.415-12.933,2.156-26.834,0.423-39.919c89.904,8.984,181.758,7.922,271.963,5.026
		c0.452-0.014,0.789-0.188,1.186-0.282c-2.394,9.977-3.758,21.904-1.695,31.703c-25.269-1.629-50.462-2.076-74.28,0.993
		c-2.843,0.366-4.959,2.501-4.227,5.548l0.248,1.02c0.18,0.752,0.97,1.153,1.714,1.077c-3.72,33.565-6.141,68.193-6.658,101.906
		c0,0.091,0.09,0.133,0.092,0.223c-0.634,1.764-0.211,3.857,2.051,4.21c0.699,0.108,1.424,0.116,2.123,0.221
		c0.169,0.032,0.302,0.032,0.473,0.049c47.148,6.939,97.148,3.839,144.66,4.527c1.779,0.026,2.993-0.742,3.815-1.814
		c2.203,0.909,5.077,0.401,5.655-2.402c6.715-32.553,0.476-65.91,6.806-98.575c0.225-1.171-0.209-2.056-0.59-2.953
		C446.101,286.022,445.815,280.084,441.342,279.782z M155.473,285.476c-1.987,35.044-7.11,70.415-6.093,105.546
		c-45.011-8.844-91.555-0.302-137.024,1.841c-4.712-35.384,3.658-70.883,0.813-106.194c0.38,0.11,0.57,0.435,1.027,0.444
		C61.244,288.098,108.411,285.948,155.473,285.476z M164.865,155.099c-0.173-0.977-0.691-1.908-1.846-2.147
		c-9.473-1.962,0.081-87.812,0.68-99.008c19.074,2.846,38.814,0.956,58.07,0.922c24.002-0.042,47.963,1.339,71.951,1.831
		c0.547,31.104-0.773,64.762,4.885,95.56C254.176,152.504,209.121,151.228,164.865,155.099z M433.155,287.367
		c-7.488,31.327-3.661,63.95-4.957,95.887c-0.511-0.177-0.787-0.624-1.417-0.635c-46.456-0.849-92.907-1.871-139.364-1.194
		c4.624-32.776,5.65-67.52,2.928-100.43c13.897,1.471,48.08,1.963,52.32,2.159c30.19,1.399,60.365,3.053,90.572,4.101
		C433.222,287.31,433.169,287.31,433.155,287.367z"/>
	<path d="M237.986,71.014c-4.681-1.816-9.918-0.814-13.538,1.956c-6.413,3.77-9.24,12.24-4.854,19.048
		c5.149,7.987,17.852,9.205,23.862,1.649C249.249,86.383,246.943,74.49,237.986,71.014z"/>
	<path d="M233.685,103.203c-18.228-0.17-26.124,17.829-27.18,33.329c-0.164,2.401,1.454,3.743,3.335,4.222
		c0.356,0.428,0.573,0.927,1.077,1.267c9.934,6.726,27.793,4.646,39.247,3.695c3.62-0.301,6.903-2.885,6.827-6.828
		C256.697,123.96,252.727,103.38,233.685,103.203z"/>
	<path d="M94.488,304.893c-1.928-1.492-4.093-2.152-6.28-2.458c-5.016-4.833-15.915-0.748-19.371,6.506
		c-6.104,12.82,6.371,27.186,19.925,23.481C101.004,329.076,104.712,312.798,94.488,304.893z"/>
	<path d="M111.567,372.114c-4.68-15.09-12.366-32.853-31.366-30.761c-16.433,1.807-27.943,19.463-24.147,35.376
		c-0.003,0.029-0.007,0.056-0.012,0.085c-0.395,3.254,2.508,5.728,5.156,6.77c12.566,4.941,33.372,0.13,45.814-3.45
		C110.317,379.183,112.623,375.518,111.567,372.114z"/>
	<path d="M350.768,301.635c-3.76,4.253-5.265,10.898-1.331,16.868c10.203,15.47,35.571,5.791,33.094-12.454
		C380.333,289.853,355.14,284.386,350.768,301.635z"/>
	<path d="M385.618,339.163c-11.229-8.851-30.133-13.565-42.869-5.131c-11.339,7.512-14.439,23.217-12.694,35.852
		c0.245,1.785,1.616,2.269,2.99,2.027c1.108,1.311,2.753,2.228,4.944,2.332c11.587,0.551,23.196,0.79,34.794,1.099
		c7.058,0.189,15.873,1.567,21.283-4.203C403.434,361.156,394.175,345.907,385.618,339.163z"/>
</g>
<g>
</g>
<g>
</g>
<g>
</g>
<g>
</g>
<g>
</g>
<g>
</g>
<g>
</g>
<g>
</g>
<g>
</g>
<g>
</g>
<g>
</g>
<g>
</g>
<g>
</g>
<g>
</g>
<g>
</g>
</svg>
