<?xml version="1.0" encoding="iso-8859-1"?>
<!-- Generator: Adobe Illustrator 19.0.0, SVG Export Plug-In . SVG Version: 6.00 Build 0)  -->
<svg version="1.1" id="Capa_1" xmlns="http://www.w3.org/2000/svg" xmlns:xlink="http://www.w3.org/1999/xlink" x="0px" y="0px"
	 viewBox="0 0 412.912 412.912" style="enable-background:new 0 0 412.912 412.912;" xml:space="preserve">
<g>
	<path d="M385.749,156.417c-34.388-5.676-70.86,4.046-105.478,0.349c-9.101-0.972-14.612,8.926-13.283,16.979
		c-8.234,22.57,25.205,27.072,42.144,27.978c17.143,0.917,34.31,1.51,51.48,1.417c12.466-0.069,31.764,2.754,42.181-6.376
		C420.04,181.647,403.357,159.322,385.749,156.417z"/>
	<path d="M387.718,219.588c-23.276-5.522-53.071-1.045-76.871-0.388c-18.488,0.51-49.869-4.178-65.866,7.943
		c-19.396,14.7-8.344,37.925,10.36,39.427c16.299,5.522,42.02,1.693,56.589,1.729c24.088,0.061,53.164,4.376,76.699-1.085
		C418.731,260.226,415.861,226.266,387.718,219.588z"/>
	<path d="M405.505,302.829c-6.775-15.122-24.724-13.888-38.314-14.039c-28.176-0.318-56.374-0.067-84.553-0.1
		c-13.26-0.016-33.25-3.418-43.415,7.905c-7.87,8.766-7.208,22.381,0.213,31.144c3.87,4.572,8.388,6.923,13.182,7.824
		c11.615,6.026,29.525,3.864,40.892,3.967c26.481,0.243,58.378,2.805,84.138-4.796c8.46-0.277,16.307-1.848,21.926-6.273
		C407.272,322.398,409.523,311.797,405.505,302.829z"/>
	<path d="M408.059,369.149c-0.089-0.21-0.093-0.422-0.194-0.632c-15.957-32.406-72.499-13.637-100.842-16.335
		c-13.449-1.279-26.576-0.867-35.489,10.793c-6.894,9.02-7.724,20.944-0.49,30.059c10.249,12.919,29.782,10.012,44.122,10.01
		c23.77-0.006,48.012,1.403,71.736,0C407.087,401.852,420.626,381.838,408.059,369.149z"/>
	<path d="M253.527,155.38c-9.805-0.024-19.59-0.696-29.395-0.834c-5.522-0.079-11.404-0.628-17.092-0.328
		c0.036-0.069,0.065-0.138,0.101-0.207c27.46-36.16,19.77-115.307-12.971-142.714c-14.295-11.965-31.606-7.757-39.62,8.627
		c-14.87,30.411,4.551,65.592-1.207,97.629c-20.051,6.391-37.741,23.694-50.231,39.385c-6.973,8.758-16.603,20.991-22.133,33.636
		c-22.634-3.551-54.362-7.662-68.088,8.596c-15.579,18.453-8.277,62.573-8.71,84.503c-0.413,21.005-12.085,70.539,5.477,87.014
		c16.102,15.107,57.382,5.301,76.11-0.937c30.286,52.042,105.412,37.201,157.05,35.408c1.772-0.061,3.225-0.575,4.496-1.291
		c2.755,0.597,4.884-1.964,4.346-4.587c-0.033-0.156-0.077-0.32-0.109-0.477c1.336-3.777,0.486-8.215-2.393-10.848
		c-0.662-3.617-1.016-7.258-0.461-10.803c1.251-7.996,8.048-12.38,8.988-20.064c0.223-1.828-0.604-3.392-1.855-4.574
		c0.059-2.186-0.967-4.283-3.585-4.83c-15.385-3.202-27.98-8.777-33.946-24.712c-1.967-5.255-2.383-9.826-1.832-14.048
		c1.038-3.141,2.074-6.287,3.113-9.433c2.534-4.7,6.229-9.127,10.522-13.745c3.623-3.895,1.503-8.769-2.544-10.429
		c0.215-0.655,0.432-1.308,0.646-1.961c1.941-5.921-1.35-11.437-6.152-14.248c-0.923-5.239-1.374-10.423-0.512-15.753
		c2.352-14.582,12.574-24.889,27.533-25.442c7.461-0.275,9.473-7.658,6.542-12.447c-3.967-12.129-4.785-24.796,4.064-35.229
		C264.41,164.672,261.501,155.4,253.527,155.38z"/>
</g>
<g>
</g>
<g>
</g>
<g>
</g>
<g>
</g>
<g>
</g>
<g>
</g>
<g>
</g>
<g>
</g>
<g>
</g>
<g>
</g>
<g>
</g>
<g>
</g>
<g>
</g>
<g>
</g>
<g>
</g>
</svg>
