<?xml version="1.0" encoding="iso-8859-1"?>
<!-- Generator: Adobe Illustrator 19.0.0, SVG Export Plug-In . SVG Version: 6.00 Build 0)  -->
<svg version="1.1" id="Capa_1" xmlns="http://www.w3.org/2000/svg" xmlns:xlink="http://www.w3.org/1999/xlink" x="0px" y="0px"
	 viewBox="0 0 412.494 412.494" style="enable-background:new 0 0 412.494 412.494;" xml:space="preserve">
<path d="M401.487,287.4c-35.299-54.456-115.617-97.428-183.495-99.058c0.75-6.414-0.202-12.391,1.034-19.104
	c1.915-10.377,6.162-12.233,13.697-18.403c11.494-9.412,21.945-17.067,25.964-32.31c6.823-25.889-8.031-54.144-32.312-64.283
	c-26.342-10.999-57.74-1.498-75.471,20.368c-15.2,18.751-15.389,50.47,11.543,58.142c9.189,2.617,14.704-7.176,11.354-14.765
	c-7.606-17.22,22.976-32.879,36.369-25.308c19.701,11.141-3.105,23.066-11.436,29.678c-20.151,15.986-28.814,45.669-19.649,69.88
	C115.5,206.738,14.183,260.174,0.33,323.337c-0.506,2.312-0.382,4.874,0.049,7.407c-1.047,6.024,0.225,12.726,4.129,17.682
	c18.964,24.066,76.248,10.813,103.346,10.52c65.816-0.713,131.613-1.975,197.416-3.376
	C346.556,354.69,445.385,355.121,401.487,287.4z M347.576,309.846c-18.301,9.7-63.344,0.854-84.611,1.142
	c-28.201,0.38-56.403,0.85-84.604,1.435c-45.43,0.943-91.363,3.681-136.936,3.952c27.229-33.463,117.385-75.072,138.006-80.485
	c43.111-11.312,82.262-1.835,119.293,20.585c18.583,11.958,35.922,25.463,52.029,40.517
	C366.681,308.918,365.621,313.202,347.576,309.846z"/>
<g>
</g>
<g>
</g>
<g>
</g>
<g>
</g>
<g>
</g>
<g>
</g>
<g>
</g>
<g>
</g>
<g>
</g>
<g>
</g>
<g>
</g>
<g>
</g>
<g>
</g>
<g>
</g>
<g>
</g>
</svg>
