<?xml version="1.0" encoding="iso-8859-1"?>
<!-- Generator: Adobe Illustrator 19.0.0, SVG Export Plug-In . SVG Version: 6.00 Build 0)  -->
<svg version="1.1" id="Capa_1" xmlns="http://www.w3.org/2000/svg" xmlns:xlink="http://www.w3.org/1999/xlink" x="0px" y="0px"
	 viewBox="0 0 428.637 428.637" style="enable-background:new 0 0 428.637 428.637;" xml:space="preserve">
<g>
	<path d="M418.304,97.127c-10.538-30.803-22.533-61.361-36.902-90.593c-2.932-5.967-9.367-7.042-14.887-5.263
		c-0.081-0.005-0.131-0.049-0.214-0.053C261.679-3.682,155.94,8.193,51.372,2.246c-6.17-0.352-11.395,4.531-13.19,10.043
		c-8.076,24.784-65.094,126.439-18.093,141.377c20.894,6.641,32.016-7.337,34.076-23.912c0.107-0.091,0.202-0.188,0.31-0.278
		c1.349-1.233,2.993-2.021,4.486-3.036c0.688,7.265,1.324,14.461,5.862,21.085c6.591,9.625,18.558,14.797,30.035,14.162
		c15.489-0.856,27.194-13.853,32.785-28.988c8.282,15.945,22.955,29,39.901,30.24c19.312,1.414,35.107-12.711,42.533-30.264
		c7.324,18.909,22.199,35.195,42.272,34.154c15.247-0.791,27.588-11.644,34.571-24.541c0.644-1.189,1.305-2.482,1.962-3.772
		c6.881,16.631,21.054,30.067,39.038,29.039c16.823-0.961,30.043-17.789,35.671-36.249c10.353,25.674,31.906,49.1,55.176,23.995
		C433.949,138.92,424.433,115.055,418.304,97.127z"/>
	<path d="M393.087,187.816c0.012-4.183-2.629-6.577-5.754-7.363c-2.035-5.925-8.737-9.558-13.921-13.551
		c-1.9-5.576-11.306-7.933-14.784-1.62c-14.402,26.146-45.379,14.317-64.629,0.943c-0.997-6.642-10.677-10.659-14.294-3.225
		c-11.65,23.93-54.495,21.344-66.15-0.669c-1.288-2.431-3.831-3.001-6.13-2.447c-2.089-0.021-4.223,0.706-5.776,2.735
		c-19.175,25.069-44.693,17.47-65.637,0.389c-1.988-4.985-9.455-7.568-12.172-1.482c-10.61,23.773-47.617,25.83-60.68,2.471
		c-2.304-4.119-8.952-4.322-11.202,0c-2.437,4.683-5.766,8.476-9.04,12.386c-1.693-0.568-3.621-0.07-4.305,2.255
		C17.64,249.99,25.418,339.58,25.157,413.474c-0.012,3.423,1.731,5.655,4.031,6.957c0.855,1.39,2.153,2.535,4.377,2.745
		c114.162,10.786,233.629,2.77,348.249-0.195c8.634-0.223,11.295-9.242,8.213-15.034
		C401.052,336.947,392.871,259.247,393.087,187.816z"/>
</g>
<g>
</g>
<g>
</g>
<g>
</g>
<g>
</g>
<g>
</g>
<g>
</g>
<g>
</g>
<g>
</g>
<g>
</g>
<g>
</g>
<g>
</g>
<g>
</g>
<g>
</g>
<g>
</g>
<g>
</g>
</svg>
