<?xml version="1.0" encoding="iso-8859-1"?>
<!-- Generator: Adobe Illustrator 19.0.0, SVG Export Plug-In . SVG Version: 6.00 Build 0)  -->
<svg version="1.1" id="Capa_1" xmlns="http://www.w3.org/2000/svg" xmlns:xlink="http://www.w3.org/1999/xlink" x="0px" y="0px"
	 viewBox="0 0 410.501 410.501" style="enable-background:new 0 0 410.501 410.501;" xml:space="preserve">
<path d="M405.148,210.86c0.229-3.572-0.446-7.32-3.215-11.083C349.606,128.623,282.734,66.914,218.787,6.346
	c-8.675-8.221-22.724-8.699-31.374,0C123.78,70.357,59.144,134.981,4.826,207.249c-3.827,5.095-3.477,14.376,0,19.514
	c1.097,1.622,2.194,3.244,3.295,4.864c1.227,1.812,2.944,3.183,4.831,4.255c2.938,4.777,7.616,8.5,13.854,8.811
	c11.482,0.571,23.009,0.506,34.506,0.835c-5.929,29.234-3.48,60.402-3.86,90.315c-0.271,21.309-6.905,50.475,14.024,63.931
	c23.99,15.425,70.938,3.205,97.99,3.192c51.993-0.026,103.827,2.78,155.596,7.473c11.44,1.037,22.619-10.94,22.025-22.029
	c-2.462-46.342,1.401-98.352-11.079-143.523c17.069,0.027,34.158-0.155,51.202,0.253
	C407.036,245.615,412.822,224.111,405.148,210.86z M242.749,266.568c-0.22,12.198-0.902,24.384-1.999,36.533
	c-0.347,3.826-0.852,7.635-1.25,11.454c-20.935,0.286-43.094,1.503-63.755,5.923c0.274-7.378,0.469-14.76,0.763-22.074
	c0.603-15.03,1.843-36.028,2.721-52.134c21.687-0.219,43.382-0.515,65.075-0.834C244.551,251.75,242.832,261.98,242.749,266.568z"/>
<g>
</g>
<g>
</g>
<g>
</g>
<g>
</g>
<g>
</g>
<g>
</g>
<g>
</g>
<g>
</g>
<g>
</g>
<g>
</g>
<g>
</g>
<g>
</g>
<g>
</g>
<g>
</g>
<g>
</g>
</svg>
