<?xml version="1.0" encoding="iso-8859-1"?>
<!-- Generator: Adobe Illustrator 19.0.0, SVG Export Plug-In . SVG Version: 6.00 Build 0)  -->
<svg version="1.1" id="Capa_1" xmlns="http://www.w3.org/2000/svg" xmlns:xlink="http://www.w3.org/1999/xlink" x="0px" y="0px"
	 viewBox="0 0 433.339 433.339" style="enable-background:new 0 0 433.339 433.339;" xml:space="preserve">
<path d="M412.286,173.666c-0.873-1.257-1.746-2.509-2.621-3.764c-1.534-2.201-3.436-3.965-5.539-5.285
	c-22.458-22.646-45.301-44.904-68.453-66.839c2.357-15.729,2.588-31.431,5.761-47.171c6.277-24.25-30.786-34.481-37.504-10.342
	c-2.022,7.263-3.629,15.03-4.848,22.887c-23.531-22.328-47.803-45.22-75.665-60.822c-9.7-5.434-17.968-0.634-21.258,6.905
	c-0.076,0.049-0.163,0.046-0.239,0.097C136.162,53.333,89.967,123.903,26.061,171.004c-19.45,14.336-1.664,46.981,19.38,33.16
	c10.973-7.209,21.211-15.366,31.204-23.833c-3.616,41.372-3.242,82.574-2.979,124.539c0.171,27.488-11.726,89.676,7.483,113.091
	c-0.618,4.439,1.2,9.301,6.071,10.147c18.471,3.197,36.331,5.897,55.133,5.084c8.483-0.369,12.797-6.523,13.188-12.922
	c0.309-0.621,0.873-0.9,1.03-1.707c4.217-21.64,2.575-43.849,1.696-65.77c-0.764-19.036,0.022-39.093-3.404-57.982
	c23.564,3.848,50.57,7.488,74.435,5.486c-3.875,37.523-5.225,77.594,2.271,113.904c0.905,4.39,3.442,6.781,6.461,7.87
	c1.534,1.878,3.786,3.22,6.894,3.228c18.141,0.055,36.25-0.45,54.38-0.875c12.814-0.301,25.415,1.219,37.464-1.835
	c5.019,5.58,15.572,3.704,16.426-5.984c7.098-80.755,1.851-163.311,1.574-244.413c8.686,8.596,17.667,16.895,26.261,25.591
	C396.473,213.411,425.516,192.647,412.286,173.666z M145.745,234.62c-0.222-7.038-0.943-14.141-1.989-21.279
	c-0.26-6.639-0.342-13.295-0.298-19.897c0.032-4.574,0.422-9.163,0.672-13.724c19.149,1.154,38.494,1.046,57.936,0.288
	c-0.613,4.715-0.851,9.615-1.122,14.563c-0.715,13.082-1.503,27.253,2.093,40.06C183.966,234.636,164.843,234.469,145.745,234.62z
	 M299.344,201.333c-0.03,9.854,0.073,19.738,0.393,29.607c-20.859,0.223-41.838,1.74-62.676,2.756
	c3.06-18.081,4.236-37.253,2.524-55.385c20.276-1.046,40.537-1.995,60.61-1.751C298.715,184.566,299.368,193.227,299.344,201.333z"
	/>
<g>
</g>
<g>
</g>
<g>
</g>
<g>
</g>
<g>
</g>
<g>
</g>
<g>
</g>
<g>
</g>
<g>
</g>
<g>
</g>
<g>
</g>
<g>
</g>
<g>
</g>
<g>
</g>
<g>
</g>
</svg>
