<?xml version="1.0" encoding="iso-8859-1"?>
<!-- Generator: Adobe Illustrator 19.0.0, SVG Export Plug-In . SVG Version: 6.00 Build 0)  -->
<svg version="1.1" id="Capa_1" xmlns="http://www.w3.org/2000/svg" xmlns:xlink="http://www.w3.org/1999/xlink" x="0px" y="0px"
	 viewBox="0 0 410.067 410.067" style="enable-background:new 0 0 410.067 410.067;" xml:space="preserve">
<path d="M404.453,381.632c4.449-40.517,8.365-87.157,3.055-127.383c-0.435-3.299-3.493-5.067-6.201-4.737
	c-16.376-11.994-36.467-20.181-54.377-29.719c-16.303-8.682-32.779-16.643-49.816-23.744c-1.708-3.018-5.393-4.476-9.296-2.801
	c-10.192,4.38-17.214,17.959-23.383,26.79c-5.847,8.37-11.02,17.153-15.774,26.169c-20.372-19.201-40.033-40.872-63.439-55.866
	c-3.504-2.247-6.901,2.052-5.314,5.313c0.518,1.063,1.182,2.049,1.738,3.093c-15.245,9.313-28.08,22.749-41.892,34.485
	c-4.889-4.834-10.499-9.146-15.468-13.345c-9.818-8.294-19.779-17.193-30.936-23.652c-0.889-0.514-1.76-0.72-2.606-0.783
	c-2.799-1.809-6.371-1.973-9.105,1.428c-9.56,11.893-20.178,22.873-30.536,34.048c0.591-69.841,0.233-139.884-4.901-209.028
	c0.412-1.801,0.012-3.547-1.041-5.075c-0.482-0.919-1.044-1.584-1.895-1.969c-0.077-0.042-0.083-0.126-0.162-0.167
	c-9.508-4.899-22.002-2.569-31.715,0.882c-3.115-0.838-6.715,0.59-7.103,5.036c-10.397,119.406,1.234,243.6,2.446,363.531
	c0.057,5.738,4.985,8.208,9.402,7.638c0.425,0.129,0.623,0.492,1.119,0.534c126.74,10.5,256.647,3.608,383.833,4.114
	C409.792,396.458,410.911,384.709,404.453,381.632z"/>
<g>
</g>
<g>
</g>
<g>
</g>
<g>
</g>
<g>
</g>
<g>
</g>
<g>
</g>
<g>
</g>
<g>
</g>
<g>
</g>
<g>
</g>
<g>
</g>
<g>
</g>
<g>
</g>
<g>
</g>
</svg>
