<?xml version="1.0" encoding="iso-8859-1"?>
<!-- Generator: Adobe Illustrator 19.0.0, SVG Export Plug-In . SVG Version: 6.00 Build 0)  -->
<svg version="1.1" id="Capa_1" xmlns="http://www.w3.org/2000/svg" xmlns:xlink="http://www.w3.org/1999/xlink" x="0px" y="0px"
	 viewBox="0 0 445.997 445.997" style="enable-background:new 0 0 445.997 445.997;" xml:space="preserve">
<g>
	<path d="M424.699,429.569c-6.245-50.256-13.859-100.262-18.121-150.753c-3.692-43.769-1.358-88.904-11.74-131.611
		c-1.03-4.23-6.453-5.408-9.556-3.197c-8.561-2.171-17.966-1.514-26.725-2.117c-11.155-0.768-22.471-2.648-33.641-2.214
		c-1.116,0.044-2.266,0.479-3.39,0.9c-5.358-0.032-11.027,3.403-11.63,10.249c-3.419,38.772-6.513,77.569-9.213,116.396
		c-1.969,28.312-7.139,57.847-3.327,86.042c-40.269-26.031-83.871-51.532-128.146-67.786c-2.459-0.902-4.793-0.047-6.46,1.588
		c-3.228,0.74-5.947,2.925-6.5,6.822c-2.189,15.404-1.676,32.236-0.115,48.564c-15.883-10.504-33.679-18.412-50.802-26.422
		c-22.437-10.493-44.632-22.134-68.115-30.1c-1.824-0.619-3.572-0.406-5.076,0.323c-2.989,0.112-5.917,2.216-6.436,6.39
		c-5.519,44.469-4.056,89.681-4.582,134.479c-0.074,6.31,5.201,10.84,11.195,11.193c126.834,7.459,254.01,8.657,381.028,7.066
		c8.936-0.111,12.581-8.119,11.265-14.908C424.602,430.153,424.74,429.904,424.699,429.569z"/>
	<path d="M357.488,58.387c0.126-17.416-12.286-31.311-17.932-47.002c-2.089-5.81-9.698-8.882-14.431-3.81
		c-8.219,8.804-7.668,17.967-2.004,28.499c3.024,5.625,8.39,10.697,10.193,16.939c3.33,11.547-4.507,18.182-8.738,27.547
		c-7.521,16.657-0.056,36.621,19.219,38.927c5.283,0.632,6.324-6.081,3.839-9.271C334.845,93.807,357.356,76.833,357.488,58.387z"/>
	<path d="M386.087,9.935c0.677-9.992-11.421-12.442-17.799-7.373c-9.965,7.918-9.443,20.227-3.189,30.687
		c3.885,6.495,10.066,10.033,14.804,15.618c10.079,11.876-1.493,17.709-8.281,27.222c-5.6,7.846-8.983,19.223-2.926,27.715
		c3.477,4.878,10.755,8.483,15.302,2.835c2.836-3.524,1.846-8.247-2.589-9.803c1.714,0.602,20.006-18.014,22.076-20.941
		c4.33-6.118,6.443-13.091,6.089-20.618C408.659,35.88,384.855,28.114,386.087,9.935z"/>
</g>
<g>
</g>
<g>
</g>
<g>
</g>
<g>
</g>
<g>
</g>
<g>
</g>
<g>
</g>
<g>
</g>
<g>
</g>
<g>
</g>
<g>
</g>
<g>
</g>
<g>
</g>
<g>
</g>
<g>
</g>
</svg>
