<?xml version="1.0" encoding="iso-8859-1"?>
<!-- Generator: Adobe Illustrator 19.0.0, SVG Export Plug-In . SVG Version: 6.00 Build 0)  -->
<svg version="1.1" id="Capa_1" xmlns="http://www.w3.org/2000/svg" xmlns:xlink="http://www.w3.org/1999/xlink" x="0px" y="0px"
	 viewBox="0 0 417.318 417.318" style="enable-background:new 0 0 417.318 417.318;" xml:space="preserve">
<path d="M374.762,385.866c0.494-9.192,1.062-18.374,1.021-27.591c-0.003-0.209,0.006-0.391,0.006-0.599
	c7.406-43.714,2.371-91.655,2.335-134.858c-0.057-66.211-0.868-132.414-1.919-198.617c-0.284-17.886-18.732-23.603-31-17.638
	c-42.125-10.927-87.09-5.274-130.244-3.673C164.766,4.752,115.038-0.48,65.091,0.496C54.697,0.7,48.967,7.907,48.201,15.813
	c-1.234,2.413-2.045,5.196-2.12,8.48c-1.508,65.767-3.074,131.534-4.532,197.302c-0.985,44.494-7.748,92.432-1.317,136.965
	c-2.389,14.887-3.185,29.808,0.111,44.895c0.913,4.178,4.727,7.698,8.768,8.77c41.002,10.867,93.161,0.962,135.62,0.968
	c55.979,0.007,112.33,3.932,168.204,0.096c3.138-0.216,5.326-1.547,7.065-3.218c2.191,0.226,4.377,0.555,6.592,0.586
	c6.969,0.099,12.585-7.083,10.537-13.835C376.017,393.145,375.544,389.512,374.762,385.866z M207.846,384.188
	c-10.215,0.353-18.872-7.418-16.145-18.038c0.685-2.669,1.727-4.665,2.996-6.262c7.122-0.007,14.148-0.057,21.271-0.154
	C222.042,370.716,225.349,383.585,207.846,384.188z M332.392,337.325c-81.952-6.341-172.407-7.829-254.324-1.204
	c3.763-37.919,0.878-77.932,1.775-114.526c1.47-60.027,2.863-120.054,4.284-180.081c36.059,7.595,73.905,5.371,110.701,3.772
	c45.974-1.997,93.892,0.332,139.683-4.425c0.653,60.65,0.892,121.302,0.377,181.956
	C334.575,259.944,330.069,299.422,332.392,337.325z"/>
<g>
</g>
<g>
</g>
<g>
</g>
<g>
</g>
<g>
</g>
<g>
</g>
<g>
</g>
<g>
</g>
<g>
</g>
<g>
</g>
<g>
</g>
<g>
</g>
<g>
</g>
<g>
</g>
<g>
</g>
</svg>
