<?xml version="1.0" encoding="iso-8859-1"?>
<!-- Generator: Adobe Illustrator 19.0.0, SVG Export Plug-In . SVG Version: 6.00 Build 0)  -->
<svg version="1.1" id="Capa_1" xmlns="http://www.w3.org/2000/svg" xmlns:xlink="http://www.w3.org/1999/xlink" x="0px" y="0px"
	 viewBox="0 0 422.912 422.912" style="enable-background:new 0 0 422.912 422.912;" xml:space="preserve">
<g>
	<path d="M265.714,275.616c-6.786,0.036-13.571-0.006-20.355-0.02c0.029-0.155,0.103-0.289,0.109-0.455
		c0.639-15.818-0.564-31.736-0.185-47.585c0.071-2.97-2.41-4.249-4.7-3.966c-0.39-0.43-0.883-0.8-1.604-0.989
		c-8.252-2.171-56.997-9.003-59.61,5.034c-0.173,0.447-0.255,0.949-0.202,1.511c0.752,8.116,1.269,16.18,1.304,24.333
		c0.03,6.966-0.843,14.07-0.515,21.041c-9.948-0.923-22.224-1.615-26.328,3.795c-0.219,0.289-0.316,0.616-0.376,0.948
		c-0.26,0.555-0.413,1.153-0.256,1.732c3.189,11.924,15.686,21.707,23.713,30.755c9.776,11.018,19.787,21.819,29.081,33.254
		c2.406,2.961,6.736,0.894,7.842-2.051c11.143-6.731,20.501-16.618,29.274-26.089c9.135-9.861,18.999-20.414,25.835-32.041
		c0.409-0.697,0.493-1.388,0.44-2.049C270.931,280.173,269.81,275.594,265.714,275.616z"/>
	<path d="M352.083,80.732c0.036,6.786-0.006,13.571-0.02,20.355c-0.155-0.029-0.288-0.103-0.454-0.109
		c-15.818-0.639-31.736,0.564-47.585,0.185c-2.971-0.071-4.25,2.41-3.966,4.7c-0.43,0.39-0.801,0.883-0.99,1.604
		c-2.171,8.252-9.002,56.997,5.035,59.61c0.446,0.173,0.949,0.255,1.511,0.202c8.116-0.752,16.179-1.269,24.333-1.304
		c6.965-0.03,14.07,0.843,21.041,0.515c-0.924,9.948-1.615,22.223,3.794,26.328c0.289,0.219,0.616,0.316,0.948,0.376
		c0.556,0.26,1.154,0.412,1.733,0.256c11.923-3.189,21.707-15.686,30.755-23.713c11.018-9.776,21.819-19.787,33.254-29.081
		c2.961-2.406,0.894-6.736-2.051-7.842c-6.732-11.144-16.618-20.501-26.089-29.274c-9.861-9.135-20.415-18.999-32.042-25.835
		c-0.697-0.409-1.388-0.493-2.049-0.44C356.639,75.515,352.06,76.635,352.083,80.732z"/>
	<path d="M63.671,77.263c-0.662-0.053-1.353,0.031-2.049,0.44c-11.627,6.836-22.18,16.701-32.041,25.835
		c-9.472,8.773-19.358,18.131-26.09,29.274c-2.944,1.107-5.012,5.436-2.051,7.842c11.436,9.294,22.236,19.306,33.254,29.081
		c9.048,8.027,18.832,20.523,30.755,23.713c0.579,0.156,1.177,0.004,1.732-0.256c0.332-0.06,0.66-0.156,0.948-0.376
		c5.409-4.105,4.718-16.38,3.795-26.328c6.971,0.328,14.075-0.545,21.041-0.515c8.153,0.035,16.217,0.552,24.333,1.304
		c0.561,0.053,1.063-0.029,1.511-0.202c14.037-2.613,7.205-51.358,5.034-59.61c-0.189-0.72-0.56-1.214-0.989-1.604
		c0.283-2.29-0.996-4.771-3.966-4.7c-15.849,0.38-31.767-0.824-47.585-0.185c-0.166,0.005-0.299,0.08-0.455,0.109
		c-0.013-6.784-0.056-13.569-0.02-20.355C70.851,76.635,66.272,75.515,63.671,77.263z"/>
</g>
<g>
</g>
<g>
</g>
<g>
</g>
<g>
</g>
<g>
</g>
<g>
</g>
<g>
</g>
<g>
</g>
<g>
</g>
<g>
</g>
<g>
</g>
<g>
</g>
<g>
</g>
<g>
</g>
<g>
</g>
</svg>
