<?xml version="1.0" encoding="iso-8859-1"?>
<!-- Generator: Adobe Illustrator 19.0.0, SVG Export Plug-In . SVG Version: 6.00 Build 0)  -->
<svg version="1.1" id="Capa_1" xmlns="http://www.w3.org/2000/svg" xmlns:xlink="http://www.w3.org/1999/xlink" x="0px" y="0px"
	 viewBox="0 0 416.031 416.031" style="enable-background:new 0 0 416.031 416.031;" xml:space="preserve">
<g>
	<path d="M244.977,164.313c0.098-0.453,0.387-0.774,0.361-1.3c-0.636-12.687-11.576-25.315-19.294-34.832
		c-8.694-10.718-19.376-19.717-32.154-25.074c-2.183-1.529-5.167-1.799-7.115,0.624c-12.412,15.457-23.617,24.404-44.832,20.668
		c-15.088-2.656-29.945-10.055-35.479-25.26c-1.225-3.369-5.887-3.48-7.223-0.59c-14.764,3.47-25.737,17.424-33.479,29.655
		c-5.707,9.016-13.331,22.009-14.748,33.995c-0.601,0.371-1.204,0.744-1.805,1.116c-1.327,0.82-2.401,2.372-2.296,3.999
		c2.304,35.359,55.271,51.633,83.876,53.808c44.186,3.361,89.081-13.187,113.592-51.09
		C245.733,167.944,245.704,165.974,244.977,164.313z"/>
	<path d="M188.226,222.377c-0.396-2.394-2.316-4.364-5.215-3.203c-23.938,9.586-46.957,9.887-71.573,3.411
		c-2.424-1.633-6.167-0.422-6.39,3.234c-2.857,46.91,82.58,46.195,86.438,1.358C191.723,224.418,190.184,222.875,188.226,222.377z"
		/>
	<path d="M329.367,368.032c-0.1-0.616-0.259-1.259-0.313-1.878c0.037-1.608-0.022-3.173-0.087-4.548
		c-0.422-8.869-12.88-8.68-13.643,0c-0.095,1.067-0.057,2.117-0.074,3.172c-6.97-1.377-16.765-3.195-28.078-4.915
		c19.854-50.075,41.502-99.356,65.132-147.798c15.112-30.977,20.565-29.125,4.831-53.168c-14.43-22.051-35.573-41.969-52.706-62.038
		c-13.374-15.668-30.678-47.927-49.113-56.179c-18.623-8.333-46.084,9.702-64.864,21.725c-1.866-29.276-10.398-63.306-43.813-62.385
		c-41.444,1.14-41.935,56.774-38.734,86.177c0.127,1.17,0.95,1.754,1.82,1.914c0.673,16.757,16.281,27.401,32.974,28.97
		c17.124,1.611,32.518-2.772,39.354-16.264c4.137-3.977,7.807-9.023,8.263-13.976c0.316-0.608,0.546-1.273,0.562-2.053
		c0.039-2.043,0.06-4.222,0.062-6.477c12.128-4.287,24.649-10.156,36.803-13.321c10.04-11.871,17.78-12.112,23.219-0.724
		c6.627,7.717,13.253,15.432,19.88,23.15c21.546,24.919,64.803,59.15,68.58,91.353c3.79,32.333-28.82,76.722-42.174,106.93
		c-10.446,23.626-20.202,47.534-29.748,71.529c-44.272-5.099-97.823-5.18-100.563,23.959c-2.601,27.659,52.689,33.517,94.81,33.393
		c14.768,0.999,29.63,1.364,44.535,1.367c16.7,0.003,57.861,2.516,62.434-19.989C372.041,379.58,354.744,371.461,329.367,368.032z"
		/>
</g>
<g>
</g>
<g>
</g>
<g>
</g>
<g>
</g>
<g>
</g>
<g>
</g>
<g>
</g>
<g>
</g>
<g>
</g>
<g>
</g>
<g>
</g>
<g>
</g>
<g>
</g>
<g>
</g>
<g>
</g>
</svg>
