<?xml version="1.0" encoding="iso-8859-1"?>
<!-- Generator: Adobe Illustrator 19.0.0, SVG Export Plug-In . SVG Version: 6.00 Build 0)  -->
<svg version="1.1" id="Capa_1" xmlns="http://www.w3.org/2000/svg" xmlns:xlink="http://www.w3.org/1999/xlink" x="0px" y="0px"
	 viewBox="0 0 395.787 395.787" style="enable-background:new 0 0 395.787 395.787;" xml:space="preserve">
<g>
	<path d="M180.774,75.774c-57.208,8.214-95.047,61.816-88.486,118.137c4.573,39.23,40.462,93.041,82.364,95.533
		c1.715,0.969,3.64,1.645,6.007,1.503c63.408-3.834,115.167-52.303,112.473-118.112C290.771,115.238,238.963,67.42,180.774,75.774z
		 M262.579,191.475c-7.329,37.667-36.525,60.367-70.538,70.992c-41.995-6.815-72.983-33.414-73.282-81.071
		c-0.256-40.791,31.882-77.237,73.61-78.331C238.478,101.856,271.028,148.052,262.579,191.475z"/>
	<path d="M215.02,291.875c-9.025-0.666-16.521,5.252-25.288,6.896c-8.031,1.506-15.657-0.264-22.834-4.044
		c-8.894-4.689-22.509,5.706-15.236,15.238c8.595,11.262,20.376,16.364,34.684,15.637c13.36-0.68,30.846-4.913,38.513-16.577
		C229.947,301.285,223.077,292.471,215.02,291.875z"/>
	<path d="M227.261,338.195c-0.551-2.284-1.524-4.228-3.352-5.751c-4.757-3.965-10.214-4.837-15.797-2.038
		c-6.97,3.496-14.699,5.188-22.514,4.731c-7.824-0.457-14.663-4.038-22.3-5.255c-10.886-1.737-17.111,9.224-10.369,17.812
		c15.3,19.493,49.167,15.405,68.34,5.22C226.463,350.156,228.576,343.656,227.261,338.195z"/>
	<path d="M231.895,371.538c-0.27-0.697-0.54-1.395-0.81-2.092c-2.961-7.642-13.15-12.306-19.589-5.171
		c-4.831,5.352-19.252,5.412-25.947,5.032c-9.339-0.529-19.018-2.694-28.074-4.919c-8.303-2.041-14.899,8.354-8.505,14.609
		c18.539,18.134,55.015,23.134,76.939,7.247C230.231,383.113,234.084,377.191,231.895,371.538z"/>
	<path d="M111.308,266.954c-6.158,3.752-10.362,9.702-15.68,14.481c-5.504,4.948-11.378,8.767-13.485,16.238
		c-1.243,4.404,1.515,9.924,6.196,10.912c16.934,3.575,35.913-18.466,35.047-34.698
		C123.075,267.997,116.748,263.638,111.308,266.954z"/>
	<path d="M62.903,197.907c-7.599,2.859-15.185,5.797-22.981,8.085c-4.816,1.413-9.488,6.484-9.025,11.852
		c0.2,2.293,0.481,4.184,1.68,6.202c3.662,6.172,10.699,7.124,16.817,4.41c8.503-3.772,15.916-8.562,22.456-15.183
		C77.917,207.135,71.849,194.542,62.903,197.907z"/>
	<path d="M75.199,123.301c-6.131-4.152-12.867-7.329-19.104-11.329c-6.468-4.146-11.767-8.481-19.906-5.867
		c-4.456,1.432-7.408,5.24-7.559,9.928c-0.567,17.537,27.24,26.012,41.404,26.332C80.745,142.608,83.196,128.718,75.199,123.301z"/>
	<path d="M110.352,30.5c-7.606-5.447-18.424,3.585-15.695,12.065c2.015,6.262,5.919,10.915,9.966,16.028
		c3.973,5.017,7.768,10.642,12.599,14.852c6.383,5.562,15.448,0.172,13.852-8.064C128.709,53.161,120.494,37.764,110.352,30.5z"/>
	<path d="M203.162,4.949c-3.629-7.717-13.406-5.378-17.554,0c-7.415,9.61-6.824,28.047-5.519,39.624
		c1.301,11.555,16.556,14.49,20.605,2.789C205.048,34.769,209.012,17.376,203.162,4.949z"/>
	<path d="M281.482,23.655c-12.912,4.265-21.286,16.185-29.681,26.331c-3.397,4.108-4.199,8.82-1.758,13.637
		c0.728,1.442,1.781,2.655,3.174,3.509c0.288,0.177,0.576,0.352,0.861,0.529c3.141,1.924,8.26,2.281,11.361,0
		c11.075-8.151,24.938-17.882,27.991-32.058C294.899,28.781,288.919,21.198,281.482,23.655z"/>
	<path d="M338.974,79.578c-6.565,1.272-11.268,5.852-16.603,9.624c-5.407,3.825-11.194,6.663-16.819,10.104
		c-10.45,6.393-3.085,20.195,7.832,18.58c13.962-2.064,33.85-11.254,38.252-25.644C354.087,84.233,346.317,78.155,338.974,79.578z"
		/>
	<path d="M362.47,185.254c-11.545-5.18-26.608-5.417-39.122-4.578c-5.646,0.379-9.436,9.012-3.201,11.825
		c11.03,4.977,25.418,10.802,37.649,10.008C366.036,201.972,371.569,189.336,362.47,185.254z"/>
	<path d="M317.46,285.282c-9.84-9.4-22.282-18.484-34.279-24.951c-6.615-3.566-15.317,3.885-10.807,10.809
		c7.812,11.993,20.411,23.33,33.316,29.397C315.138,304.979,325.939,293.384,317.46,285.282z"/>
</g>
<g>
</g>
<g>
</g>
<g>
</g>
<g>
</g>
<g>
</g>
<g>
</g>
<g>
</g>
<g>
</g>
<g>
</g>
<g>
</g>
<g>
</g>
<g>
</g>
<g>
</g>
<g>
</g>
<g>
</g>
</svg>
