<?xml version="1.0" encoding="iso-8859-1"?>
<!-- Generator: Adobe Illustrator 19.0.0, SVG Export Plug-In . SVG Version: 6.00 Build 0)  -->
<svg version="1.1" id="Capa_1" xmlns="http://www.w3.org/2000/svg" xmlns:xlink="http://www.w3.org/1999/xlink" x="0px" y="0px"
	 viewBox="0 0 428.2 428.2" style="enable-background:new 0 0 428.2 428.2;" xml:space="preserve">
<g>
	<path d="M228.021,2.129C162.999-8.881,99.243,23.24,80.542,88.417c-9.81,34.193-5.735,69.428,7.818,102.045
		c14.391,34.634,44.897,60.045,63.708,91.329c2.023,6.69,3.576,13.543,4.102,20.676c0.877,11.9-4.163,26.131,5.187,36.042
		c8.19,8.685,21.764,7.31,32.753,7.879c22.545,1.168,45.101,1.967,67.658,2.831c8.284,0.317,15.798-7.405,15.6-15.6
		c-0.478-19.922,4.916-35.734,9.795-52.714C390.837,201.414,372.986,26.677,228.021,2.129z M175.093,46.782
		c-15.253,14.983-27.064,34.646-34.849,53.508c-13.408,32.48-14.008,65.85-3.74,97.13C105.267,141.928,108.261,64.78,175.093,46.782
		z"/>
	<path d="M268.615,361.908c-13.858-10.081-35.885-10.845-52.7-11.418c-17.33-0.589-37.304-0.116-52.633,8.563
		c-12.347,6.993-5.915,21.177,3.642,24.562c-0.121,0.16-0.246,0.318-0.368,0.478c15.828,4.103,33.08,1.701,49.359,2.385
		c16.328,0.687,33.232,5.372,49.243,1.884C278.462,385.466,277.868,368.641,268.615,361.908z"/>
	<path d="M250.469,392.926c-9.844,3.435-26.486-2.285-37.298-2.308c-13.925-0.032-28.069,1.432-41.416,5.504
		c-8.394,2.561-9.295,15.822,0,17.932c16.502,3.745,33.309,6.259,49.859,9.86c12.524,2.725,25.487,6.719,38.041,2.339
		C280.524,418.974,271.548,385.574,250.469,392.926z"/>
</g>
<g>
</g>
<g>
</g>
<g>
</g>
<g>
</g>
<g>
</g>
<g>
</g>
<g>
</g>
<g>
</g>
<g>
</g>
<g>
</g>
<g>
</g>
<g>
</g>
<g>
</g>
<g>
</g>
<g>
</g>
</svg>
