<?xml version="1.0" encoding="iso-8859-1"?>
<!-- Generator: Adobe Illustrator 19.0.0, SVG Export Plug-In . SVG Version: 6.00 Build 0)  -->
<svg version="1.1" id="Capa_1" xmlns="http://www.w3.org/2000/svg" xmlns:xlink="http://www.w3.org/1999/xlink" x="0px" y="0px"
	 viewBox="0 0 414.999 414.999" style="enable-background:new 0 0 414.999 414.999;" xml:space="preserve">
<g>
	<path d="M268.838,140.541c-8.391-44.395-48.979-70.031-92.789-65.229c-42.415,4.648-82.723,35.553-91.504,78.396
		c-3.931,19.174-1.131,38.144,8.45,55.261c6.575,11.746,16.319,20.584,23.608,31.837c10.467,16.156,13.381,33.795,17.111,52.273
		c0.925,4.589,4.311,7.101,8.18,7.888c1.958,2.368,4.885,4.065,8.807,4.326c9.357,0.627,18.699,0.933,28.076,1.202
		c8.787,0.257,18.293,1.776,26.643-1.325c4.224-1.567,7.322-6.161,7.784-10.665c2.865-2.734,4.617-6.634,3.438-11.595
		c-5.737-24.127,37.176-64.132,45.932-86.803C269.373,178.509,272.379,159.276,268.838,140.541z"/>
	<path d="M216.984,326.972c-6.762-10.128-18.647-6.652-29.18-6.418c-14.986,0.331-29.9-0.91-44.871-0.923
		c-12.641-0.01-16.166,20.14-3.068,22.673c11.14,2.153,22.419,2.913,33.749,3.186c5.518,0.134,11.037,0.152,16.556,0.041
		c3.149-0.064,6.302-0.17,9.451-0.314c1.701-0.051,2.803-0.092,3.636-0.131c1.942,0.49,3.923,0.678,5.74,0.087
		c0.223-0.074,0.447-0.146,0.673-0.219C216.753,342.652,221.581,333.858,216.984,326.972z"/>
	<path d="M208.375,353.782c-13.039,0.192-26.072,0.249-39.114,0.092c-11.204-0.134-21.172-2.338-30.142,5.177
		c-3.468,2.903-2.736,8.45,0,11.459c7.621,8.378,19.495,7.119,30.142,7.73c13.031,0.748,26.07,0.886,39.114,0.609
		c-0.01-0.016-0.018-0.031-0.026-0.047C222.305,379.852,226.148,353.522,208.375,353.782z"/>
	<path d="M210.857,384.08c-19.618,1.084-39.828,0.062-59.302,2.428c-10.557,1.282-15.303,17.812-2.76,20.384
		c20.03,4.108,41.74,3.168,62.062,2.335c-0.092-0.164-0.185-0.324-0.277-0.486C226.21,408.536,227.433,383.165,210.857,384.08z"/>
	<path d="M407.462,138.799c-2.03-5.616-7.841-7.818-12.723-6.813c-1.886-1.701-4.244-2.898-7.142-2.939
		c-21.365-0.306-42.448,0.121-63.69-1.172c-0.838-32.31,1.834-65.961-4.069-97.341c-0.444-2.371-1.683-4.036-3.294-5.113
		c-1.85-2.261-4.661-3.949-8.54-4.347c-41.98-4.304-88.267,6.829-129.372-3.052c-7.592-1.824-15.924,3.653-15.679,11.947
		c0.344,11.767,0.483,23.084,2.567,34.663c1.323,7.358,10.49,8.882,15.746,5.146c57.442-0.799,106.329,21.244,98.873,96.167
		c-3.027,30.399-25.841,55.055-37.382,81.988c-14.968,34.936-10.395,72.046-10.415,109.561c0,2.26,0.693,4.028,1.637,5.567
		c-0.124,3.702,1.842,7.625,5.734,8.851c46.59,14.664,106.305,7.374,154.544,3.54c3.936,0.869,7.215-0.93,9.624-3.771
		c2.344-1.02,4.26-2.826,4.753-5.601c6.726-37.759,4.573-76.801,4.62-115.061C413.294,215.073,419.789,172.89,407.462,138.799z"/>
	<path d="M413.049,105.929c-8.733-13.53-22.347-24.084-33.343-35.779c-10.562-11.233-20.418-27.074-33.741-34.936
		c-0.349-0.206-0.734-0.139-1.105-0.236c-2.777-1.804-7.759,0.09-7.913,4.131c-0.894,23.749-0.437,47.545-1.115,71.315
		c-0.116,4.039,3.751,8.327,7.962,7.965c19.582-1.691,39.111-2.097,58.719-0.668c3.654,0.267,5.94-1.585,7.032-4.077
		C412.762,112.809,415.236,109.318,413.049,105.929z"/>
	<path d="M132.841,27.053c-4.419-8.399-7.425-18.072-16.982-21.43c-8.545-3.006-17.224,6.341-14.647,14.644
		c0.049,0.154,0.095,0.311,0.144,0.465c0.26,0.843,0.732,1.662,1.211,2.469l-0.155-0.087c4.306,6.931,8.219,14.109,12.337,21.152
		c4.06,6.939,6.97,13.665,15.367,15.7c4.791,1.164,9.005-1.516,10.618-6.028C144.135,44.444,137.167,35.269,132.841,27.053z"/>
	<path d="M99.251,78.532c-7.476-15.878-24.587-30.835-38.008-41.744l0.179,0.426c-3.291-3.818-8.511-5.303-14.166-2.719
		c-0.278,0.129-0.552,0.252-0.827,0.38c-7.035,3.217-7.898,14.285-2.477,19.205c7.14,6.477,14.485,12.679,21.371,19.441
		c6.557,6.443,12.656,13.473,20.297,18.642C94.617,98.257,103.11,86.729,99.251,78.532z"/>
	<path d="M69.682,112.227c-5.428-8.707-15.88-13.583-24.713-18.352c-7.533-4.059-15.313-7.571-23.169-10.922
		c-0.339-0.26-0.544-0.67-0.92-0.876c-2.003-1.102-3.916-1.649-5.901-2.05c-0.142-0.057-0.278-0.123-0.419-0.18v0.108
		c-1.028-0.19-2.02-0.406-3.171-0.534c-14.079-1.585-15.07,19.243-3.168,23.415c9.868,3.458,19.59,7.294,29.081,11.692
		c8.304,3.846,16.232,9.082,25.481,9.725C68.827,124.669,72.75,117.146,69.682,112.227z"/>
	<path d="M63.827,156.599c-7.831-5.734-18.894-5.483-28.284-5.57c-10.218-0.1-20.196-0.123-29.599,4.044
		c-8.242,3.65-6.464,18.676,2.615,20.016c9.704,1.437,19.205-0.722,28.998-1.045c9.169-0.303,17.802,0.665,26.27-3.222
		C70.024,167.981,68.272,159.851,63.827,156.599z"/>
	<path d="M65.764,215.881c-7.579,2.438-14.103,7.137-21.124,10.821c-7.543,3.951-15.4,6.873-23.315,9.966
		c-8.091,3.163-12.094,13.062-5.254,19.901c2.903,2.901,7.533,3.866,11.612,2.959c-0.01,0.034-0.02,0.069-0.028,0.103
		c16.939-5.572,38.068-15.125,48.75-29.908C81.246,223.023,73.225,213.483,65.764,215.881z"/>
	<g>
		<path d="M94.832,261.201c-9.029,8.221-16.582,18.606-24.546,27.876c-2.482,2.888-5.197,5.703-7.44,8.781
			c-1.411,1.942-2.497,3.332-3.16,5.781c-0.123,0.452-0.167,2.538-0.2,4.216c0.057-0.008,0.118-0.016,0.175-0.024
			c0.061,4.887,3.478,9.797,10.174,10.624c8.517,1.056,13.843-8.907,18.164-14.492c6.264-8.098,17.149-19.844,22.018-31.046
			C114.255,263.172,103.429,253.375,94.832,261.201z"/>
		<path d="M59.485,307.855l-0.224,0.03C59.413,311.434,59.441,309.979,59.485,307.855z"/>
	</g>
</g>
<g>
</g>
<g>
</g>
<g>
</g>
<g>
</g>
<g>
</g>
<g>
</g>
<g>
</g>
<g>
</g>
<g>
</g>
<g>
</g>
<g>
</g>
<g>
</g>
<g>
</g>
<g>
</g>
<g>
</g>
</svg>
