<?xml version="1.0" encoding="iso-8859-1"?>
<!-- Generator: Adobe Illustrator 19.0.0, SVG Export Plug-In . SVG Version: 6.00 Build 0)  -->
<svg version="1.1" id="Capa_1" xmlns="http://www.w3.org/2000/svg" xmlns:xlink="http://www.w3.org/1999/xlink" x="0px" y="0px"
	 viewBox="0 0 424.793 424.793" style="enable-background:new 0 0 424.793 424.793;" xml:space="preserve">
<g>
	<path d="M364.205,48.366c-0.064-13.024-20.327-13.052-20.243,0c0.75,116.596-10.01,240.005,5.187,355.85
		c-81.253-3.3-165.524-7.017-246.605-2.439c-7.155,0.406-9.821,12.235-1.808,13.36c81.778,11.468,169.756,11.116,252.107,7.151
		c5.744-0.275,8.63-4.626,8.648-8.968c0.385-0.678,0.665-1.417,0.77-2.22C377.696,293.446,364.786,167.023,364.205,48.366z"/>
	<path d="M320.836,203.106c-0.963-64.577,2.63-129.048,2.401-193.597c-0.019-5.418-6.849-7.929-10.581-5.512
		c-1.402-1.044-3.067-1.856-5.275-1.98c-47.304-2.668-95.283-1.509-142.634-0.662C139.639,1.803,92.65-6.224,72.884,12.277
		c-0.05,0.047-0.069,0.103-0.116,0.15c-2.019,0.87-3.699,2.706-4.029,5.568c-12.923,111.887-16.323,231.644-11.95,344.176
		c0.303,7.807,7.89,10.012,12.994,7.137c77.048,12.722,159.961,9.315,237.771,10.382c6.81,0.094,9.647-5.009,9.323-10.035
		c4.184-0.05,8.302-3.308,9.322-7.337C337.716,316.758,321.545,250.703,320.836,203.106z M119.492,204.991
		c8.027-10.58,18.41-21.365,24.98-33.389c5.25,6.329,11.289,11.869,17.487,17.383c0.849,0.753,1.754,1.186,2.668,1.436
		c2.169,2.553,6.726,3.167,9.409-0.428c8.099-10.852,15.297-22.445,22.515-33.925c4.189-5.262,7.863-10.743,10.68-16.378
		c0.78-1.242,1.635-2.434,2.331-3.706c4.38-4.437,8.115-9.385,10.419-14.82c0.477-1.125,0.495-2.166,0.305-3.117
		c0.853-2.817,0.155-6.179-2.971-8.485c-4.852-3.579-10.315-6.618-15.848-9.335c19.771-12.443,39.667-24.259,60.554-34.672
		c0.453,24.66,1,49.316,1.567,73.973c-4.755-2.909-9.121-6.285-13.369-10.36c-2.227-2.136-4.767-2.464-7.067-1.865
		c-2.356-1.236-5.516-1.094-7.368,1.754c-20.718,31.866-42.675,63.362-60.963,96.712c-7.848-4.176-15.419-8.629-23.05-13.266
		c-0.091-0.07-0.2-0.108-0.296-0.176c-0.274-0.167-0.545-0.325-0.819-0.492c-0.023-0.014-0.048,0-0.07-0.014
		c-2.256-1.194-4.994-1.275-6.835,1.04c-13.786,17.328-27.261,35.005-39.733,53.322c-4.068-3.414-8.173-6.77-12.319-10.093
		c-0.95-0.761-3.337-2.99-5.979-4.95C96.855,235.667,107.966,220.181,119.492,204.991z"/>
</g>
<g>
</g>
<g>
</g>
<g>
</g>
<g>
</g>
<g>
</g>
<g>
</g>
<g>
</g>
<g>
</g>
<g>
</g>
<g>
</g>
<g>
</g>
<g>
</g>
<g>
</g>
<g>
</g>
<g>
</g>
</svg>
