<?xml version="1.0" encoding="iso-8859-1"?>
<!-- Generator: Adobe Illustrator 19.0.0, SVG Export Plug-In . SVG Version: 6.00 Build 0)  -->
<svg version="1.1" id="Capa_1" xmlns="http://www.w3.org/2000/svg" xmlns:xlink="http://www.w3.org/1999/xlink" x="0px" y="0px"
	 viewBox="0 0 422.688 422.688" style="enable-background:new 0 0 422.688 422.688;" xml:space="preserve">
<g>
	<path d="M119.388,168.969c-0.545-2.871-3.154-4.298-5.774-4.306c-0.6-0.326-0.902-0.951-1.608-1.148
		c-14.657-4.107-30.723-2.699-45.887-3.484c-16.905-0.876-33.427-1.62-50.353-0.498c-0.418,0.028-0.625,0.364-1.013,0.447
		c-2.208-0.195-4.534,0.814-5.037,3.245c-0.052,0.251-0.077,0.512-0.126,0.763c-0.768,1.504-1.011,2.982-0.763,4.613
		c-13.183,69.652-5.066,146.829-8.811,217.447c-0.365,6.871,5.586,9.756,10.942,8.897c0.438,0.219,0.832,0.54,1.308,0.649
		c16.415,3.774,33.441,2.817,50.201,2.756c15.223-0.056,30.987,1.105,46.05-1.426c6.519,2.541,15.682-0.603,15.438-9.606
		C122.024,316.529,132.574,238.479,119.388,168.969z"/>
	<path d="M264.516,381.527c1.534-5.656,1.042-12.902,0.878-17.111c-0.322-8.162-1.415-16.281-2.338-24.408
		c1.532-39.729,6.53-80.813-3.397-117.335c-0.67-2.471-2.602-3.572-4.628-3.736c-1.53-1.678-3.772-2.811-6.79-2.833
		c-29.802-0.219-61.823-3.531-91.388,0.573c-2.528-1.354-5.886-0.945-6.807,2.649c-12.964,50.469-14.034,115.299-8.214,166.809
		c0.644,5.717,5.613,8.087,9.734,7.085c10.151,8.055,28.064,5.353,39.756,5.245c21.048-0.195,42.146-0.473,63.176-1.288
		C262.171,396.879,267.141,387.943,264.516,381.527z"/>
	<path d="M407.731,379.739c1.484-6.236-0.269-13.686-1.175-20.606c-2.209-16.897-4.257-33.925-2.563-50.967
		c0.128-1.306-0.233-2.303-0.769-3.156c2.752-4.578,0.63-12.183-6.467-12.598c-33.215-1.944-72.347-8.437-105.072-2.199
		c-0.11,0.02-0.133,0.122-0.233,0.147c-2.354,0.231-4.576,1.456-4.975,4.062c-2.354,15.337-0.894,31.124-1.113,46.629
		c-0.223,15.94-1.789,31.135,1.764,46.828c0.676,2.976,3.358,4.485,6.103,4.672c0.804,0.426,1.458,1.071,2.457,1.159
		c34.331,3.043,69.785,0.131,104.375,1.806C408.307,395.915,412.212,385.476,407.731,379.739z"/>
	<path d="M421.297,206.257c-6.612-15.376-16.629-35.386-31.317-44.392c-11.492-7.046-22.822,6.568-17.432,17.431
		c0.048,0.096,0.136,0.174,0.185,0.269c-78.055-36.636-158.475-75.01-239.992-107.062c-11.049-5.594-22.146-11.022-32.939-16.369
		c-26.138-12.947-54.246-27.67-83.235-32.313c-7.549-1.208-12.272,7.141-7.332,12.361c0,1.447,0.416,2.884,1.936,3.803
		c107.386,64.879,231.1,113.662,348.649,161.404c-16.106,2.291-16.454,27.211,0.794,26.688c16.31-1.018,32.601-1.596,48.945-1.366
		C420.852,226.869,425.173,215.269,421.297,206.257z"/>
</g>
<g>
</g>
<g>
</g>
<g>
</g>
<g>
</g>
<g>
</g>
<g>
</g>
<g>
</g>
<g>
</g>
<g>
</g>
<g>
</g>
<g>
</g>
<g>
</g>
<g>
</g>
<g>
</g>
<g>
</g>
</svg>
