<?xml version="1.0" encoding="iso-8859-1"?>
<!-- Generator: Adobe Illustrator 19.0.0, SVG Export Plug-In . SVG Version: 6.00 Build 0)  -->
<svg version="1.1" id="Capa_1" xmlns="http://www.w3.org/2000/svg" xmlns:xlink="http://www.w3.org/1999/xlink" x="0px" y="0px"
	 viewBox="0 0 441.229 441.229" style="enable-background:new 0 0 441.229 441.229;" xml:space="preserve">
<g>
	<path d="M384.103,52.987c-1.718-4.601-5.795-8.062-12.355-7.585c-106.032,7.715-212.848-0.533-318.354,7.25
		c-0.064,0.005-0.099,0.073-0.167,0.08c-3.083-0.612-5.587,1.109-6.723,3.959c-4.097,5.185-3.917,13.701,4.286,15.213
		c1.541,0.285,3.134,0.428,4.678,0.699c51.747,56.028,102.128,111.466,150.168,170.945c6.887,8.522,19.434,1.881,21.292-7.018
		c27.64-15.732,46.393-46.59,67.865-69.135c30.33-31.844,63.374-61.433,92.798-94.053C394.628,65.544,390.948,56.516,384.103,52.987
		z"/>
	<path d="M158.117,221.518C114.158,175.668,71.144,118.279,17.922,83.066c-4.315-2.854-9.06,0.321-10.326,4.499
		c-4.434,1.2-8.045,4.614-7.551,10.322c4.427,51.04,8.601,100.43,6.835,151.756c-1.194,34.7-10.363,73.241,3.603,105.722
		c1.027,2.392,3.592,3.068,5.981,2.646c2.909,2.337,7.625,2.996,11.009,0.343c45.699-35.83,84.123-79.624,129.434-116.053
		c3.92-3.151,4.961-6.894,4.408-10.443C161.932,228.439,161.226,224.761,158.117,221.518z"/>
	<path d="M439.922,85.023c-0.494-6.036-4.864-8.738-9.192-8.5c-3.265-1.805-7.484-1.876-11.079,1.413
		c-32.276,29.514-60.513,64.918-91.553,95.992c-12.669,12.683-27.816,21.116-41.044,32.644c-7.153,6.235-11.166,13.611-9.279,22.346
		c-0.212,1.713-0.096,3.453,0.572,4.962c-0.08,0.021-0.158,0.043-0.238,0.064c0.231,0.308,0.521,0.56,0.751,0.867
		c0.353,0.551,0.749,1.029,1.259,1.45c35.811,45.977,97.537,67.64,132.603,114.076c8.242,10.918,24.658,4.653,25.287-5.838
		c1.753-1.992,2.783-4.692,2.125-8.064C424.219,255.217,446.683,167.552,439.922,85.023z"/>
	<path d="M396.303,374.458c0.25-1.83-0.129-3.761-1.515-5.588c-16.837-22.162-40.864-40.458-62.215-58.222
		c-21.52-17.907-43.15-34.338-67.618-47.982c-0.521-6.14-7.311-10.102-12.948-8.69c-7.461,1.87-10.38,5.661-15.812,10.97
		c-0.813,0.796-11.019,8.863-16.159,12.775c-0.27-0.285-0.546-0.57-0.815-0.855c-2.556-3.543-6.559-6.637-9.828-9.544
		c-4.302-3.825-8.909-7.315-13.436-10.898c-1.955-7.63-10.954-14.075-19.077-9.001c-49.34,30.82-84.695,81.366-130.49,117.126
		c-7.314,5.712,0.655,19.525,9.266,15.918c0.879-0.367,1.669-0.878,2.536-1.26c0.148,0.03,0.16,0.169,0.314,0.192
		c107.862,16.83,226.73,19.101,335.611,14.183C406.256,393.035,406.41,377.706,396.303,374.458z"/>
</g>
<g>
</g>
<g>
</g>
<g>
</g>
<g>
</g>
<g>
</g>
<g>
</g>
<g>
</g>
<g>
</g>
<g>
</g>
<g>
</g>
<g>
</g>
<g>
</g>
<g>
</g>
<g>
</g>
<g>
</g>
</svg>
