<?xml version="1.0" encoding="iso-8859-1"?>
<!-- Generator: Adobe Illustrator 19.0.0, SVG Export Plug-In . SVG Version: 6.00 Build 0)  -->
<svg version="1.1" id="Capa_1" xmlns="http://www.w3.org/2000/svg" xmlns:xlink="http://www.w3.org/1999/xlink" x="0px" y="0px"
	 viewBox="0 0 431.43 431.43" style="enable-background:new 0 0 431.43 431.43;" xml:space="preserve">
<g>
	<path d="M261.228,109.813c-13.731-7.683-32.131,7.155-28.784,23.483c3.831,18.689,28.968,26.36,41.684,11.543
		C285.35,131.76,277.526,111.868,261.228,109.813z"/>
	<path d="M267.237,180.522c-1.091-10.228-11.332-14.255-19.279-7.985c-23.904,18.857-48.824,38.285-64.389,64.785
		c-0.9,1.529-1.098,3.204-0.863,4.823c-0.814,2.087-1.259,4.371-0.83,6.802c1.541,8.687,10.548,12.726,18.596,11.595
		c8.793-1.236,14.436-7.815,20.215-13.932c4.064-4.304,9.028-8.479,13.378-13.032c-0.946,18.3-1.654,36.677-0.743,54.731
		c-6.643-0.15-13.309-0.014-20.153,0.125c-7.78,0.157-18.128-1.428-25.518,1.651c-15.738,6.556-12.271,29.29-13.196,43.164
		c-1.608,24.146-6.193,50.182-4.781,74.335c0.821,14.038,8.567,24.355,23.338,23.827c4.018-0.146,6.973-2.143,8.906-5.215
		c2.161-1.73,3.899-4.092,4.173-7.513c1.942-24.196-2.858-53.737,2.648-76.999c6.436-27.2,28.145-20.399,53.149-21.018
		c6.168-0.152,11.206-5.052,11.293-11.293C273.79,266.156,271.822,223.503,267.237,180.522z"/>
	<path d="M219.469,268.881c-8.855-0.893-18.289,0.159-27.195,0.415c-7.146,0.206-15.865,2.057-23.311,1.755
		c-0.051-0.081-0.051-0.164-0.109-0.245c-12.522-17.221-25.151-34.423-37.747-51.594c-2.892-3.949-8.424-0.651-6.5,3.799
		c8.408,19.433,21.163,38.945,35.553,54.503c1.393,1.509,3.232,1.764,4.936,1.342c5.22,3.121,12.876,1.894,18.81,1.687
		c12.08-0.425,24.955-0.086,36.834-2.268C226.437,277.23,224.43,269.381,219.469,268.881z"/>
	<path d="M295.282,188.304c-0.005-9.416-14.928-9.404-14.615,0c1.518,45.721-2.113,92.72-3.667,139.355
		c-18.426-1.974-38.497-0.645-56.382,3.356c-1.592,0.358-2.39,1.358-2.837,2.516c-0.96,0.828-1.716,1.961-1.882,3.506
		c-3.211,29.797-6.59,61.051-1.645,90.781c0.653,3.935,6.382,2.678,6.611-0.892c1.863-28.936,3.143-57.84,5.204-86.77
		c16.656,0.657,34.006,0.72,50.554-0.577c-0.711,29.156-0.369,58.113,2.888,86.452c0.429,3.716,6.041,5.222,7.047,0.955
		C304.333,351.528,295.326,265.321,295.282,188.304z"/>
	<path d="M274.126,37.468c-5.036-12.411-23.532-13.38-33.526-6.361c-5.751,4.039-7.933,11.224-6.272,17.932
		c1.915,7.741,8.091,11.992,14.933,15.124c1.382,0.632,2.671,0.457,3.824-0.014c1.024,0.401,2.014,0.872,3.156,1.052
		C271.947,67.705,279.293,50.213,274.126,37.468z"/>
	<path d="M262.047,71.189c-5.183-1.451-9.021-0.456-14.077,1.356c-2.445,0.874-2.122,4.528,0.622,4.609
		c4.641,0.136,8.862,0.754,13.455,0.097C265.264,76.791,264.807,71.959,262.047,71.189z"/>
	<path d="M263.747,82.219c-4.452-2.985-9.411-2.865-14.488-1.324c-2.702,0.821-3.732,5.102-0.847,6.474
		c5.192,2.471,10.071,3.287,15.335,0.815C266.261,87.003,265.709,83.536,263.747,82.219z"/>
	<path d="M228.93,52.537c-7.513-0.187-14.448,1.244-20.367,5.956c-2.814,2.242-0.547,7.713,3.04,7.33
		c6.371-0.678,12.38-2.961,18.457-4.931C234.586,59.421,233.825,52.662,228.93,52.537z"/>
	<path d="M226.555,35.284c-5.402-0.138-9.69-2.256-14.827-2.957c-2.588-0.351-5.646,2.223-3.801,4.945
		c4.332,6.394,12.571,7.235,19.523,4.622C230.896,40.599,230.536,35.381,226.555,35.284z"/>
	<path d="M237.142,9.21c-1.518-3.513-7.28-1.675-7.1,1.924c0.249,4.943,1.952,8.585,4.44,12.871
		c1.972,3.391,7.529,1.158,6.396-2.696C239.663,17.182,238.842,13.159,237.142,9.21z"/>
	<path d="M260.642,1.603c-2.699,4.127-4.027,8.562-5.268,13.323c-0.973,3.718,4.574,6.347,6.394,2.694
		c2.196-4.406,4.175-8.604,4.862-13.489C267.133,0.581,262.805-1.702,260.642,1.603z"/>
	<path d="M288.773,8.283c-6.168,0.803-9.457,3.46-13.648,8.138c-4.171,4.653,2.142,10.901,6.825,6.826
		c3.625-3.158,7.155-5.552,9.996-9.432C293.492,11.704,291.444,7.937,288.773,8.283z"/>
	<path d="M302.98,33.81c-5.065-0.007-9.875,0.68-14.954,0.192c-4.29-0.413-5.015,6.32-1.002,7.395
		c5.767,1.546,11.266,2.468,17.11,0.939C308.88,41.092,307.881,33.815,302.98,33.81z"/>
	<path d="M297.713,60.756c-3.238-2.493-6.38-4.092-10.105-5.732c-4.662-2.053-8.532,4.087-4.066,6.962
		c3.69,2.376,7.132,4.235,11.27,5.651C299.21,69.138,300.807,63.134,297.713,60.756z"/>
</g>
<g>
</g>
<g>
</g>
<g>
</g>
<g>
</g>
<g>
</g>
<g>
</g>
<g>
</g>
<g>
</g>
<g>
</g>
<g>
</g>
<g>
</g>
<g>
</g>
<g>
</g>
<g>
</g>
<g>
</g>
</svg>
