<?xml version="1.0" encoding="iso-8859-1"?>
<!-- Generator: Adobe Illustrator 19.0.0, SVG Export Plug-In . SVG Version: 6.00 Build 0)  -->
<svg version="1.1" id="Capa_1" xmlns="http://www.w3.org/2000/svg" xmlns:xlink="http://www.w3.org/1999/xlink" x="0px" y="0px"
	 viewBox="0 0 426.569 426.569" style="enable-background:new 0 0 426.569 426.569;" xml:space="preserve">
<g>
	<path d="M152.782,161.782c-9.631-7.032-20.066-8.263-29.344-5.525c-5.836,0.23-11.573,1.818-16.794,6.356
		c-11.071,9.624-15.046,26.526-14.535,40.643c1.005,27.819,29.189,55.728,56.734,37.158
		C173.531,223.767,177.461,179.802,152.782,161.782z"/>
	<path d="M216.094,385.651c-0.522-21.695-2.604-43.798-10.184-64.302c-10.921-29.53-35.555-56.926-67.824-62.405
		c-74.485-12.648-99.602,77.111-91.163,137.691c-0.254,3.083-0.508,6.165-0.762,9.247c-0.282,3.415,1.573,5.874,4.116,7.366
		c0.272,0.98,0.461,2.06,0.751,3.01c0.819,2.684,3.507,3.447,5.737,2.809c17.158,10.904,44.467,6.71,63.945,6.703
		c29.078-0.011,60.023,2.43,88.029-6.424c3.193-1.009,5.037-3.752,5.35-6.648C217.938,404.829,216.289,393.606,216.094,385.651z
		 M127.628,273.516c3.862,0.098,7.604,0.662,11.238,1.553c-1.734,5.045-2.996,10.214-3.778,15.487
		c-4.416-0.901-8.857-0.841-13.31,0.26c-2.694-5.533-5.754-10.809-9.19-15.873C117.235,273.99,122.145,273.375,127.628,273.516z
		 M121.328,385.103c-7.14-12.738-10.037-14.915-5.94-29.946c4.771-17.507,7.079-35.24,7.355-53.295
		c4.297-1.17,8.358-1.27,12.872,0.389c-0.155,0.839-0.167,1.749,0.048,2.736c3.699,16.972,12.802,39.246,11.085,56.412
		c-1.208,12.089-11.277,24.362-20.143,35.263C124.889,392.796,123.41,388.821,121.328,385.103z"/>
	<path d="M374.446,96.194c16.037-24.242-9.06-51.245-36.631-46.598c3.066-22.01-1.383-44.917-27.929-49.075
		c-24.383-3.821-38.681,14-41.821,34.553c-20.569-7.516-44.1-6.264-58.033,14.13c-9.702,14.189-8.355,30.185,0.412,42.423
		c-16.458,10.046-23.214,31.257-10.961,49.73c13.806,20.817,37.947,20.78,56.415,9.482c11.867,24.101,46.815,24.78,56.404,0.641
		C351.594,202.497,399.027,121.367,374.446,96.194z"/>
	<path d="M252.065,187.743c-5.48-21.985-46.827-17.532-37.43,5.618c0.132,0.332,0.418,0.623,0.57,0.953
		c0.598,3.336,2.36,6.552,6.652,8.928c0.068,0.037,0.149,0.017,0.217,0.052c5.133,4.581,11.709,7.365,18.44,4.941
		c1.039-0.374,1.623-1.129,2.504-1.645C249.572,203.908,254.518,197.575,252.065,187.743z"/>
	<path d="M220.434,225.896c-6.827-11.247-23.525-7.505-25.027,5.439c-0.037,0.304,0.045,0.562,0.028,0.859
		c-0.39,3.737,0.801,7.228,3.577,10.057c0.83,0.854,1.77,1.557,2.787,2.144c0.666,0.391,0.974,1.039,1.747,1.342
		C215.6,250.45,227.208,237.061,220.434,225.896z"/>
</g>
<g>
</g>
<g>
</g>
<g>
</g>
<g>
</g>
<g>
</g>
<g>
</g>
<g>
</g>
<g>
</g>
<g>
</g>
<g>
</g>
<g>
</g>
<g>
</g>
<g>
</g>
<g>
</g>
<g>
</g>
</svg>
