<?xml version="1.0" encoding="iso-8859-1"?>
<!-- Generator: Adobe Illustrator 19.0.0, SVG Export Plug-In . SVG Version: 6.00 Build 0)  -->
<svg version="1.1" id="Capa_1" xmlns="http://www.w3.org/2000/svg" xmlns:xlink="http://www.w3.org/1999/xlink" x="0px" y="0px"
	 viewBox="0 0 434.795 434.795" style="enable-background:new 0 0 434.795 434.795;" xml:space="preserve">
<g>
	<path d="M365.618,157.335C360.285,80.528,304.824,4.998,223.533,0.246c-74.31-4.344-146.501,49.385-153.902,124.52
		c-4.735,48.064,13.357,93.324,35.247,135.122c31.018,59.233,65.783,117.903,103.407,173.141c2.114,3.103,6.304,1.714,7.043-1.063
		c1.674,0.595,3.596,0.415,5.231-1.274c35.989-37.167,61.005-88.479,88.129-132.205
		C336.537,253.585,369.449,212.543,365.618,157.335z M318.817,182.221c-18.896,63.276-74.714,91.043-136.749,80.927
		c-42.949-22.574-75.398-58.871-74.786-110.181c0.761-63.599,69.919-118.675,132.147-102.253
		C293.231,64.912,335.328,126.928,318.817,182.221z"/>
	<path d="M239.118,82.09c-5.962-15.891-21.975-23.456-37.187-14.366c-23.685,14.153-19.836,73.547,8.576,77.308
		c7.689,4,16.068-0.411,21.406-7.336c6.196-8.039,8.797-17.787,9.348-27.74C243.021,100.696,242.464,91.012,239.118,82.09z"/>
	<path d="M292.005,216.974c0.051-32.028-8.437-76.273-48.974-77.006c-0.981-0.018-1.615,0.439-2.072,1.042
		c-0.792,0.21-1.513,0.75-1.977,1.77c-4.495,9.878-13.988,15.139-24.776,13.894c-4.871-0.56-9.298-2.31-13.403-5.029
		c-2.368-1.698-4.619-3.538-6.751-5.52c-0.751-1.548-1.532-2.217-2.34-2.155c-0.05-0.15-0.099-0.303-0.15-0.454
		c-0.257-0.788-0.844-1.134-1.622-1.237c-0.25-0.032-0.499-0.064-0.747-0.096c-0.829-0.109-1.902,0.728-2.038,1.55
		c-0.025,0.146,0.045,0.278,0.03,0.422c-38.774-4.976-50.337,46.381-47.551,75.451c0.085,0.891,0.589,1.565,1.227,2.086
		c5.974,25.245,51.273,33.915,72.157,35.261c29.053,1.875,64.029-4.816,77.645-33.523c0.605-1.277,0.477-2.484-0.012-3.493
		C291.448,219.296,292.003,218.324,292.005,216.974z"/>
</g>
<g>
</g>
<g>
</g>
<g>
</g>
<g>
</g>
<g>
</g>
<g>
</g>
<g>
</g>
<g>
</g>
<g>
</g>
<g>
</g>
<g>
</g>
<g>
</g>
<g>
</g>
<g>
</g>
<g>
</g>
</svg>
