<?xml version="1.0" encoding="iso-8859-1"?>
<!-- Generator: Adobe Illustrator 19.0.0, SVG Export Plug-In . SVG Version: 6.00 Build 0)  -->
<svg version="1.1" id="Capa_1" xmlns="http://www.w3.org/2000/svg" xmlns:xlink="http://www.w3.org/1999/xlink" x="0px" y="0px"
	 viewBox="0 0 428.225 428.225" style="enable-background:new 0 0 428.225 428.225;" xml:space="preserve">
<g>
	<path d="M357.483,0.441c-2.12-0.785-4.584-0.633-6.719,1.36c-18.565,17.329-37.359,34.392-55.863,51.791
		c-9.482,8.916-27.132,19.956-33.503,33.099c-3.795,3.638-6.844,7.764-6.786,11.678c0.004,0.202,0.133,0.361,0.165,0.555
		c0.156,3.893,2.946,7.824,7.226,7.318c11.158-1.316,22.62-7.142,33.377-11.73c-40.336,64.743-72.945,133.207-109.893,199.793
		c-7.385-4.245-15.886-6.659-23.854-9.683c-10.762-4.085-21.232-8.185-32.716-9.592c-3.039-0.372-5.059,1.008-6.117,3.054
		c-1.535,1.041-2.918,2.388-3.764,4.433c-18.636,45.02-39.538,89.939-53.625,136.615c-2.344,7.764,9.338,12.862,13.209,5.568
		c22.114-41.68,38.637-86.579,56.354-130.337c6.319,3.09,12.967,5.573,19.524,8.09c9.886,3.797,20.043,9.322,30.703,9.778
		c0.444,0.019,0.848-0.113,1.27-0.177c2.24,0.685,4.74,0.312,6.745-1.947c25.136-28.284,39.281-66.369,57.167-99.413
		c19.383-35.811,40.204-70.715,61.016-105.681c2.32,8.563,5.228,16.967,8.428,25.381c0.032,0.08,0.004,0.156,0.04,0.237
		c0.359,0.832,0.719,1.665,1.078,2.497c1.815,4.193,6.168,4.962,10.006,3.774c0.479,0.017,0.933,0.149,1.432,0.03
		c14.188-3.359,11.612-38.13,13.058-48.323c3.954-27.867,15.99-54.124,17.991-82.128C363.688,2.877,360.621,0.728,357.483,0.441z"/>
	<path d="M379.618,322.784c-0.073-0.661-0.317-1.266-0.406-1.923c-0.711-75.606-104.621-95.789-145.261-36.456
		c-19.999,29.199-16.996,67.416,6.101,94.149c18.388,21.286,57.913,40.693,85.844,27.782
		C359.786,397.324,384.043,362.452,379.618,322.784z M320.318,366.645c-22.202,10.732-48.675,2.737-59.536-19.996
		c-10.615-22.219,0.146-45.331,19.347-57.001c19.809-8.244,43.409-5.851,56.702,14.139
		C351.09,325.234,343.423,355.476,320.318,366.645z"/>
	<path d="M175.655,83.587c-38.889-15.804-106.059-1.462-121.918,40.862c-17.325,46.241,6.339,100.503,55.168,113.506
		c44.776,11.923,94.053-19.034,98.398-65.287C215.77,138.467,210.146,97.602,175.655,83.587z M122.878,199.144
		c-18.791-6.283-33.899-19.047-34.115-42.537c-0.25-27.14,30.264-41.435,53.983-35.513c21.435,5.351,35.371,28.15,29.169,49.751
		C165.23,194.125,143.636,198.141,122.878,199.144z"/>
</g>
<g>
</g>
<g>
</g>
<g>
</g>
<g>
</g>
<g>
</g>
<g>
</g>
<g>
</g>
<g>
</g>
<g>
</g>
<g>
</g>
<g>
</g>
<g>
</g>
<g>
</g>
<g>
</g>
<g>
</g>
</svg>
