<?xml version="1.0" encoding="iso-8859-1"?>
<!-- Generator: Adobe Illustrator 19.0.0, SVG Export Plug-In . SVG Version: 6.00 Build 0)  -->
<svg version="1.1" id="Capa_1" xmlns="http://www.w3.org/2000/svg" xmlns:xlink="http://www.w3.org/1999/xlink" x="0px" y="0px"
	 viewBox="0 0 444.807 444.807" style="enable-background:new 0 0 444.807 444.807;" xml:space="preserve">
<g>
	<path d="M247.553,282.26c-2.242-1.682-4.685-2.721-7.118-3.769c3.484-26.49,1.031-54.626,1.096-80.66
		c0.039-14.045-21.128-13.935-21.736,0c-1.11,25.535-4.747,52.832-2.753,78.936c-16.531,4.428-30.638,19.662-29.899,40.277
		c1.389,38.74,49.765,58.727,77.058,29.906C285.98,323.951,272.497,288.634,247.553,282.26z"/>
	<path d="M297.256,246.407c-1.224-1.339-2.548-2.139-3.879-2.836c0.28-0.953,0.664-1.826,0.722-2.951
		c1.81-34.674,2.343-69.322,5.147-103.953c2.186-27.059,7.571-55.989,0.227-82.718c-7.086-25.779-25.832-44.834-49.738-46.02
		c-1.341-1.539-2.967-2.915-5.254-3.805c-41.433-16.137-72.595,17.66-79.05,56.615c-4.887,29.488,0.085,60.861-1.298,90.736
		c-1.474,31.803-5.02,62.041,4.564,92.776c-41.924,14.06-66.534,64.779-61.276,106.974c6.156,49.428,45.744,83.928,93.521,91.6
		c52.137,8.372,106.834-9.396,128.672-60.634C350.229,333.839,330.826,283.17,297.256,246.407z M195.185,411.935
		c-35.557-8.168-62.506-39.609-60.137-77.181c2.561-40.626,33.098-50.522,49.713-81.137c0.231-0.429,0.12-0.849,0.27-1.282
		c2.837-1.569,4.909-4.428,4.776-8.716c-1.048-33.626,0.485-66.293,1.731-99.894c1.08-29.12-14.322-115.596,32.424-117.214
		c1.444,1.53,3.485,2.601,6.331,2.647c58.312,0.937,47.699,69.697,44.592,107.509c-2.844,34.547-4.952,69.293-3.833,103.953
		c0.143,4.519,2.352,7.486,5.245,9.251c-2.557,4.681-2.772,10.66,1.744,15.748C340.117,335.514,291.761,434.119,195.185,411.935z"/>
</g>
<g>
</g>
<g>
</g>
<g>
</g>
<g>
</g>
<g>
</g>
<g>
</g>
<g>
</g>
<g>
</g>
<g>
</g>
<g>
</g>
<g>
</g>
<g>
</g>
<g>
</g>
<g>
</g>
<g>
</g>
</svg>
