<?xml version="1.0" encoding="iso-8859-1"?>
<!-- Generator: Adobe Illustrator 19.0.0, SVG Export Plug-In . SVG Version: 6.00 Build 0)  -->
<svg version="1.1" id="Capa_1" xmlns="http://www.w3.org/2000/svg" xmlns:xlink="http://www.w3.org/1999/xlink" x="0px" y="0px"
	 viewBox="0 0 405.32 405.32" style="enable-background:new 0 0 405.32 405.32;" xml:space="preserve">
<g>
	<path d="M332.76,41.482c-31.203,9.324-52.567,41.138-44.36,73.668c4.77,18.919,19.087,33.106,36.163,37.498
		c8.741,5.8,19.102,8.809,30.946,6.984C422.936,149.234,407.496,19.149,332.76,41.482z"/>
	<path d="M363.178,169.876c-2.198-1.21-4.296-1.308-6.229-0.914c-53.195-2.925-87.809,50.073-99.397,96.905
		c-6.335,25.584-18.651,75.33-6.453,100.241c9.125,18.635,38.027,24.034,55.614,27.462c23.35,4.552,59.861,10.378,81.943-1.776
		c20.333-11.191,16.163-36.478,16.276-56.486C405.189,288.954,411.377,196.436,363.178,169.876z"/>
	<path d="M261.981,89.527c-0.557-1.681-1.682-2.696-2.977-3.319c-0.636-1.605-1.585-3.086-2.962-3.934
		c-7.259-4.466-15.807-4.625-24.003-6.682c-16.389-4.114-32.093-10.361-47.361-17.547c-24.778-11.663-47.378-27.751-72.454-38.628
		c-2.508-1.087-4.678-0.112-5.768,1.547c-3.008,0.708-5.673,3.008-5.989,7.053c-2.421,31.053-1.954,62.459-2.432,93.601
		c-0.348,22.98-4.886,47.844,4.86,69.145c1.546,3.376,6.83,4.568,9.805,2.571c2.236-1.502,3.647-2.584,4.801-3.737
		c22.082-7.102,42.467-21.082,64.126-29.617c9.156-3.607,18.484-6.396,27.845-9.02c-0.741,6.55-0.015,13.524,0.015,19.933
		c-0.108,5.591,4.258,8.354,8.623,8.311c4.365,0.046,8.73-2.711,8.622-8.311c0.041-7.984,1.19-16.698-0.859-24.467
		c9.769-2.6,19.536-5.223,29.174-8.45c3.499-1.171,4.791-4.676,4.237-7.721C264.912,117.943,266.228,102.356,261.981,89.527z
		 M249.752,125.689c-1.828,0.113-3.913,0.471-5.819,0.654c2.088-9.71,3.591-20.366,3.595-30.59c0.95,0.666,1.99,1.072,3.103,1.116
		C250.354,106.478,250.085,116.077,249.752,125.689z"/>
	<path d="M80.148,38.502c-21.595,1.344-26.832-13.081-39.974-26.095c-8.71-8.629-22.018-8.671-27.027,3.32
		c-1.952,4.677,3.798,9.947,8.314,8.315c6.976-2.522,11.459,7.637,15.52,12.155c3.96,4.407,8.604,8.495,13.819,11.348
		c10.005,5.469,22.033,6.881,31.995,0.731C86.986,45.684,85.56,38.164,80.148,38.502z"/>
	<path d="M76.496,108.751c-15.481-6.145-26.412-19.931-44.229-19.711c-12.703,0.157-28.222,7.207-31.993,20.058
		c-1.726,5.882,5.055,10.917,10.254,7.883c12.678-7.398,20.454-15.33,35.781-7.621c9.633,4.845,17.394,10.891,28.666,10.637
		C81.779,119.842,82.295,111.053,76.496,108.751z"/>
	<path d="M77.066,166.272c-11.069,8.561-26.227,6.03-37.951,13.371c-10.236,6.409-17.587,22.73-7.979,32.528
		c3.45,3.517,8.785,1.512,10.31-2.723c2.147-5.964,0.849-12.123,6.243-16.675c4.183-3.529,10.105-4.675,15.193-6.255
		c8.571-2.663,17.589-5.78,22.072-14.16C87.812,167.019,81.415,162.909,77.066,166.272z"/>
</g>
<g>
</g>
<g>
</g>
<g>
</g>
<g>
</g>
<g>
</g>
<g>
</g>
<g>
</g>
<g>
</g>
<g>
</g>
<g>
</g>
<g>
</g>
<g>
</g>
<g>
</g>
<g>
</g>
<g>
</g>
</svg>
