<?xml version="1.0" encoding="iso-8859-1"?>
<!-- Generator: Adobe Illustrator 19.0.0, SVG Export Plug-In . SVG Version: 6.00 Build 0)  -->
<svg version="1.1" id="Capa_1" xmlns="http://www.w3.org/2000/svg" xmlns:xlink="http://www.w3.org/1999/xlink" x="0px" y="0px"
	 viewBox="0 0 406.461 406.461" style="enable-background:new 0 0 406.461 406.461;" xml:space="preserve">
<g>
	<path d="M397.875,199.793c-0.697-56.699,2.404-113.129,8.051-169.528c0.957-9.555-11.067-14.962-18.502-10.618
		c-40.421,23.62-84.042,44.907-118.852,76.487c-1.587,1.438-1.748,3.328-1.401,5.149c-0.34,0.083-0.699,0.046-1.031,0.159
		c-5.067-0.431-10.509,2.555-10.696,9.17c-1.343,47.84-4.24,97.146,0.14,144.847c0.623,6.789,6.967,8.728,11.31,6.234
		c15.469,16.093,31.87,30.973,49.809,44.367c18.38,13.725,40.26,31.292,62.862,36.566c3.283,0.767,6.323-0.013,8.854-1.561
		c6.039,1.441,12.935-2.529,14.508-8.479C413.007,294.454,398.367,239.764,397.875,199.793z"/>
	<path d="M222.647,171.42c0.965-21.792,2.552-44.067-1.4-65.384c-1-5.393-6.732-7.302-11.342-5.946
		c-1.473-0.984-3.18-1.73-5.394-1.793c-43.009-1.214-86.125-1.023-129.152-1.11c-19.606-0.039-52.105-7.078-65.38,12.478
		c-14.428,21.259-9.276,61.471-8.241,85.299c0.358,8.262,0.757,16.011,2.126,23.2c-3.173,14.609,6.095,30.691,21.554,38.947
		c20.924,11.176,47.142,7.614,69.88,7.257c30.837-0.483,62.061,0.117,92.958-1.611c4.019,1.232,8.209,1.202,11.558-0.838
		c3.749-0.292,7.521-0.431,11.256-0.816c3.817-0.391,6.258-2.581,7.434-5.237c0.254-0.422,0.664-0.648,0.814-1.184
		C226.327,229.558,225.468,200.2,222.647,171.42z"/>
	<path d="M93.373,291.176c-0.465-1.491-1.445-2.672-2.612-3.643c3.14-5.992,0.436-15.41-8.462-15.534
		c-12.02-0.165-24.131-0.588-36.145-0.18c-9.236,0.311-11.992,9.809-8.465,15.852c-4.246,21.665-5.695,46.655-3.675,68.207
		c1.358,14.481,8.137,29.277,23.923,31.872C107.008,395.812,101.852,318.346,93.373,291.176z"/>
</g>
<g>
</g>
<g>
</g>
<g>
</g>
<g>
</g>
<g>
</g>
<g>
</g>
<g>
</g>
<g>
</g>
<g>
</g>
<g>
</g>
<g>
</g>
<g>
</g>
<g>
</g>
<g>
</g>
<g>
</g>
</svg>
