<?xml version="1.0" encoding="iso-8859-1"?>
<!-- Generator: Adobe Illustrator 19.0.0, SVG Export Plug-In . SVG Version: 6.00 Build 0)  -->
<svg version="1.1" id="Capa_1" xmlns="http://www.w3.org/2000/svg" xmlns:xlink="http://www.w3.org/1999/xlink" x="0px" y="0px"
	 viewBox="0 0 420.713 420.713" style="enable-background:new 0 0 420.713 420.713;" xml:space="preserve">
<g>
	<path d="M206.964,0.069c-47.813,3.148-30.603,93.596,1.676,87.625c19.779,7.265,29.453-27.126,31.214-41.256
		C242.396,26.062,231.716-1.559,206.964,0.069z"/>
	<path d="M131.845,34.667c-7-9.132-19.339-13.809-30.338-9.539c-11.595,4.503-15.855,16.609-16.512,28.135
		c-0.715,12.598,1.594,27.804,10.17,37.612c4.252,4.864,9.64,8.121,15.314,9.173c3.052,0.971,6.517,1.186,10.535,0.161
		c10.918-2.778,14.581-14.865,16.547-24.55C140.376,61.783,140.912,46.5,131.845,34.667z"/>
	<path d="M301.345,16.646c-39.056,0.658-32.685,75.547-2.548,83.167c3.335,1.536,7.423,1.727,12.531-0.288
		C342.974,87.043,339.816,16.002,301.345,16.646z"/>
	<path d="M286.762,136.931c-2.79-9.565-6.772-19.071-13.009-26.928c0.103,0.13-21.108-18.154-21.116-14.116
		c0.003-1.721-1.722-3.081-3.4-2.59c-0.28,0.081-0.558,0.163-0.836,0.243c-0.167,0.049-0.205,0.215-0.353,0.283
		c-2.116-2.098-5.773-2.882-8.352-0.432c-9.288,8.82-18.743,13.055-31.664,13.28c-7.143,0.123-32.228-1.859-32.046-13.196
		c0.039-2.32-2.988-3.711-4.688-2.099c-53.369-0.817-49.39,94.033-47.782,127.084c0.735,15.168-0.635,37.034,17.549,41.881
		c8.432,2.25,15.385-0.441,20.747-5.453c-3.209,38.519-3.524,77.75-4.021,116.239c-0.206,16.018,0.003,45.022,23.409,44.687
		c14.155-0.2,19.611-13.222,21.9-25.129c7.709-40.097,3.433-87.416,4.426-128.473c2.986-1.972,6.704,1.517,9.959,4.197
		c-1.747,21.953-1.244,44.012-1.275,66.031c-0.029,20.887-3.764,45.58,0.27,66.115c2.661,13.534,9.541,24.088,24.709,21.858
		c21.01-3.089,23.106-26.424,22.949-43.252c-0.368-39.467-6.24-78.125-5.788-117.503c3.673,5.033,9.383,8.003,17.698,6.264
		c16.321-3.411,17.085-20.95,17.539-34.185C294.632,201.36,295.38,166.465,286.762,136.931z"/>
	<path d="M146.63,282.498c-0.003-1.604-0.724-2.691-1.712-3.374c-0.22-0.537-0.566-1.018-1.152-1.205
		c-19.041-6.053-30.332-37.276-32.985-55.212c-1.501-10.154-0.145-21.44,0.336-31.605c1.139-24.064,3.058-49.913,12.373-72.331
		c0.544-1.308,0.332-2.395-0.247-3.247c1.637-2.313-0.088-5.319-3.021-4.766c-13.093,2.466-23.601,2.008-32.611-8.905
		c-1.675-2.03-3.972-1.963-5.81-0.901c-51.478-6.113-48.534,86.487-46.927,116.689c0.592,11.117,0.148,30.69,14.422,34.353
		c8.226,2.112,13.577-1.562,16.966-7.19c-0.748,19.842-0.382,39.72-0.33,59.589c0.047,18.271-5.113,46.836,2.159,64.5
		c6.37,15.475,23.574,23.672,34.063,7.507c1.074-1.656,0.445-3.352-0.716-4.53c2.448-8.362,2.617-16.796,2.824-26.009
		c0.254-11.206,0.415-22.416,0.644-33.622c0.159-7.779-2.383-22.311,0.561-29.419c7.349-17.744,8.246,4.848,8.477,13.678
		c0.254,9.757-0.219,19.536-0.505,29.287c-0.502,17.025-2.983,36.106,2.168,52.565c0.747,2.385,2.884,3.139,4.804,2.793
		c4.33,6.732,11.585,9.953,19.474,1.455c8.567-9.226,5.247-28.812,5.522-39.953C145.903,322.605,146.668,302.544,146.63,282.498z"/>
	<path d="M349.006,96.215c-2.538-1.038-4.363,0.267-5.173,2.188c-0.073,0.067-0.155,0.08-0.228,0.152
		c-13.275,12.997-28.684,15.156-46.449,12.597c-0.862-0.123-1.659,0.082-2.326,0.475c-2.183-0.162-4.511,2.359-3.045,4.622
		c14.201,21.933,12.896,48.396,14.061,73.616c1.539,33.303,10.463,73.53-30.334,87.006c-3.079,1.015-3.576,3.853-2.465,5.937
		c-2.178,19.286-13.464,121.697,20.225,102.666c0.44-0.249,0.628-0.678,0.875-1.069c5.085-2.141,8.215-8.545,8.953-15.711
		c3.016-29.172-1.4-59.462,0.531-88.965c0.589-0.061,1.142-0.154,1.926-0.055c0.254,1.606,0.446,3.218,0.573,4.838
		c0.225,2.04,0.501,3.837,1.015,5.759c-1.689,23.288-1.751,48.645,1.63,70.826c1.9,12.467,8.171,24.581,22.342,21.512
		c0.127-0.028,0.145-0.137,0.26-0.173c7.712-0.136,13.944-7.805,16.497-17.406c9.103-34.235,4.821-78.833,1.291-114.493
		c29.011,19.32,35.456-24.844,36.487-46.068C387.455,167.416,390.342,113.129,349.006,96.215z"/>
</g>
<g>
</g>
<g>
</g>
<g>
</g>
<g>
</g>
<g>
</g>
<g>
</g>
<g>
</g>
<g>
</g>
<g>
</g>
<g>
</g>
<g>
</g>
<g>
</g>
<g>
</g>
<g>
</g>
<g>
</g>
</svg>
