<?xml version="1.0" encoding="iso-8859-1"?>
<!-- Generator: Adobe Illustrator 19.0.0, SVG Export Plug-In . SVG Version: 6.00 Build 0)  -->
<svg version="1.1" id="Capa_1" xmlns="http://www.w3.org/2000/svg" xmlns:xlink="http://www.w3.org/1999/xlink" x="0px" y="0px"
	 viewBox="0 0 424.767 424.767" style="enable-background:new 0 0 424.767 424.767;" xml:space="preserve">
<g>
	<path d="M213.77,0.226c-108.982,7.465-87.01,220.066-11.536,230.288c11.314,5.438,26.168,2.853,36.607-3.45
		c0.387-0.234,0.571-0.558,0.891-0.824c33.988-12.854,44.913-57.409,50.584-100.559C297.601,70.261,284.908-4.646,213.77,0.226z"/>
	<path d="M237.571,407.436c-0.388-0.84-0.692-1.696-1.07-2.54c-0.614-10.911-3.708-22.066-5.893-32.616
		c-1.973-9.537-4.277-19.065-7.474-28.272c2.319-0.676,4.62-1.281,6.958-1.989c4.083-1.236,5.516-5.515,3.734-9.177
		c-4.829-9.948-10.025-19.683-15.619-29.222c-2.418-4.123-7.159-3.543-9.835-0.987c-1.41-0.295-3.006-0.004-3.988,1.395
		c-5.325,7.593-12.67,17.51-15.252,26.502c-0.966,3.366-1.314,5.444,1.291,8.336c3.543,3.93,7.3,6.02,11.179,7.105
		c-6.213,21.169-8.698,43.35-15.085,64.486c-1.317,4.357,2.299,8.992,6.803,8.926c12.587-0.182,25.172-0.391,37.759-0.635
		C237.163,418.63,239.937,412.546,237.571,407.436z"/>
	<path d="M173.63,411.449c-3.892-10.3-7.188-20.743-10.452-31.19c-1.188-6.929-3.424-14.187-6.131-21.213
		c-10.049-37.252-16.518-75.296-18.762-114.115c-0.292-5.019-6.015-5.449-8.148-2.003c-0.258,0.092-0.555,0.014-0.795,0.152
		c-15.346,8.811-27.209,22.518-43.231,31.005c-15.506,8.213-31.979,14.289-47.927,21.536c-1.718,0.007-3.409,0.771-3.851,2.839
		c-0.028,0.129-0.034,0.258-0.059,0.388c-0.01,0.03-0.005,0.057-0.013,0.085c-8.135,38.447-5.738,77.132-6.877,116.103
		c-0.109,3.71,3.13,6.458,6.627,6.63c42.601,2.089,90.759,6.144,132.888-0.751c0.855-0.14,1.129-0.705,1.723-1.049
		C172.181,418.87,175.12,415.395,173.63,411.449z"/>
	<path d="M394.696,301.43c-0.465-4.836-4.657-6.42-8.089-5.385c-0.563-1.636-1.583-3.05-3.649-3.443
		c-17.019-3.237-33.808-5.977-49.362-14.138c-12.414-6.515-21.737-15.878-31.628-25.283c-0.005-0.654,0.093-1.306,0.082-1.959
		c-0.085-5.382-8.406-6.86-9.643-1.305c-10.888,48.923-6.704,120.772-39.851,161.669c-2.967,3.66,1.139,7.867,4.858,5.589
		c18.852,4.597,38.872,2.574,58.174,2.397c22.463-0.205,44.936,0.132,67.393-0.418c1.983-0.049,3.461-0.842,4.525-1.962
		c2.665-0.009,5.191-1.173,5.758-4.647C398.939,377.682,398.09,336.495,394.696,301.43z"/>
</g>
<g>
</g>
<g>
</g>
<g>
</g>
<g>
</g>
<g>
</g>
<g>
</g>
<g>
</g>
<g>
</g>
<g>
</g>
<g>
</g>
<g>
</g>
<g>
</g>
<g>
</g>
<g>
</g>
<g>
</g>
</svg>
