<?xml version="1.0" encoding="iso-8859-1"?>
<!-- Generator: Adobe Illustrator 19.0.0, SVG Export Plug-In . SVG Version: 6.00 Build 0)  -->
<svg version="1.1" id="Capa_1" xmlns="http://www.w3.org/2000/svg" xmlns:xlink="http://www.w3.org/1999/xlink" x="0px" y="0px"
	 viewBox="0 0 417.94 417.94" style="enable-background:new 0 0 417.94 417.94;" xml:space="preserve">
<g>
	<path d="M244.739,59.298c-2.996,2.414-4.719,5.559-5.991,8.966c-6.686-3.663-13.85-6.398-21.113-8.942
		c2.712-6.491,4.914-13.302,7.212-19.784c3.064-8.65,6.206-16.176,4.773-25.417c-0.629-4.065-6.382-6.087-9.61-3.91
		c-7.764,5.239-15.288,10.761-22.6,16.62c-6.453,5.175-14.192,10.704-18.355,18.042c-14.031-6.019-27.761-11.999-42.571-16.725
		c-13.654-4.359-19.198,16.671-5.878,21.319c18.877,6.587,37.738,10.212,57.023,15.207c17.004,4.404,33.065,12.206,50.55,14.276
		c0.647,0.076,1.045-0.291,1.575-0.44c1.551,0.848,3.48,0.888,5.085-0.788c3.801-3.972,6.846-8.221,8.211-13.584
		C254.358,58.992,248.45,56.31,244.739,59.298z"/>
	<path d="M58.924,2.926c-0.638,0.106-1.221,0.367-1.855,0.523c-0.585,0.233-1.177,0.383-1.75,0.651
		c-4.627,1.507-9.02,3.981-12.318,7.752c-8.907,10.187-8.856,25.49-1.207,36.41c17.719,25.298,56.142,8.72,55.777-20.252
		C97.289,5.728,76.15-2.769,58.924,2.926z"/>
	<path d="M343.808,0.109c-4.37-0.43-8.687,0.435-12.62,2.142c-5.529,0.707-11.182,3.153-14.988,6.116
		c-10.75,8.373-11.237,23.095-4.428,34.276c15.485,25.427,56.604,13.809,56.172-16.062C367.754,13.354,356.972,1.407,343.808,0.109z
		"/>
	<path d="M148.545,180.122c-7.314-9.94-18.722-18.426-26.894-27.952c-9.644-11.245-19.931-21.895-30.956-31.728
		c0.952-5.917,1.399-10.172,2.018-18.121c0.261-3.364-2.028-6.502-4.712-8.215c-13.432-8.573-27.315-18.923-43.122-22.09
		c-3.369-0.675-7.279-0.199-9.693,2.562c-11.802,13.484-7.043,33.337-6.712,50.181c0.51,25.908,1.449,51.808,2.823,77.683
		c0.578,10.897-2.076,28.777,8.084,36.542c2.28,1.743,5.332,2.951,8.731,3.82c-5.878,53.546-1.695,109.586-1.642,163.27
		c0.005,3.652,2.252,5.823,4.965,6.612c0.654,1.573,1.921,2.916,3.535,3.29c17.777,4.112,38.564,0.498,56.699,0.476
		c5.288-0.005,8.521-5.841,5.959-10.383c-8.204-14.536-24.72-24.746-41.304-24.458c2.326-25.024,0.488-50.621,1.015-75.708
		c0.44-20.889,3.034-42.026,3.619-62.995c1.022-0.185,2.128-0.357,3.011-0.561c3.618-0.833,6.902-4.147,7.751-7.751
		c3.577-15.17,0.072-32.859-0.997-48.241c-0.446-6.405-0.948-12.811-1.424-19.219c21.027,29.263,50.601,61.274,62.694,32.583
		C154.832,192.979,152.658,185.716,148.545,180.122z"/>
	<path d="M387.193,249.265c-0.761-7.758-0.641-13.756-7.809-17.858c-3.358-1.921-7.92-2.494-12.717-2.667
		c1.861-49.627,2.125-99.569,1.646-149.137c-0.042-4.557-5.04-9.523-9.882-7.53c-27.992,11.522-59.582,15.168-51.041,46.891
		c-17.44,13.969-32.053,32.141-46.774,48.533c-9.464,10.537-30.687,28.336-15.775,43.084c15.453,15.282,34.233-11.21,43.678-21.163
		c6.838-7.205,13.728-14.53,20.54-21.947c-1.596,21.36-2.617,42.846-3.344,64.078c-4.736,0.112-9.447,0.317-14.081,0.809
		c-3.549,0.377-5.748,2.636-6.599,5.26c-2.016,1.338-3.515,3.484-3.564,6.661c-0.229,15.41-0.548,30.865-0.303,46.278
		c0.125,7.931-0.467,14.209,7.178,18.035c6.532,3.267,15.89,3.475,24.958,3.247c0.44,8.707,1.568,17.616,1.714,24.403l0.964,45.284
		c-13.337,0.989-27.453,8.979-33.329,19.204c-0.426,0.737-0.352,1.542-0.37,2.334c-2.884,1.683-2.252,6.43,1.036,7.484
		c9.85,3.151,20.595,3.689,30.873,3.972c7.598,0.21,15.964,1.259,23.286-0.943c3.769,2.225,9.809,0.583,9.825-5.144
		c0.047-18.618-0.18-37.24-0.185-55.859c0-8.172-0.003-16.344-0.188-24.514c0.529-3.396,0.948-6.506,1.006-8.763
		c0.061-2.347-0.201-4.666-0.212-7.006c11.497,0.527,22.995,1.028,34.503,0.991c4.331-0.014,8.764-3.865,8.447-8.448
		C389.387,286.303,389.003,267.769,387.193,249.265z"/>
</g>
<g>
</g>
<g>
</g>
<g>
</g>
<g>
</g>
<g>
</g>
<g>
</g>
<g>
</g>
<g>
</g>
<g>
</g>
<g>
</g>
<g>
</g>
<g>
</g>
<g>
</g>
<g>
</g>
<g>
</g>
</svg>
