<?xml version="1.0" encoding="iso-8859-1"?>
<!-- Generator: Adobe Illustrator 19.0.0, SVG Export Plug-In . SVG Version: 6.00 Build 0)  -->
<svg version="1.1" id="Capa_1" xmlns="http://www.w3.org/2000/svg" xmlns:xlink="http://www.w3.org/1999/xlink" x="0px" y="0px"
	 viewBox="0 0 426.354 426.354" style="enable-background:new 0 0 426.354 426.354;" xml:space="preserve">
<g>
	<path d="M188.268,3.988c-98.525,30.03-41.651,217.595,26.67,199.126C315.775,198.026,309.271-32.894,188.268,3.988z"/>
	<path d="M370.622,389.336c1.716-71.083-0.24-200.656-91.212-190.672c-0.525,0.058-0.98,0.254-1.447,0.424
		c-3.197-1.516-7.307-1.16-9.798,2.72c-10.62,16.549-20.515,33.586-30.684,50.416c-3.79,6.272-7.745,12.326-11.189,18.573
		c-2.19-9.044-4.796-18.059-7.112-26.885c7.652-3.889,13.305-12.458,13.179-20.987c2.366-2.708-0.59-8.383-4.648-6.98
		c-11.735,4.061-22.944,5.359-35.167,2.585c-2.335-0.53-3.844,0.987-4.2,2.748c-0.993,0.654-1.692,1.9-1.424,3.068
		c1.554,6.794,3.378,11.723,8.938,16.289c0.643,0.529,1.373,0.927,2.061,1.389c-0.849,8.08-2.169,16.174-2.958,24.27
		c-0.384,3.929-1.07,7.803-1.602,11.671c-6.367-9.499-13.22-18.788-19.084-28.197c-9.616-15.429-18.421-31.34-29.725-45.625
		c-1.309-1.655-3.37-1.597-5.014-0.706c-89.16-25.836-87.082,165.838-82.668,210.588c0.482,4.883,4.249,7.444,8.078,7.809
		c0.968,0.593,2.025,1.057,3.237,1.19c47.829,5.216,97.15,0.562,145.256,0.744c48.142,0.18,97.288,4.915,145.224,1.109
		c2.659-0.213,4.727-1.75,6.138-3.736c2.859-1.548,5.079-4.266,5.183-8.467c0.09-3.65,0.212-7.7,0.339-12.057
		c0.611-1.662,0.949-3.379,0.783-5.075C370.907,393.523,370.787,391.397,370.622,389.336z"/>
</g>
<g>
</g>
<g>
</g>
<g>
</g>
<g>
</g>
<g>
</g>
<g>
</g>
<g>
</g>
<g>
</g>
<g>
</g>
<g>
</g>
<g>
</g>
<g>
</g>
<g>
</g>
<g>
</g>
<g>
</g>
</svg>
