<?xml version="1.0" encoding="iso-8859-1"?>
<!-- Generator: Adobe Illustrator 19.0.0, SVG Export Plug-In . SVG Version: 6.00 Build 0)  -->
<svg version="1.1" id="Capa_1" xmlns="http://www.w3.org/2000/svg" xmlns:xlink="http://www.w3.org/1999/xlink" x="0px" y="0px"
	 viewBox="0 0 429.327 429.327" style="enable-background:new 0 0 429.327 429.327;" xml:space="preserve">
<g>
	<path style="stroke:#E71D73;stroke-width:0;stroke-linecap:round;stroke-linejoin:round;" d="M111.006,96.166
		c0.042,0,0.043-0.067,0-0.067"/>
	<path d="M427.885,192.892c1.429-30.458,1.884-60.998,0.963-91.48c-0.883-29.311-2.586-50.965-34.663-57.319
		c-54.01-10.7-119.156-1.874-174.105-0.894c-27.876,0.498-64.078-8.469-73.367,23.367c-5.97,20.47-1.892,47.167-2.396,68.575
		c-0.645,27.457-5.486,60.916-1.061,88.095c3.647,22.412,12.994,27.866,34.56,32.372c45.255,9.451,103.083,12.5,152.617,7.211
		c8.803,5.838,16.996,13.082,25.466,19.052c15.698,11.065,31.633,21.758,48.009,31.79c9.869,6.045,19.942-5.684,15.109-15.109
		c-6.99-13.622-15.105-26.528-23.865-39.002c10.034-2.624,18.848-6.958,24.417-14.267
		C429.357,232.429,427.224,206.999,427.885,192.892z"/>
	<path d="M241.364,285.602c-32.166-5.363-112.339,10.529-126.756-29.62c-3.989-11.11,0.036-39.122,0.289-50.907
		c0.484-22.63,1.606-45.216,2.989-67.807c0.357-5.875-5.259-10.81-10.841-10.841c-34.257-0.186-92.313-16.396-102.627,26.856
		c-6.667,27.961-4.062,61.959-3.126,90.272c0.596,18.086-1.879,47.346,8.264,64.251c5.711,9.52,13.631,14.777,24.398,17.147
		c0.973,0.215,2.016,0.317,3.012,0.494c-0.66,3.471-1.264,6.964-1.942,10.418c-2.862,14.609-5.583,29.248-8.366,43.873
		c-1.437,7.538,7.912,14.784,13.916,8.102c17.423-19.391,35.515-38.562,52.111-58.71c40.547,4.07,83.64,2.576,120.845-2.836
		c0.686-0.093,1.387-0.161,2.058-0.274c1.002-0.151,2.079-0.256,3.073-0.412c0.801-0.123,1.374-0.462,2.018-0.738
		c12.267-3.239,21.619-10.487,24.504-25.065c0.138-0.688-0.033-1.258-0.003-1.91C248.198,293.933,246.999,286.541,241.364,285.602z"
		/>
</g>
<g>
</g>
<g>
</g>
<g>
</g>
<g>
</g>
<g>
</g>
<g>
</g>
<g>
</g>
<g>
</g>
<g>
</g>
<g>
</g>
<g>
</g>
<g>
</g>
<g>
</g>
<g>
</g>
<g>
</g>
</svg>
