<?xml version="1.0" encoding="iso-8859-1"?>
<!-- Generator: Adobe Illustrator 19.0.0, SVG Export Plug-In . SVG Version: 6.00 Build 0)  -->
<svg version="1.1" id="Capa_1" xmlns="http://www.w3.org/2000/svg" xmlns:xlink="http://www.w3.org/1999/xlink" x="0px" y="0px"
	 viewBox="0 0 415.014 415.014" style="enable-background:new 0 0 415.014 415.014;" xml:space="preserve">
<g>
	<path d="M279.425,122.729c4.242-35.27,2.436-71.966-21.668-93.626c-1.446-1.299-3.093-2.044-4.607-3.159
		C235.069,2.45,205.344-9.496,173.509,9.179c-58.122,34.091-36.585,145.575-35.332,199.616
		c1.436,61.747,47.693,78.918,104.927,60.042C294.509,251.885,284.483,174.95,279.425,122.729z"/>
	<path d="M350.846,156.776c-0.792-21.588-34.135-21.76-33.684,0c0.496,23.746,1.496,49.401-6.273,72.245
		c-13.928,40.973-53.167,57.871-93.557,61.678c-40.145,3.782-77.634-8.791-100.427-44.543c-4.649-7.291-31.063-72.84-24.539-77.829
		c2.755-2.106,4.061-6.118,1.143-8.863c-0.757-0.712-1.514-1.425-2.271-2.136c-2.749-2.582-6.846-3.191-10.153-1.31
		c-29.733,16.889-14.979,71.55-3.541,95.762c19.958,42.239,61.043,72.071,107.587,76.721c2.609,0.262,5.402,0.254,8.104,0.389
		c-1.247,16.67-0.686,33.615-2.057,50.389c-6.994,0.865-13.988,1.756-20.976,2.651c-20.453,2.619-21.944,32.769,0,33.054
		c13.72,0.178,27.255-0.435,40.913-1.726c12.771-1.21,26.337-1.005,37.294-8.159c11.533-7.527,10.117-25.983-3.901-29.846
		c-6.753-1.861-13.171-1.591-19.643-0.733c0.403-15.215-1.087-31.571-6.246-45.99c36.534-3.154,75.64-16.527,99.798-40.853
		C352.713,253.141,352.512,202.065,350.846,156.776z"/>
</g>
<g>
</g>
<g>
</g>
<g>
</g>
<g>
</g>
<g>
</g>
<g>
</g>
<g>
</g>
<g>
</g>
<g>
</g>
<g>
</g>
<g>
</g>
<g>
</g>
<g>
</g>
<g>
</g>
<g>
</g>
</svg>
