<?xml version="1.0" encoding="iso-8859-1"?>
<!-- Generator: Adobe Illustrator 19.0.0, SVG Export Plug-In . SVG Version: 6.00 Build 0)  -->
<svg version="1.1" id="Capa_1" xmlns="http://www.w3.org/2000/svg" xmlns:xlink="http://www.w3.org/1999/xlink" x="0px" y="0px"
	 viewBox="0 0 417.053 417.053" style="enable-background:new 0 0 417.053 417.053;" xml:space="preserve">
<g>
	<path d="M162.347,0.804c-48.324,6.449-55.435,50.763-50.729,92.126c3.719,32.677,16.944,83.326,53.11,88.547
		c32.635,8.389,56.482-25.593,65.395-59.27C249.677,65.058,232.169-8.515,162.347,0.804z"/>
	<path d="M260.695,296.505c-49.199-14.841-39.951-88.321,0.577-108.137c0.097-0.005,0.198,0.019,0.293,0.013
		c1.053-0.072,1.784-0.725,2.266-1.507c0.639-0.492,0.74-1.194,0.418-1.863c-0.103-0.744-0.415-1.459-1.248-1.94
		c-8.032-4.653-18.863-5.395-27.884-6.887c-0.635-0.105-1.101,0.152-1.604,0.329c-1.367-0.374-2.93-0.192-4.08,1.332
		c-15.432,20.446-30.009,44.787-41.522,68.337c-0.658-2.627-1.32-5.251-1.884-7.876c-1.291-6.005-2.497-12.029-3.726-18.046
		c2.684-2.376,3.23-5.185,4.439-8.654c1.398-4.009,3.153-7.915,4.116-12.056c0.176-0.753,0.042-1.517-0.289-2.195
		c0.419-1.809-0.097-3.779-2.334-4.158c-5.613-0.956-11.086,1.043-16.754,1.417c-5.297,0.349-10.811-0.523-16.019,0.391
		c-3.714,0.651-3.712,4.523-1.774,6.794c0.486,3.01,2.987,5.759,4.734,8.094c1.84,2.457,3.774,4.819,5.886,7.005
		c-1.985,6.548-3.462,13.243-4.918,19.93c-0.719,3.308-1.644,6.639-2.437,9.988c-11.995-22.579-25.109-44.706-39.006-66.128
		c-1.411-2.176-3.727-2.403-5.572-1.599c-29.876-2.534-58.204,21.807-73.715,45.343c-21.71,32.945-25.245,73.528-22.389,111.913
		c-1.589,1.372-2.057,4.286,0.192,5.498c58.97,31.776,136.747,22.485,201.535,23.308c2.805,0.036,4.246-1.947,4.443-4.091
		c2.201-0.044,4.275-1.48,4.23-4.454c-0.061-4.192-2.333-47.454-1.774-49.882c0.175,0.069,0.282,0.182,0.473,0.237
		c10.625,3.083,22.55,2.781,32.654-1.937c0.105,0.027,0.191,0.082,0.295,0.109C263.904,306.574,266.205,298.166,260.695,296.505z"/>
	<path d="M402.033,329.564c-0.959-17.28-9.812-30.067-22.668-40.818c-18.562-15.524-70.243-30.197-71.701-58.582
		c-0.021-0.411-0.319-0.668-0.474-1.015c2.513-4.93,8.031-8.194,14.227-6.415c4.781,1.374,7.828,5.229,8.689,10.034
		c0.696,3.898-1.265,7.521,0.003,11.262c0.508,1.5,1.864,2.031,3.279,1.884c-0.046,0.905,0.273,1.824,1.055,2.283
		c7.86,4.621,17.928,3.515,26.831,3.97c10.055,0.513,20.94,2.348,30.8,0.051c1.319-0.306,1.909-1.232,2.164-2.256
		c0.929-0.341,1.759-0.913,2.014-1.953c3.793-15.416-3.091-34.233-13.488-45.803c-11.866-13.204-28.034-14.263-44.449-12.572
		c0.707-4.828-0.032-9.867-0.714-14.759c-0.236-1.694-1.631-2.306-3.043-2.229c-0.384-0.256-0.599-0.649-1.163-0.738
		c-8.876-1.415-18.233-2.164-27.201-1.393c-0.739,0.064-1.307,0.454-1.83,0.871c-1.519,0.225-2.897,1.182-3.398,3.191
		c-1.207,4.823-2.247,10.793-1.031,15.932c-32.635,0.479-71.465,22.868-60.803,61.282c4.441,16.008,17.865,26.946,31.581,35.145
		c20.626,12.329,39.802,19.742,56.121,36.996c3.417,10.978,8.475,31.883-6.912,33.315c-18.157,1.689-17.487-25.057-17.34-36.332
		c0.019-1.434-0.959-2.299-2.098-2.768c-0.496-1.637-1.849-2.884-4.124-2.65c-18.588,1.925-36.858,1.728-55.498,0.732
		c-2.066-0.111-3.132,1.694-3.142,3.459c-11.91,37.896,26.685,73.651,62.589,73.069c-0.835,6.128-0.924,12.536,1.179,18.13
		c0.328,0.877,0.923,1.496,1.615,1.883c2.097,2.869,6.517,2.786,9.816,3.118c7.157,0.723,14.392,0.927,21.578,1.163
		c2.408,0.078,4.47-2.111,4.464-4.466c-0.016-6.101,0.102-12.262-0.292-18.365C371.923,390.059,404.093,366.668,402.033,329.564z"/>
</g>
<g>
</g>
<g>
</g>
<g>
</g>
<g>
</g>
<g>
</g>
<g>
</g>
<g>
</g>
<g>
</g>
<g>
</g>
<g>
</g>
<g>
</g>
<g>
</g>
<g>
</g>
<g>
</g>
<g>
</g>
</svg>
