<?xml version="1.0" encoding="iso-8859-1"?>
<!-- Generator: Adobe Illustrator 19.0.0, SVG Export Plug-In . SVG Version: 6.00 Build 0)  -->
<svg version="1.1" id="Capa_1" xmlns="http://www.w3.org/2000/svg" xmlns:xlink="http://www.w3.org/1999/xlink" x="0px" y="0px"
	 viewBox="0 0 385.111 385.111" style="enable-background:new 0 0 385.111 385.111;" xml:space="preserve">
<path d="M379.999,76.13c-2.501-9.007-5.097-15.815-8.6-20.987c-4.87-9.041-12.001-17.034-22.618-18.668
	c-1.99-0.306-3.712,0.021-5.234,0.626c-92.272-9.369-191.988,1.641-284.368,5.878C24.407,44.574,3.225,49.742,5.143,82.361
	c-6.535,61.043-4.139,124.876-4.515,186.083c-0.161,25.826-5.292,53.916,16.77,71.354c27.339,21.606,85.312,7.219,116.337,6.865
	c68.929-0.785,137.905-0.042,206.809-2.278c2.344-0.076,4.104-0.95,5.567-2.099c54.014,4.709,35.302-101.66,35.147-131.524
	C381.047,170.219,390.833,115.125,379.999,76.13z M35.629,158.516c0.485-4.69,2.108-11.168,2.297-13.177
	c0.533-5.608,1.005-11.24,1.318-16.863c0.457-8.173,1.202-16.546,0.833-24.775c2.035-2.716,4.296-5.369,6.793-7.955
	c95.989,9.688,195.51,8.121,292.115,5.838c0.59,17.243,0.97,34.636,3.345,51.72c-54.596,1.159-109.188,2.075-163.801,2.183
	C131.189,155.58,82.365,150.678,35.629,158.516z"/>
<g>
</g>
<g>
</g>
<g>
</g>
<g>
</g>
<g>
</g>
<g>
</g>
<g>
</g>
<g>
</g>
<g>
</g>
<g>
</g>
<g>
</g>
<g>
</g>
<g>
</g>
<g>
</g>
<g>
</g>
</svg>
