<?xml version="1.0" encoding="iso-8859-1"?>
<!-- Generator: Adobe Illustrator 19.0.0, SVG Export Plug-In . SVG Version: 6.00 Build 0)  -->
<svg version="1.1" id="Capa_1" xmlns="http://www.w3.org/2000/svg" xmlns:xlink="http://www.w3.org/1999/xlink" x="0px" y="0px"
	 viewBox="0 0 430.967 430.967" style="enable-background:new 0 0 430.967 430.967;" xml:space="preserve">
<g>
	<path d="M428.617,308.854C318.726,202.212,109.89,207.869,1.586,313.021c-2.26,2.197-1.858,4.808-0.33,6.576
		c0.628,1.529,1.774,2.844,4.025,2.956c138.644,6.945,278.599,4.341,417.459,6.552c6.836,0.109,9.213-6.629,7.26-11.534
		C431.456,314.943,431.473,311.627,428.617,308.854z"/>
	<path d="M232.871,106.012c-20.095-13.431-50.393,8.029-43.537,31.605c5.525,18.996,29.457,23.276,42.487,11.809
		C245.751,139.73,249.226,116.942,232.871,106.012z"/>
	<path d="M349.629,118.56c-3.729-0.448-7.195,0.2-10.298,1.525c-3.401,0.038-6.798,0.813-9.075,2.321
		c-10.125,6.703-12.081,20.968-7.424,31.453c11.126,25.047,50.732,17.625,49.831-10.656
		C372.258,130.564,362.105,120.053,349.629,118.56z"/>
	<path d="M97.687,119.854c-3.643-1.302-7.411-1.322-11.082-0.792c-5.551-0.22-11.23,1.548-15.737,5.359
		c-8.461,7.153-11.013,18.821-7.459,29.153c8.855,25.734,46.918,21.504,50.531-5.229
		C115.526,136.612,109.184,123.961,97.687,119.854z"/>
	<path d="M273.245,218.014c0.061-0.568,0.19-1.107,0.106-1.732c-4.747-34.953-28.634-59.313-65.12-55.169
		c-30.985,3.52-59.111,28.929-48.772,62.274c0.061,0.194,0.259,0.287,0.354,0.458c0.19,2.907,3.11,5.796,6.262,4.891
		c34.917-10.023,66.118-5.328,101.766-1.453C272.806,227.822,274.997,221.796,273.245,218.014z"/>
	<path d="M393.786,255.753c2.372-29.595-0.558-73.494-37.044-78.974c-28.755-4.319-64.855,21.266-55.516,52.904
		c0.169,0.571,0.739,0.543,1.13,0.842c0.423,0.774,1.063,1.454,2.126,1.818c13.181,4.51,27.667,3.523,41.137,8.138
		c15.073,5.164,26.905,13.845,39.451,23.314c4.935,3.727,10.637-2.854,8.625-7.724C393.71,255.953,393.777,255.874,393.786,255.753z
		"/>
	<path d="M121.39,185.552c-10.92-8.395-26.128-9.25-38.963-5.361c-35.142,10.65-50.403,49.453-42.003,83.22
		c0.16,0.643,0.646,1.033,1.062,1.482c1.045,2.864,4.261,4.986,7.217,2.776c14.317-10.706,29.358-19.288,46.46-24.812
		c9.274-2.996,22.495-3.773,31.992-8.105c3.967,1.757,9.555-0.076,9.431-5.7C136.241,213.376,134.838,195.887,121.39,185.552z"/>
</g>
<g>
</g>
<g>
</g>
<g>
</g>
<g>
</g>
<g>
</g>
<g>
</g>
<g>
</g>
<g>
</g>
<g>
</g>
<g>
</g>
<g>
</g>
<g>
</g>
<g>
</g>
<g>
</g>
<g>
</g>
</svg>
