<?xml version="1.0" encoding="iso-8859-1"?>
<!-- Generator: Adobe Illustrator 19.0.0, SVG Export Plug-In . SVG Version: 6.00 Build 0)  -->
<svg version="1.1" id="Capa_1" xmlns="http://www.w3.org/2000/svg" xmlns:xlink="http://www.w3.org/1999/xlink" x="0px" y="0px"
	 viewBox="0 0 436.052 436.052" style="enable-background:new 0 0 436.052 436.052;" xml:space="preserve">
<g>
	<path d="M430.197,199.061c-19.602-1.511-39.238-2.161-58.886-2.741c-4.415-0.13-7.545,5.187-5.139,8.954
		c3.335,5.216,7.021,10.109,11.098,14.701c-68.003,37.035-136.443,68.407-206.837,100.371
		c-7.125-12.057-17.309-22.833-25.297-34.307c-6.624-9.518-12.415-23.595-21.8-30.502c-2.458-1.808-4.735-1.06-6.206,0.649
		c-0.275,0.096-0.534,0.084-0.812,0.223c-37.281,18.801-75.803,34.41-113.844,51.517c-4.505,2.027-2.39,10.167,2.586,9.548
		c17.056-2.123,33.831-12.253,49.384-19.038c21.98-9.592,43.733-19.63,65.181-30.351c14.795,20.091,25.237,45.413,44.646,61.529
		c1.145,2.282,3.466,3.922,6.232,2.832c73.743-29.09,144.93-62.562,213.231-102.843c0.744,6.138,1.546,12.271,2.355,18.4
		c0.614,4.654,6.351,8.509,10.22,4.233c12.846-14.202,25.548-28.531,38.109-42.986C437.922,205.216,435.46,199.466,430.197,199.061z
		"/>
	<path d="M291.161,107.434c-11.711-8.001-30.467-3.737-39.64,6.335c-16.644,18.278-10.818,81.808,20.224,77.489
		c2.161,0.449,4.417,0.678,6.881,0.362c17.808-2.292,24.506-21.93,26.34-37.21C306.795,139.169,305.263,117.067,291.161,107.434z"/>
	<path d="M346.393,222.368c-5.059-17.771-23.664-34.332-41.863-35.845c-0.703-0.059-1.222,0.183-1.593,0.568
		c-0.554,0.233-1.092,0.596-1.573,1.215c-16.395,21.123-41.222,15.905-60.547,2.184c-0.038-1.246-1.047-2.385-2.682-2.152
		c-46.557,6.647-53.194,71.385-45.242,107.235c0.353,1.598,1.381,2.341,2.526,2.492c0.703,0.859,1.789,1.314,3.053,0.782
		c50.554-21.27,100.157-43.42,148.398-69.577C350.023,227.561,348.876,223.616,346.393,222.368z"/>
	<path d="M175.991,155.677c-2.923-23.264-31.669-38.231-46.244-14.79c-11.558,18.589-8.625,63.402,20.252,63.082
		c0.572-0.006,1.066-0.138,1.536-0.3C169.415,201.424,177.766,169.808,175.991,155.677z"/>
	<path d="M193.744,211.165c0.014-0.108-0.063-0.151-0.063-0.25c0.243-0.766,0.278-1.598-0.281-2.496
		c-2.774-4.447-11.813-8.739-17.025-6.949c-0.867,0.297-1.493,1.138-1.786,2.045c-0.484,0.426-0.909,0.952-1.148,1.711
		c-3.379,10.774-19.586,12.995-28.956,11.161c-8.162-1.6-14.482-6.358-20.339-11.952c-0.234-0.224-0.528-0.205-0.794-0.317
		c-0.482-0.505-1.132-0.863-2.064-0.676c-24.496,4.872-36.592,33.896-33.44,56.366c0.208,1.485,1.422,2.045,2.693,2.091
		c0.763,0.363,1.611,0.516,2.47,0.032c11.349-6.375,22.563-12.256,34.387-17.685c0.151-0.069,0.231-0.181,0.36-0.267
		c9.916,24.239,27.219,46.522,42.333,67.604c0.978,1.364,2.745,2.083,4.311,1.13c2.374-1.58,4.886-2.918,7.463-4.136
		c1.945-0.58,3.573-1.828,4.878-3.708c0.861-1.244,0.167-2.487-0.913-3.104c-1.367-16.233-3.557-31.623-1.635-47.987
		C185.913,239.102,191.888,225.633,193.744,211.165z"/>
</g>
<g>
</g>
<g>
</g>
<g>
</g>
<g>
</g>
<g>
</g>
<g>
</g>
<g>
</g>
<g>
</g>
<g>
</g>
<g>
</g>
<g>
</g>
<g>
</g>
<g>
</g>
<g>
</g>
<g>
</g>
</svg>
