<?xml version="1.0" encoding="iso-8859-1"?>
<!-- Generator: Adobe Illustrator 19.0.0, SVG Export Plug-In . SVG Version: 6.00 Build 0)  -->
<svg version="1.1" id="Capa_1" xmlns="http://www.w3.org/2000/svg" xmlns:xlink="http://www.w3.org/1999/xlink" x="0px" y="0px"
	 viewBox="0 0 418.718 418.718" style="enable-background:new 0 0 418.718 418.718;" xml:space="preserve">
<g>
	<path d="M372.821,35.411c-0.094-2.363-1.224-3.895-2.701-4.793c-1.506-2.282-3.938-4.004-7.553-4.142
		c-27.273-1.031-54.777-2.292-82.372-3.489c-0.948-9.026-4.427-16.39-15.812-18.724c-17.223-3.532-37.053-1.721-54.654-2.532
		c-18.031-0.829-36.728-3-54.653-0.721c-6.405,0.814-10.504,7.524-9.494,12.881c-0.409,1.733-0.668,3.444-1.001,5.165
		c-27.756-0.152-55.416,0.22-82.835,1.541c-5.406,0.26-7.848,4.186-7.619,8.09c-0.08,0.182-0.274,0.26-0.327,0.459
		c-14.666,55.33-8.491,116.043-7.766,172.957c0.84,65.926,0.643,132.648,7.781,198.22c0.687,6.31,6.836,8.779,11.275,7.08
		c43.736,9.269,90.456,4.088,135.084,4.594c52.473,0.591,104.932,4.523,157.374,4.33c0.042,0,0.067-0.02,0.11-0.022
		c0.792,0.445,1.584,0.887,2.376,1.329c5.521,3.091,12.931-0.77,12.808-7.35C370.499,285.462,377.774,160.069,372.821,35.411z
		 M69.665,397.936c0.802-65.224-3.471-130.562-3.669-195.832c-0.164-54.539,6.667-111.598-2.959-165.421
		c25.973,2.988,52.37,5.266,78.969,6.974c-0.079,3.924-0.064,7.889,0.089,11.966c0.214,5.736,4.35,9.208,9.805,9.806
		c33.509,3.668,67.086,5.236,100.793,4.4c20.057-0.498,26.93-2.861,27.395-22.302c26.964-0.132,53.751-0.732,80.167-1.736
		c-4.651,58.829-4.381,118.06-4.717,177.048c-0.18,31.715-1.764,64.022-0.769,95.672c-1.329,0.689-2.353,1.994-2.399,4.087
		c-0.571,25.684-1.703,51.884,2.099,77.399c-51.028-5.777-102.969-6.215-154.294-7.091
		C156.984,392.163,111.872,388.13,69.665,397.936z"/>
	<path d="M336.966,68.078c0.59-2.397-0.138-5.062-2.522-6.545c-6.374-3.971-14.407-2.372-21.666-2.297
		c-5.713,0.059-13.451-1.299-18.661,1.598c-4.921,2.736-5.34,7.648-5.927,12.75c-0.673,5.84-1.009,11.645-1.136,17.487
		c-27.565-1.792-55.374,0.127-83.031-1.505c-23.043-1.358-46.329-5.394-69.298-3.185c-0.395-2.645-1.327-5.261-1.916-8.15
		c-1.128-5.538-1.744-11.12-1.792-16.772c-0.034-3.969-4.198-5.691-7.245-4.553c-0.875-0.392-1.842-0.594-2.878-0.649
		c-5.009-3.354-12.996-2.889-19.206-1.299c-4.109-0.715-8.212-1.478-12.361-1.914c-6.368-0.667-7.955,7.469-4.854,11.343
		c-0.562,1.284-0.83,2.682-0.698,4.137c0.592,6.496,1.185,12.991,1.777,19.489c-3.979,92.896,1.424,186.813,4.7,279.527
		c0.081,2.266,1.157,3.844,2.608,4.857c-0.943,1.936-0.671,4.327,2.091,4.856c76.128,14.594,155.106-0.026,232.175,7.875
		c3.048,0.314,5.12-1.629,6.082-4.115c1.916-0.442,3.527-1.935,3.56-4.675c1.241-100.897,0.316-201.916,3.324-302.769
		C340.175,70.851,338.8,69.086,336.966,68.078z"/>
</g>
<g>
</g>
<g>
</g>
<g>
</g>
<g>
</g>
<g>
</g>
<g>
</g>
<g>
</g>
<g>
</g>
<g>
</g>
<g>
</g>
<g>
</g>
<g>
</g>
<g>
</g>
<g>
</g>
<g>
</g>
</svg>
