<?xml version="1.0" encoding="iso-8859-1"?>
<!-- Generator: Adobe Illustrator 19.0.0, SVG Export Plug-In . SVG Version: 6.00 Build 0)  -->
<svg version="1.1" id="Capa_1" xmlns="http://www.w3.org/2000/svg" xmlns:xlink="http://www.w3.org/1999/xlink" x="0px" y="0px"
	 viewBox="0 0 414.795 414.795" style="enable-background:new 0 0 414.795 414.795;" xml:space="preserve">
<g>
	<path d="M405.442,115.326c-98.471-7.183-213.957-6.682-311.074,11.905c-2.597,0.497-3.512,2.262-3.712,4.179
		c-1.367,0.899-2.581,2.174-3.298,4.136c-27.897,76.327-53.145,161.149-66.845,241.289c-0.393,2.299,0.278,4.076,1.405,5.353
		c-1.457,3.83,0.736,9.291,5.73,9.061c99.211-4.557,196.388-1.283,295.391-0.527c3.952,0.03,6.766-2.407,8.167-5.512
		c1.89-0.701,3.598-2.121,4.569-4.55c30.784-76.973,55.042-160.34,75.008-240.757c0.647-2.605,0.223-4.77-0.67-6.597
		C417.596,128.865,416.158,116.107,405.442,115.326z"/>
	<path d="M343.22,84.671c-0.389-3.207-0.779-6.415-1.168-9.622c-0.586-4.817-3.702-9.224-9.117-9.117
		c-52.841,1.046-106.61-0.288-160.281-0.258c1.275-10.837,2.046-21.733,2.934-32.609c0.409-5.016-4.603-9.336-9.321-9.32
		c-16.922,0.053-33.84,0.147-50.761,0.358c-16.478,0.206-35.743-2.011-51.874,1.147c-20.471,4.007-11.717,28.999-9.776,43.878
		c0.024,0.175,0.167,0.231,0.202,0.397c-12.979,1.011-25.909,2.262-38.769,3.827c-3.582,0.436-5.066,3.224-4.757,5.82
		C-5.612,161.691-0.117,256.126,6.748,339.44c0.49,5.949,9.647,6.118,9.406,0c-0.038-0.985-0.036-1.967-0.072-2.953
		c16.245-27.614,21.533-61.558,29.194-92.355c10.766-43.278,22.246-85.249,40.725-125.935
		c82.589-3.582,164.312-14.181,247.167-15.606c6.471-0.112,8.785-6.592,7.013-11.219C342.208,89.874,343.586,87.671,343.22,84.671z"
		/>
</g>
<g>
</g>
<g>
</g>
<g>
</g>
<g>
</g>
<g>
</g>
<g>
</g>
<g>
</g>
<g>
</g>
<g>
</g>
<g>
</g>
<g>
</g>
<g>
</g>
<g>
</g>
<g>
</g>
<g>
</g>
</svg>
