<?xml version="1.0" encoding="iso-8859-1"?>
<!-- Generator: Adobe Illustrator 19.0.0, SVG Export Plug-In . SVG Version: 6.00 Build 0)  -->
<svg version="1.1" id="Capa_1" xmlns="http://www.w3.org/2000/svg" xmlns:xlink="http://www.w3.org/1999/xlink" x="0px" y="0px"
	 viewBox="0 0 396.232 396.232" style="enable-background:new 0 0 396.232 396.232;" xml:space="preserve">
<path d="M254.051,28.723C145.928,2.626,23.045,50.305,5.077,164.888c-1.259,1.04-2.315,2.369-2.774,4.273
	c-8.856,36.844,8.067,68.572,46.573,79.033c29.189,7.929,63.701-15.574,83.467,6.448c19.448,21.663-13.641,39.559-4.405,71.628
	c31.653,109.914,203.628,4.429,239.746-46.252C440.05,178.468,364.818,55.457,254.051,28.723z M96.876,160.981
	c-9.509,9.052-24.645,4.815-29.317-7.003c-4.626-11.709,1.965-23.962,13.54-27.85c4.93-1.655,9.541-1.232,14.024-0.136
	c-0.084,1.331,0.032,2.723,0.516,4.19C99.096,140.619,107.023,151.319,96.876,160.981z M147.492,112.925
	c-6.355-2.185-15.426-7.334-19.425-12.801c-5.388-7.369-0.656-15.167,4.985-21.032c9.565-9.944,23.273-9.761,31.607-0.73
	c-2.287,1.722-3.86,4.341-3.604,8.066C161.821,97.623,165.616,119.151,147.492,112.925z M222.764,320.576
	c-8.305,1.58-15.614-0.332-22.799-2.546c-3.497-11.531-3.09-26.016,1.976-32.413c9.634-12.166,26.65-8.476,34.781,2.926
	C247.238,303.289,239.53,317.388,222.764,320.576z M221.04,114.961c-15.399-1.463-23.345-17.792-16.082-30.884
	c7.789-14.037,27.985-15.693,37.674-2.421c0.612,0.839,1.001,1.768,1.494,2.655c0.003,0.055-0.046,0.08-0.04,0.135
	C245.415,97.436,236.446,116.424,221.04,114.961z M278.386,141.653c-8.917-15.908,5.954-29.658,21.616-29.533
	c14.474,0.116,33.762,10.369,35.207,26.389c0.499,5.574-1.016,10.071-3.593,13.833c-2.019-0.798-4.211-1.268-6.587-0.898
	C309.284,153.897,288.229,159.206,278.386,141.653z M329.207,241.462c-0.052,0.177-0.017,0.322-0.058,0.496
	c-7.251,1.419-14.509,1.859-21.526-0.814c-14.926-5.685-19.407-29.694-7.805-41.076c8.467-8.308,23.933-5.853,30.912,2.892
	C341.006,215.83,333.058,228.253,329.207,241.462z"/>
<g>
</g>
<g>
</g>
<g>
</g>
<g>
</g>
<g>
</g>
<g>
</g>
<g>
</g>
<g>
</g>
<g>
</g>
<g>
</g>
<g>
</g>
<g>
</g>
<g>
</g>
<g>
</g>
<g>
</g>
</svg>
