<?xml version="1.0" encoding="iso-8859-1"?>
<!-- Generator: Adobe Illustrator 19.0.0, SVG Export Plug-In . SVG Version: 6.00 Build 0)  -->
<svg version="1.1" id="Capa_1" xmlns="http://www.w3.org/2000/svg" xmlns:xlink="http://www.w3.org/1999/xlink" x="0px" y="0px"
	 viewBox="0 0 429.582 429.582" style="enable-background:new 0 0 429.582 429.582;" xml:space="preserve">
<g>
	<path d="M396.064,171.041c0.929-40.479,3.624-81.372,1.168-121.781c-0.324-5.311-3.452-8.347-7.155-9.371
		c-1.865-3.369-5.681-5.868-9.775-5.894c0.124-0.159,0.247-0.321,0.372-0.483c-51.761,4.282-103.913,3.5-156.108,2.327
		c0.036-1.005,0.128-2.009,0.125-3.02c0.002-0.146,0.077-0.302,0.072-0.445c-0.272-7.13-0.282-14.254-0.385-21.384
		c-0.212-14.633-22.662-14.674-22.756,0c-0.33,7.118-0.249,14.26-0.108,21.384c0.022,1.138,0.403,2.028,0.674,2.994
		c-51.824-1.192-103.646-2.161-155.129,1.647c-4.692,0.347-7.567,3.112-8.682,6.434c-2.074,1.535-3.646,3.935-3.94,7.413
		c-6.237,73.761-1.345,150.194,0.016,224.203c-0.283,4.73,1.987,7.928,5.188,9.613c1.672,2.136,4.298,3.694,6.948,3.986
		c10.453,1.16,21.244-1.805,31.783-3.36c40.144,5.938,83.791-0.407,123.714-1.021c0.954-0.013,1.907,0,2.861-0.015
		c-0.944,11.965-1.155,24.019-1.125,36.076c-14.524,7.903-25.016,25.272-35.591,37.428c-13.567,15.592-28.594,30.86-40.097,48.048
		c-9.146,13.666,14.816,20.92,19.133,10.389c14.35-13.437,26.801-29.649,39.621-44.466c4.971-5.744,11.401-11.838,17.28-18.329
		c0.182,23.094-1.411,46.799,3.37,69.42c1.875,8.869,16.495,9.126,18.186,0c4.267-23.024,2.381-47.079,1.756-70.539
		c15.419,24.213,35.392,47.279,55.45,65.43c7.629,9.848,27.701-1.838,16.614-15.125c-12.285-14.724-25.785-28.387-37.929-43.27
		c-11.708-14.35-22.538-29.506-34.852-43.34c-0.302-10.63-0.811-21.247-1.846-31.827c50.812-0.471,101.615-0.153,152.434-0.032
		c6.022,0.013,9.419-3.792,10.479-8.268C399.375,243.346,395.277,205.321,396.064,171.041z M373.225,261.348
		c-61.195-1.586-122.455-1.202-183.657-0.06c-24.311,0.454-49.106-0.607-73.444,0.773c-12.704-3.331-27.822-1.313-40.097,0.175
		c-5.621,0.683-12.243,1.386-18.52,2.982c0.41-69.05,3.185-140.021-3.192-208.678c69.2,4.117,139.233,1.145,208.511,0.922
		c25.604-0.079,83.426,10.865,113.356,0.299c-3.23,37.529-2.632,75.65-3.363,113.28
		C372.242,200.629,368.009,232.074,373.225,261.348z"/>
	<path d="M325.4,93.948c-11.853,0.89-23.711,1.783-35.564,2.676c-14.101,1.058-14.635,18.724-2.764,22.541
		c-8.46,8.491-16.787,17.125-24.987,25.882c-7.594-9.565-15.188-19.13-22.782-28.695c-3.614-4.552-12.919-4.559-16.508,0
		c-16.63,21.136-33.252,42.278-49.876,63.418c-9.856-13.993-20.621-30.352-34.294-37.189c-4.275-2.14-10.471-2.197-13.874,1.789
		c-13.278,15.548-21.803,39.914-29.691,58.427c-4.053,9.515,7.982,17.051,14.069,8.227c4.546-6.59,19.76-37.345,26.384-37.441
		c7.351-0.108,24.226,27.434,28.956,33.321c3.618,4.501,12.803,4.543,16.39,0c16.739-21.205,33.478-42.408,50.212-63.618
		c7.346,9.254,14.693,18.507,22.039,27.761c3.811,4.8,12.617,4.25,16.507,0c12.757-13.936,25.917-27.408,39.311-40.676
		c-0.333,1.78-0.669,3.563-1.003,5.347c-2.749,14.686,19.747,20.98,22.513,6.205l6.218-33.2
		C337.941,101.86,333.548,93.334,325.4,93.948z"/>
</g>
<g>
</g>
<g>
</g>
<g>
</g>
<g>
</g>
<g>
</g>
<g>
</g>
<g>
</g>
<g>
</g>
<g>
</g>
<g>
</g>
<g>
</g>
<g>
</g>
<g>
</g>
<g>
</g>
<g>
</g>
</svg>
