<?xml version="1.0" encoding="iso-8859-1"?>
<!-- Generator: Adobe Illustrator 19.0.0, SVG Export Plug-In . SVG Version: 6.00 Build 0)  -->
<svg version="1.1" id="Capa_1" xmlns="http://www.w3.org/2000/svg" xmlns:xlink="http://www.w3.org/1999/xlink" x="0px" y="0px"
	 viewBox="0 0 417.155 417.155" style="enable-background:new 0 0 417.155 417.155;" xml:space="preserve">
<path d="M349.16,35.65c-5.204-5.852-11.406-11.011-16.626-15.083c-6.251-4.88-15.738-12.5-24.786-14.113
	c-2.245-4.771-7.756-8.325-13.929-5.383C259.401,17.477,190.174,72.42,211.27,120.257c3.373,7.644,5.775,11.806,13.855,17.615
	c6.173,4.441,24.319,3.57,28.131,7.88c15.682,17.738-4.408,41.29-14.133,54.444c-12.372,16.732-25.492,40.343-41.703,58.364
	c-3.719,3.155-7.151,6.524-10.318,10.123c-14.707,12.73-31.894,19.836-53.037,13.771c-17.657-5.063-11.274-18.093-33.972-17.216
	c-40.186,1.555-63.088,53.914-68.471,87.23c-0.194,0.522-0.226,1.007-0.301,1.573c-0.065,0.442-0.21,0.966-0.269,1.4
	c-0.471,3.46,1.26,5.804,3.461,7.345c60.285,107.215,180.667,35.446,230.933-40.447c23.034-34.772,43.86-71.102,65.505-106.746
	c18.494-30.453,53.931-70.443,55.185-108.437C387.154,76.322,370.861,53.714,349.16,35.65z"/>
<g>
</g>
<g>
</g>
<g>
</g>
<g>
</g>
<g>
</g>
<g>
</g>
<g>
</g>
<g>
</g>
<g>
</g>
<g>
</g>
<g>
</g>
<g>
</g>
<g>
</g>
<g>
</g>
<g>
</g>
</svg>
