<?xml version="1.0" encoding="iso-8859-1"?>
<!-- Generator: Adobe Illustrator 19.0.0, SVG Export Plug-In . SVG Version: 6.00 Build 0)  -->
<svg version="1.1" id="Capa_1" xmlns="http://www.w3.org/2000/svg" xmlns:xlink="http://www.w3.org/1999/xlink" x="0px" y="0px"
	 viewBox="0 0 419.387 419.387" style="enable-background:new 0 0 419.387 419.387;" xml:space="preserve">
<g>
	<path d="M79.072,148.181c-0.143-6.376-5.191-11.398-11.568-11.568c-20.194-0.538-39.637,0.063-59.327,4.761
		c-6.038,1.439-7.854,7.13-6.536,11.992c-0.173,0.6-0.704,0.966-0.747,1.635c-3.183,50.418,3.213,101.814,2.532,152.434
		c-0.097,7.225,5.795,11.69,12.398,12.398c18.599,1.999,37.177,2.26,54.607-4.941c5.692-2.349,8.304-8.194,7.662-13.302
		c0.486-0.884,1.355-1.352,1.577-2.482C88.92,251.87,80.137,196.248,79.072,148.181z"/>
	<path d="M415.177,338.474c3.621-44.899,0.28-90.493,1.552-135.579c1.029-36.507,5.67-73.219-0.438-109.241
		c2.639-6.384-1.947-16.069-10.256-16.77c-68.991-5.829-139.746,1.376-209.037,2.432c-28.175,0.43-56.718-0.589-85.157-0.517
		c0.385-4.331,0.938-8.645,1.251-13.001c0.398-5.483-4.571-12.556-10.232-13.439c-16.002-2.501-40.342-7.639-55.549-0.132
		c-11.431,5.642-10.496,19.248-7.453,30.843c-8.079,1.13-16.127,2.489-24.109,4.246c-7.25,1.595-7.268,13.087,0,14.675
		c20.6,4.506,41.651,6.595,62.874,7.52c16.594,11.947,18.021,54.218,18.113,71.829c0.085,16.293-0.158,32.576-0.514,48.864
		c-0.519,24.1,8.878,94.231-19.623,105.447c-1.142,0.45-1.725,1.402-2.518,2.186c-1.953,0.197-3.927,0.419-5.843,0.55
		c-13.694,0.938-27.702,1.59-40.967,5.295c-15.04,4.199-10.615,24.262,3.48,25.727c8.516,0.885,17.105,0.442,25.688-0.319
		c46.701,5.892,96.786-3.023,143.284-4.4c68.013-2.016,136.043,0.48,204.017-1.338c13.105-0.351,16.397-13.833,10.688-21.969
		C414.707,340.434,415.086,339.585,415.177,338.474z M165.231,108.629c-1.434,8.589-1.2,18.031-0.765,26.867l-15.471,1.212
		c-4.774,0.375-9.551,0.751-14.329,1.124c-0.625,0.049-2.338,0.052-4.093,0.086c-0.426-4.305-0.726-8.64-1.452-12.838
		c-0.917-5.289-2.733-10.279-4.653-15.242C138.067,109.551,151.673,109.164,165.231,108.629z M373.138,242.104
		c-15.374,51.671-60.864,81.078-111.772,83.065c-44.001-14.618-86.235-46.597-89.454-96.612
		c-3.851-59.805,52.101-107.166,109.175-102.489C341.643,131.03,392.135,178.258,373.138,242.104z"/>
	<path d="M306.389,171.222c-9.384-4.232-20.346-5.658-31.167-4.697c-13.758-0.446-28.791,5.697-38.258,13.675
		c-18.407,15.512-24.451,39.871-15.777,62.275c20.78,53.677,93.281,42.565,109.745-8.48
		C338.795,209.614,330.658,182.171,306.389,171.222z"/>
</g>
<g>
</g>
<g>
</g>
<g>
</g>
<g>
</g>
<g>
</g>
<g>
</g>
<g>
</g>
<g>
</g>
<g>
</g>
<g>
</g>
<g>
</g>
<g>
</g>
<g>
</g>
<g>
</g>
<g>
</g>
</svg>
