<?xml version="1.0" encoding="iso-8859-1"?>
<!-- Generator: Adobe Illustrator 19.0.0, SVG Export Plug-In . SVG Version: 6.00 Build 0)  -->
<svg version="1.1" id="Capa_1" xmlns="http://www.w3.org/2000/svg" xmlns:xlink="http://www.w3.org/1999/xlink" x="0px" y="0px"
	 viewBox="0 0 401.931 401.931" style="enable-background:new 0 0 401.931 401.931;" xml:space="preserve">
<g>
	<path d="M392.757,168.741c0.06-1.07,0.27-2.08,0.051-3.257c-8.994-49.053-36.713-90.637-75.185-121.871
		c-16.889-13.712-63.366-54.004-89.282-41.101c-3.255-3.128-10.143-2.25-11.067,2.802c-5.578,30.455-5.868,61.062-6.68,91.94
		c-0.471,17.87-10.695,62.354,2.295,76.938c11.844,13.293,43.714,8.504,59.329,9.366c28.313,1.56,58.337,5.395,87.266,4.796
		c7.475,4.035,14.822,2.921,20.382-1.241c0.806-0.092,1.649-0.046,2.452-0.149C391.3,185.822,396.474,175.389,392.757,168.741z"/>
	<path d="M393.883,222.423c-0.883-6.498-6.393-12.794-14.739-11.104c-62.388,12.629-129.215-2.369-192.883,3.64
		c0.674-35.887-3.575-72.028-3.473-108.021c0.083-30.515,3.171-60.977-2.31-90.953c3.248-5.227-1.089-12.724-7.659-13.301
		c-0.077-0.001-0.135,0-0.205,0.001c-0.771-0.05-1.535-0.139-2.35,0.02C23.104,31.365-51.792,230.493,54.405,342.592
		c116.526,122.997,303.609,39.099,342.55-108.523C398.271,229.091,396.654,225.18,393.883,222.423z"/>
</g>
<g>
</g>
<g>
</g>
<g>
</g>
<g>
</g>
<g>
</g>
<g>
</g>
<g>
</g>
<g>
</g>
<g>
</g>
<g>
</g>
<g>
</g>
<g>
</g>
<g>
</g>
<g>
</g>
<g>
</g>
</svg>
