<?xml version="1.0" encoding="iso-8859-1"?>
<!-- Generator: Adobe Illustrator 19.0.0, SVG Export Plug-In . SVG Version: 6.00 Build 0)  -->
<svg version="1.1" id="Capa_1" xmlns="http://www.w3.org/2000/svg" xmlns:xlink="http://www.w3.org/1999/xlink" x="0px" y="0px"
	 viewBox="0 0 412.733 412.733" style="enable-background:new 0 0 412.733 412.733;" xml:space="preserve">
<path d="M369.741,144.252C359.597,65.771,293.151,3.021,213.84,0.115C128.279-3.017,54.088,57.945,42.895,143.436
	c-13.464,102.808,83.327,205.48,155.528,265.922c6.579,5.508,16.124,3.715,21.569-1.368c3.735-0.813,7.442-2.372,10.827-5.85
	C296.349,334.818,383.028,247.044,369.741,144.252z M313.957,218.844c-47.471,47.245-148.15,86.08-199.816,28.739
	c-1.08-1.776-2.329-3.447-3.381-5.24C63.42,161.839,94.278,47.233,203.538,44.302C301.22,41.68,341.532,139.06,313.957,218.844z"/>
<g>
</g>
<g>
</g>
<g>
</g>
<g>
</g>
<g>
</g>
<g>
</g>
<g>
</g>
<g>
</g>
<g>
</g>
<g>
</g>
<g>
</g>
<g>
</g>
<g>
</g>
<g>
</g>
<g>
</g>
</svg>
