<?xml version="1.0" encoding="iso-8859-1"?>
<!-- Generator: Adobe Illustrator 19.0.0, SVG Export Plug-In . SVG Version: 6.00 Build 0)  -->
<svg version="1.1" id="Capa_1" xmlns="http://www.w3.org/2000/svg" xmlns:xlink="http://www.w3.org/1999/xlink" x="0px" y="0px"
	 viewBox="0 0 405.767 405.767" style="enable-background:new 0 0 405.767 405.767;" xml:space="preserve">
<path d="M396.551,159.15c-0.871-6.285-5.057-9.307-9.895-9.87c-1.441-2.669-3.979-4.745-7.945-5.394
	c-36.494-5.97-73.55-8.205-110.629-9.464c-3.149-39.293-7.136-78.045-11.555-115.082c-0.769-6.448-5.304-9.951-10.114-10.661
	c-1.448-1.516-3.294-2.791-6.025-3.342c-32.42-6.523-66.21-6.621-98.985-2.696c-0.577,0.068-0.988,0.331-1.523,0.451
	c-6.429-1.565-14.78,2.646-15.02,10.653c-1.122,37.867-1.366,76.828-1.159,116.049c-19.343-0.347-38.597,0.326-57.322,2.81
	c-14.694-1.211-29.827-0.705-44.007-1.24c-7.74-0.292-13.664,6.633-13.946,13.944c-1.465,38.553-2.917,77.126-3.911,115.694
	c-0.199,7.74,6.745,14.41,14.375,14.372c10.745-0.053,21.806,0.514,32.03-1.499c24.846,4.981,50.954,5.665,77.107,4.816
	c1.935,36.363,4.56,72.355,8.103,107.425c0.985,9.72,9.05,13.499,15.881,11.717c2.226,3.353,5.684,5.98,10.268,6.378
	c16.327,1.417,32.784,0.212,49.167,0.587c15.082,0.343,30.033,2.106,44.96-0.191c4.772-0.734,6.91-3.744,7.997-7.215
	c2.385-2.239,4.104-5.196,4.474-8.682c3.897-36.831,5.401-75.29,5.332-114.313c36.943-0.535,73.865-1.728,110.344-6.663
	c5.108-0.691,8.018-3.405,9.487-6.819c0.6-0.243,1.118-0.25,1.749-0.575c4.214-2.166,4.529-6.201,3.013-9.666
	C403.591,221.223,400.572,188.21,396.551,159.15z"/>
<g>
</g>
<g>
</g>
<g>
</g>
<g>
</g>
<g>
</g>
<g>
</g>
<g>
</g>
<g>
</g>
<g>
</g>
<g>
</g>
<g>
</g>
<g>
</g>
<g>
</g>
<g>
</g>
<g>
</g>
</svg>
