<?xml version="1.0" encoding="iso-8859-1"?>
<!-- Generator: Adobe Illustrator 19.0.0, SVG Export Plug-In . SVG Version: 6.00 Build 0)  -->
<svg version="1.1" id="Capa_1" xmlns="http://www.w3.org/2000/svg" xmlns:xlink="http://www.w3.org/1999/xlink" x="0px" y="0px"
	 viewBox="0 0 434.653 434.653" style="enable-background:new 0 0 434.653 434.653;" xml:space="preserve">
<path d="M434.652,134.268c0.028-4.646-2.743-7.442-6.146-8.488c-0.753-1.641-1.92-3.072-3.979-3.624
	c-32.908-8.814-76.395-3.521-110.487,4.168c-0.353-10.784-0.869-21.544-1.37-32.136c-0.247-5.231-4.22-7.813-8.163-7.772
	c-1.354-1.703-3.404-2.882-6.232-2.884c-56.764-0.042-114.194-5.546-170.848-1.133c-1.315,0.103-2.46,0.423-3.449,0.896
	c-3.138-0.334-6.44,1.139-7.56,4.8c-3.294,10.76-3.503,22.651-3.229,34.419c-28.716-7.404-66.778-2.826-95.424,0.824
	c-2.49,0.317-4.208,1.698-5.286,3.42c-1.949,1.275-3.606,3.101-4,6.081c-7.42,56.053-11.07,120.049-6.397,176.408
	c0.439,5.303,6.469,8.323,10.671,6.851c0.194-0.006,0.34,0.076,0.541,0.055c28.305-2.966,57.004-3.805,85.216-7.356
	c-3.459,8.358-6.349,16.873-7.405,25.771c-0.247,2.081,0.971,3.669,2.551,4.861c1.108,2.144,3.156,3.865,6.342,4.121
	c79.819,6.437,160.347,6.196,240.347,10.402c10.54,0.554,11.399-13.83,3.049-17.321c-1.557-8.189-3.752-16.237-6.222-24.21
	c10.507,1.124,22.259,0.139,32.05,0.225c17.118,0.151,34.28,0.041,51.381-0.717c7.155-0.317,9.86-6.964,8.124-12.072
	c0.579-0.887,1.04-1.904,1.169-3.203C435.249,242.785,434.331,188.344,434.652,134.268z M132.265,99.156
	c54.352,4.537,109.484,0.556,163.977,1.23c-1.313,26.82-2.744,54.418,1.565,80.985c-55.488-1.998-111.958-5.494-167.41-0.98
	c-1.093-13.067,2.294-28.739,2.339-41.706C132.781,125.852,133.96,112.117,132.265,99.156z M109.832,327.991
	c5.857-10.778,9.696-22.817,14.358-34.146c7.67-18.637,14.606-37.09,19.417-56.661c26.333,0.079,53.013-1.653,78.489-0.467
	c24.794,1.155,49.427,3.431,74.016,3.787c-0.033,0.397-0.143,0.744-0.104,1.184c1.719,18.662,9.994,36.808,16.474,54.309
	c4.85,13.096,9.487,26.383,15.555,38.965C255.664,329.942,182.322,324.866,109.832,327.991z M361.883,293.45
	c-8.493,0.164-21.257-1.526-30.777,0.622c-0.761-2.216-1.521-4.435-2.28-6.648c-4.557-13.301-8.717-27.606-15.214-40.313
	c6.603,1.772,13.983,1.772,20.659,2.053c8.548,0.358,16.665,0.615,25.065-1.224c3.351-0.734,6.826-4.805,6.395-8.402
	c-0.581-4.854-1.062-9.711-1.993-14.514c-1.109-5.724-7.19-7.095-11.662-5.157c-0.916-0.456-1.924-0.801-3.183-0.81
	c-14.214-0.106-28.489,0.184-42.745,0.8c-63.151-3.466-133.206-15.373-193.146-5.055c-10.491-1.081-22.236,0.153-31.531,0.609
	c-0.683,0.034-1.273,0.268-1.875,0.472c-3.841-1.263-8.368-0.588-10.463,3.398c-4.476,8.519-3.127,17.515,3.31,23.875
	c-0.246,3.4,1.914,7.053,6.479,7.586c14.253,1.668,34.718,4.299,47.741-3.454c-5.888,11.338-11.355,22.841-16.303,34.737
	c-1.837,4.417-3.858,8.822-5.888,13.24c-0.711-0.546-1.521-0.976-2.499-1.152c-27.259-4.926-56.595-1.787-83.692,4.518
	c7.15-50.116,8.885-105.29,6.809-155.706c29.58,1.191,58.968-1.062,88.512-2.789c0.014,0.754,0.055,1.549,0.061,2.296
	c0.099,12.323-2.344,30.718,3.896,42.1c-2.144,4.012-0.41,9.805,5.677,10.029c58.973,2.171,118.141-2.631,177.152-2.532
	c1.401,0.002,2.439-0.502,3.262-1.197c3.07,0.418,6.415-0.862,7.072-4.264c3.022-15.637,3.786-31.705,3.654-47.801
	c18.633,1.297,37.064,1.276,55.761,0.514c15.148-0.618,30.837,0.09,45.838-2.371c-0.88,52.27-2.743,104.832,1.087,157.013
	C398.698,293.224,380.249,293.095,361.883,293.45z"/>
<g>
</g>
<g>
</g>
<g>
</g>
<g>
</g>
<g>
</g>
<g>
</g>
<g>
</g>
<g>
</g>
<g>
</g>
<g>
</g>
<g>
</g>
<g>
</g>
<g>
</g>
<g>
</g>
<g>
</g>
</svg>
