<?xml version="1.0" encoding="iso-8859-1"?>
<!-- Generator: Adobe Illustrator 19.0.0, SVG Export Plug-In . SVG Version: 6.00 Build 0)  -->
<svg version="1.1" id="Capa_1" xmlns="http://www.w3.org/2000/svg" xmlns:xlink="http://www.w3.org/1999/xlink" x="0px" y="0px"
	 viewBox="0 0 411.065 411.065" style="enable-background:new 0 0 411.065 411.065;" xml:space="preserve">
<path d="M408.079,34.131c-0.219-16.673-13.484-28.973-29.765-29.766c-64.266-3.128-128.849-5.537-193.208-3.762
	c-27.215,0.753-51.36-2.365-64.18,24.614c-17.828,37.51-7.004,103.206-8.688,143.536c-0.875,20.976-2.115,42.001-2.628,63.005
	c-67.133-14.944-158.634,84.608-71.135,151.33c44.25,33.746,109.764,11.227,128.007-39.932
	c12.731-35.702,1.822-85.449,3.002-123.231c0.821-26.345-0.488-56.93-0.492-87.399c7.346-0.134,14.797-0.673,22.201-1.011
	c24.437,3.886,49,7.108,73.616,8.973c28.285,2.144,56.538,5.388,83.404-1.594c0.004,20.164,0.113,40.327-0.378,60.489
	c-0.57,23.079-1.107,46.231-2.29,69.308c-11.617-9.054-26.727-14.563-46.08-13.223c-63.298,4.385-78.258,77.676-43.481,121.581
	c36.372,45.913,105.778,46.975,134.104-6.765c19.69-37.347,14.692-89.274,16.091-129.603
	C408.563,171.839,408.978,103.001,408.079,34.131z"/>
<g>
</g>
<g>
</g>
<g>
</g>
<g>
</g>
<g>
</g>
<g>
</g>
<g>
</g>
<g>
</g>
<g>
</g>
<g>
</g>
<g>
</g>
<g>
</g>
<g>
</g>
<g>
</g>
<g>
</g>
</svg>
