<?xml version="1.0" encoding="iso-8859-1"?>
<!-- Generator: Adobe Illustrator 19.0.0, SVG Export Plug-In . SVG Version: 6.00 Build 0)  -->
<svg version="1.1" id="Capa_1" xmlns="http://www.w3.org/2000/svg" xmlns:xlink="http://www.w3.org/1999/xlink" x="0px" y="0px"
	 viewBox="0 0 404.951 404.951" style="enable-background:new 0 0 404.951 404.951;" xml:space="preserve">
<g>
	<path d="M189.785,4.321C74.272,8.596-11.681,100.878,1.297,216.359c9.605,85.425,86.111,192.941,177.463,182.579
		c23.867,4.346,48.658,0.819,71.188-8.87c87.317-16.974,156.836-92.335,154.966-187.062C402.635,87.475,303.532,0.111,189.785,4.321
		z M197.03,314.643c-6.672,0.97-13.397,1.381-20.12,1.78c0.562-17.543-0.416-35.174-0.979-52.752
		c11.987,1.616,24.52,2.487,36.618,2.229c1.947,15.453,6.233,31.711,10.235,43.892C214.204,311.429,205.703,313.383,197.03,314.643z
		 M214.396,233.614c-12.909-0.404-26.35,0.535-39.158,2.297c-0.268-11.392-0.395-23.364,1.23-35.015
		c28.223-5.757,54.375-41.622,31.397-66.872c-14.42-15.846-35.767-11.032-49.757,2.622c-13.241,12.921-18.907,29.689-22.235,47.176
		c-3.582-2.874-7.553-5.434-11.98-7.558c-15.542-47.087,19.306-97.994,71.992-98.016c76.801-0.03,88.048,87.288,40.85,131.52
		C227.556,218.37,219.033,221.985,214.396,233.614z"/>
</g>
<g>
</g>
<g>
</g>
<g>
</g>
<g>
</g>
<g>
</g>
<g>
</g>
<g>
</g>
<g>
</g>
<g>
</g>
<g>
</g>
<g>
</g>
<g>
</g>
<g>
</g>
<g>
</g>
<g>
</g>
</svg>
