<?xml version="1.0" encoding="iso-8859-1"?>
<!-- Generator: Adobe Illustrator 19.0.0, SVG Export Plug-In . SVG Version: 6.00 Build 0)  -->
<svg version="1.1" id="Capa_1" xmlns="http://www.w3.org/2000/svg" xmlns:xlink="http://www.w3.org/1999/xlink" x="0px" y="0px"
	 viewBox="0 0 414.694 414.694" style="enable-background:new 0 0 414.694 414.694;" xml:space="preserve">
<path d="M366.84,88.983c0.014-1.718-0.405-3.135-1.031-4.371c2.35-2.975,3.017-7.22-0.437-10.067
	c-9.835-8.109-20.255-16.549-26.287-28.056c-4.73-9.025-1.318-18.632-3.877-27.228c4.387-4.784,2.314-13.455-6.231-14.577
	c-40.588-5.329-82.308-2.934-123.209-2.932C170.994,1.755,131.295-3.21,97.046,3.563C68.466,9.216,45.093,30.058,54.629,58.219
	c-0.047,2.046,0.315,3.941,0.611,5.859c-14.707,76.34-10.636,157.795-8.847,234.972c0.98,42.365-4.508,86.501,40.207,103.398
	c1.801,0.681,3.384,0.469,4.66-0.262c19.676,6.527,42.905,5.01,63.86,5.862c65.565,2.666,131.248,5.976,196.86,6.644
	c9.24,0.094,10.759-10.96,5.088-15.569C379.701,302.963,366.038,186.813,366.84,88.983z M296.091,319.352
	c-0.55,9.618-2.639,20.818-0.826,30.661c-26.736-2.984-54.05-2.63-80.801-2.606c-30.598,0.03-62.701-1.014-92.714,5.947
	c1.127-16.49,2.247-32.983,3.368-49.473c50.356,1.551,101.817,2.38,152.21-0.829c6.558,1.146,13.061,2.076,19.299,2.446
	C296.464,310.143,296.353,314.788,296.091,319.352z M227.967,69.93C193.845,70.983,98.434,94.219,72.281,54.422
	c0.098-45.027,107.676-29.923,133.486-29.793c36.609,0.183,73.826,1.99,110.366-1.251c-2.286,8.132,0.049,18.63,3.09,26.004
	c4.195,10.172,11.398,17.884,19.553,24.683C301.936,70.384,265.041,68.787,227.967,69.93z"/>
<g>
</g>
<g>
</g>
<g>
</g>
<g>
</g>
<g>
</g>
<g>
</g>
<g>
</g>
<g>
</g>
<g>
</g>
<g>
</g>
<g>
</g>
<g>
</g>
<g>
</g>
<g>
</g>
<g>
</g>
</svg>
