<?xml version="1.0" encoding="iso-8859-1"?>
<!-- Generator: Adobe Illustrator 19.0.0, SVG Export Plug-In . SVG Version: 6.00 Build 0)  -->
<svg version="1.1" id="Capa_1" xmlns="http://www.w3.org/2000/svg" xmlns:xlink="http://www.w3.org/1999/xlink" x="0px" y="0px"
	 viewBox="0 0 408.356 408.356" style="enable-background:new 0 0 408.356 408.356;" xml:space="preserve">
<g>
	<path d="M395.214,28.181c-122.355-7.51-248.744-13.11-370.683,2.157c-3.404,0.428-6.011,2.012-7.816,4.135
		c-1.392,0.777-2.452,2.184-2.758,4.423C-0.491,144.26-4.76,268.491,6.094,374.04c0.282,2.747,2.027,4.919,4.221,6.354
		c1.78,2.461,4.635,4.227,8.885,4.216c121.184-0.311,241.456,0.58,362.609,3.072c6.395,0.133,9.814-3.595,10.771-8.08
		c1.546-1.984,2.682-4.398,2.659-7.633c-0.798-110.516,3.386-220.589,13.076-330.688C408.963,33.922,401.771,28.584,395.214,28.181z
		 M371.286,206.452c-2.037,52.173-2.51,104.351-2.041,156.554c-43.769-5.082-88.641-8.252-133.746-9.586
		c3.096-9.764,2.38-20.397,2.747-30.747c0.349-9.844,2.98-22.044,0.378-31.555c-1.934-7.069-7.447-10.615-14.297-11.582
		c-11.947-1.691-25.697,0.618-37.763,0.985c-5.716,0.174-11.307,4.901-10.997,10.998c1.028,20.318,1.738,41.047,4.561,61.297
		c-52.611,0.254-105.076,2.956-156.005,8.438c12.549-98.128,13.563-210.499,4.847-308.61c55.551-0.187,111.051-3.935,166.631-4.268
		c28.531-0.169,57.076,0.101,85.599,0.813c12.848,0.319,75.164-3.97,85.533,3.455C394.808,72.744,372.559,173.914,371.286,206.452z"
		/>
	<path d="M138.222,283.863c-5.658-1.731-12.432-0.282-18.254,0.149c-7.202,0.536-14.409,1.018-21.604,1.651
		c-6.251,0.55-11.987,4.973-11.827,11.827c0.151,6.35,0.521,10.392,4.846,15.337c0.11,0.124,0.286,0.162,0.404,0.279
		c-1.151,5.39,1.884,11.544,9.479,12.283c11.796,1.145,23.698,0.877,35.541,0.906c6.253,0.016,11.147-5.204,11.326-11.325
		C148.446,304.188,151.7,287.99,138.222,283.863z"/>
	<path d="M148.73,209.679c-0.205-8.071-7.397-13.044-15.03-11.451c-12.744,2.661-25.537,2.995-38.485,1.859
		c-6.814-0.6-10.942,5.87-11.658,11.658c-0.726,5.852-0.836,11.553-0.334,17.432c0.338,3.959,2.348,7.372,5.269,9.483
		c-0.225,1.481-0.134,3.024,0.633,4.16c4.532,6.69,11.457,6.81,19.02,7.461c8.534,0.734,19.075,2.466,27.513,0.863
		C153.904,247.68,149.074,223.242,148.73,209.679z"/>
	<path d="M146.726,133.339c-0.069-7.887-7.37-12.853-14.757-11.24c-12.203,2.663-24.398,4.133-36.88,4.517
		c-4.636,0.143-10.345,3.46-11.165,8.5l-2.042,12.567c-0.841,5.192,1.086,9.593,4.423,12.114c-0.608,2.514,0.097,5.12,3.11,6.406
		c7.023,3,14.622,3.649,22.197,4.3c7.073,0.609,15.462,2.287,22.485,1.045C151.429,168.48,146.835,146.05,146.726,133.339z"/>
	<path d="M235.054,214.237c-5.825-8.432-15.397-6.568-24.185-5.471c-13.064,1.631-42.536,2.957-35.192,24.417
		c0.561,1.639,1.55,2.95,2.686,4.099c-1.316,3.459-0.05,7.795,4.538,9.423c13.222,4.687,30.037,6.237,43.987,5.739
		c6.371-0.228,10.761-4.962,11.199-11.199C238.675,232.854,240.117,221.568,235.054,214.237z"/>
	<path d="M237.109,138.871c0.264-5.884-5.669-12.554-11.85-11.849c-12.337,1.406-24.652,1.913-37.058,1.442
		c-6.771-0.259-11.228,5.629-11.78,11.776c-0.432,4.842,0.045,9.347,0.859,14.121c0.939,5.494,4.609,8.062,8.737,8.419
		c0.005,0.012-0.001,0.023,0.005,0.034c3.485,5.923,9.966,7.108,16.326,8.099c7.958,1.239,15.998,2.066,23.981,3.119
		c5.879,0.773,11.72-5.851,11.391-11.392C237.251,154.682,236.751,146.849,237.109,138.871z"/>
	<path d="M338.62,302.962c-4.297-16.296-21.344-18.874-35.567-16.648c-12.607,1.974-35.642,3.566-30.996,22.198
		c0.496,1.998,1.5,3.432,2.686,4.587c-0.378,1.183-0.518,2.495-0.291,3.901c1.118,6.915,7.608,8.378,13.653,9.349
		c8.598,1.381,18.053,1.791,26.758,1.645C328.599,327.765,342.743,318.604,338.62,302.962z"/>
	<path d="M333.617,218.106c-0.104-5.468-4.908-11.417-10.864-10.866c-14.306,1.321-28.579,1.891-42.944,1.503
		c-7.143-0.194-11.956,6.99-10.336,13.567c1.041,4.225,2.082,8.45,3.123,12.676c0.789,3.202,2.598,5.254,4.802,6.424
		c0.122,0.217,0.148,0.424,0.295,0.647c3.786,5.631,9.452,5.552,15.762,6.213c8.121,0.853,16.754,1.962,24.92,1.731
		C336.589,249.489,333.872,231.287,333.617,218.106z"/>
	<path d="M332.981,149.765c0.05-0.033-0.119-0.703-0.044-2.863c0.065-1.919,0.237-3.805,0.135-5.728
		c-0.185-3.473-1.154-6.701-2.758-9.69c-0.11-4.32-3.464-7.538-7.732-7.731c-0.191-0.007-0.378-0.029-0.565-0.038
		c-6.598-3.109-14.963-3.415-21.817-3.135c-2.12,0.086-4.201,0.451-6.258,0.89c-4.98-0.532-9.962-1.035-14.924-1.735
		c-6.578-0.929-11.249,4.677-8.38,10.899c0.958,2.077,0.978,4.398,0.766,6.766c-3.275,6.31-3.849,13.894,0.186,22.053
		c0.714,1.442,2.023,2.623,3.532,3.56c0.2,0.182,0.327,0.392,0.54,0.57c1.319,1.093,3.16,1.422,4.908,1.194
		c0.46,0.032,0.924,0.145,1.374,0.116c0.694,0.699,1.377,1.432,2.479,1.713c12.977,3.335,27.279,1.235,40.567,2.052
		C335.629,169.308,338.703,156.575,332.981,149.765z"/>
</g>
<g>
</g>
<g>
</g>
<g>
</g>
<g>
</g>
<g>
</g>
<g>
</g>
<g>
</g>
<g>
</g>
<g>
</g>
<g>
</g>
<g>
</g>
<g>
</g>
<g>
</g>
<g>
</g>
<g>
</g>
</svg>
