<?xml version="1.0" encoding="iso-8859-1"?>
<!-- Generator: Adobe Illustrator 19.0.0, SVG Export Plug-In . SVG Version: 6.00 Build 0)  -->
<svg version="1.1" id="Capa_1" xmlns="http://www.w3.org/2000/svg" xmlns:xlink="http://www.w3.org/1999/xlink" x="0px" y="0px"
	 viewBox="0 0 439.022 439.022" style="enable-background:new 0 0 439.022 439.022;" xml:space="preserve">
<g>
	<path d="M357.454,0.536L333.66,1.428c-4.787-2.466-11.102-2.07-14.746,3.827c-85.49,138.352-177.666,275.817-253.222,419.866
		c-3.304,6.297,1.851,11.478,7.18,11.249c0.586,0.353,0.914,0.9,1.716,1.07c11.066,2.341,23.264,1.337,34.545,1.522
		c4.397,0.072,8.98-3.258,10.002-7.615c0.746-3.179,0.191-5.098-1.046-7.993c-0.167-0.393-0.5-0.621-0.723-0.961
		c91.807-127.829,170.07-268.985,250.151-404.32C371.898,10.67,366.348,0.202,357.454,0.536z"/>
	<path d="M112.329,32.943c-75.18,0.023-92.884,140.93-5.248,144.196c42.724,1.594,74.317-37.309,74.556-78.13
		C181.834,65.187,149.792,18.201,112.329,32.943z M100.78,125.105c-15.674-3.864-14.399-25.471-7.66-36.158
		c4.446-7.052,10.706-11.213,17.72-13.545c11.556,3.3,23.776,5.964,22.817,22.108C132.822,111.556,115.564,128.75,100.78,125.105z"
		/>
	<path d="M382.054,283.907c-11.564-31.447-56.143-41.868-86.554-28.918c-42.511,18.102-61.928,69.786-33.681,108.505
		c26.969,36.969,80.471,38.426,111.082,4.969C392.335,347.223,396.511,309.401,382.054,283.907z M336.195,301.972
		c6.095,9.955,9.308,21.518,2.094,32.539c-8.077,12.339-27.278,14.556-38.98,6.012c-18.605-13.583-3.085-36.239,14.554-40.909
		C322.096,297.435,329.573,298.712,336.195,301.972z"/>
</g>
<g>
</g>
<g>
</g>
<g>
</g>
<g>
</g>
<g>
</g>
<g>
</g>
<g>
</g>
<g>
</g>
<g>
</g>
<g>
</g>
<g>
</g>
<g>
</g>
<g>
</g>
<g>
</g>
<g>
</g>
</svg>
