<?xml version="1.0" encoding="iso-8859-1"?>
<!-- Generator: Adobe Illustrator 19.0.0, SVG Export Plug-In . SVG Version: 6.00 Build 0)  -->
<svg version="1.1" id="Capa_1" xmlns="http://www.w3.org/2000/svg" xmlns:xlink="http://www.w3.org/1999/xlink" x="0px" y="0px"
	 viewBox="0 0 428.261 428.261" style="enable-background:new 0 0 428.261 428.261;" xml:space="preserve">
<path d="M427.895,314.821c-0.263-12.112,0.959-24.159-6.378-34.334c-2.413-3.346-5.891-4.244-9.665-2.534
	c-0.253,0.116-0.414,0.247-0.644,0.366c-0.503-0.132-0.968-0.301-1.547-0.36c-13.44-1.375-28.31-2.13-43.432-1.993
	c0.25-6.268,0.018-12.615,0.095-18.638c0.151-11.697,0.143-23.328-1.637-34.907c-0.165-1.073-0.725-1.853-1.482-2.367
	c-1.191-2.397-3.41-4.285-6.88-4.401c-46.073-1.525-96.632-4.567-147.079-4.699c2.192-25.022,1.455-50.381,2.494-75.541
	c12.38-0.005,24.757-0.07,37.108-0.161c5.061-0.038,7.613-3.862,7.736-7.771c1.079-1.493,1.841-3.176,1.679-4.919
	c-2.119-22.718-1.524-45.255,2.219-67.781c0.935-5.622-2.302-10.972-8.453-11.098c-18.459-0.376-36.915-0.834-55.373-1.259
	c-13.863-0.323-31.693-3.835-45.069-0.014c-2.942,0.839-5.623,3.265-6.325,6.324c-3.878,16.908-1.938,38.998-0.575,57.751
	c-0.712,6.857-1.338,13.718-2.073,20.636c-0.425,3.994,3.649,7.05,7.204,7.206c15.768,0.689,31.582,0.968,47.4,1.065
	c-1.733,25.046-2.774,50.849,1.35,75.586c-49.115,0.296-97.788,3.701-141.824,14.318c-0.699,0.03-1.371,0.199-2.013,0.455
	c-0.3,0.073-0.611,0.129-0.91,0.204c-2.396,0.597-2.854,2.563-2.241,4.293c-3.118,16.214-3.829,33.968-3.389,50.731
	c-0.483,0.013-0.969,0.016-1.451,0.032c-15.405,0.511-31.979-0.75-45.573,7.114c-1.951,1.127-1.242,3.647,0.574,4.387
	c0.449,0.183,0.928,0.285,1.383,0.452c-3.256,18.354-2.207,37.199-1.955,55.796c0.127,9.425-3.602,26.329,4.217,33.582
	c7.997,7.415,32.206-0.42,41.8-0.974c22.589-1.31,45.118-1.054,67.69,0.426c4.575,0.301,8.215-4.821,6.898-9.054
	c-7.882-25.332-2.9-51.691-5.562-77.692c-0.179-1.748-0.955-3.058-1.939-4.121c0.572-2.224,0.159-4.597-1.937-6.251
	c-0.298-0.234-0.596-0.471-0.894-0.705c-1.893-1.493-3.867-1.953-5.826-1.536c-13.896-1.482-27.98-1.899-42.016-1.77
	c0.97-15.44,0.917-31.658-1.06-46.898c46.906,4.669,95.842-1.676,142.953-2.378c49.741-0.74,99.463,0.199,149.199,0.672
	c-1.122,8.365-1.559,16.819-1.932,25.267c-0.274,6.186-0.855,12.65-0.915,19.052c-19.139,0.95-38.102,3.499-54.527,8.357
	c-2.992,0.885-3.922,5.105-1.992,7.187c-2.85,13.241-3.832,26.913-4.074,40.427c-0.258,14.449-2.037,30.571,2.543,44.393
	c0.084,0.255,0.321,0.347,0.429,0.581c-0.565,2.197,0.682,5.095,2.687,6.095c13.15,6.555,32.035,3.505,46.345,3.394
	c18.297-0.143,36.805-0.164,55.096-1.563c0.23,0.054,0.43,0.169,0.674,0.191c25.136,2.246,28.559,0.207,29.073-24.633
	C428.416,345.485,428.228,330.145,427.895,314.821z"/>
<g>
</g>
<g>
</g>
<g>
</g>
<g>
</g>
<g>
</g>
<g>
</g>
<g>
</g>
<g>
</g>
<g>
</g>
<g>
</g>
<g>
</g>
<g>
</g>
<g>
</g>
<g>
</g>
<g>
</g>
</svg>
