<?xml version="1.0" encoding="iso-8859-1"?>
<!-- Generator: Adobe Illustrator 19.0.0, SVG Export Plug-In . SVG Version: 6.00 Build 0)  -->
<svg version="1.1" id="Capa_1" xmlns="http://www.w3.org/2000/svg" xmlns:xlink="http://www.w3.org/1999/xlink" x="0px" y="0px"
	 viewBox="0 0 394.009 394.009" style="enable-background:new 0 0 394.009 394.009;" xml:space="preserve">
<g>
	<path d="M261.299,67.556c-12.596-19.653-28.755-36.08-47.76-49.582c-2.386-1.697-4.691-1.662-6.641-0.77
		c-2.648-1.399-6.604-0.213-6.344,3.53c1.058,15.321,2.748,30.412,2.58,45.803c-0.03,2.735,2.091,5.95,4.932,6.479
		c15.349,2.853,31.039,4.328,46.533,6.219C260.483,79.953,264.229,72.124,261.299,67.556z"/>
	<path d="M272.806,91.18c-0.091-2.979-2.563-5.923-5.75-5.751c-17.433,0.947-34.739-1.839-52.031-1.165
		c-1.028,0.04-1.716,0.555-2.442,1.011c-6.652-1.015-13.384-1.223-20.124-1.076c4.416-23.636,1.255-49.408-2.941-72.888
		c0.725-1.854,0.329-4.003-2.23-4.509c-0.022-0.004-0.048-0.005-0.07-0.009c-1.275-0.806-2.825-0.939-4.359-0.596
		C133.758-2.778,74.411-1.636,25.851,7.248c-1.097,0.201-1.676,0.856-2.271,1.481c-0.069-0.038-0.134-0.076-0.203-0.115
		c-1.069-0.617-2.237-0.344-3.134,0.405C2.95,23.48,12.805,94.156,12.676,113.524c-0.401,61.34,1.109,122.689,4.119,183.955
		c-1.639,5.873-1.529,13.02,1.725,17.445c-0.005,0.506-0.094,0.854-0.086,1.417c0.051,2.895,2.255,4.69,4.972,4.972
		c13.336,1.379,27.077,0.364,40.471-0.063c10.936-0.35,22.505,0.388,33.114-2.415c4.558,4.708,13.111-0.167,9.399-6.49
		c-31.245-53.205-42.808-118.4-0.761-169.883c42.257-51.744,106.049-54.543,160.656-21.813c3.031,1.817,6.247-0.952,6.169-3.831
		c1.947-0.786,3.47-2.607,2.822-5.388C273.725,104.729,273.018,98.039,272.806,91.18z"/>
	<path d="M376.029,350.254c-0.187-0.273-0.099-0.612-0.356-0.862c-25.21-24.504-51.889-47.492-76.938-72.199
		c21.803-46.348,12.742-105.138-30.067-136.905c-44.223-32.818-110.36-27.646-146.811,14.229
		c-35.121,40.348-35.632,101.504-1.572,142.45c30.546,36.722,100.945,57.811,141.618,26.376
		c8.832,11.346,22.071,20.043,32.568,29.653c12.892,11.808,24.171,26.122,37.678,37.073c1.679,1.362,3.688,1.271,5.42,0.619
		c13.588,5.833,30.734,4.422,40.267-7.767C384.363,374.574,388.321,355.206,376.029,350.254z M152.445,273.217
		c-27.036-28.864-22.43-74.071,7.337-98.939c27.341-22.839,70.964-18.346,93.163,9.838c23.978,30.447,15.066,70.768-6.4,99.855
		C224.013,311.033,171.907,293.992,152.445,273.217z"/>
</g>
<g>
</g>
<g>
</g>
<g>
</g>
<g>
</g>
<g>
</g>
<g>
</g>
<g>
</g>
<g>
</g>
<g>
</g>
<g>
</g>
<g>
</g>
<g>
</g>
<g>
</g>
<g>
</g>
<g>
</g>
</svg>
