<?xml version="1.0" encoding="iso-8859-1"?>
<!-- Generator: Adobe Illustrator 19.0.0, SVG Export Plug-In . SVG Version: 6.00 Build 0)  -->
<svg version="1.1" id="Capa_1" xmlns="http://www.w3.org/2000/svg" xmlns:xlink="http://www.w3.org/1999/xlink" x="0px" y="0px"
	 viewBox="0 0 434.211 434.211" style="enable-background:new 0 0 434.211 434.211;" xml:space="preserve">
<g>
	<path d="M202.902,81.629c0.393-1.027,0.492-2.165-0.266-3.406c-7.908-12.958-22.314-22.981-32.773-33.997
		c-10.168-10.708-19.704-24.894-32.18-32.929c-1.623-2.264-4.668-3.434-7.051-0.779c-6.352,7.08-13.024,13.941-18.631,21.636
		c-1.677,2.298-0.341,4.68,1.695,5.833c9.067,11.45,19.455,21.782,29.56,32.302c11.459,11.93,21.857,25.443,34.081,36.541
		c2.072,1.882,4.984,1.58,6.937,0.171c0.045-0.018,0.071,0.019,0.114-0.001c7.78-3.404,12.653-14.268,17.897-20.811
		C203.492,84.682,203.404,83.08,202.902,81.629z"/>
	<path d="M325.351,34.8c0.218-1.369,0.094-2.797-0.898-4.043c-6.829-8.561-17.061-16.086-26.796-21.244
		c-0.393-0.411-0.523-1.022-1.16-1.189c-4.792-1.254-6.215,0.73-9.697,3.98c-8.235,7.68-15.964,16.042-23.719,24.206
		c-7.182,7.561-14.306,15.182-21.227,22.981c-4.41,4.968-10.184,10.355-12.835,16.697c-0.509,0.618-0.746,1.414-0.793,2.224
		c-0.147,0.523-0.457,0.997-0.549,1.534c-0.353,2.043,1.592,4.087,3.465,3.704c6.206,8.095,14.169,15.397,21.601,22.12
		c2.354,2.129,5.067,1.092,6.445-0.871c24.183-18.778,46.468-39.686,65.687-63.573C326.597,39.187,326.426,36.706,325.351,34.8z"/>
	<path d="M276.194,2.09c-0.272-0.274-0.545-0.546-0.815-0.819c-1.381-1.388-3.38-1.501-5.232-0.997
		c-0.239-0.009-0.315-0.216-0.571-0.197c-20.286,1.484-40.523,2.926-60.871,3.122c-17.508,0.169-35.467-2.749-52.691,0.241
		c-2.316-1.005-4.664,1.528-2.809,3.791c9.754,11.909,19.716,22.939,30.811,33.658c9.697,9.371,19.571,21.253,31.53,27.653
		c2.884,1.544,6.461-0.849,6.416-3.809c10.068-5.775,17.681-15.927,25.379-24.388c8.853-9.729,17.665-19.499,26.286-29.437
		c0.246-0.078,0.483,0.028,0.727-0.088c0.254-0.119,0.507-0.239,0.761-0.357C278.279,8.974,278.437,4.346,276.194,2.09z"/>
	<path d="M212.099,371.579c-0.59-28.971-2.695-58.104-2.423-86.869c0.53-55.845,2.548-112.151,0.426-168.025
		c-0.005-0.013,0-0.027-0.003-0.04c-0.229-6.059-0.279-12.136-0.62-18.181c0.04-0.092,0.102-0.171,0.14-0.264
		c0.451-1.03,0.208-1.979-0.251-2.777c0-0.028,0-0.053-0.003-0.081c-0.194-3.238-4.734-3.195-5.002,0
		c-0.008,0.071-0.008,0.145-0.012,0.216c-5.324,5.066-9.663,10.812-14.031,16.731c-2.271,3.08-4.732,6.107-6.964,9.263
		c-16.205-0.376-34.972-29.443-43.934-39.499c-12.499-14.022-25.215-27.824-38.084-41.511c-1.461-1.555-3.086-1.48-4.552-0.896
		c-0.531-0.407-1.094-0.788-1.786-1.021c-17.809-6.015-45.902,9.211-39.564,30.689c0.005,0.02,0.033,0.013,0.038,0.033
		c-4.576,54.889-2.724,109.461-0.917,164.51c1.859,56.671-3.114,114.517,1.682,170.87c-0.581,4.919-1.173,9.698,1.684,14.944
		c4.675,8.584,14.595,11.427,23.492,12.488c37.546,4.477,80.715-2.965,118.552-4.65c0.448-0.02,0.782-0.2,1.18-0.293
		c2.689,2.615,8.88,1.379,9.424-3.729c1.672-15.729,1.834-31.642,1.606-47.596C212.196,374.448,212.234,373.001,212.099,371.579z
		 M177.539,162.943c2.302,1.501,4.647,3.023,5.874,5.384c3.254,6.27-3.799,15.189-10.464,9.437
		C166.775,172.438,172.03,166.851,177.539,162.943z M178.894,382.692c-5.717-2.679-4.895-10.1,0.28-12.95
		c0.254,0.051,0.438,0.237,0.705,0.254C190.273,370.639,188.906,387.383,178.894,382.692z M182.239,279.737
		c-5.723,0.322-9.309-4.719-7.305-10.24c1.071-2.954,3.468-4.535,6.182-5.61c0.99,0.936,2.011,1.701,3.368,2.617
		C190.005,270.226,190.765,279.258,182.239,279.737z"/>
	<path d="M379.274,102.913c3.396-22.369,5.467-46.279-11.509-56.687c-0.21-1.18-0.727-2.273-2.025-2.846
		c-5.978-2.632-17.432-4.695-24.059-1.05c-2.233-1.006-4.951-0.886-7.262,1.335c-14.794,14.208-29.35,28.681-43.913,43.129
		c-11.732,11.639-25.218,23.606-34.043,37.867c-8.787-10.806-18.314-21.964-28.581-31.278c-0.296-0.269-0.677-0.208-1.009-0.378
		c-1.277-1.762-3.781-1.722-4.832,0.193c-1.757,1.191-2.71,3.358-1.156,5.586c0.142,0.205,0.324,0.396,0.469,0.601
		c-3.911,96.693,0.348,194.128-0.114,291.126c-0.786,7.745-1.35,15.503-2.269,23.242c-0.293,2.478,0.72,4.601,2.155,6.444
		c-0.03,1.919,0.014,3.844-0.021,5.763c-0.081,4.17,3.562,5.469,6.585,4.557c14.261,5.931,30.57,3.02,45.828,2.689
		c10.308-0.224,20.716-0.208,31.08-0.629c13.316,0.21,26.66-0.063,39.896-1.2c0.694,0.583,1.577,0.931,2.61,0.842
		c21.687-1.861,32.345-16.924,30.881-36.548c0.005-0.13,0.071-0.22,0.069-0.355c-0.346-20.449-0.822-40.944-1.305-61.455
		c0.142-0.527,0.322-1.035,0.303-1.64C375.093,258.064,386.043,178.039,379.274,102.913z M254.842,196.305
		c0.609-14.922,0.495-29.825,0.033-44.743c28.842,2.647,58.159-2.342,86.885,2.25c-1.869,14.108-2.946,28.288-3.098,42.529
		c-0.156,14.383,5.512,36.063-0.658,49.537c-27.153-0.473-54.349,1.966-81.563,1.146
		C247.137,237.996,254.441,206.196,254.842,196.305z"/>
	<path d="M333.07,201.898c-1.428-12.73,1.897-25.244-0.116-37.647c-0.343-2.116-2.736-2.459-4.315-1.534
		c-1.052-1.331-2.644-2.273-4.827-2.345c-11.27-0.366-22.537-0.705-33.814-0.813c-4.375-0.041-8.77-0.315-12.927,0.199
		c-0.419-0.15-0.701-0.525-1.189-0.542c-0.55-0.018-0.806,0.165-1.265,0.191c0-0.007,0-0.013-0.002-0.02
		c-0.488,0.081-0.974,0.161-1.461,0.242c-0.417,0.099-1.019,0.044-1.376,0.226c-0.803,0.133-1.61,0.266-2.414,0.399
		c-2.605-1.159-6.201-0.03-6.409,3.774c-1.288,23.587-2.392,47.538-1.582,71.154c0.154,4.467,4.543,5.655,7.539,4.094
		c19.576,3.931,40.798,3.081,60.585,2.243c4.657-0.196,5.86-5.382,3.678-8.165C336.299,223.191,334.247,212.393,333.07,201.898z"/>
</g>
<g>
</g>
<g>
</g>
<g>
</g>
<g>
</g>
<g>
</g>
<g>
</g>
<g>
</g>
<g>
</g>
<g>
</g>
<g>
</g>
<g>
</g>
<g>
</g>
<g>
</g>
<g>
</g>
<g>
</g>
</svg>
