<?xml version="1.0" encoding="iso-8859-1"?>
<!-- Generator: Adobe Illustrator 19.0.0, SVG Export Plug-In . SVG Version: 6.00 Build 0)  -->
<svg version="1.1" id="Capa_1" xmlns="http://www.w3.org/2000/svg" xmlns:xlink="http://www.w3.org/1999/xlink" x="0px" y="0px"
	 viewBox="0 0 429.567 429.567" style="enable-background:new 0 0 429.567 429.567;" xml:space="preserve">
<g>
	<path d="M361.572,233.195c15.797-23.343,20.716-46.238,29.494-72.706c10.142-30.568,28.965-56.576,37.823-87.616
		c3.665-12.859-8.198-21.624-19.806-19.806c-100.126,15.669-196.109,6.06-295.933,10.121c-2.556-7.06-5.461-13.628-8.923-19.234
		c-8.903-14.423-17.955-13.661-34.692-13.972c-19.254-0.356-45.047-5.02-62.352,4.399C-5.58,41.326-0.287,63.581,14.81,62.534
		c2.688-0.187,4.687-0.659,7.175-1.848c4.852-2.319,42.499-0.935,47.551,1.391c15.872,7.313,19.297,38.659,23.923,53.395
		c11.69,37.239,23.055,74.601,35.258,111.674c0.005,0.015,0.018,0.023,0.022,0.038c-11.896,21.642-17.763,45.886-25.623,69.518
		c-3.312,9.958,5.484,20.358,15.472,20.311c86.525-0.404,173.446,1.501,259.903-1.908c19.789-0.781,19.885-30.222,0-30.812
		c-79.042-2.346-158.413-0.308-237.545,0.407c4.367-13.352,8-26.75,9.653-40.5c58.164,17.488,136.048,4.13,194.843-0.607
		l-0.239-0.579c4.599-0.038,8.081-1.934,10.638-4.63C357.959,237.204,359.943,235.6,361.572,233.195z"/>
	<path d="M165.312,350.604c-1.251-2.04-2.87-3.783-4.639-5.367c-6.281-12.967-22.7-16.041-35.288-11.254
		c-13.523,5.145-23.866,18.225-25.292,32.659c-3.104,31.451,39.397,46.859,58.322,22.224c1.465-1.906,2.554-3.889,3.477-5.897
		C168.89,373.654,171.65,360.936,165.312,350.604z"/>
	<path d="M361.96,339.845c-2.39-1.414-5.016-2.318-7.708-2.976c-7.231-6.648-18.256-7.197-28.102-1.61
		c-12.966,7.357-20.14,22.733-17.679,37.33c2.561,15.182,15.386,27.227,31.02,27.97c13.703,0.652,28.133-9.459,34.085-21.485
		C380.407,365.274,375.205,347.692,361.96,339.845z"/>
</g>
<g>
</g>
<g>
</g>
<g>
</g>
<g>
</g>
<g>
</g>
<g>
</g>
<g>
</g>
<g>
</g>
<g>
</g>
<g>
</g>
<g>
</g>
<g>
</g>
<g>
</g>
<g>
</g>
<g>
</g>
</svg>
