<?xml version="1.0" encoding="iso-8859-1"?>
<!-- Generator: Adobe Illustrator 19.0.0, SVG Export Plug-In . SVG Version: 6.00 Build 0)  -->
<svg version="1.1" id="Capa_1" xmlns="http://www.w3.org/2000/svg" xmlns:xlink="http://www.w3.org/1999/xlink" x="0px" y="0px"
	 viewBox="0 0 428.712 428.712" style="enable-background:new 0 0 428.712 428.712;" xml:space="preserve">
<g>
	<path d="M417.888,212.333c2.105-7.751,1.941-16.618,2.607-24.135c0.089-1.013-0.159-1.805-0.312-2.661
		c0.467-5.706-2.849-11.94-10.214-12.192c-21.294-0.729-43.039-1.684-64.997-2.647c-4.726-7.758-19.387-33.06-21.936-37.048
		c-10.396-16.26-20.19-32.893-30.232-49.368c-16.938-27.793-34.251-55.351-57.146-78.615c-0.543-0.78-1.181-1.447-1.914-2.096
		c-0.2-0.201-0.364-0.423-0.565-0.62c-0.256-0.251-0.594-0.346-0.869-0.566c-0.376-0.251-0.714-0.51-1.117-0.726
		c-1.101-0.67-2.246-1.115-3.48-1.345c-0.367-0.095-0.722-0.146-1.095-0.208c-0.477-0.04-0.929-0.091-1.407-0.066
		c-4.102-0.295-8.372,0.981-11.416,5.046c-25.386,33.924-51.719,67.152-79.077,99.512c-18.382,21.74-41.822,43.126-57.591,67.564
		c-20.582,2.191-40.913,5.042-60.809,8.895c-4.068,0.787-4.601,4.459-3.255,7.423c-2.83,2.151-4.819,5.586-4.681,9.104
		c0.139,3.518,0.277,7.08,0.452,10.649c-0.948,2.924-0.913,6.059,0.626,8.597c0.443,4.644,1.066,9.257,2.191,13.738
		c1.244,4.951,7.825,7.74,12.318,5.279c62.473,6.263,127.225-1.63,189.959-3.336c61.86-1.684,124.215,0.506,185.93-3.588
		c4.441,3.11,11.721,2.352,14.847-2.227c3.869-2.61,4.763-7.65,2.7-11.478C417.57,214.258,417.736,213.296,417.888,212.333z
		 M109.166,169.29c18.621-17.908,35.062-39.604,50.775-57.83c22.699-26.33,44.278-53.542,65.387-81.141
		c4.036,4.878,8.36,9.472,11.114,13.453c14.253,20.602,27.337,41.876,40.185,63.375c11.869,19.859,23.582,39.838,36.665,58.935
		c0.727,1.061,1.455,2.21,2.187,3.369C247.163,166.589,177.028,164.492,109.166,169.29z"/>
	<path d="M396.547,252.561c-0.37-1.699-1.195-2.848-2.172-3.741c-1.51-2.953-4.287-5.199-8.632-5.122
		c-113.143,2.02-226.725,2.078-339.75,7.521c-1.762,0.084-3.078,0.758-4.15,1.648c-3.834-0.171-7.415,4.707-5.471,8.903
		c12.018,25.94,26.902,50.557,39.356,76.329c12.428,25.721,21.023,53.171,33.887,78.579c2.023,3.992,5.824,4.583,8.997,3.223
		c62.849,20.631,139.105-1.768,204.013,0.711c6.154,0.237,9.302-4.033,9.738-8.725c19.905-24.926,32.412-57.159,46.016-85.72
		C389.729,302.333,402.394,279.43,396.547,252.561z"/>
</g>
<g>
</g>
<g>
</g>
<g>
</g>
<g>
</g>
<g>
</g>
<g>
</g>
<g>
</g>
<g>
</g>
<g>
</g>
<g>
</g>
<g>
</g>
<g>
</g>
<g>
</g>
<g>
</g>
<g>
</g>
</svg>
