<?xml version="1.0" encoding="iso-8859-1"?>
<!-- Generator: Adobe Illustrator 19.0.0, SVG Export Plug-In . SVG Version: 6.00 Build 0)  -->
<svg version="1.1" id="Capa_1" xmlns="http://www.w3.org/2000/svg" xmlns:xlink="http://www.w3.org/1999/xlink" x="0px" y="0px"
	 viewBox="0 0 439.297 439.297" style="enable-background:new 0 0 439.297 439.297;" xml:space="preserve">
<g>
	<path d="M145.622,309.979c26.931-16.188,41.689-54.445,24.266-83.68c-25.432-42.673-90.68-33.811-110.878,9.099
		c-5.542,11.774-5.136,23.062-1.005,32.855c0.149,1.963,0.273,3.921,0.745,5.944c3.485,14.915,14.684,26.578,28.027,34.184
		c-12.982,8.838-24.305,19.803-33.554,33.328c-10.291,15.048-28.715,46.83-23.817,65.951c5.27,20.567,34.337,12.826,49.935,12.649
		c33.783-0.387,75.578,5.787,108.339-2.359c3.936-0.979,7.318-4.392,8.313-8.315C205.292,373.017,176.676,332.674,145.622,309.979z"
		/>
	<path d="M408.981,397.13c-7.871-32.772-20.564-74.136-48.529-94.982c22.757-23.454,22.002-71.091-6.134-89.208
		c-6.508-4.19-13.674-6.509-20.999-7.272c-32.604-11.064-65.618,25.16-66.988,57.496c-0.837,19.732,10.249,35.769,25.792,45.109
		c-30.247,24.101-43.817,63.622-48.778,103.081c-0.75,5.968,5.895,11.854,11.535,11.536c47.581-2.684,95.089-6.189,142.543-10.586
		C405.27,411.576,410.928,405.243,408.981,397.13z"/>
	<path d="M323.03,47.84c-28.082-20.945-70.141-17.478-99.232-0.14c-7.201-8.796-16.226-16.276-26.702-21.561
		C155.361,5.084,97.045,19.554,68.921,56.067c-2.357,3.061-2.169,5.997-0.748,8.363c-23.354,29.768-3.037,72.512,29.618,90.996
		c33.292,18.846,79.174,21.391,111.172,0.109c7.76,14.484,43.337,25.648,52.581,26.715c34.914,4.024,70.138-15.39,84.053-48.027
		C358.301,104.423,349.202,67.361,323.03,47.84z M88.185,63.838c0.038-0.055,0.038-0.114,0.073-0.169
		c21.181-15.947,45.708-26.252,72.932-23.789c31.982,2.896,66.154,30.894,57.395,66.957
		C198.747,188.516,36.266,136.786,88.185,63.838z M289.636,160.331c-12.767,4.159-26.384,3.879-39.259,0.445
		c-2.662-0.711-30.691-12.454-30.447-13.128c0.145-0.4,0.137-0.784,0.174-1.171c3.449-3.348,6.717-6.956,9.601-11.06
		c16.02-22.805,15.339-50.219,3.766-72.89c19.82-6.626,39.819-13.474,60.919-7.362c23.478,6.801,38.538,29.448,37.094,53.807
		C330.069,132.839,311.878,153.084,289.636,160.331z"/>
	<path d="M62.261,159.027c-7.208-12.152-30.41-24.63-42.346-12.283c-0.295,0.305-0.447,0.73-0.652,1.113
		C8.79,152.605,1.789,164.81,3.368,176.902c2.545,19.502,22.74,32.508,41.39,25.691C62.153,196.236,72.169,175.732,62.261,159.027z
		 M41.885,183.638c-8.503,6.067-19.108,1.085-21.549-8.803c-1.79-7.254,1.969-13.553,7.263-18.172
		c5.471,1.253,11.034,1.978,15.525,6.014C49.993,168.851,49.458,178.234,41.885,183.638z"/>
	<path d="M35.245,226.789c-7.549-7.81-22.478-7.059-28.931,1.468c-4.805,2.756-7.528,8.962-5.784,15.349
		c3.314,12.141,19.9,15.505,30.169,10.982C41.744,249.724,43.427,235.256,35.245,226.789z M24.67,242.191
		c-3.01,1.998-9.767,1.169-11.927-1.82c-0.415-0.572-0.58-1.567-0.613-2.636c3.281-1.181,6.652-3.556,10.11-2.844
		C26.12,235.688,28.216,239.838,24.67,242.191z"/>
	<path d="M414.211,146.967c-3.08-6.48-9.09-10.749-15.772-13.011c-5.841-1.979-15.257-3.673-19.815,1.588
		c-0.061,0.069-0.086,0.164-0.145,0.236c-2.385,0.173-4.844,1.079-6.883,2.87c-5.18,4.551-7.566,11.737-7.135,18.48
		c1.013,15.865,14.976,26.466,30.53,23.627C410.131,177.994,421.235,161.74,414.211,146.967z M395.393,162.35
		c-10.922,7.555-20.653-9.576-12.26-16.301c4.002,1.335,8.559,1.401,12.209,3.971C399.969,153.279,400.293,158.962,395.393,162.35z"
		/>
	<path d="M438.691,216.101c-1.99-7.51-9.952-14.606-17.776-14.867c-0.769-0.804-1.746-1.356-3.038-1.203
		c-11.34,1.333-20.338,9.251-19.417,21.338c0.898,11.765,11.07,20.921,22.995,19.009
		C432.697,238.578,441.767,227.711,438.691,216.101z M418.102,225.524c-3.429-0.057-5.633-3.526-5.839-6.691
		c-0.131-1.998,0.59-3.655,1.613-5.135c0.25,0.133,0.428,0.362,0.697,0.463c3.06,1.142,9.045,1.454,9.419,5.993
		C424.231,223.045,420.721,225.567,418.102,225.524z"/>
</g>
<g>
</g>
<g>
</g>
<g>
</g>
<g>
</g>
<g>
</g>
<g>
</g>
<g>
</g>
<g>
</g>
<g>
</g>
<g>
</g>
<g>
</g>
<g>
</g>
<g>
</g>
<g>
</g>
<g>
</g>
</svg>
