<?xml version="1.0" encoding="iso-8859-1"?>
<!-- Generator: Adobe Illustrator 19.0.0, SVG Export Plug-In . SVG Version: 6.00 Build 0)  -->
<svg version="1.1" id="Capa_1" xmlns="http://www.w3.org/2000/svg" xmlns:xlink="http://www.w3.org/1999/xlink" x="0px" y="0px"
	 viewBox="0 0 452.468 452.468" style="enable-background:new 0 0 452.468 452.468;" xml:space="preserve">
<g>
	<path d="M369.504,38.384C305.7-13.439,197.093-7.964,126.515,26.216C51.933,62.334-1.155,154.509,37.943,235.371
		c30.199,62.462,90.694,79.102,153.339,77.966c88.563,12.668,190.562-14.162,222.341-77.634
		C444.43,174.171,422.596,81.506,369.504,38.384z"/>
	<path d="M152.152,331.084c-17.732-10.16-49.207-11.61-61.628,6.981c-6.427,9.62-4.819,22.064,2.668,30.611
		c7.988,9.112,20.12,11.118,31.616,11.587c17.861,0.728,51.522-5.836,48.124-30.981
		C171.374,337.748,162.718,332.706,152.152,331.084z"/>
	<path d="M197.319,429.315c-2.84-12.473-13.141-16.68-23.792-15.85c-10.369-4.058-23.576-3.166-27.84,9.078
		c-5.724,16.438,9.153,29.267,24.553,29.894C183.963,452.995,201.169,446.228,197.319,429.315z"/>
</g>
<g>
</g>
<g>
</g>
<g>
</g>
<g>
</g>
<g>
</g>
<g>
</g>
<g>
</g>
<g>
</g>
<g>
</g>
<g>
</g>
<g>
</g>
<g>
</g>
<g>
</g>
<g>
</g>
<g>
</g>
</svg>
