<?xml version="1.0" encoding="iso-8859-1"?>
<!-- Generator: Adobe Illustrator 19.0.0, SVG Export Plug-In . SVG Version: 6.00 Build 0)  -->
<svg version="1.1" id="Capa_1" xmlns="http://www.w3.org/2000/svg" xmlns:xlink="http://www.w3.org/1999/xlink" x="0px" y="0px"
	 viewBox="0 0 440.436 440.436" style="enable-background:new 0 0 440.436 440.436;" xml:space="preserve">
<g>
	<path d="M260.676,5.639c-26.83-7.829-71.098-9.152-95.362,6.786c-2.52,1.657-4.466,3.439-6.194,5.256
		c-13.339,7.167-18.802,23.905-11.911,39.046c11.816,25.964,48.879,31.459,73.95,31.266c23.535-0.184,57.83-5.031,70-28.575
		C303.841,34.883,283.863,12.406,260.676,5.639z"/>
	<path d="M302.644,87.067c3.156-6.932-6.979-13.754-12.74-8.103c-37.615,36.886-107.76,40.652-143.954-2.657l-0.182,0.182
		c-1.378-1.304-3.713-1.633-4.78,0.457c-0.093,0.183-0.102,0.352-0.19,0.534c-2.808,0.525-5.316,2.67-5.381,6.251
		c-0.83,46.277,37.473,87.656,84.061,90.035c47.311,2.417,87.691-38.75,83.348-86.042C302.802,87.475,302.685,87.305,302.644,87.067
		z"/>
	<path d="M264.718,190.744c2.08-5.84-3.437-12.959-10.402-9.119c-11.49,6.336-23.357,9.92-36.619,8.916
		c-10.337-0.783-19.21-6.182-29.045-7.522c-3.049-2.532-8.66-0.347-9.16,4.275c-3.354,30.986-2.359,88.446,42.028,89.114
		c33.868,0.51,47.349-38.742,42.207-68.206C264.331,202.106,264.673,196.132,264.718,190.744z"/>
	<path d="M418.105,260.304c0.951-20.883,1.789-45.945-19.691-55.341c-15.198-6.648-35.312-1.853-51.138-1.561
		c-22.409,0.412-44.772-1.04-67.168-0.723c-3.831,0.054-7.422,3.293-7.282,7.283c0.129,3.698,0.494,7.324,0.837,10.959
		c-1.242,1.563-2.116,3.443-1.711,5.91c6.148,37.304-25.374,71.242-63.763,61.531c-34.03-8.608-36.129-37.828-40.169-66.382
		c3.162-3.197,2.115-9.219-3.785-9.713c-38.448-3.215-70.093-7.783-93.537-4.495c-11.207-6.309-25.671-3.214-35.669,6.11
		c-16.471,15.36-14.296,41.359-14.155,61.714c0.121,17.63-6.342,49.352,7.139,63.935c9.467,10.24,27.565,14.606,41.812,11.563
		c31.342,7.904,74.924-0.616,117.256-0.885c56.165-0.356,139.009,15.245,193.115-1.324c28.918-8.856,29.689-12.781,36.309-45.498
		C420.157,285.346,420.379,271.408,418.105,260.304z"/>
	<path d="M419.898,360.481c-0.502-2.104-2.365-3.189-4.338-3.536c-1.978-1.978-4.98-3.036-8.205-1.594
		c-63.533,28.415-151.976,13.517-219.485,12.296c-46.578-0.842-106.37,3.111-150.784-13.796c-4.359-1.66-7.313,1.284-8.035,4.878
		c-0.014,0.039-0.061,0.055-0.075,0.095c-34.52,104.483,125.22,76.43,180.726,76.538c50.662,0.1,137.827,14.754,184.363-6.203
		c21.961-9.889,26.917-24.999,24.853-45.111C421.118,376.428,421.795,368.463,419.898,360.481z"/>
</g>
<g>
</g>
<g>
</g>
<g>
</g>
<g>
</g>
<g>
</g>
<g>
</g>
<g>
</g>
<g>
</g>
<g>
</g>
<g>
</g>
<g>
</g>
<g>
</g>
<g>
</g>
<g>
</g>
<g>
</g>
</svg>
