<?xml version="1.0" encoding="iso-8859-1"?>
<!-- Generator: Adobe Illustrator 19.0.0, SVG Export Plug-In . SVG Version: 6.00 Build 0)  -->
<svg version="1.1" id="Capa_1" xmlns="http://www.w3.org/2000/svg" xmlns:xlink="http://www.w3.org/1999/xlink" x="0px" y="0px"
	 viewBox="0 0 411.888 411.888" style="enable-background:new 0 0 411.888 411.888;" xml:space="preserve">
<g>
	<path d="M407.5,378.029c-0.374-0.383-0.747-0.767-1.122-1.151c-4.55-4.659-12.843-5.605-18.521-2.083
		c-53.478,9.996-120.419-1.304-173.657-2.137c-60.018-0.938-120.366-3.421-180.383-1.414c7.59-116.502,7.422-240.468-1.536-356.445
		c-1.327-17.181-25.629-17.308-26.81,0c-8.154,119.632-7.05,247.844,2.362,367.404c0.217,2.762,1.21,4.886,2.464,6.717
		c1.428,5.131,5.553,9.552,12.59,10.078c73.282,5.461,147.277,4.137,220.746,5.285c47.876,0.749,110.678,12.835,157.065-0.485
		C411.917,400.577,415.648,386.373,407.5,378.029z"/>
	<path d="M357.306,276.864c-1.511-15.492-25.892-15.708-24.443,0c0.497,5.96,1.227,11.896,1.806,17.847
		c-18.322-25.989-36.285-52.214-53.858-78.727c-3.495-5.273-12.234-6.335-15.479,0c-15.264,29.81-31.921,58.649-49.523,87.035
		c-8.454-53.963-17.355-107.805-30.026-160.982c-1.413-5.931-10.891-7.656-13.652-1.785
		c-17.958,38.194-32.784,77.328-45.945,117.279c-9.145-41.433-18.167-82.895-27.207-124.35c-1.447-6.633-9.865-5.09-11.965,0
		c-10.575,25.639-21.201,51.043-29.528,77.51c-1.158,3.677,4.422,6.072,6.256,2.637c12.094-22.693,20.976-81.612,32.162-33.994
		c8.328,35.465,14.891,71.462,22.124,107.164c1.5,7.399,11.511,6.042,13.671,0c14.063-39.325,27.664-78.54,43.93-116.924
		c10.038,53.434,18.812,107.038,26.684,160.853c1.196,8.175,12.412,7.736,16.172,2.113c20.329-30.424,38.432-61.712,55.139-94.126
		c13.832,22.827,28.335,45.184,43.406,67.202c-2.296-0.22-4.593-0.432-6.89-0.654c-12.359-1.184-15.321,19.728-2.955,21.843
		c13,2.226,26.003,4.448,39.005,6.666c6.982,1.193,15.776-3.084,15.105-11.507C360.235,306.907,358.906,291.874,357.306,276.864z"/>
</g>
<g>
</g>
<g>
</g>
<g>
</g>
<g>
</g>
<g>
</g>
<g>
</g>
<g>
</g>
<g>
</g>
<g>
</g>
<g>
</g>
<g>
</g>
<g>
</g>
<g>
</g>
<g>
</g>
<g>
</g>
</svg>
