<?xml version="1.0" encoding="iso-8859-1"?>
<!-- Generator: Adobe Illustrator 19.0.0, SVG Export Plug-In . SVG Version: 6.00 Build 0)  -->
<svg version="1.1" id="Capa_1" xmlns="http://www.w3.org/2000/svg" xmlns:xlink="http://www.w3.org/1999/xlink" x="0px" y="0px"
	 viewBox="0 0 401.598 401.598" style="enable-background:new 0 0 401.598 401.598;" xml:space="preserve">
<path d="M400.367,74.823c0-0.495-0.204-0.845-0.262-1.301c1.76-6.976-1.879-15.47-11.22-15.444
	c-122.716,0.34-245.887,1.373-368.533,5.348c-3.314,0.107-7.313,1.793-8.773,5.032l-1.715,3.799
	c-0.233,0.514-0.267,1.048-0.394,1.577c-1.335,1.998-2.369,4.289-2.557,7.217c-3.016,47.513-3.536,95.155-4.632,142.742
	c-0.558,24.249-4.378,50.237-0.702,74.182c-2.372,10.802-1.535,10.728,0.394,34.787c0.441,5.488,4.277,10.058,10.111,10.111
	c123.611,1.114,248.328,1.262,371.857-3.526c8.937-0.346,12.067-9.108,9.476-15.371C406.053,243.28,400.252,156.094,400.367,74.823z
	 M318.658,209.073c-3.622-3.335-7.247-6.671-10.868-10.005c-1.585-1.458-3.302-2.068-5.02-2.35
	c-2.564-1.994-6.469-2.342-9.798,0.311c-13.476,10.731-23.806,26.516-34.893,39.65c-9.794,11.608-19.607,23.3-28.698,35.482
	c-11.241-10.074-23.834-18.878-35.003-29.074c-10.573-9.654-20.597-18.969-31.742-27.61c-0.351-6.822-8.696-12.486-14.803-6.158
	c-32.668,33.853-68.215,69.049-94.37,108.588c-1.731-1.984-3.987-3.519-7.087-5.566c-4.745-3.13-9.007-6.76-13.247-10.447
	c19.822-19.665,35.686-42.474,53.657-63.972c20.149-24.111,41.937-46.799,64.311-68.84c20.549,24.702,45.374,45.347,69.295,66.874
	c5.19,4.672,11.943,1.147,13.75-3.789c1.361-0.006,2.722-0.317,3.725-1.04c9.343-6.717,16.715-15.694,23.911-24.609
	c7.21-8.938,14.82-17.605,21.797-26.719c0.633-0.827,0.999-1.668,1.2-2.5c2.146-1.594,3.328-4.27,1.621-7.08
	c-2.448-4.028-5.392-7.629-8.411-11.179c23.392-6.71,46.848-13.162,70.423-19.201C341.718,163.796,327.61,185.625,318.658,209.073z"
	/>
<g>
</g>
<g>
</g>
<g>
</g>
<g>
</g>
<g>
</g>
<g>
</g>
<g>
</g>
<g>
</g>
<g>
</g>
<g>
</g>
<g>
</g>
<g>
</g>
<g>
</g>
<g>
</g>
<g>
</g>
</svg>
