<?xml version="1.0" encoding="iso-8859-1"?>
<!-- Generator: Adobe Illustrator 19.0.0, SVG Export Plug-In . SVG Version: 6.00 Build 0)  -->
<svg version="1.1" id="Capa_1" xmlns="http://www.w3.org/2000/svg" xmlns:xlink="http://www.w3.org/1999/xlink" x="0px" y="0px"
	 viewBox="0 0 424.39 424.39" style="enable-background:new 0 0 424.39 424.39;" xml:space="preserve">
<g>
	<path d="M138.214,275.159c-0.035-38.577,1.136-77.242-5.487-115.366c-0.943-5.431-7.781-6.757-11.883-4.201
		c-9.304-7.416-20.768-4.732-32.566-4.949c-14.022-0.26-27.762-0.537-41.762,0.403c-1.273,0.086-2.167,0.837-3.24,1.298
		c-3.851-0.939-8.509,0.49-9.353,4.783c-1.551,7.896-2.811,16.132-4.003,24.429c-1.157,2.891-1.59,5.985-1.277,9.182
		c-8.861,69.945-5.906,150.885,5.195,216.711c1.08,6.401,6.131,8.565,11.088,7.769c20.986,8.49,44.579,8.892,66.926,8.265
		c5.776-0.162,12.199-3.713,15.034-9.137c4.83,3.28,13.339-0.063,13.797-7.102C143.526,363.526,138.253,319.045,138.214,275.159z"/>
	<path d="M269.12,9.275c-0.957-7.316-11.334-7.844-11.861-0.223C248.105,2.71,238.425,1.66,227.035,0.9
		c-12.192-0.815-25.883-2.164-37.589,1.76c-2.526,0.846-4.446,2.582-5.916,4.645c-2.948,1.078-5.551,3.178-5.854,7.32
		c-9.431,128.124-6.599,258.933,1.136,387.131c0.446,7.43,7.099,10.485,12.632,9.299c1.189,0.793,2.648,1.377,4.397,1.68
		c19.72,3.417,40.34,7.163,60.366,7.587c2.716,0.058,4.999-0.471,6.968-1.341c6.444,1.608,15.21-3.5,13.505-12.359
		C251.535,275.993,286.511,141.725,269.12,9.275z"/>
	<path d="M396.708,232.962c5.069-1.956,5.639-7.73,1.428-10.924c-0.594-0.451-1.186-0.901-1.776-1.35
		c-2.578-1.956-6.515-0.84-8.667,1.117c-0.225,0.206-0.363,0.554-0.581,0.774c-2.135-4.093-6.068-7.449-11.049-8.068
		c-20.004-2.491-43.379-0.447-63.155,3.352c-4.787,0.921-7.218,3.706-8.105,6.993c-0.795,0.396-1.783,0.516-2.033,1.495
		c-13.796,54.105-13.571,125.515-8.421,180.814c0.471,5.076,3.7,7.491,7.246,8.321c2.688,2.622,6.567,4.224,11.038,3.593
		c8.062-1.138,20.029,2.624,28.275,3.185c10.659,0.726,22.759,3.076,33.326,1.701c4.256-0.556,7.591-2.427,10.356-4.779
		c5.688,1.613,13.114-2.155,13.951-9.241c3.489-29.453,0.443-60.144,0.465-89.803C399.005,313.65,397.718,232.573,396.708,232.962z"
		/>
</g>
<g>
</g>
<g>
</g>
<g>
</g>
<g>
</g>
<g>
</g>
<g>
</g>
<g>
</g>
<g>
</g>
<g>
</g>
<g>
</g>
<g>
</g>
<g>
</g>
<g>
</g>
<g>
</g>
<g>
</g>
</svg>
