<?xml version="1.0" encoding="iso-8859-1"?>
<!-- Generator: Adobe Illustrator 19.0.0, SVG Export Plug-In . SVG Version: 6.00 Build 0)  -->
<svg version="1.1" id="Capa_1" xmlns="http://www.w3.org/2000/svg" xmlns:xlink="http://www.w3.org/1999/xlink" x="0px" y="0px"
	 viewBox="0 0 390.59 390.59" style="enable-background:new 0 0 390.59 390.59;" xml:space="preserve">
<g>
	<path d="M390.32,141.275c0.569-25.981,0.018-51.711-2.194-77.609c0.437-2.499,0.426-5.095-0.552-7.341
		c-5.263-12.083-21.435-19.95-32.037-27.062c-6.001-4.026-12.198-7.848-18.409-11.544c-2.93-1.743-17.306-8.389-17.251-8.242
		c-0.12-0.322-0.441-0.451-0.596-0.747c-1.047-2.714-2.902-5.065-6.774-5.831c-16.723-3.304-33.98-0.295-50.956,0.178
		c-18.68,0.521-37.413,0.248-56.068,1.376c-3.127,0.189-5.575,1.813-7.331,3.988c-1.511,0.429-3.04,1.127-4.534,2.298
		C117.952,69.957,69.018,157.979,2.418,226.326c-4.184,4.294-2.451,10.563,1.488,13.533c0.339,1.116,0.864,2.194,1.742,3.149
		c46.588,50.783,99.878,95.87,150.633,142.41c5.438,4.987,11.282,4.543,15.704,1.674c1.984,1.435,4.574,2.071,7.328,0.604
		c39.172-20.884,70.275-63.126,101.147-94.669c31.876-32.565,69.893-64.033,95.234-101.979c2.387-0.335,4.73-1.206,6.701-3.253
		C393.447,176.321,390.005,155.729,390.32,141.275z M339.137,98.861c-4.21,20.734-27.508,29.838-45.532,20.759
		c-20.294-10.223-26.108-37.995-3.142-48.438c9.925-4.514,19.348-4.962,28.742-4.261C330.533,74.595,342.877,80.414,339.137,98.861z
		"/>
</g>
<g>
</g>
<g>
</g>
<g>
</g>
<g>
</g>
<g>
</g>
<g>
</g>
<g>
</g>
<g>
</g>
<g>
</g>
<g>
</g>
<g>
</g>
<g>
</g>
<g>
</g>
<g>
</g>
<g>
</g>
</svg>
