<?xml version="1.0" encoding="iso-8859-1"?>
<!-- Generator: Adobe Illustrator 19.0.0, SVG Export Plug-In . SVG Version: 6.00 Build 0)  -->
<svg version="1.1" id="Capa_1" xmlns="http://www.w3.org/2000/svg" xmlns:xlink="http://www.w3.org/1999/xlink" x="0px" y="0px"
	 viewBox="0 0 439.39 439.39" style="enable-background:new 0 0 439.39 439.39;" xml:space="preserve">
<g>
	<path d="M263.942,192.3c-1.999-18.85-12.821-36.14-31.086-42.91c-9.375-3.474-21.336-3.627-30.253,0.938
		c-22.308-3.664-44.956,20.327-49.434,44.602c-6.539,35.476,17.2,72.583,55.68,71.978C246.694,266.315,267.57,226.551,263.942,192.3
		z M208.85,222.497c-10.467,1.371-14.092-10.815-12.82-18.805c0.883-5.567,3.566-10.187,7.331-14.196
		c0.489-0.52,1.072-0.949,1.598-1.44c7.075,1.461,13.426,0.849,14.926,8.571C221.317,204.007,217.829,221.322,208.85,222.497z"/>
	<path d="M202.211,78.606C143.307,57.6,81.212,144.039,72.455,197.409c-14.609,89.051,37.277,168.883,132.413,172.142
		c85.351,2.923,151.004-66.904,154.576-149.726C363.736,120.23,288.681,78.295,202.211,78.606z M219.308,324.859
		c-67.144,4.852-110.844-46.604-103.382-110.841c6.037-51.962,31.703-76.71,70.265-91.084
		c58.234,2.472,126.174,6.406,128.386,81.142C316.289,261.848,282.145,320.317,219.308,324.859z"/>
	<path d="M432.946,158.593C410.57,39.023,297.666-5.545,189.808,0.939C-60.368-24.326-74.081,468.996,231.349,437.986
		C370.557,423.853,458.28,293.953,432.946,158.593z M252.804,387.55C151.851,413.114,51.521,344.724,43.305,239.575
		c-2.675-34.296-0.498-78.027,12.097-110.103c20.55-52.33,67.972-72.204,117.8-82.012c89.073-11.618,183.846,15.125,209.978,111.111
		C410.733,259.765,355.773,361.474,252.804,387.55z"/>
</g>
<g>
</g>
<g>
</g>
<g>
</g>
<g>
</g>
<g>
</g>
<g>
</g>
<g>
</g>
<g>
</g>
<g>
</g>
<g>
</g>
<g>
</g>
<g>
</g>
<g>
</g>
<g>
</g>
<g>
</g>
</svg>
