<?xml version="1.0" encoding="iso-8859-1"?>
<!-- Generator: Adobe Illustrator 19.0.0, SVG Export Plug-In . SVG Version: 6.00 Build 0)  -->
<svg version="1.1" id="Capa_1" xmlns="http://www.w3.org/2000/svg" xmlns:xlink="http://www.w3.org/1999/xlink" x="0px" y="0px"
	 viewBox="0 0 395.092 395.092" style="enable-background:new 0 0 395.092 395.092;" xml:space="preserve">
<g>
	<path d="M207.6,7.172c-4.415-3.579-10.308-4.213-16.368-2.91c-0.269,0.022-0.524-0.026-0.796,0.001
		c-13.635,1.395-25.62,12.833-25.711,26.116c-1.567,12.326,4.873,24.824,17.704,29.361c17.442,6.167,36.047-5.972,39.88-23.591
		C225.247,22.649,218.247,12.095,207.6,7.172z"/>
	<path d="M194.564,67.908c-11.764,1.037-21.276,5.548-29.182,11.939c-3.31,2.069-6.477,4.529-9.388,7.458
		c-15.32,15.423-18.892,37.728-19.013,58.653c-2.301,2.63-2.755,6.741,2.482,8.568c0.185,0.064,0.388,0.111,0.573,0.175
		c1.212,0.767,2.6,1.247,4.051,1.243c28.88,9.084,65.536,11.669,94.111,3.028c0.6-0.18,0.803-0.677,1.272-0.975
		c3.711,0.177,7.773-2.134,8.275-6.902C251.593,114.544,242.378,63.692,194.564,67.908z"/>
	<path d="M76.816,227.082c-3.711-8.576-11.784-13.078-20.241-13.531c-2.056-1.543-4.868-2.071-7.897-1.508
		c-8.26,1.537-14.678,8.422-17.313,16.193c-5.589,16.472,6.541,33.019,23.921,33.231C73.047,261.689,83.615,242.796,76.816,227.082z
		"/>
	<path d="M357.519,210.973c-2.255-0.902-4.718-1.296-7.231-1.469c-0.793-0.656-1.706-1.222-2.719-1.615
		c-7.136-2.762-15.939,1.127-21.493,5.522c-12.488,9.879-16.926,28.573-4.033,40.066
		C350.705,279.024,390.329,224.112,357.519,210.973z"/>
	<path d="M102.225,331.024c-2.821-10.835-5.155-22.042-9.388-32.439c-6.4-15.713-19.252-30.07-37.608-29.328
		c-19.875,0.805-33.651,17.799-42.092,34.005c-6.623,12.712-16.038,33.582-12.278,49.006c-0.41,1.148-0.454,2.402,0.194,3.504
		c8.148,13.832,36.83,15.079,50.752,14.962c12.435-0.104,32.931-1.056,44.444-9.556c0.533-0.021,1.028,0.04,1.609-0.088
		c0.712-0.157,1.424-0.313,2.138-0.469c2.667-0.586,4.756-2.96,5.496-5.497C107.871,346.975,104.297,338.973,102.225,331.024z"/>
	<path d="M380.09,291.591c-12.369-20.317-39.354-34.568-62.032-22.107c-24.772,13.608-37.749,55.184-31.256,81.191
		c0.238,0.956,0.868,1.509,1.435,2.122c-0.113,2.195,0.857,4.398,3.546,5.818c24.38,12.879,68.22,15.197,92.78,0.878
		C405.884,347.064,389.809,307.555,380.09,291.591z"/>
	<path d="M120.165,134.928c0.034-2.005-1.137-4-3.606-4.872c-7.211-2.55-14.524-4.795-21.814-7.112
		c-4.454-1.415-8.229,3.06-7.247,7.244c0.957,4.073,2.244,7.968,3.566,11.855c-17.869,12.334-31.403,30.086-36.681,51.944
		c-1.239,5.13,5.82,6.788,7.713,2.126c7.092-17.47,18.354-32.578,32.966-43.733c0.97,2.282,1.818,4.59,2.892,6.859
		c1.701,3.602,7.161,3.953,9.733,1.254c5.459-5.726,9.834-11.655,13.232-18.844C122.122,139.101,121.534,136.691,120.165,134.928z"
		/>
	<path d="M330.986,160.985c-2.442,1.106-4.707,2.388-7.001,3.647c-11.383-22.725-29.305-42.116-55.618-46.56
		c-5.144-0.869-6.861,5.75-2.127,7.711c22.25,9.219,38.793,24.396,49.134,44.477c-1.251,0.94-2.585,1.709-3.786,2.764
		c-0.339,0.299-0.504,0.653-0.74,0.985c-4.258,0.208-7.736,5.787-3.821,9.228c0.361,0.316,0.749,0.542,1.111,0.851l-0.003,0.003
		c0.02,0.016,0.042,0.03,0.064,0.043c5.541,4.713,11.262,8.543,18.002,11.558c0.121,0.054,0.256,0.016,0.379,0.061
		c0.082,0.053,0.163,0.104,0.247,0.157c2.993,1.902,7.899,0.168,8.587-3.493c1.534-8.181,3.068-16.359,4.522-24.554
		C340.903,162.395,335.967,158.729,330.986,160.985z"/>
	<path d="M267.28,350.851c-27.472,26.894-71.292,34.567-107.026,20.038c1.64-2.187,3.267-4.454,5.4-7.521
		c2.977-4.285-1.128-9.029-5.424-9.449c-10.087-0.986-20.172-1.995-30.258-3.003c-4.773-0.477-7.004,5.312-5.126,8.93
		c4.687,9.03,9.397,15.072,16.825,21.772c2.755,2.487,6.109,1.684,8.062-0.378c1.009,0.012,1.986-0.401,2.885-1.107
		c40.982,18.323,100.25,17.381,119.946-25.205C274.101,351.6,270.163,348.026,267.28,350.851z"/>
</g>
<g>
</g>
<g>
</g>
<g>
</g>
<g>
</g>
<g>
</g>
<g>
</g>
<g>
</g>
<g>
</g>
<g>
</g>
<g>
</g>
<g>
</g>
<g>
</g>
<g>
</g>
<g>
</g>
<g>
</g>
</svg>
