<?xml version="1.0" encoding="iso-8859-1"?>
<!-- Generator: Adobe Illustrator 19.0.0, SVG Export Plug-In . SVG Version: 6.00 Build 0)  -->
<svg version="1.1" id="Capa_1" xmlns="http://www.w3.org/2000/svg" xmlns:xlink="http://www.w3.org/1999/xlink" x="0px" y="0px"
	 viewBox="0 0 403.327 403.327" style="enable-background:new 0 0 403.327 403.327;" xml:space="preserve">
<g>
	<path d="M118.978,290.791c-20.467,8.12-37.024,27.545-52.814,42.572c-1.785,1.697-3.55,3.439-5.33,5.153
		c-8.703-8.395-17.616-16.642-27.579-23.344c-10.121-6.808-24.356,6.939-17.121,17.121c6.962,9.797,15.382,18.503,23.966,27
		c-7.915,8.378-15.507,17.052-22.438,26.2c-8.95,11.814,9.395,23.225,19.282,14.879c7.873-6.648,15.398-13.732,22.882-20.859
		c8.913,9.96,18.948,21.121,30.808,23.523c9.264,1.873,17.182-5.578,15.03-15.031c-2.634-11.567-13.505-21.146-23.465-29.668
		c1.537-1.439,3.034-2.931,4.584-4.357c15.154-13.916,35.88-26.828,46.658-44.375C138.877,300.76,129.646,286.557,118.978,290.791z"
		/>
	<path d="M122.771,152.939c-0.215-0.294-0.428-0.59-0.643-0.885c-5.561-7.657-14.678-9.145-22.017-2.836
		c-16.968,14.588-34.113,29.721-50.605,45.42c-8.258-6.808-16.837-13.539-26.298-17.79c-8.907-4-21.579,4.911-14.86,14.859
		c5.783,8.559,13.412,15.784,21.259,22.696c-4.509,4.669-9.067,9.313-13.358,14.105c-7.904,8.825,2.505,24.827,13.376,17.334
		c6.526-4.497,12.784-9.374,19.027-14.269c8.657,8.456,17.88,17.089,30.298,14.506c4.958-1.033,8.158-6.169,8.32-10.928
		c0.337-9.928-6.941-16.876-14.93-22.864c1.342-1.132,2.718-2.234,4.058-3.369c14.16-11.994,32.175-23.606,44.036-37.87
		C124.359,166.326,126.848,158.555,122.771,152.939z"/>
	<path d="M144.964,8.218c-0.249-0.352-0.5-0.709-0.75-1.062c-4.033-5.71-9.743-8.177-16.628-6.767
		c-9.183,1.882-15.32,11.396-21.384,17.79c-9.423,9.94-18.862,19.863-28.269,29.816c-5.913,6.259-11.897,12.51-17.857,18.798
		c-10.979-7.227-21.77-15.412-33.488-21.159C15.19,40.046,5.653,53.118,13.428,62.693c7.664,9.436,17.854,17.306,27.728,24.758
		c-5.216,5.952-10.318,11.993-15.101,18.257c-8.263,10.829,8.483,20.601,17.429,13.448c6.382-5.103,12.48-10.616,18.487-16.244
		c5.175,3.567,10.525,6.878,16.127,9.53c10.242,9.924,34.586-6.652,19.64-20.569c-4.165-3.881-8.912-7.194-13.802-10.337
		c2.837-2.832,5.673-5.669,8.514-8.461c7.101-6.98,14.138-14.027,21.206-21.04c5.121-5.082,16.38-21.441,23.128-23.712
		c-0.071-0.029-0.145-0.057-0.216-0.086C144.587,25.798,150.466,16.006,144.964,8.218z"/>
	<path d="M380.275,85.032c-59.893-8.968-130.199-11.415-190.335-5.058c-11.691,1.234-16.855,20.044-3.045,22.491
		c59.484,10.538,129.728,13.654,189.818,8.887C390.594,110.249,396.254,87.426,380.275,85.032z"/>
	<path d="M380.829,215.698c-59.355-2.025-121.455-7.083-180.402,0.803c-9.387,1.254-13.983,16.265-2.495,18.433
		c59.967,11.33,123.847,9.497,184.686,10.702C404.694,246.076,398.777,211.329,380.829,215.698z"/>
	<path d="M380.557,357.428c-60.214-4.374-122.713-8.382-182.719-0.136c-11.875,1.631-7.179,17.897,2.59,19.126
		c55.87,7.058,113.04,7.157,169.373,10.371c1.473,0.615,3.054,1.025,4.844,0.914c1.971-0.119,3.943-0.242,5.913-0.364
		C399.841,386.145,399.756,358.826,380.557,357.428z"/>
</g>
<g>
</g>
<g>
</g>
<g>
</g>
<g>
</g>
<g>
</g>
<g>
</g>
<g>
</g>
<g>
</g>
<g>
</g>
<g>
</g>
<g>
</g>
<g>
</g>
<g>
</g>
<g>
</g>
<g>
</g>
</svg>
