<?xml version="1.0" encoding="iso-8859-1"?>
<!-- Generator: Adobe Illustrator 19.0.0, SVG Export Plug-In . SVG Version: 6.00 Build 0)  -->
<svg version="1.1" id="Capa_1" xmlns="http://www.w3.org/2000/svg" xmlns:xlink="http://www.w3.org/1999/xlink" x="0px" y="0px"
	 viewBox="0 0 405.134 405.134" style="enable-background:new 0 0 405.134 405.134;" xml:space="preserve">
<g>
	<path d="M202.853,254.348c-0.026-0.087,0.048-0.134,0.017-0.223c-28.942-81.916-42.451-166.493-67.029-249.18
		c-0.086-0.529-0.138-0.99-0.413-1.458c-0.085-0.281-0.156-0.565-0.24-0.846c-0.284-0.943-1.229-1.249-2.034-1.065
		c-0.072-0.025-0.074-0.1-0.147-0.122c-4.873-1.514-4.663-1.462-9.763-1.451c-1.831,0.004-4.086,1.403-4.406,3.356
		c-5.116,30.934-12.35,59.216-25.194,87.898c-0.439,0.981-0.227,1.825,0.192,2.541c-0.947,1.423-1.142,3.238,0.609,4.761
		c6.673,5.808,14.219,10.207,21.654,14.984c3.454,2.217,9.08,4.411,11.787,7.569c4.572,5.333,1.478,8.292-1.177,13.488
		c-4.425,8.661-16.179,20.119-13.384,30.519c0.184,0.684,0.628,0.989,0.996,1.41c-2.297,0.954-3.874,3.439-2.104,6.137
		c17.116,26.087,33.419,52.431,47.632,80.243c8.257,16.162,13.792,37.903,28.736,49.266c-0.066,0.371-0.125,0.752-0.192,1.122
		c-0.915,5.049,6.522,7.286,7.814,2.154c4.09-16.278,7.773-33.972,6.771-50.816C202.97,254.514,202.875,254.459,202.853,254.348z"/>
	<path d="M302.276,61.966c-3.715-10.296-6.652-20.906-8.579-31.685c-1.071-5.977-0.223-16.208-3.339-21.989
		c-3.955-7.339-8.21-9.378-15.29-6.674c-2.207-0.947-5.003-0.469-5.753,2.523c-25.1,100.071-52.352,203.12-62.998,306.168
		c-1.419,5.551-2.45,11.064-2.434,16.438c0.002,0.962,0.77,1.168,1.512,1.011c0.684,0.301,1.502,0.251,1.727-0.617
		c0.13-0.51,0.229-1.027,0.359-1.537c16.033-22.377,27.114-50.858,40.214-74.988c15.595-28.725,31.385-57.337,47.428-85.815
		c1.121-1.991,0.853-4.676-0.814-6.299c-10.114-9.848-17.899-20.487-24.495-32.963c-0.039-0.075-0.102-0.104-0.142-0.175
		c12.944-8.08,33.622-15.974,40.432-28.168C317.001,84.846,306.933,74.872,302.276,61.966z"/>
	<path d="M224.795,41.304c1.619-2.735,0.035-5.989-2.819-6.934c-9.958-3.299-22.701-5.868-32.908-2.173
		c-1.224,0.443-1.999,1.409-2.365,2.591c-1.493,1.206-2.242,3.464-0.584,5.091c4.141,4.069,7.609,8.295,10.969,13.032
		c0.028,0.042,0.076,0.023,0.106,0.062c0.394,36.404-8.53,73.59-13.118,109.645c-0.069,0.533,0.203,0.896,0.424,1.281
		c0.208,9.239,3.916,19.011,6.31,27.711c3.663,13.319,7.781,26.504,11.443,39.822c0.865,3.145,4.99,2.164,5.328-0.721
		c3.094-26.559,7.028-52.986,12.39-79.184c0.188-0.919-0.104-1.645-0.459-2.312c1.74-6.492,1.926-13.094,0.374-20.948
		c-4.685-23.718-8.894-46.534-9.768-70.752C216.458,53.929,221.162,47.447,224.795,41.304z"/>
	<path d="M196.504,357.956c0.266-9.232,0.957-18.703-1.906-27.454c1.301-1.266,1.846-3.195,0.548-5.341
		c-16.636-27.473-34.551-54.082-50.564-81.956c-14.115-24.57-26.092-51.149-41.951-74.724c3.107-6.118,5.799-12.58,8.301-18.648
		c2.35-5.706,5.444-11.64,5.674-17.811c2.121-1.793,2.878-5.328-0.182-7.356c-9.79-6.487-19.735-12.745-29.351-19.481
		c5.271-15.77,8.92-32.293,13.269-48.243c3.527-12.937,9.231-27.275,9.171-41.035c1.709-3.532-0.898-8.74-5.756-7.309
		c-14.122,4.162-27.875,9.636-40.928,16.468c-7.85,4.11-19.679,9.248-22.124,18.451c-1.973,0.62-3.501,2.267-3.291,4.999
		c8.852,114.624-9.147,229.745-0.492,344.642c0.126,1.643,1.056,2.587,2.17,3.203c0.011,1.553,1.03,3.051,3.209,3.164
		c28.218,1.457,56.413,0.229,84.639,2.378c21.497,1.638,42.666,5.64,64.004,1.21c3.382-0.702,3.672-5.135,1.623-7.12
		c0.402-0.504,0.913-0.826,1.121-1.622C196.721,382.716,196.159,369.951,196.504,357.956z"/>
	<path d="M369.841,56.248c0.229-1.473,0.461-2.948,0.693-4.422c0.307-1.96-0.1-3.77-0.918-5.303c-0.03-0.855-0.03-1.716-0.06-2.571
		c-0.002-0.069,0.002-0.128-0.004-0.197c-0.009-0.235-0.009-0.471-0.018-0.706c-0.052-1.439-0.995-2.354-2.11-2.953
		c-16.266-14.261-38.526-22.983-58.293-31.256c-4.839-2.024-8.909,3.681-7.924,7.923c6.366,27.408,13.054,55.059,24.638,80.803
		c-8.032,5.234-15.774,10.945-23.591,16.481c-5.038,3.567-14.576,7.621-16.082,14.312c-1.441,6.414,4.164,10.429,7.933,14.545
		c4.964,5.415,8.87,11.745,13.438,17.443c-0.139,0.335-0.242,0.611-0.381,0.952c-0.095,0.107-0.199,0.182-0.282,0.319
		c-34.363,57.682-69.5,116.964-100.917,176.271c-0.392,0.739-0.257,1.494-0.219,2.245c-1.948,0.845-3.48,2.591-3.497,5.37
		c-0.099,16.245-0.071,32.549,1.309,48.748c0.407,4.762,5.473,5.887,8.156,3.432c0.102,0.046,0.229,0.034,0.336,0.068
		c-0.011,0.013-0.02,0.026-0.03,0.039c45.952,9.941,100.295,2.916,147.048,1.288c1.396-0.048,2.462-0.546,3.384-1.195
		c2.331-0.666,4.224-2.569,4.18-5.848C365.155,280.456,373.007,167.551,369.841,56.248z"/>
</g>
<g>
</g>
<g>
</g>
<g>
</g>
<g>
</g>
<g>
</g>
<g>
</g>
<g>
</g>
<g>
</g>
<g>
</g>
<g>
</g>
<g>
</g>
<g>
</g>
<g>
</g>
<g>
</g>
<g>
</g>
</svg>
