<?xml version="1.0" encoding="iso-8859-1"?>
<!-- Generator: Adobe Illustrator 19.0.0, SVG Export Plug-In . SVG Version: 6.00 Build 0)  -->
<svg version="1.1" id="Capa_1" xmlns="http://www.w3.org/2000/svg" xmlns:xlink="http://www.w3.org/1999/xlink" x="0px" y="0px"
	 viewBox="0 0 420.416 420.416" style="enable-background:new 0 0 420.416 420.416;" xml:space="preserve">
<g>
	<path d="M273.705,68.896c-2.182-31.086-18.83-63.184-52.438-68.25c-31.338-4.726-59.256,17.092-69.366,45.707
		c-9.464,26.789-5.652,60.61,11.546,83.547c9.446,12.601,27.462,23.264,43.26,22.486c6.668,1.838,13.649,2.401,20.102,1.178
		c11.433-2.171,21.671-9.484,28.725-18.974C272.023,118.887,275.244,90.872,273.705,68.896z"/>
	<path d="M352.44,211.574c-15.455-34.252-62.039-41.657-96.706-34.111c-3.533-4.015-8.981-5.81-14.545-1.618
		c-22.825,17.197-11.983,49.264-10.344,74.269c1.475,22.48,2.394,44.997,4.116,67.46c2.064,26.965-3.825,30.249-21.325,43.053
		c-10.472-7.398-23.79-16.454-27.675-24.342c-6.732-13.653,0.941-37.449,3.217-51.054c5.187-31.001,10.793-61.948,14.739-93.135
		c0.361-2.853-1.909-6.395-4.389-7.652c-4.143-2.099-8.286-4.197-12.429-6.295c-0.592-0.301-1.163-0.064-1.763-0.185
		c-37.642-13.791-95.286-10.485-111.643,32.165c-22.257,58.037-14.453,135.322-4.295,194.809c0.58,3.395,2.197,5.549,4.168,7.142
		c0.974,1.718,2.528,3.093,5.129,3.503c11.009,1.735,26.803,3.911,38.034-0.276c27.942,2.677,56.487,1.692,84.384,2.216
		c45.297,0.848,91.304,5.516,136.394,0.855c9.512-0.983,13.634-8.125,12.878-14.885c0.2-0.633,0.555-1.111,0.652-1.84
		c4.613-33.764,5.901-68.055,8.134-102.072C361,271.707,364.414,238.114,352.44,211.574z"/>
</g>
<g>
</g>
<g>
</g>
<g>
</g>
<g>
</g>
<g>
</g>
<g>
</g>
<g>
</g>
<g>
</g>
<g>
</g>
<g>
</g>
<g>
</g>
<g>
</g>
<g>
</g>
<g>
</g>
<g>
</g>
</svg>
