<?xml version="1.0" encoding="iso-8859-1"?>
<!-- Generator: Adobe Illustrator 19.0.0, SVG Export Plug-In . SVG Version: 6.00 Build 0)  -->
<svg version="1.1" id="Capa_1" xmlns="http://www.w3.org/2000/svg" xmlns:xlink="http://www.w3.org/1999/xlink" x="0px" y="0px"
	 viewBox="0 0 427.323 427.323" style="enable-background:new 0 0 427.323 427.323;" xml:space="preserve">
<g>
	<path d="M373.679,263.601c-55.111-51.291-110.833-105.896-169.762-152.797c13.082-57.855-31.26-127.056-99.707-107.389
		c-6.248,1.796-9.031,6.674-9.226,11.737c-4.207,4.381-6.28,10.681-2.629,16.393c10.553,16.512,30.867,30.324,48.187,43.168
		c-3.764,3.399-7.563,6.757-11.313,10.166c-3.824,3.475-7.651,6.948-11.472,10.425l-5.736,5.212
		c-3.544,6.439-5.701,7.459-6.471,3.06c-3.453-0.999-15.049-13.271-18.767-16.083c-9.355-7.083-18.722-14.007-28.782-20.06
		c-5.179-3.116-10.053-0.204-11.867,4.135c-0.437,0.164-0.991-0.001-1.368,0.275c-27.247,19.989-17.748,73.064,8.066,90.04
		c25.301,16.636,66.447,19.65,97.889,8.753c49.894,62.49,108.493,132.423,171.243,181.466c21.402,16.729,56.583,25.425,71.46,2.155
		C424.664,326.104,399.42,287.558,373.679,263.601z M378.355,340.455c-6.482,4.772-14.387,5.319-23.046,2.992
		c-0.516-1.167-1.349-2.206-2.774-2.742c-10.28-3.879-18.443-22.19-11.628-31.533c6.937-9.519,18.232-6.784,28.09-6.061
		c0.887,0.065,1.657-0.354,2.462-0.634C377.606,314.727,380.647,327.457,378.355,340.455z"/>
	<path d="M194.213,264.78c2.704-3.6,1.447-9.787-1.641-12.732c-5.827-5.566-11.56-11.116-17.974-16
		c-3.641-2.778-7.39-0.988-9.591,2.111c-1.54,0.105-3.037,0.605-4.214,1.555c-12.836,10.371-26.433,23.792-36.952,37.238
		c-12.483-4.069-28.285-7.8-29.461,4.113c-29.584,20.679-54.143,48.868-80.85,72.997c-5.43,4.908-3.405,13.507,2.205,17.121
		c20.776,13.372,37.269,29.351,50.741,50.08c4.402,6.773,13.527,8.238,19.509,2.512c31.367-30.032,79.601-65.696,66.102-112.561
		c0.443-0.311,0.906-0.488,1.333-0.885C168.472,296.382,181.899,281.185,194.213,264.78z"/>
	<path d="M412.29,45.041c-13.418-26.02-45.3-21.835-65.29-6.552c-29.043,22.208-63.145,51.65-84.972,80.842
		c-1.993,2.667-1.422,5.838,0.138,8.485c-1.217,2.5-1.551,5.418,0.824,8.112c7.808,8.851,16.691,16.71,25.119,24.958
		c7.446,7.286,14.103,15.172,25.165,14.478c2.154-0.135,3.871-0.934,5.352-1.981c0.155-0.011,0.287,0.055,0.438,0.038
		c32.215-3.517,47.551-37.674,68.79-58.256C406.369,97.221,426.243,72.091,412.29,45.041z"/>
</g>
<g>
</g>
<g>
</g>
<g>
</g>
<g>
</g>
<g>
</g>
<g>
</g>
<g>
</g>
<g>
</g>
<g>
</g>
<g>
</g>
<g>
</g>
<g>
</g>
<g>
</g>
<g>
</g>
<g>
</g>
</svg>
