<?xml version="1.0" encoding="iso-8859-1"?>
<!-- Generator: Adobe Illustrator 19.0.0, SVG Export Plug-In . SVG Version: 6.00 Build 0)  -->
<svg version="1.1" id="Capa_1" xmlns="http://www.w3.org/2000/svg" xmlns:xlink="http://www.w3.org/1999/xlink" x="0px" y="0px"
	 viewBox="0 0 439.46 439.46" style="enable-background:new 0 0 439.46 439.46;" xml:space="preserve">
<g>
	<path d="M239.617,260.341c-25.868-13.65-51.052-28.819-76.247-43.731c23.124-17,46.238-34.01,70.525-49.267
		c6.943-4.363,2.597-16.258-5.753-13.645c-0.616,0.193-1.215,0.457-1.82,0.701c-0.357-0.175-0.71-0.352-1.087-0.502
		c-0.746-1.902-2.155-3.614-4.898-4.482c-24.557-7.768-61.975,12.303-83.72,23.583c-5.336,2.768-10.308,5.96-15.115,9.34
		c-5.606-9.051-13.738-15.986-23.591-20.425c-4.609-2.075-13.114-2.149-16.882-4.778c-5.95-4.152-2.986-10.903-4.941-17.41
		c-7.38-24.564-38.641-28.328-55.989-12.007c-16.104,15.152-16.837,44.533,1.739,58.204c10.353,7.62,27.164,7.964,38.713,1.265
		c5.677,2.213,12.338,0.573,18.319,2.47c7.442,2.362,13.467,7.395,17.57,13.949c0.087,0.139,0.212,0.188,0.302,0.319
		c-9.515,9.86-18.239,20.572-26.581,31.571c-12.286-7.355-30.098-7.175-43.321-0.094C5.271,246.953-7.013,274.413,4.276,297.264
		c11.233,22.736,38.72,31.544,60.448,17.889c15.827-9.947,26.731-29.111,24.94-47.344c17.289-10.693,33.897-22.397,50.371-34.3
		c3.235,13.825,17.846,24.777,29.815,30.661c20.409,10.035,43.641,12.779,66.008,10.05
		C242.504,273.409,246.85,264.157,239.617,260.341z M60.666,160.256c0.055,0.254,0.161,0.397,0.221,0.64
		c-0.589,0.395-1.183,0.773-1.736,1.395c-4.66,5.236-9.124,11.184-16.975,11.033c-11.568-0.224-17.465-12.13-14.445-22.503
		c2.29-7.864,10.536-16.25,19.569-15.484C67.611,137.061,58.647,150.973,60.666,160.256z M27.439,287.989
		c-11.622-19.618,15.084-40.855,32.126-31.317c0.219,1.669,0.651,3.276,1.523,4.491C75.852,281.728,41.754,312.154,27.439,287.989z
		 M132.399,215.939c-3.597,4.041-8.939,5.127-13.689,2.571c-3.259-1.752-4.905-4.606-6.578-7.504
		c2.829-2.569,5.689-5.085,8.647-7.479c3.681-1.074,7.697-1.847,10.919-0.675C137.415,204.933,135.664,212.273,132.399,215.939z"/>
	<path d="M264.888,191.403c-8.972-1.073-20.481,0.194-28.86,3.608c-9.819,4.002-8.134,16.881,2.456,18.143
		c8.542,1.019,17.803,1.366,26.404,1.473c6.275,0.078,11.612-5.393,11.612-11.611C276.5,196.12,271.144,192.15,264.888,191.403z"/>
	<path d="M346.946,189.47c-2.561-3.267-7.837-4.022-11.581-3.062c-8.584,2.207-17.283,2.957-25.912,4.741
		c-8.572,1.774-7.772,14.334,0,16.561c9.201,2.636,19.588,2.584,29.076,2.078c5.431-0.29,9.837-3.522,11.477-8.738
		C351.496,196.311,349.835,193.156,346.946,189.47z"/>
	<path d="M427.968,185.732c-13.192,1.142-27.099,1.96-39.287,7.549c-8.579,3.934-3.801,16.765,4.581,16.911
		c11.634,0.202,23.008-1.826,34.706-0.65C443.204,211.074,443.377,184.399,427.968,185.732z"/>
</g>
<g>
</g>
<g>
</g>
<g>
</g>
<g>
</g>
<g>
</g>
<g>
</g>
<g>
</g>
<g>
</g>
<g>
</g>
<g>
</g>
<g>
</g>
<g>
</g>
<g>
</g>
<g>
</g>
<g>
</g>
</svg>
