<?xml version="1.0" encoding="iso-8859-1"?>
<!-- Generator: Adobe Illustrator 19.0.0, SVG Export Plug-In . SVG Version: 6.00 Build 0)  -->
<svg version="1.1" id="Capa_1" xmlns="http://www.w3.org/2000/svg" xmlns:xlink="http://www.w3.org/1999/xlink" x="0px" y="0px"
	 viewBox="0 0 398.892 398.892" style="enable-background:new 0 0 398.892 398.892;" xml:space="preserve">
<path d="M323.382,69.505c0.446-2.126,0.482-4.32-0.286-6.434c-1.247-3.43-2.847-6.838-4.699-10.19
	c-1.379-3.363-2.945-6.669-4.753-9.899c-5.537-9.898-14.806-23.819-26.391-27.15C270.912,2.556,242.868-3.296,224.997,1.86
	c-20.647,5.96-8.259,21.875,4.954,33.115c0.655,0.685,1.124,1.516,1.88,2.097c-29.014,48.469-58.22,93.024-104.463,127.348
	c-14.158-4.517-27.212-4.743-36.821,3.054c-12.72,10.321-6.833,25.641,3.445,34.635c9.564,14.915,21.888,27.885,35.83,39.007
	c-20.828,47.361-37.847,96.861-55.784,145.169c-4.17,11.233,12.84,17.464,18.771,7.912c26.341-42.416,53.067-84.616,79.086-127.229
	c9.765,4.527,19.785,8.38,29.872,11.445c14.798,4.498,35.677,10.732,43.155-7.85c4.835-12.013-1.707-22.567-10.503-31.484
	c1.959-59.332,19.539-112.011,56.85-159.446c6.902,5.221,14.706,9.15,23.77,11.467c4.818,1.231,10.9-2.455,10.442-7.954
	C325.094,78.514,324.33,73.984,323.382,69.505z"/>
<g>
</g>
<g>
</g>
<g>
</g>
<g>
</g>
<g>
</g>
<g>
</g>
<g>
</g>
<g>
</g>
<g>
</g>
<g>
</g>
<g>
</g>
<g>
</g>
<g>
</g>
<g>
</g>
<g>
</g>
</svg>
