<?xml version="1.0" encoding="iso-8859-1"?>
<!-- Generator: Adobe Illustrator 19.0.0, SVG Export Plug-In . SVG Version: 6.00 Build 0)  -->
<svg version="1.1" id="Capa_1" xmlns="http://www.w3.org/2000/svg" xmlns:xlink="http://www.w3.org/1999/xlink" x="0px" y="0px"
	 viewBox="0 0 429.079 429.079" style="enable-background:new 0 0 429.079 429.079;" xml:space="preserve">
<g>
	<path d="M203.689,0.093C-59.169,8.416-42.072,428.894,182.793,423.937c0.868,0.331,1.52,0.896,2.501,1.095
		c116.71,23.625,230.638-58.676,233.385-181.572C421.358,123.686,330.906-3.934,203.689,0.093z M190.802,388.338
		c-65.974-18.909-121.57-57.186-140.362-129.215c-24.96-95.689,33.154-203.74,135.251-215.966
		c98.123-11.75,165.987,63.568,186.443,154.511C398.664,315.605,303.992,400.294,190.802,388.338z"/>
	<path d="M289.83,114.727c-43.07,17.943-104.191,30.361-134.999,68.379c-28.657,35.356-31.856,84.254-58.292,121.105
		c-7.701,10.729,4.62,20.811,14.937,18.099c3.392,1.482,7.512,1.676,11.755-0.287c39.41-18.227,90.303-33.01,120.212-66.2
		c29.305-32.525,43.828-81.789,61.876-120.951C309.622,125.527,302.117,109.606,289.83,114.727z M208.237,231.935
		c-8.814,4.571-22.558,1.273-25.615-8.996c-2.885-9.696,3.676-16.651,8.962-23.683c8.634,0.719,17.888-2.512,24.499,5.563
		C223.155,213.45,217.225,227.274,208.237,231.935z"/>
</g>
<g>
</g>
<g>
</g>
<g>
</g>
<g>
</g>
<g>
</g>
<g>
</g>
<g>
</g>
<g>
</g>
<g>
</g>
<g>
</g>
<g>
</g>
<g>
</g>
<g>
</g>
<g>
</g>
<g>
</g>
</svg>
