<?xml version="1.0" encoding="iso-8859-1"?>
<!-- Generator: Adobe Illustrator 19.0.0, SVG Export Plug-In . SVG Version: 6.00 Build 0)  -->
<svg version="1.1" id="Capa_1" xmlns="http://www.w3.org/2000/svg" xmlns:xlink="http://www.w3.org/1999/xlink" x="0px" y="0px"
	 viewBox="0 0 422.266 422.266" style="enable-background:new 0 0 422.266 422.266;" xml:space="preserve">
<path d="M392.49,172.052c-11.511-7.768-26.564-11.796-43.115-13.831c6.413-32.03,15.737-82.949-2.323-107.04
	c-25.055-33.418-110.665-18.243-145.212-18.804C168.12,31.83,110.682,19.716,84.022,48.198
	c-23.969,25.609-22.492,78.95-22.145,115.247c-12.012,2.776-23.295,6.562-32.666,12.694C1.537,194.249-2.573,229.236,1.185,262.13
	c-1.789,16.076,1.14,33.164,2.942,49.145c0.884,7.85,5.975,14.714,14.454,15.05c2.887,5.671,7.958,10.257,15.136,10.577
	c3.69,0.162,7.419,0.1,11.115,0.233c-1.062,7.537-1.21,15.345-1.475,21.817c-0.495,12.008,1.716,24.533,13.092,30.895
	c10.882,6.087,24.625,2.682,32.629-6.485c9.104-10.425,8.286-24.986,8.786-37.957c0.105-2.735-0.403-5.071-1.194-7.177
	c75.463,0.419,151.62-3.267,227.258-4.495c-4.025,13.828-6.452,30.375-1.081,41.599c7.604,15.892,27.243,20.405,42.258,12.032
	c15.739-8.777,18.918-27.257,16.601-43.619c-0.443-3.13-0.625-6.728-0.889-10.349c1.697,0.012,3.402-0.017,5.098-0.003
	c2.877,0.026,5.34-0.736,7.588-1.82c1.952-0.041,3.793,0.275,5.806,0.086c9.316-0.869,17.935-7.39,17.667-17.667
	c-0.038-1.471-0.408-2.83-0.542-4.23c1.837-2.841,3.224-6.137,3.411-10.349C421.597,260.184,431.573,198.423,392.49,172.052z
	 M74.404,268.696c-5.281,0.972-17.327-0.295-27.301-4.02c-2.743-9.02-3.457-18.175,2.705-26.799
	c9.066-12.688,30.964-15.816,39.758-1.423C98.288,250.73,90.047,265.816,74.404,268.696z M98.733,158.587
	c3.495-14.977,6.658-29.997,9.113-45.273c5.653-35.181,16.905-38.784,54.905-38.335c26.061,0.307,52.117,0.785,78.172,1.441
	c18.864,0.473,50.265-3.946,70.602,3.09c0.843,25.653-3.188,51.43-1.757,77.178c-34.127,0.968-69.322,6.031-93.746,6.249
	C183.845,163.224,139.289,156.907,98.733,158.587z M284.689,272.686c-31.403,0.892-62.811,1.807-94.2,3.145
	c-21.142,0.901-44.35-1.391-63.944,6.684c0.582-21.407,1.983-42.697,3.948-64.001c50.856,15.456,102.844-3.673,155.415,1.359
	c0.015,7.147,0.389,14.341,0.864,21.477c0.72,10.765,2.054,21.586,3.71,32.352C288.825,272.999,286.897,272.621,284.689,272.686z
	 M366.022,264.801c-12.611,11.143-28.484,2.687-40.368-4.371c-1.493-0.886-2.984-1.435-4.442-1.725
	c0.433-6.867,1.417-13.594,4.148-19.611c6.499-14.321,23.853-21.554,37.9-12.667C375.637,234.256,376.984,255.119,366.022,264.801z"
	/>
<g>
</g>
<g>
</g>
<g>
</g>
<g>
</g>
<g>
</g>
<g>
</g>
<g>
</g>
<g>
</g>
<g>
</g>
<g>
</g>
<g>
</g>
<g>
</g>
<g>
</g>
<g>
</g>
<g>
</g>
</svg>
