<?xml version="1.0" encoding="iso-8859-1"?>
<!-- Generator: Adobe Illustrator 19.0.0, SVG Export Plug-In . SVG Version: 6.00 Build 0)  -->
<svg version="1.1" id="Capa_1" xmlns="http://www.w3.org/2000/svg" xmlns:xlink="http://www.w3.org/1999/xlink" x="0px" y="0px"
	 viewBox="0 0 413.785 413.785" style="enable-background:new 0 0 413.785 413.785;" xml:space="preserve">
<g>
	<path d="M248.052,75.433c-0.052-1.703-0.983-2.982-2.212-3.836c-1.085-2.319-3.179-4.175-6.467-4.33
		C199.265,65.376,159.147,64.9,119,64.726c-31.694-0.139-64.826-3.207-95.695,4.394c-0.169-0.047-0.335-0.085-0.504-0.131
		c-3.209-0.896-7.025,0.336-9.326,2.842c-3.086-0.588-6.957,1.441-7.215,5.185c-4.711,68.211-3.901,138.092-6.256,206.593
		c-0.081,2.37,1.243,4.084,3.012,5.098c0.529,0.81,1.3,1.489,2.366,1.855c12.261,4.208,26.005,3.626,38.875,4.072
		c12.98,0.447,26.12,1.261,39.112,0.626c-0.732,22.407,14.169,45.153,35.92,52.154c28.708,9.243,62.359-9.494,69.091-38.942
		c0.746-3.261,1.076-6.56,1.187-9.851c7.137,2.58,16.086,2.452,22.911,2.559c10.263,0.161,24.822,1.334,32.348-6.564
		c1.937-2.031,1.92-4.886,0.412-6.947C242.847,216.83,250.232,146.075,248.052,75.433z M167.901,305.086
		c-5.137,17.915-26.531,27.56-43.685,21.422c-18.586-6.65-23.023-24.618-22.21-42.106c7.061-14.955,22.642-25.091,39.964-22.051
		C161.091,265.708,173.207,286.58,167.901,305.086z"/>
	<path d="M411.477,188.04c-0.237-2.248-1.288-3.893-2.686-4.993c0.674-2.466,0.377-5.327-1.234-7.389
		c-7.826-10.018-21.187-17.025-31.105-24.924c-9.425-7.506-18.744-17.5-29.605-22.764c-1.165-0.566-2.383-0.696-3.508-0.5
		c-0.752-1.214-1.924-2.159-3.607-2.479c-21.634-4.09-47.447-1.071-70.06,2.128c-2.948-3.088-8.625-2.581-10.117,1.781
		c-2.603,1.439-2.355,5.065-0.423,7.311c-0.008,0.981,0.017,1.976,0.011,2.96c-1.546,1.243-2.59,3.138-2.511,5.766
		c1.458,48.721,2.594,97.406,0.99,146.136c-0.133,4.018,3.515,7.445,7.44,7.44c5.127,0.297,10.216-0.036,15.277-0.801
		c0.333,19.247,10.883,36.591,36.387,39.865c27.552,3.535,56.033-15.231,62.72-42.451c0.444-1.807,0.542-3.639,0.732-5.464
		c3.006-0.054,6.013-0.167,9.029,0.033c3.617,0.238,6.714,0.988,10.107,0.512c2.415,1.65,5.964,1.352,7.06-2.315
		C415.607,256.987,414.819,219.778,411.477,188.04z M359.725,296.964c-6.572,14.276-22.706,24.071-38.409,23.002
		c-23.01-1.566-29.139-26.583-19.352-44.434c6.831-12.459,17.665-17.178,29.803-19.29c1.34,1.736,3.408,3.006,6.349,3.16
		C357.281,260.405,367.629,279.797,359.725,296.964z"/>
</g>
<g>
</g>
<g>
</g>
<g>
</g>
<g>
</g>
<g>
</g>
<g>
</g>
<g>
</g>
<g>
</g>
<g>
</g>
<g>
</g>
<g>
</g>
<g>
</g>
<g>
</g>
<g>
</g>
<g>
</g>
</svg>
