<?xml version="1.0" encoding="iso-8859-1"?>
<!-- Generator: Adobe Illustrator 19.0.0, SVG Export Plug-In . SVG Version: 6.00 Build 0)  -->
<svg version="1.1" id="Capa_1" xmlns="http://www.w3.org/2000/svg" xmlns:xlink="http://www.w3.org/1999/xlink" x="0px" y="0px"
	 viewBox="0 0 434.069 434.069" style="enable-background:new 0 0 434.069 434.069;" xml:space="preserve">
<g>
	<path d="M196.621,26.097c-0.478-11.641-16.188-13.092-19.839-4.139c-27.331,22.243-42.125,57.915-57.841,88.641
		c-24.043,46.996-46.169,94.952-67.253,143.339c-3.803,8.722,0.919,18.49,9.694,19.639c1.633,2.795,4.373,4.931,8.149,4.968
		c38.506,0.378,77.002,1.056,115.498,1.519c8.522,0.103,12.955-9.005,11.303-15.951C205.665,186.234,199.805,104.32,196.621,26.097z
		"/>
	<path d="M345.537,262.76c0.531-2.341,0.005-4.918-1.395-7.537c0.157-0.043,0.318-0.086,0.477-0.129
		C312.504,192.031,277.114,123.3,227.921,71.691c-1.953-2.049-4.131-1.983-6.057-1.199c-4.139-0.639-8.735,1.123-9.708,5.879
		c-6.114,29.831,0.405,59.531,2.225,89.624c2.134,35.333,1.039,70.748,4.858,105.974c0.022,0.188,0.19,0.289,0.231,0.469
		c-1.972,5.075,0.697,11.843,7.538,11.742c19.611-0.287,39.152-1.945,58.728-3.058c17.815-1.013,35.943,0.152,53.455-3.34
		C346.166,276.393,348.152,268.37,345.537,262.76z"/>
	<path d="M429.195,302.143c-1.296-3.239-4.161-5.796-8.734-5.804c-133.56-0.251-286.813-17.364-417.387,12.403
		c-3.976,0.906-4.22,7.552,0,8.285c0.966,0.167,1.973,0.224,2.938,0.386c0.036,0.256-0.049,0.499,0.02,0.755
		c3.64,13.546,29.468,24.895,39.857,32.474c20.303,14.809,39.578,31.717,57.727,49.076c3.426,3.277,7.392,3.435,10.563,1.877
		c26.558,27.93,92.311,11.611,125.959,11.224c34.383-0.395,106.921,12.763,130.907-21.275
		c11.572-12.035,22.346-25.584,33.027-38.387c10.487-12.569,22.02-24.834,29.048-39.754
		C435.515,308.316,433.069,303.793,429.195,302.143z"/>
</g>
<g>
</g>
<g>
</g>
<g>
</g>
<g>
</g>
<g>
</g>
<g>
</g>
<g>
</g>
<g>
</g>
<g>
</g>
<g>
</g>
<g>
</g>
<g>
</g>
<g>
</g>
<g>
</g>
<g>
</g>
</svg>
