<?xml version="1.0" encoding="iso-8859-1"?>
<!-- Generator: Adobe Illustrator 19.0.0, SVG Export Plug-In . SVG Version: 6.00 Build 0)  -->
<svg version="1.1" id="Capa_1" xmlns="http://www.w3.org/2000/svg" xmlns:xlink="http://www.w3.org/1999/xlink" x="0px" y="0px"
	 viewBox="0 0 403.01 403.01" style="enable-background:new 0 0 403.01 403.01;" xml:space="preserve">
<path d="M394.83,19.107c-35.293-42.624-97.439,32.161-119.781,52.243c-21.517,19.34-42.802,39.352-63.832,59.7
	c-21.656-8.368-43.549-16.124-65.23-24.438c-20.849-7.998-41.944-18.453-64.101-22.062c-0.679-0.11-1.321-0.017-1.968,0.042
	c-3.483-2.838-8.643-3.56-12.262,0.512c-6.803,7.651-15.433,15.332-18.861,25.252c-1.331,3.86,0.197,7.341,2.842,9.689
	c-0.269,1.75,0.139,3.645,2.064,5.024c19.816,14.199,41.558,21.419,64.119,30.083c16.589,6.368,33.04,13.079,49.549,19.635
	c-18.65,19.532-36.877,39.438-53.855,60.282c-28.667-14.756-64.52-13.097-96.518-12.004c-1.539,0.052-2.668,0.806-3.568,1.805
	c-0.948,0.053-1.875-0.075-2.834,0.337c-8.563,3.671-9.729,15.13-10.571,23.521c-0.186,1.836,0.773,3.819,2.168,5.353
	c0.609,1.233,1.454,2.401,2.735,3.363c25.512,19.168,53.138,34.209,76.291,56.578c23.363,22.571,39.811,48.435,55.991,76.251
	c2.929,5.033,7.203,6.568,11.303,6.054c2.046,0.533,4.207,0.671,6.088,0.247c9.804-2.202,17.867-7.097,24.519-14.606
	c2.428-2.741,3.2-5.793,2.891-8.654c-0.676-23.345-8.079-53.129-19.699-79.199c19.449-22.173,40.571-42.568,62.107-62.536
	c15.614,39.772,32.018,80.873,52.777,117.618c1.23,2.174,3.328,2.701,5.427,2.598c2.351,1.823,5.523,2.523,8.524,0.686
	c9.184-5.619,17.161-12.193,24.761-19.713c4.907,0.928,10.374-2.459,8.417-8.726c-14.014-44.86-33.724-90.27-55.551-132.498
	c24.654-21.927,49.346-43.874,73.155-66.967C362.807,104.323,425.183,55.762,394.83,19.107z"/>
<g>
</g>
<g>
</g>
<g>
</g>
<g>
</g>
<g>
</g>
<g>
</g>
<g>
</g>
<g>
</g>
<g>
</g>
<g>
</g>
<g>
</g>
<g>
</g>
<g>
</g>
<g>
</g>
<g>
</g>
</svg>
