<?xml version="1.0" encoding="iso-8859-1"?>
<!-- Generator: Adobe Illustrator 19.0.0, SVG Export Plug-In . SVG Version: 6.00 Build 0)  -->
<svg version="1.1" id="Capa_1" xmlns="http://www.w3.org/2000/svg" xmlns:xlink="http://www.w3.org/1999/xlink" x="0px" y="0px"
	 viewBox="0 0 427.62 427.62" style="enable-background:new 0 0 427.62 427.62;" xml:space="preserve">
<g>
	<path d="M334.426,60.322c-24.302-0.871-48.605,0.489-72.952,1.726c9.539-35.521-24.069-69.656-59.893-60.561
		c-16.785,4.262-30.113,16.601-34.583,33.424c-2.209,8.308-1.678,17.962,1.655,26.155c-29.225-3.164-60.55-6.783-84.195,9.327
		c-7.921,5.397-7.306,18.345,2.752,21.05c38.005,10.224,83.17,8.377,122.347,8.632c42.264,0.275,87.936,0.655,128.726-11.261
		C354.149,84.179,350.781,60.909,334.426,60.322z M197.719,63.239c0.187-10.17-0.258-21.928,10.736-25.812
		c11.976-4.228,19.878,6.855,17.15,17.75c-0.417,3-0.192,5.74,0.43,8.248C216.609,63.63,207.169,63.558,197.719,63.239z"/>
	<path d="M334.37,134.662c-0.081-3.414-1.554-6.237-3.702-8.399c0.172-7.669-4.594-15.066-14.51-14.379
		c-67.225,4.665-138.676-0.376-204.709,11.693c-5.573,1.018-7.907,6.6-7.238,11.656c-15.026,40.704-7.598,88.091-6.104,130.858
		c1.544,44.092,0.182,89.909,10.384,132.964c0.251,1.056,0.755,1.784,1.152,2.656c-0.37,1.589-0.494,3.201-0.02,4.681
		c8.089,25.248,51.652,20.447,72.076,20.292c39.724-0.297,90.836,5.458,128.185-8.413c5.74-2.132,8.826-7.299,8.896-12.389
		c4.216-2.051,7.694-6.083,8.494-12.408C337.865,309.784,336.319,219.047,334.37,134.662z M148.34,376.214
		c-4.196,0.198-8.397,0.277-12.594,0.524c1.678-39.877-3.088-80.904-4.404-120.605c-0.957-28.883,1.164-59.279-2.921-88.151
		c5.466,1.696,11.412,2.293,17.514,2.548C151.685,239.537,148.071,307.145,148.34,376.214z M165.155,375.514
		c15.163-66.339,12.305-137.607,3.708-205.014c0.989-0.013,1.987-0.049,2.974-0.052c2.779-0.006,5.593,0.218,8.383,0.267
		c-1.706,44.174,0.607,88.702,2.635,132.787c0.744,16.208-3.622,50.43,2.664,71.579
		C178.731,375.242,171.938,375.282,165.155,375.514z M204.015,374.688c0.62-9.981,2.627-24.827,2.718-28.437
		c0.507-19.921,0.309-39.919,0.276-59.848c-0.058-38.258,0.053-76.75-2.944-114.928c4.897,0.28,9.805,0.641,14.71,0.979
		c-3.635,66.529-4.25,136.062,2.632,201.917C215.61,374.47,209.812,374.584,204.015,374.688z M237.163,374.083
		c8.097-65.2,9.218-133.909,7.14-199.922c4.136,0.276,8.246,0.407,12.374,0.639c-4.067,65.568-5.437,133.275-0.147,198.733
		C250.074,373.681,243.623,373.961,237.163,374.083z M296.438,372.402c-7.023,0.309-14.06,0.381-21.085,0.597
		c7.492-64.831,8.555-132.075,6.836-197.358c7.033,0.084,14.074,0.217,21.045-0.124
		C295.963,240.318,291.721,308.318,296.438,372.402z"/>
</g>
<g>
</g>
<g>
</g>
<g>
</g>
<g>
</g>
<g>
</g>
<g>
</g>
<g>
</g>
<g>
</g>
<g>
</g>
<g>
</g>
<g>
</g>
<g>
</g>
<g>
</g>
<g>
</g>
<g>
</g>
</svg>
