<?xml version="1.0" encoding="iso-8859-1"?>
<!-- Generator: Adobe Illustrator 19.0.0, SVG Export Plug-In . SVG Version: 6.00 Build 0)  -->
<svg version="1.1" id="Capa_1" xmlns="http://www.w3.org/2000/svg" xmlns:xlink="http://www.w3.org/1999/xlink" x="0px" y="0px"
	 viewBox="0 0 438.994 438.994" style="enable-background:new 0 0 438.994 438.994;" xml:space="preserve">
<path d="M396.692,219.808c-3.406-43.989-39.934-41.002-76.245-38.268c-44.358,3.339-88.429,7.399-132.557,10.804
	c-10.594-0.165-21.284-0.225-31.887-0.352c3.954-44.216-13.669-115.011,26.68-135.993c16.54-8.601,46.054-12.138,64.403-9.983
	c42.143,4.95,27.59,35.668,40.48,61.635c7.978,16.069,28.62,8.884,34.147-4.464c12.461-30.073,0.461-72.427-27.424-89.919
	C262.716-6.539,215.33-0.742,181.115,8.612c-34.907,9.54-57.095,33.201-64.016,68.747c-6.591,33.846-10.797,78.603-0.578,114.196
	c-18.908-0.186-37.713-0.429-56.738-0.627c-1.826-0.019-3.33,0.375-4.652,0.956c-3.696-0.653-8.196,1.683-8.615,6.158
	c-3,32.123-3.136,64.693-2.89,97.332c-0.258,12.181-0.154,23.539-0.301,31.954c-0.258,14.185-2.312,34.88,0.049,53.15
	c-0.209,9.793-0.209,19.618-0.759,29.363c-0.286,5.117,2.89,8.662,6.964,10.37c0.387,0.873,0.824,1.735,1.457,2.516
	c0.283,0.353,0.572,0.709,0.858,1.062c2.001,2.478,5.186,2.876,8.128,2.203c0.089,2.579,1.239,5.187,4.695,7.548
	c16.435,11.232,78.256,1.66,97.401,1.507c71.821-0.575,143.627-2.564,215.384-5.686c3.36-0.146,5.878-1.45,7.969-3.15
	c3.886-0.587,7.539-3.602,7.859-8.383c4.181-62.118-4.956-124.183-2.395-186.455C394.559,229.295,397.141,225.605,396.692,219.808z
	 M229.678,373.379c-11.179,0.579-23.624,2.559-34.947,1.888c0.489-1.968,1.018-3.923,1.436-5.906
	c0.953-4.667,1.746-9.372,2.238-14.116c1.328-12.737,1.119-25.133-1.064-37.732c-0.436-2.504-1.925-3.989-3.738-4.953
	c-0.597-1.381-1.488-2.603-2.662-3.412c-8.2-5.664-8.814-26.743-7.148-35.226c2.865-14.594,13.165-26.73,28.196-29.089
	c30.227-4.744,58.014,30.426,33.886,54.97c-4.71,4.792-5.054,10.25-2.951,14.639c-4.471,2.433-7.569,7.442-6.364,14.257
	c1.728,9.752,6.001,18.097,9.97,27.195c1.799,4.122,6.115,11.222,8.981,17.713C246.563,374.255,234.785,373.114,229.678,373.379z"/>
<g>
</g>
<g>
</g>
<g>
</g>
<g>
</g>
<g>
</g>
<g>
</g>
<g>
</g>
<g>
</g>
<g>
</g>
<g>
</g>
<g>
</g>
<g>
</g>
<g>
</g>
<g>
</g>
<g>
</g>
</svg>
