<?xml version="1.0" encoding="iso-8859-1"?>
<!-- Generator: Adobe Illustrator 19.0.0, SVG Export Plug-In . SVG Version: 6.00 Build 0)  -->
<svg version="1.1" id="Capa_1" xmlns="http://www.w3.org/2000/svg" xmlns:xlink="http://www.w3.org/1999/xlink" x="0px" y="0px"
	 viewBox="0 0 402.544 402.544" style="enable-background:new 0 0 402.544 402.544;" xml:space="preserve">
<g>
	<path d="M370.026,144.779c-10.787-31.021-53.441-58.975-75.663-80.907c-18.516-18.27-47.125-61.753-76.004-63.796
		c-28.847-2.039-54.141,36.979-72.714,53.722c-30.451,27.451-77.905,50.548-87.668,92.039c-0.471,1.985-0.189,3.776,0.384,5.432
		c-5.804,11.615-0.121,27.777,17.607,29.841c20.472,2.382,41.149,3.804,61.918,4.717c-0.879,12.921,0.013,26.153,0.754,39.073
		c1.401,24.533,1.333,51.698,6.451,75.745c3.454,16.23,12.699,22.788,28.555,25.278c27.963,4.39,60.208,0.098,88.45-0.746
		c12.984-0.387,25.232-11.015,24.723-24.724c-1.41-38.177-0.871-76.308-1.444-114.474c22.172-0.418,44.263-0.79,66.166-0.778
		C374.911,185.213,380.95,159.028,370.026,144.779z"/>
	<path d="M381.751,279.938c-2.882-20.42-36.372-19.354-40.2,0c-4.814,24.328-5.905,48.443-6.525,72.91
		c-88.809-1.059-178.255-0.411-266.808-6.912c1.424-22.66,2.544-45.211,1.306-68.089c-1.192-21.948-35.514-29.346-40.378-5.464
		c-6.508,31.957-8.84,63.929-11.44,96.42c-1.134,14.198,12.247,23.289,24.569,24.569c104.696,10.879,211.685,7.338,316.879,9.169
		c13.628,0.237,24.367-11.527,24.724-24.724C384.782,344.482,386.411,312.888,381.751,279.938z"/>
</g>
<g>
</g>
<g>
</g>
<g>
</g>
<g>
</g>
<g>
</g>
<g>
</g>
<g>
</g>
<g>
</g>
<g>
</g>
<g>
</g>
<g>
</g>
<g>
</g>
<g>
</g>
<g>
</g>
<g>
</g>
</svg>
