<?xml version="1.0" encoding="iso-8859-1"?>
<!-- Generator: Adobe Illustrator 19.0.0, SVG Export Plug-In . SVG Version: 6.00 Build 0)  -->
<svg version="1.1" id="Capa_1" xmlns="http://www.w3.org/2000/svg" xmlns:xlink="http://www.w3.org/1999/xlink" x="0px" y="0px"
	 viewBox="0 0 413.102 413.102" style="enable-background:new 0 0 413.102 413.102;" xml:space="preserve">
<path d="M393.701,206.421c0.171-2.145-0.101-4.385-1.428-6.644c-22.16-37.695-54.143-71.909-83.757-103.879
	c-28.442-30.707-58.779-62.757-94.906-84.581c-3.589-9.547-17.624-16.249-25.426-6.649c-30.132,37.073-62.588,72.09-94.281,107.81
	c-26.022,29.333-66.537,61.051-76.878,99.708c-0.505,1.877-0.012,3.817,0.831,5.617c0.196,1.076,0.508,2.138,1.219,3.075
	c13.307,17.536,53.104,15.295,85.355,12.301c-1.064,22.601,1.766,45.632,1.668,68.214c-0.113,26.433-1.79,52.576-4.229,78.888
	c-0.171,1.821,0.095,3.449,0.657,4.897c8.471,45.509,166.503,23.36,193.255,16.321c2.334-0.614,3.936-1.815,5.199-3.207
	c7.423,0.918,15.468-3.228,15.237-12.858c-1.232-51.383,2.672-102.987,0.6-154.27c-0.019-0.539-0.26-0.97-0.354-1.474
	c21.996-0.042,43.991-0.182,65.99-0.063C395.735,229.699,399.367,214.854,393.701,206.421z"/>
<g>
</g>
<g>
</g>
<g>
</g>
<g>
</g>
<g>
</g>
<g>
</g>
<g>
</g>
<g>
</g>
<g>
</g>
<g>
</g>
<g>
</g>
<g>
</g>
<g>
</g>
<g>
</g>
<g>
</g>
</svg>
