<?xml version="1.0" encoding="iso-8859-1"?>
<!-- Generator: Adobe Illustrator 19.0.0, SVG Export Plug-In . SVG Version: 6.00 Build 0)  -->
<svg version="1.1" id="Capa_1" xmlns="http://www.w3.org/2000/svg" xmlns:xlink="http://www.w3.org/1999/xlink" x="0px" y="0px"
	 viewBox="0 0 410.794 410.794" style="enable-background:new 0 0 410.794 410.794;" xml:space="preserve">
<g>
	<path d="M157.145,108.603c-54.007-18.67-92.984,40.62-76.587,88.936c1.207,3.552,2.899,6.839,4.796,9.993
		c14.685,37.074,59.554,60.756,92.311,25.339C210.912,196.922,209.248,126.616,157.145,108.603z"/>
	<path d="M265.009,387.634c-6.874-28.043-28.441-135.609-67.27-138.761c-3.322-3.862-9.459-5.563-14.311-2.933
		c-13.927,7.54-22.205,19.208-38.654,22.768c-20.614,4.464-41.398-2.94-57.008-16.51c-0.314-0.271-0.638-0.351-0.956-0.574
		c-2.575-2.721-6.573-3.917-10.162-1.32c-46.002,33.3-62.472,92.87-60.819,147.456c0.214,7.026,5.799,13.057,13.035,13.033
		c74.425-0.236,148.778-2.224,223.105-6.04C260.867,404.297,267.182,396.492,265.009,387.634z"/>
	<path d="M387.747,75.991c1.353-18.357,14.224-46.598,2.324-63.635c-12.258-17.552-40.792-11.392-58.65-10.969
		c-30.05,0.71-65.056-3.728-94.392,2.756c-14.844,3.281-19.352,11.533-21.359,25.687c-4.227,29.832,0.875,63.066,5.36,92.573
		c0.166,1.103,0.697,1.907,1.111,2.811c-2.383,5.459-0.36,13.387,6.208,14.468c2.401,0.395,4.84,0.513,7.252,0.826
		c-4.165,7.402-8.756,13.8-17.238,18.507c-9.363,5.194-3.025,20.068,7.26,17.218c17.855-4.945,43.25-13.629,49.69-33.3
		c14.012,0.005,28.047-0.529,41.949-0.935c16.01-0.465,53.431,5.515,65.852-8.239C394.596,121.045,386.586,91.708,387.747,75.991z
		 M242.762,29.83c-0.191,0.148,14.946,0.391,18.345,0.31l58.596-1.385c9.733-0.231,19.56-0.91,29.297-0.692
		c17.026,0.376,16.72-3.232,16.2,12.432c-0.102,3.054-0.349,6.105-0.649,9.16c-40.004-2.431-82.46,0.12-122.527,5.079
		C241.565,45.172,241.113,31.101,242.762,29.83z M242.834,69.22c39.008,3.567,80.261,4.597,119.131,1.173
		c-0.406,3.216-0.773,6.437-1.036,9.663c-18.932-2.824-38.557-0.913-57.669-0.452c-19.846,0.476-39.839,0.454-59.638,2.092
		C243.311,77.542,243.077,73.381,242.834,69.22z M357.468,114.007c-3.829,0.191-7.658,0.38-11.484,0.571
		c-20.211-2.086-42.839,1.629-63.201,2.123c-11.889,0.29-23.676,0.537-35.439,1.393c-0.817-6.188-1.465-12.383-2.14-18.579
		c36.862,4.356,81.284,6.361,116.07-2.122c0.684,6.048,1.297,12.326-0.341,16.085C362.383,120.492,361.229,120.668,357.468,114.007z
		"/>
</g>
<g>
</g>
<g>
</g>
<g>
</g>
<g>
</g>
<g>
</g>
<g>
</g>
<g>
</g>
<g>
</g>
<g>
</g>
<g>
</g>
<g>
</g>
<g>
</g>
<g>
</g>
<g>
</g>
<g>
</g>
</svg>
