<?xml version="1.0" encoding="iso-8859-1"?>
<!-- Generator: Adobe Illustrator 19.0.0, SVG Export Plug-In . SVG Version: 6.00 Build 0)  -->
<svg version="1.1" id="Capa_1" xmlns="http://www.w3.org/2000/svg" xmlns:xlink="http://www.w3.org/1999/xlink" x="0px" y="0px"
	 viewBox="0 0 429.922 429.922" style="enable-background:new 0 0 429.922 429.922;" xml:space="preserve">
<g>
	<path d="M400.939,205.96c-31.108-35.663-90.083-32.674-121.849,0.237c-15.253-15.247-36.623-23.967-66.683-21.284
		c-16.4,1.464-30.596,6.363-42.822,13.709c-6.976-6.447-17.326-10.747-27.288-12.473c-0.674-1.208-2.299-1.658-3.743-1.356
		c-0.746-0.625-1.67-1.153-2.795-1.535c-48.933-16.575-95.404,17.46-116.066,60.584C7.654,268.97,3.331,296.877,1.768,324.451
		c-0.941,16.659-5.242,38.861,4.405,53.02c-2.598,3.175-1.446,8.766,3.048,10.138c18.527,5.663,40.232,5.275,61.201,3.297
		c112.727,9.091,230.741,3.774,342.56,1.729c2.228-0.042,3.889-0.846,5.244-1.925c2.382-0.697,4.367-2.369,4.82-5.411
		C430.979,331.984,439.827,250.537,400.939,205.96z"/>
	<path d="M230.603,40.208c-34.253-18.952-67.537,7.318-69.139,43.149c-1.412,31.649,24.541,75.672,58.956,59.958
		c9.092-0.439,18.249-5.009,26.085-15.269C266.746,101.539,260.645,56.831,230.603,40.208z"/>
	<path d="M104.493,55.913c-17.418-5.665-31.469,0.343-40.998,11.566c-32.053,25.828-15.577,104.778,32.854,97.52
		C145.568,157.624,151.206,71.108,104.493,55.913z"/>
	<path d="M326.472,43.9c-23.769,15.668-28.103,57.804-17.829,82.138c10.272,24.329,42.677,43.926,64.851,22.206
		C426.569,123.303,380.149,8.516,326.472,43.9z"/>
</g>
<g>
</g>
<g>
</g>
<g>
</g>
<g>
</g>
<g>
</g>
<g>
</g>
<g>
</g>
<g>
</g>
<g>
</g>
<g>
</g>
<g>
</g>
<g>
</g>
<g>
</g>
<g>
</g>
<g>
</g>
</svg>
