<?xml version="1.0" encoding="iso-8859-1"?>
<!-- Generator: Adobe Illustrator 19.0.0, SVG Export Plug-In . SVG Version: 6.00 Build 0)  -->
<svg version="1.1" id="Capa_1" xmlns="http://www.w3.org/2000/svg" xmlns:xlink="http://www.w3.org/1999/xlink" x="0px" y="0px"
	 viewBox="0 0 418.837 418.837" style="enable-background:new 0 0 418.837 418.837;" xml:space="preserve">
<g>
	<path d="M411.448,173.812c2.64-42.189,13.132-82.545,3.195-124.096c-0.621-2.593-1.969-4.326-3.622-5.441
		c-0.007-1.117-0.016-2.233-0.023-3.351c-0.032-4.594-2.518-9.57-6.731-11.736c-35.57-18.277-80.139-8.55-119.036-8.034
		c-72.705,0.964-145.512-0.128-218.188,1.241C-7.626,23.805-4.898,81.755,5.251,143.846C1.248,212.805-0.628,283.083,5.437,350.01
		c-0.246,12.026,0.625,23.917,3.487,35.327c0.993,3.961,4.342,7.16,8.234,8.233c47.898,13.215,108.387,3.992,157.997,4.439
		c65.924,0.596,131.839,1.826,197.764,2.012c5.275,0.015,8.848-2.45,11.084-5.807c28.07-2.832,32.376-39.234,31.996-68.128
		C415.326,274.896,408.223,225.361,411.448,173.812z M367.599,58.755c7.656,0.188,11.251,5.91,13.103,12.302
		c-8.331,8.91-24.309,12.517-25.497,0.315C354.473,63.846,360.148,58.573,367.599,58.755z M325.86,57.98
		c6.575,7.26,0.433,12.529-3.189,18.496c-7.135,0.561-13.321-6.414-13.574-13.251C308.723,53.194,319.928,51.432,325.86,57.98z
		 M257.438,56.151c3.636-5.166,12.289-3.051,18.003-4.421c3.39,2.987,6.177,6.562,7.245,11.095
		c2.188,9.284-5.248,12.061-13.073,9.807C263.823,70.962,251.989,63.888,257.438,56.151z M371.114,371.599
		c-65.321-0.164-130.638,0.674-195.959,0.896c-28.836,0.099-64.125,5.866-92.289,0.303c-24.605,6.453-42.45-2.986-53.536-28.314
		c0.099-9.001-0.262-17.962-0.996-26.891c4.969-57.329,3.681-117.067-0.484-175.464c0.543-13.134,0.89-26.274,0.805-39.427
		c0.007-0.571,0.093-1.025,0.106-1.588c116.101,17.631,245.537,14.514,361.351,7.962c-3.091,29.995-6.053,60.004-7.074,90.13
		C382.246,222.532,398.896,352.609,371.114,371.599z"/>
	<path d="M286.522,216.438c-32.091-17.38-63.871-34.933-94.947-54.096c-14.798-9.125-43.289-36.985-61.83-29.626
		c-1.393,0.553-2.37,1.69-2.709,2.97c-1.2,0.972-2.035,2.381-1.957,4.289c1.381,33.701,3.665,67.521,2.614,101.255
		c-0.709,22.718-11.585,55.446-6.482,77.278c-0.052,0.137-0.19,0.212-0.237,0.352c-1.778,5.205,4.338,9.966,8.927,8.345
		c2.271,0.13,4.58-0.358,6.389-2.251c0.323-0.336,0.644-0.673,0.966-1.01c0.155-0.161,0.164-0.408,0.299-0.582
		c2.808-0.813,6.416-2.497,7.323-2.919c4.789-2.234,9.426-4.788,13.889-7.615c3.708-2.349,8.095-4.952,11.814-8.093
		c39.218-20.013,77.975-42.62,113.895-66.925c3.2-2.165,4.337-5.181,4.262-8.112C292.032,225.76,292.463,219.655,286.522,216.438z"
		/>
</g>
<g>
</g>
<g>
</g>
<g>
</g>
<g>
</g>
<g>
</g>
<g>
</g>
<g>
</g>
<g>
</g>
<g>
</g>
<g>
</g>
<g>
</g>
<g>
</g>
<g>
</g>
<g>
</g>
<g>
</g>
</svg>
