<?xml version="1.0" encoding="iso-8859-1"?>
<!-- Generator: Adobe Illustrator 19.0.0, SVG Export Plug-In . SVG Version: 6.00 Build 0)  -->
<svg version="1.1" id="Capa_1" xmlns="http://www.w3.org/2000/svg" xmlns:xlink="http://www.w3.org/1999/xlink" x="0px" y="0px"
	 viewBox="0 0 425.145 425.145" style="enable-background:new 0 0 425.145 425.145;" xml:space="preserve">
<g>
	<path d="M251.373,306.18c-0.133-0.751-0.044-1.449-0.289-2.224c-12.557-39.398-64.761-30.852-88.555-7.565
		c-34.511,33.776-6.283,91.861,40.967,88.028C240.597,381.409,267.059,337.624,251.373,306.18z"/>
	<path d="M357.206,254.582c-26.376-58-86.14-87.455-148.481-84.347c-55.703,2.776-123.986,28.584-136.325,89.1
		c-4.957,24.297,30.403,43.135,42.582,17.953c32.833-67.89,137.378-69.447,182.468-15.281c0.293,5.174,2.201,10.283,6.268,14.422
		l10.851,11.049C337.461,310.775,369.377,281.35,357.206,254.582z"/>
	<path d="M421.069,151.172C337.148,24.861,72.749-15.236,1.754,148.899c-7.01,16.201,8.089,36.405,25.879,25.88
		c58.193-34.425,98.775-76.786,171.51-79.542c76.198-2.885,130.728,35.594,182.814,86.111
		C401.636,200.434,437.185,175.436,421.069,151.172z"/>
</g>
<g>
</g>
<g>
</g>
<g>
</g>
<g>
</g>
<g>
</g>
<g>
</g>
<g>
</g>
<g>
</g>
<g>
</g>
<g>
</g>
<g>
</g>
<g>
</g>
<g>
</g>
<g>
</g>
<g>
</g>
</svg>
