<?xml version="1.0" encoding="iso-8859-1"?>
<!-- Generator: Adobe Illustrator 19.0.0, SVG Export Plug-In . SVG Version: 6.00 Build 0)  -->
<svg version="1.1" id="Capa_1" xmlns="http://www.w3.org/2000/svg" xmlns:xlink="http://www.w3.org/1999/xlink" x="0px" y="0px"
	 viewBox="0 0 419.7 419.7" style="enable-background:new 0 0 419.7 419.7;" xml:space="preserve">
<g>
	<path d="M235.999,198.261c-8.292-9.744-18.676-11.184-28.78-8.495c-0.569-0.183-1.095-0.428-1.731-0.512
		c-18.383-2.403-31.545,16.802-27.294,33.766c2.171,8.653,8.367,15.18,16.024,19.051c-3.786,18.259,0.186,39.401,0.711,57.781
		c0.991,34.63-2.822,74.925,8.871,107.743c3.293,9.238,17.73,10.786,20.342,0c8.225-33.957,1.081-72.994-0.117-107.743
		c-0.612-17.773,2.185-38.396-1.647-56.204C239.369,236.661,248.765,213.258,235.999,198.261z"/>
	<path d="M201.694,128.482c-62.3,6.355-103.612,74.843-61.382,126.927c11.572,14.272,31.329-5.958,20.103-20.102
		c-31.446-39.621,18.122-81.231,57.446-78.118c30.851,2.441,74.235,45.144,49.73,77.664c0.167-0.044,0.333-0.087,0.5-0.131
		c-1.163,1.943-1.958,4.108-2.242,6.252c-0.028,0.21-0.053,0.416-0.081,0.627c-0.69,5.223,4.611,12.056,9.816,12.892
		c0.553,0.091,1.106,0.178,1.66,0.268c8.379,1.346,14.659-2.131,17.79-10.102C319.456,182.498,265.421,121.978,201.694,128.482z"/>
	<path d="M331.038,115.387c-30.925-52.976-83.847-64.376-141.497-56.708C69.667,74.624,20.766,212.059,100.842,302.888
		c9.703,11.005,28.3-3.339,20.354-15.706C66.85,202.626,91.212,95.465,203.32,86.295c121.302-9.923,132.805,106.467,108.201,195.264
		c-3.796,13.697,15.424,21.622,22.747,9.59C365.569,239.722,360.972,166.664,331.038,115.387z"/>
	<path d="M198.608,5.757C31.491,22.471-70.919,223.333,58.546,351.425c9.731,9.63,28.219-3.314,19.634-15.148
		C-10.137,214.513,39.295,52.433,200.723,35.546c165.375-17.301,238.833,167.659,153.87,294.578
		c-10.453,15.612,14.756,30.205,25.138,14.694C478.119,197.848,386.218-13.007,198.608,5.757z"/>
</g>
<g>
</g>
<g>
</g>
<g>
</g>
<g>
</g>
<g>
</g>
<g>
</g>
<g>
</g>
<g>
</g>
<g>
</g>
<g>
</g>
<g>
</g>
<g>
</g>
<g>
</g>
<g>
</g>
<g>
</g>
</svg>
