<?xml version="1.0" encoding="iso-8859-1"?>
<!-- Generator: Adobe Illustrator 19.0.0, SVG Export Plug-In . SVG Version: 6.00 Build 0)  -->
<svg version="1.1" id="Capa_1" xmlns="http://www.w3.org/2000/svg" xmlns:xlink="http://www.w3.org/1999/xlink" x="0px" y="0px"
	 viewBox="0 0 408.634 408.634" style="enable-background:new 0 0 408.634 408.634;" xml:space="preserve">
<g>
	<path d="M318.041,107.876c-20.156-11.383-34.72-33.183-15.668-54.552c3.803-4.263,1.563-12.855-5.102-12.317
		c-20.477,1.66-37.63-7.474-47.234-24.741c1.963-5.347-4.644-12.613-10.034-8.469c-17.616,13.541-41.043,14.978-55.154-4.597
		c-3.911-5.427-12.649-3.747-12.88,3.489c-0.769,23.866-21.797,37.941-44.215,27.019c-3.941-1.92-7.192,1.328-6.902,4.601
		c-2.306,1.294-4.03,3.857-3.372,6.839c5.459,24.703-12.044,38.796-34.049,44.195c-5.527,1.356-6.971,9.918-1.643,12.572
		c7.467,3.72,15.509,12.452,19.525,21.878c0.676,7.462,0.073,15.044-1.883,23.435c-1.793,1.977-4.175,3.736-7.234,5.192
		c-4.149,1.977-1.116,7.381,2.743,6.993c-0.668,0.134-1.301,0.069-1.977,0.248c-5.198,1.365-4.749,8.526,0,10.098
		c18.584,6.151,33.91,14.436,32.37,37.259c-0.328,4.87,5.324,9.232,9.953,7.583c21.176-7.545,39.457,0.485,53.575,16.784
		c2.453,2.827,6.931,0.684,7.465-2.553c4.226,8.791,14.014,0.15,19.575-3.306c11.633-7.231,25.02-8.589,38.434-8.109
		c1.736,0.065,2.868-0.962,3.612-2.228c2.966-0.319,5.597-2.396,5.301-6.146c-1.586-20.192,9.403-29.23,28.099-31.315
		c5.693-0.635,11.644,0.187,15.178-5.861c3.253-5.565-0.128-11.49-1.196-17.016c-2.467-12.767,0.791-24.93,6.592-36.11
		c0.477,0.128,0.844,0.37,1.333,0.486C319.95,120.802,324.352,111.439,318.041,107.876z"/>
	<path d="M387.857,308.708c-11.208-18.823-26.996-35.378-40.93-52.247c-15.358-18.593-30.644-37.634-47.644-54.751
		c-3.125-3.148-8.142-0.955-9.261,2.506c-0.806,0.143-1.627,0.348-2.466,0.84c-8.848,5.178-14.388,13.866-15.24,23.52
		c-11.804-4.503-29.636-2.273-38.363,0.877c-6.7,2.421-28.012,16.784-19.906,24.406c-0.496,1.048-0.546,2.321,0.307,3.713
		c22.609,36.887,46.637,73.045,71.342,108.568c0.192,6.046,9.287,8.335,12.36,2.781c0.022,0.051,0.043,0.105,0.065,0.158
		c5.226-10.655,9.137-21.967,12.474-33.347c2.417-8.239,5.549-17.151,6.611-25.958c21.014,2.846,42.195,10.037,63.393,8.159
		c0.49-0.044,0.722-0.371,1.15-0.496C386.203,317.989,390.734,313.54,387.857,308.708z"/>
	<path d="M195.276,254.575c-0.253-1.23-0.753-2.467-1.882-3.627c-17.335-17.766-43.956-22.731-66.469-13.483
		c-2.998-6.274-9.251-12.271-13.611-14.394c-1.925-0.936-3.708-0.553-4.97,0.449c-2.403-0.624-5.045,0.053-6.615,2.939
		c-24.539,45.065-63.391,81.421-81.57,129.995c-0.719,1.92,0,3.533,1.288,4.552c0.958,2.526,3.433,4.461,6.549,3.437
		c23.597-7.757,47.167-17.577,69.812-28.126c-0.508,21.029,0.762,45.149,8.269,62.735c0.646,1.519,1.984,2.239,3.467,2.62
		c0.381,6.278,9.018,10.156,13.105,3.447c28.083-46.124,55.427-95.33,73.794-146.204
		C197.13,257.012,196.478,255.506,195.276,254.575z"/>
</g>
<g>
</g>
<g>
</g>
<g>
</g>
<g>
</g>
<g>
</g>
<g>
</g>
<g>
</g>
<g>
</g>
<g>
</g>
<g>
</g>
<g>
</g>
<g>
</g>
<g>
</g>
<g>
</g>
<g>
</g>
</svg>
