<?xml version="1.0" encoding="iso-8859-1"?>
<!-- Generator: Adobe Illustrator 19.0.0, SVG Export Plug-In . SVG Version: 6.00 Build 0)  -->
<svg version="1.1" id="Capa_1" xmlns="http://www.w3.org/2000/svg" xmlns:xlink="http://www.w3.org/1999/xlink" x="0px" y="0px"
	 viewBox="0 0 424.193 424.193" style="enable-background:new 0 0 424.193 424.193;" xml:space="preserve">
<g>
	<path d="M368.909,202.493c-1.171-1.002-2.587-1.643-4.344-1.063c-47.533,15.713-56.249-40.44-66.261-97.123
		c-0.023-0.128-0.041-0.256-0.067-0.384C289.011,51.714,278.613-0.805,235.694,2.087c-1.018-0.857-2.257-1.523-3.904-1.638
		c-39.046-2.715-69.721,6.289-87.594,43.316c-10.068,20.861-16.376,44.14-20.58,66.788c-6.831,36.827-7.517,94.957-57.702,95.785
		c-1.22-0.377-2.564-0.508-3.745-0.958c-4.121-1.57-7.895,4.783-4.404,7.564c22.124,17.619,79.135,16.472,105.165-5.984
		c10.102,14.603,26.409,24.109,51.651,23.883c26.116-0.234,43.37-13.96,54.009-33.869c25.753,26.727,70.675,37.177,102.369,14.586
		C374.631,208.94,373.088,202.62,368.909,202.493z"/>
	<path d="M400.503,311.191c-0.145-3.357-2.329-5.332-4.875-6.036c0.174-1.698-0.29-3.405-1.886-4.699
		c-29.214-23.732-58.888-46.814-87.573-71.208c-4.681-3.982-11.46,2.57-6.833,6.835c2.839,2.617,5.776,5.154,8.626,7.766
		c13.309,13.714,20.37,30.498,24.307,48.878c-15.211-19.842-41.865-36.525-62.215-21.391
		c-16.236,12.075-29.131,37.198-38.148,54.659c-8.175,15.828-14.941,32.558-18.819,49.943
		c-16.303-43.303-39.7-89.206-79.647-113.075c-1.482-0.885-2.963-0.857-4.315-0.4c-7.408-0.012-15.855,6.324-21.039,10.564
		c-5.046,4.129-9.232,8.594-12.921,13.393c1.73-6.516,3.601-13.014,6.74-19.269c3.907-7.775,9.041-14.664,13.766-21.824
		c1.614-1.341,3.393-2.498,4.957-3.891c4.08-3.628-1.147-10.027-5.724-7.421c-0.446,0.255-0.85,0.594-1.296,0.852
		c-3.569,0.97-6.838,3.373-9.807,6.444c-13.283,8.683-26.1,18.278-38.902,27.503c-12.799,9.22-29.457,17.61-37.87,31.225
		c-0.813,1.312,0.002,2.431,1.15,3.064c-0.015,0.089-0.098,0.117-0.109,0.21c-4.44,36.291-5.194,72.591-6.611,109.109
		c-0.145,3.726,3.383,7.293,7.124,7.124c59.614-2.685,118.145,2.803,177.676,4.206c61.715,1.453,122.911-3.992,184.612,0.415
		c6.121,0.436,8.87-4.439,8.466-9.219C405.249,380.879,401.957,345.503,400.503,311.191z"/>
</g>
<g>
</g>
<g>
</g>
<g>
</g>
<g>
</g>
<g>
</g>
<g>
</g>
<g>
</g>
<g>
</g>
<g>
</g>
<g>
</g>
<g>
</g>
<g>
</g>
<g>
</g>
<g>
</g>
<g>
</g>
</svg>
