<?xml version="1.0" encoding="iso-8859-1"?>
<!-- Generator: Adobe Illustrator 19.0.0, SVG Export Plug-In . SVG Version: 6.00 Build 0)  -->
<svg version="1.1" id="Capa_1" xmlns="http://www.w3.org/2000/svg" xmlns:xlink="http://www.w3.org/1999/xlink" x="0px" y="0px"
	 viewBox="0 0 407.7 407.7" style="enable-background:new 0 0 407.7 407.7;" xml:space="preserve">
<path d="M377.724,18.353c-19.269-15.87-47.398-24.851-69.608-12.74c-0.833,0.139-1.68,0.456-2.522,1.076
	C254.11,44.715,207.559,90.355,160.77,133.945c-46.454,43.277-96.865,85.898-135.266,136.658c-1.493,1.974-0.767,4.451,0.822,6.092
	C15.316,313.821,4,356.141,1.91,395.026c-1.023,1.149-1.684,2.572-1.525,4.211c0.056,0.576,0.112,1.15,0.168,1.726
	c0.085,0.871,0.448,1.719,0.925,2.503c-0.003,0.113-0.017,0.232-0.018,0.345c-0.074,4.544,5.01,4.915,7.356,2.099
	c15.756,0.075,35.582-9.928,49.64-14.273c26.186-8.094,52.387-16.137,78.548-24.305c1.358-0.425,2.417-1.098,3.333-1.867
	c1.472,0.094,3.047-0.414,4.492-1.777c87.486-82.649,172.08-172.002,251.981-261.996c1.465-1.649,2.005-3.435,2.119-5.183
	c0.875-0.461,1.686-1.058,2.271-1.932C417.813,69.793,397.575,34.701,377.724,18.353z M165.125,153.3
	c47.965-45.203,99.599-87.233,146.036-133.935c5.71,4.895,11.32,9.91,16.951,14.9C244.736,112.184,153.337,193,87.238,285.589
	c-2.438-6.941-8.133-13.856-12.775-17.336c-6.616-4.96-14.727-7.165-22.719-6.764C91.46,227.786,127.31,188.937,165.125,153.3z
	 M126.289,351.875c-21.427,6.9-42.997,13.645-64.436,20.735c-7.333-12.932-18.698-25.272-34.538-25.157
	c5.655-24.178,9.967-48.913,13.678-71.834c9.057-2.81,18.836-2.168,25.997,5.02c5.088,5.107,5.002,14.223,10.106,18.632
	c-0.241,3.084,2.592,6.284,6.398,5.609c7.179-1.276,15.554,0.364,18.884,7.703c3.294,7.262-2.95,13.728,0.579,20.423
	c0.911,1.727,3.245,3.207,5.244,3.007c0.277-0.028,0.554-0.055,0.831-0.085c1.041-0.104,2.169-0.38,3.222-0.814
	c6.601,1.43,14.089,3.357,17.413,9.452c0.72,1.321,0.981,2.764,1.237,4.196C129.096,349.178,127.353,350.31,126.289,351.875z
	 M384.834,89.716C302.349,171.012,220.865,256.7,145.327,344.72c-1.792-11.094-12.079-16.669-22.792-19.361
	c82.395-83.298,166.722-167.277,245.149-254.419c6.264,6.34,12.76,12.498,19.868,16.999
	C386.624,88.31,385.708,88.856,384.834,89.716z"/>
<g>
</g>
<g>
</g>
<g>
</g>
<g>
</g>
<g>
</g>
<g>
</g>
<g>
</g>
<g>
</g>
<g>
</g>
<g>
</g>
<g>
</g>
<g>
</g>
<g>
</g>
<g>
</g>
<g>
</g>
</svg>
