<?xml version="1.0" encoding="iso-8859-1"?>
<!-- Generator: Adobe Illustrator 19.0.0, SVG Export Plug-In . SVG Version: 6.00 Build 0)  -->
<svg version="1.1" id="Capa_1" xmlns="http://www.w3.org/2000/svg" xmlns:xlink="http://www.w3.org/1999/xlink" x="0px" y="0px"
	 viewBox="0 0 422.494 422.494" style="enable-background:new 0 0 422.494 422.494;" xml:space="preserve">
<g>
	<path d="M351.954,54.593C331.706,22.273,300.047,7.049,265.737,3.89c-10.9-2.675-22.576-4.129-35.16-3.858
		C159.88,1.55,101.476,51.247,95.455,117.6c-0.057,0.335-0.086,0.662-0.137,0.996c-0.028,0.351-0.088,0.691-0.114,1.041
		c-7.219,49.512,13.34,92.96,46.877,122.267c-28.343,38.066-53.108,78.595-78.498,118.697c-13.565,21.424-31.22,39.626-4.121,54.996
		c28.329,16.068,35.246,2.031,52.104-21.267c27.986-38.673,58.741-79.79,79.36-123.349c48.103,17.744,105.258,12.213,150.054-29.488
		C389.553,196.275,385.248,107.735,351.954,54.593z M224.265,239.738c-0.622-1.275-1.553-2.337-3.116-2.591
		c-113.77-18.438-102.61-195.229,13.74-198.27C366.409,35.441,354.314,251.031,224.265,239.738z"/>
	<path d="M235.936,122.464c10.772-1.09,21.024-6.599,25.716-16.772c6.28-13.623,0.262-30.351-14.362-35.074
		c-4.977-1.608-10.338-1.802-15.397-0.859c-4.123,0.528-8.041,2.226-11.525,4.825c-0.257,0.192-0.482,0.413-0.73,0.614
		c-15.009,11.93-21.201,39.116,2.249,46.244c2.933,0.892,6.029,1.079,9.108,1.189c-25.336,3.253-41.078,29.373-41.107,53.913
		c-1.598,6.73-1.863,13.821-1.159,20.837c0.266,2.661,1.301,5.773,4.004,6.981c18.321,8.189,74.038,21.441,84.544-6.027
		c1.726-1.527,2.939-3.832,3.031-7.108C281.088,163.062,270.537,122.184,235.936,122.464z"/>
</g>
<g>
</g>
<g>
</g>
<g>
</g>
<g>
</g>
<g>
</g>
<g>
</g>
<g>
</g>
<g>
</g>
<g>
</g>
<g>
</g>
<g>
</g>
<g>
</g>
<g>
</g>
<g>
</g>
<g>
</g>
</svg>
