<?xml version="1.0" encoding="iso-8859-1"?>
<!-- Generator: Adobe Illustrator 19.0.0, SVG Export Plug-In . SVG Version: 6.00 Build 0)  -->
<svg version="1.1" id="Capa_1" xmlns="http://www.w3.org/2000/svg" xmlns:xlink="http://www.w3.org/1999/xlink" x="0px" y="0px"
	 viewBox="0 0 403.646 403.646" style="enable-background:new 0 0 403.646 403.646;" xml:space="preserve">
<path d="M329.88,24.726c-72.555-45.56-174.729-16.397-209.82,63.011c-18.134,41.044-11.485,94.014,14.105,131.806
	c-10.715,7.488-20.213,17.315-29.681,26.195c-20.774,19.482-41.376,39.141-61.931,58.851
	c-21.193,20.324-62.386,52.726-31.397,84.396c30.942,31.62,68.116-9.832,91.53-28.993c29.537-24.171,70.497-50.61,89.545-85.74
	c56.909,27.376,143.294,8.026,182.494-37.013C431.711,171.766,398.011,67.508,329.88,24.726z M357.526,178.985
	c-12.705,47.996-88.24,77.015-138.837,60.213c-0.694-0.614-1.173-1.3-2.02-1.859c-38.305-25.346-71.332-61.464-63.169-110.95
	c9.864-59.792,77.738-94.928,133.152-74.756C335.86,69.546,371.395,126.595,357.526,178.985z"/>
<g>
</g>
<g>
</g>
<g>
</g>
<g>
</g>
<g>
</g>
<g>
</g>
<g>
</g>
<g>
</g>
<g>
</g>
<g>
</g>
<g>
</g>
<g>
</g>
<g>
</g>
<g>
</g>
<g>
</g>
</svg>
